<?xml version="1.0" encoding="UTF-8" standalone="no"?>
<svg
   xmlns:dc="http://purl.org/dc/elements/1.1/"
   xmlns:cc="http://creativecommons.org/ns#"
   xmlns:rdf="http://www.w3.org/1999/02/22-rdf-syntax-ns#"
   xmlns:svg="http://www.w3.org/2000/svg"
   xmlns="http://www.w3.org/2000/svg"
   xmlns:sodipodi="http://sodipodi.sourceforge.net/DTD/sodipodi-0.dtd"
   xmlns:inkscape="http://www.inkscape.org/namespaces/inkscape"
   viewBox="0 0 64.009804 39.691798"
   width="64.009804"
   height="39.691799"
   version="1.1"
   id="svg616"
   sodipodi:docname="about.svg"
   inkscape:version="0.92.4 (5da689c313, 2019-01-14)">
  <metadata
     id="metadata622">
    <rdf:RDF>
      <cc:Work
         rdf:about="">
        <dc:format>image/svg+xml</dc:format>
        <dc:type
           rdf:resource="http://purl.org/dc/dcmitype/StillImage" />
        <dc:title></dc:title>
      </cc:Work>
    </rdf:RDF>
  </metadata>
  <defs
     id="defs620" />
  <sodipodi:namedview
     pagecolor="#ffffff"
     bordercolor="#666666"
     borderopacity="1"
     objecttolerance="10"
     gridtolerance="10"
     guidetolerance="10"
     inkscape:pageopacity="0"
     inkscape:pageshadow="2"
     inkscape:window-width="3840"
     inkscape:window-height="2126"
     id="namedview618"
     showgrid="false"
     inkscape:zoom="3.776"
     inkscape:cx="-32.767508"
     inkscape:cy="-62.266977"
     inkscape:window-x="-11"
     inkscape:window-y="-11"
     inkscape:window-maximized="1"
     inkscape:current-layer="svg616"
     fit-margin-top="0"
     fit-margin-left="0"
     fit-margin-right="0"
     fit-margin-bottom="0" />
  <g
     id="g518"
     transform="matrix(0.15,0,0,0.15,2.2023,5.6178)">
    <path
       style="fill:#000000"
       inkscape:connector-curvature="0"
       id="path484"
       d="m 1.591,-13.953 0.128,0.072 0.116,0.024 0.395,0.266 0.826,0.468 0.385,0.311 1.403,1.773 0.037,0.16 0.076,0.093 0.311,0.736 0.33,0.715 0.098,0.441 0.298,0.741 0.257,1.198 0.051,0.472 0.051,0.174 0.122,1.205 0.181,1.469 0.247,1.679 0.033,0.443 0.023,0.089 0.126,2.007 0.002,0.065 0.002,0.009 0.125,2.36 V 3.023 L 7.34,5.312 7.35,5.676 v 0.033 l -0.013,2.587 0.054,2.874 0.123,3.356 10e-4,0.021 v 10e-4 l 0.126,3.557 0.005,0.256 -0.001,0.023 -0.013,3.997 -10e-4,0.002 -0.004,0.232 -0.155,4.153 v 0.002 0.013 l -0.183,4.455 -0.139,4.656 -0.004,0.015 -0.005,0.169 -0.278,4.868 -0.208,4.857 -0.008,0.033 -0.011,0.256 -0.407,4.756 -0.204,4.963 -0.001,0.007 -0.002,0.055 -0.279,5.37 -0.207,5.126 -0.173,5.023 -0.002,0.007 -10e-4,0.063 -0.216,4.719 0.119,4.627 0.003,0.203 -0.003,0.226 -0.155,5.131 v 0.004 l -10e-4,0.041 -0.187,4.991 -0.003,0.011 -0.003,0.106 -0.275,5.023 -0.137,4.81 v 0 l -0.139,4.912 -0.069,4.854 -0.003,0.012 -0.008,0.292 -0.275,5.024 -0.135,4.679 -0.07,4.713 -0.003,0.014 -0.01,0.331 -0.266,4.397 v 4.39 l -0.003,0.225 -0.137,4.655 v 9.135 l -0.004,0.24 -0.138,4.435 -0.068,4.011 v 3.929 l -0.005,0.278 -0.141,3.868 v 0.001 0.001 l -0.141,3.659 -0.007,0.031 -0.011,0.271 -0.256,3.203 v 2.789 l 0.102,3.144 0.12,2.951 v 0.003 l 0.124,2.678 10e-4,0.017 v 0.001 l 0.125,2.709 0.01,0.395 -0.002,0.158 -0.046,2.392 -0.004,0.018 -0.01,0.324 -0.125,1.992 v 7.38 l -0.022,0.603 -0.118,1.595 v 1.306 l -0.045,0.854 -0.113,1.082 -0.052,1.25 v 2.42 l -0.063,1.012 -0.145,1.163 -0.017,0.054 -0.01,0.133 -0.045,0.297 v 2.106 0 l -0.281,2.002 v 0.241 l -0.05,0.901 -0.02,0.183 v 0.808 l -0.334,1.734 -0.12,0.859 -0.155,0.548 -0.104,0.219 -0.031,0.077 -0.006,0.01 -0.172,0.852 -1.749,2.595 -2.595,1.75 -3.178,0.641 -3.178,-0.641 -2.595,-1.75 -1.75,-2.595 -0.642,-3.178 v -0.28 l 0.281,-2.002 v -0.101 l 0.05,-0.901 0.02,-0.183 v -0.808 l 0.28,-2.001 v -1.713 l 0.095,-1.241 0.126,-0.826 0.059,-0.477 v -2.081 l 0.008,-0.34 0.07,-1.699 0.014,-0.058 0.023,-0.44 0.096,-0.909 v -1.179 l 0.022,-0.603 0.118,-1.595 v -7.333 l 0.016,-0.509 0.134,-2.159 0.091,-2.293 10e-4,-0.005 0.001,-0.036 0.126,-2.745 10e-4,-0.001 0.125,-2.712 0.12,-2.942 0.101,-3.123 v -3.097 l 0.024,-0.611 0.268,-3.354 0.134,-3.492 v 0 l 0.134,-3.687 v -3.853 l 10e-4,-0.13 0.071,-4.141 10e-4,-0.005 10e-4,-0.098 0.137,-4.367 v -9.129 l 0.003,-0.225 0.137,-4.655 v -4.511 l 0.014,-0.463 0.269,-4.455 0.068,-4.591 10e-4,-0.004 0.001,-0.099 0.141,-4.847 0.003,-0.014 0.005,-0.172 0.272,-4.965 0.067,-4.752 10e-4,-0.004 0.002,-0.096 0.14,-4.987 v 0 l 0.14,-4.909 0.004,-0.014 0.004,-0.175 0.28,-5.111 0.232,-4.937 0.007,-0.029 0.008,-0.201 0.391,-4.911 0.121,-4.704 0.009,-0.039 0.021,-0.461 0.468,-4.923 0.371,-4.826 0.205,-5.063 10e-4,-0.007 0.002,-0.06 0.279,-5.372 0.208,-5.077 0.009,-0.033 0.011,-0.269 0.408,-4.762 0.204,-4.76 0.002,-0.01 0.002,-0.076 0.275,-4.816 0.138,-4.602 0.002,-0.012 0.004,-0.139 0.237,-4.502 0.01,-0.043 0.013,-0.263 0.397,-4.027 0.251,-3.762 0.122,-3.466 v 0 l 0.127,-3.439 0.004,-0.017 0.005,-0.159 0.197,-3.025 0.009,-0.034 0.009,-0.171 0.252,-2.516 0.118,-2.169 h 10e-4 l 0.125,-2.365 0.002,-0.006 10e-4,-0.034 0.113,-1.818 -0.012,-1.61 -10e-4,-0.046 0.004,-0.205 0.056,-1.618 0.009,-0.037 0.017,-0.327 0.094,-0.94 -0.006,-0.521 -0.081,-0.483 -0.028,-0.329 -0.027,-0.095 -0.046,-0.493 -0.185,-1.259 0.399,-1.976 1.088,-1.613 1.613,-1.088 1.976,-0.399 z"
       fill-mode="evenodd" />
    <g
       id="g488"
       transform="translate(-1.625,-5.1875)">
      <path
         style="fill:#000000"
         inkscape:connector-curvature="0"
         id="path486"
         d="m 1.766,-8.053 0.519,0.028 0.072,0.019 0.377,0.026 0.472,0.065 0.433,0.145 0.565,0.092 0.53,0.275 0.409,0.137 0.262,0.211 0.363,0.188 0.445,0.325 0.374,0.439 0.114,0.092 0.085,0.142 0.029,0.034 0.671,0.579 0.441,0.61 0.239,0.465 0.164,0.17 0.375,0.679 0.038,0.147 0.165,0.251 0.278,0.596 0.335,0.51 0.174,0.37 0.122,0.129 0.515,0.957 10e-4,0.004 0.7,1.265 0.084,0.321 0.376,0.693 0.517,1.446 0.601,1.308 0.02,0.091 0.068,0.112 0.8,1.867 0.055,0.268 0.172,0.332 0.736,2.223 0.005,0.032 0.01,0.018 0.735,2.222 0.005,0.031 0.009,0.017 0.876,2.641 0.005,0.033 0.01,0.018 0.928,2.8 1.084,2.876 0.021,0.116 0.06,0.111 1.129,3.231 0.021,0.126 0.056,0.11 1.176,3.66 0.033,0.208 0.079,0.171 1.016,3.721 1.252,3.881 0.008,0.05 0.017,0.034 1.387,4.361 0.035,0.227 0.084,0.185 1.249,4.712 0.001,0.01 1.294,4.555 0.02,0.139 0.042,0.097 1.25,4.852 0.002,0.014 1.341,4.997 0.002,0.013 1.356,4.852 0.009,0.066 0.018,0.039 1.37,5.026 0.005,0.038 0.009,0.018 1.369,5.025 0.008,0.054 0.013,0.029 1.341,4.982 0.016,0.12 0.033,0.076 1.249,4.989 0.002,0.015 1.381,5.309 0.005,0.037 0.007,0.016 1.318,5.058 0.009,0.069 0.017,0.038 1.19,4.687 1.486,4.388 v 0.002 l 1.606,4.342 0.021,0.12 0.06,0.113 1.568,4.562 1.721,4.362 0.022,0.114 0.064,0.116 1.733,4.709 0.002,0.012 1.722,4.539 0.006,0.033 0.013,0.023 1.733,4.569 0.006,0.033 0.013,0.023 1.721,4.537 1.935,4.599 0.055,0.274 0.172,0.327 1.595,4.708 0.002,0.013 1.552,4.448 1.737,4.299 1.766,3.998 0.032,0.149 0.105,0.181 1.631,4.079 1.625,3.706 0.033,0.155 0.108,0.186 1.613,4.068 0.016,0.08 0.044,0.078 1.451,3.795 0.03,0.158 0.084,0.157 1.209,3.489 1.29,3.218 0.009,0.047 0.023,0.04 1.311,3.305 0.001,0.008 1.196,2.85 0.011,0.058 0.034,0.056 1.053,2.562 0.99,2.101 0.04,0.175 0.141,0.234 1.03,2.466 0.001,0.008 0.92,2.096 0.021,0.1 0.069,0.115 0.819,1.975 0.032,0.155 0.096,0.173 0.477,1.266 0.539,1.075 0.264,0.713 0.187,0.35 0.472,1.341 0.004,0.026 0.007,0.013 0.402,1.131 0.019,0.109 0.049,0.095 0.332,0.99 0.069,0.417 0.723,1.395 0.002,0.015 0.187,0.556 0.1,0.6 0.195,0.502 0.006,0.029 0.052,0.141 0.41,0.608 0.222,1.1 0.005,0.014 0.003,0.027 0.452,2.234 v 0 0.771 l -0.682,3.375 -1.858,2.755 -2.756,1.858 -3.374,0.682 -3.375,-0.682 -2.756,-1.858 -1.858,-2.755 -0.193,-0.956 -0.017,-0.025 -0.008,-0.042 -0.299,-0.685 -0.28,-0.537 -0.122,-0.36 -0.037,-0.226 -0.092,-0.195 -0.125,-0.429 -0.018,-0.124 -0.244,-0.606 -0.555,-1.073 -0.082,-0.509 -0.169,-0.417 -0.11,-0.51 -0.18,-0.536 -0.001,-0.01 -0.369,-1.038 -0.008,-0.048 -0.018,-0.034 -0.312,-0.887 -0.498,-0.994 -0.212,-0.571 -0.174,-0.311 -0.602,-1.597 -0.742,-1.789 -10e-4,-0.007 -0.911,-2.078 -0.02,-0.092 -0.062,-0.103 -0.993,-2.379 -0.999,-2.118 -0.044,-0.192 -0.155,-0.261 -1.1,-2.676 -0.002,-0.011 -1.235,-2.945 -0.021,-0.103 -0.065,-0.111 -1.311,-3.306 -0.003,-0.02 -0.006,-0.009 -1.38,-3.446 -0.042,-0.211 -0.122,-0.231 -1.24,-3.575 -1.38,-3.607 -0.005,-0.029 -0.01,-0.017 -1.57,-4.085 -0.015,-0.081 -0.042,-0.076 -1.474,-3.98 -0.028,-0.156 -0.079,-0.151 -1.387,-4.135 -1.542,-4.062 -0.022,-0.115 -0.06,-0.111 -1.633,-4.604 -0.01,-0.055 -0.023,-0.042 -1.594,-4.568 -0.012,-0.071 -0.03,-0.057 -1.527,-4.511 -1.889,-4.489 -0.031,-0.152 -0.098,-0.173 -1.733,-4.569 -0.006,-0.033 -0.013,-0.023 -1.733,-4.569 -0.006,-0.033 -0.013,-0.023 -1.733,-4.57 -0.013,-0.069 -0.034,-0.061 -1.733,-4.709 -0.001,-0.006 -1.753,-4.446 -0.037,-0.192 -0.109,-0.204 -1.594,-4.638 -10e-4,-0.006 -1.617,-4.373 -0.025,-0.138 -0.068,-0.13 -1.595,-4.708 -0.059,-0.354 -0.138,-0.313 -1.249,-4.919 -0.002,-0.016 -1.316,-5.05 -0.006,-0.041 -0.008,-0.02 -1.389,-5.339 -0.011,-0.082 -0.02,-0.047 -1.249,-4.989 -0.002,-0.015 -1.289,-4.969 -0.028,-0.209 -0.053,-0.131 -1.128,-5.089 -0.004,-0.039 -0.006,-0.015 -1.128,-5.09 -0.002,-0.015 -1.128,-4.937 -0.006,-0.052 -0.01,-0.022 -1.144,-5.074 -1.208,-4.693 -0.001,-0.004 -1.28,-4.508 L 10.99,49.197 10.957,49.123 9.733,44.506 8.413,40.354 8.41,40.335 8.408,40.33 7.092,36.25 7.058,36.038 6.977,35.863 5.959,32.137 4.846,28.673 4.844,28.661 3.775,25.446 3.746,25.271 3.675,25.123 2.758,21.987 2.725,21.76 2.654,21.595 1.947,18.673 1.939,18.608 1.925,18.574 1.287,15.862 1.274,15.752 1.25,15.693 0.752,13.401 0.748,13.366 0.743,13.353 0.283,11.235 -0.213,9.532 -0.215,9.52 -0.711,7.853 -0.762,7.503 -0.863,7.25 -1.139,5.915 -1.483,4.948 -1.527,4.695 -1.637,4.457 -1.873,3.607 -2.14,2.874 -2.175,2.679 -2.361,2.562 -2.406,2.502 -2.463,2.463 -2.712,2.094 -3.12,1.552 -3.15,1.446 -3.21,1.356 -3.303,0.894 -3.472,0.289 l -0.039,-0.468 -0.013,-0.312 0.036,-0.39 -0.13,-0.271 -0.036,-0.237 -0.044,-0.22 -0.083,-0.229 -0.027,-0.152 -0.024,-0.281 -0.15,-0.742 0.379,-1.878 0.404,-0.598 0.093,-0.297 0.222,-0.171 0.315,-0.467 1.533,-1.033 0.139,-0.028 0.069,-0.053 0.159,-0.06 0.067,-0.045 2.074,-0.418 z"
         fill-mode="evenodd" />
    </g>
    <g
       id="g492"
       transform="translate(-5.625,116.125)">
      <path
         style="fill:#000000"
         inkscape:connector-curvature="0"
         id="path490"
         d="m 34.6,-11.777 2.274,1.533 1.533,2.274 0.562,2.784 -0.434,2.458 -0.096,0.169 -0.032,0.157 -0.391,0.579 -0.678,1.184 -0.288,0.25 -0.176,0.261 -0.564,0.38 -0.78,0.677 -0.528,0.205 -0.402,0.271 -0.326,0.066 -0.254,0.16 -0.586,0.262 -0.335,0.072 -0.024,0.011 -0.069,0.009 -0.221,0.048 -1.021,0.38 -0.169,0.03 -0.158,0.059 -0.506,0.09 -0.49,0.198 -0.933,0.201 -1.547,0.168 H 27.789 L 27.362,3.239 27.231,3.252 27.175,3.272 26.001,3.468 24.785,3.713 24.75,3.716 24.739,3.72 23.437,3.982 22.169,4.285 21.705,4.341 21.475,4.418 20.053,4.622 18.724,4.844 17.276,5.193 16.475,5.29 16.177,5.374 14.593,5.512 13.946,5.541 H 13.841 L 12.32,5.518 11.153,5.531 h -0.008 v 0 L 9.816,5.545 H 9.741 L 9.121,5.517 8.234,5.437 7.351,5.49 v 0 L 6.222,5.569 5.84,5.583 5.826,5.586 4.708,5.6 H 4.625 L 3.859,5.554 2.793,5.425 2.749,5.411 2.635,5.403 2.358,5.361 2.125,5.392 1.331,5.445 1.102,5.416 0,5.638 -2.195,5.195 -3.987,3.987 -5.195,2.195 -5.638,0 l 0.443,-2.195 0.232,-0.345 0.071,-0.265 0.347,-0.354 0.558,-0.828 0.312,-0.21 0.439,-0.296 0.335,-0.342 0.205,-0.123 0.264,-0.183 0.055,-0.026 0.04,-0.038 0.373,-0.166 1.061,-0.523 0.173,-0.027 0.138,-0.061 0.006,-0.002 0.539,-0.292 L 0.639,-6.522 1.265,-6.631 1.814,-6.82 2.6,-6.94 2.769,-6.953 2.823,-6.97 3.492,-7.052 4.113,-7.202 5.065,-7.477 5.246,-7.503 5.375,-7.558 6.7,-7.881 7.443,-7.972 7.731,-8.054 8.746,-8.146 9.64,-8.328 l 0.012,-0.001 1.146,-0.246 1.333,-0.144 0.098,-0.021 1.353,-0.02 0.823,-0.072 1.186,-0.286 0.353,-0.042 0.189,-0.068 1.64,-0.275 0.151,-0.012 0.056,-0.019 1.15,-0.165 1.099,-0.263 0.194,-0.023 0.109,-0.043 1.355,-0.272 0.035,-0.003 0.011,-0.005 1.356,-0.272 0.187,-0.019 0.086,-0.031 1.219,-0.204 h 0.003 l 0.973,-0.184 1.336,-0.127 0.126,-0.046 0.624,-0.112 0.308,-0.114 0.014,-0.007 0.007,-0.001 0.169,-0.063 1.165,-0.509 0.334,-0.046 0.223,-0.087 0.304,-0.062 1.449,-0.147 z"
         fill-mode="evenodd" />
    </g>
    <g
       id="g496"
       transform="translate(75,-15.5)">
      <path
         style="fill:#000000"
         inkscape:connector-curvature="0"
         id="path494"
         d="m 1.776,-5.108 0.086,0.034 10e-4,10e-4 h 0.001 l 0.189,0.075 0.017,0.015 0.032,0.006 1.717,1.158 0.379,0.561 0.266,0.216 0.31,0.638 0.203,0.302 0.041,0.201 0.137,0.282 L 5.401,0 5.155,1.619 5.018,1.901 4.977,2.102 4.774,2.404 4.464,3.042 4.201,3.254 3.86,3.76 3.933,4.633 3.936,4.708 3.94,4.721 l 0.11,1.501 0.007,0.182 0.006,0.022 0.076,1.668 0.105,1.491 0.28,1.736 0.026,0.317 0.029,0.098 0.257,2.414 0.273,1.979 0.594,2.528 0.052,0.435 0.074,0.218 0.46,3.1 0.572,3.097 0.751,3.43 0.034,0.302 0.052,0.149 0.612,3.734 0.798,3.915 0.003,0.024 10e-4,0.005 0.903,4.365 0.008,0.084 0.015,0.037 0.932,4.737 1.053,4.597 0.002,0.015 v 10e-4 l 1.163,4.962 0.017,0.145 0.032,0.079 1.095,5.177 0.011,0.099 0.018,0.046 0.995,4.989 0.009,0.087 0.014,0.037 1.043,5.485 0.002,0.025 0.002,0.004 1.113,5.765 0.002,0.028 0.003,0.006 1.112,5.694 0.005,0.052 0.008,0.018 1.112,5.765 0.013,0.132 0.021,0.058 0.974,5.557 10e-4,0.01 1.097,5.754 0.002,0.015 1.108,5.606 0.002,0.015 1.107,5.392 0.003,0.027 0.003,0.006 1.106,5.319 1.21,5.032 0.003,0.026 0.003,0.006 1.249,5.13 0.001,0.009 1.29,4.882 0.002,0.011 1.363,4.833 0.002,0.014 1.373,4.662 0.015,0.097 0.031,0.067 1.289,4.605 1.449,4.343 0.044,0.263 0.105,0.228 1.247,4.568 0.017,0.12 0.034,0.078 1.141,4.488 1.304,4.102 0.039,0.252 0.092,0.205 1.109,4.217 0.014,0.113 0.03,0.068 0.96,3.901 0.985,3.475 0.023,0.157 0.048,0.11 0.968,3.797 0.024,0.186 0.047,0.114 0.797,3.581 0.827,2.92 0.022,0.151 0.046,0.103 0.758,2.957 0.004,0.037 0.007,0.015 0.619,2.408 0.732,2.084 0.037,0.214 0.096,0.196 0.732,2.429 0.021,0.135 0.045,0.098 0.453,1.626 0.476,1.082 0.164,0.772 0.436,1.153 0.218,1.147 0.313,1.023 0.399,1.135 0.146,0.847 0.254,0.725 0.035,0.224 0.023,0.051 0.116,0.547 0.34,0.749 0.13,0.485 0.105,0.25 0.017,0.084 0.051,0.088 0.4,0.993 0.152,0.777 0.34,0.903 0.166,0.879 0.113,0.449 0.186,0.517 0.054,0.304 0.137,0.29 0.265,0.92 0.076,0.536 0.133,0.356 0.066,0.357 0.278,0.752 0.121,0.263 0.066,0.238 0.029,0.07 0.256,0.493 0.192,0.57 0.007,0.039 0.012,0.022 0.122,0.36 0.463,2.802 -0.682,3.375 -1.858,2.756 -2.756,1.858 -3.374,0.681 -2.725,-0.437 -0.363,-0.186 -0.287,-0.058 -0.556,-0.375 -1.163,-0.598 -0.591,-0.585 -0.446,-0.3 -0.286,-0.425 -0.551,-0.547 -0.616,-1.184 -0.405,-0.6 -0.058,-0.291 -0.178,-0.342 -0.122,-0.36 -0.006,-0.038 -0.012,-0.023 -0.119,-0.351 -0.512,-1.225 -0.002,-0.016 -0.073,-0.263 -0.294,-0.794 -0.121,-0.264 -0.195,-0.71 -0.067,-0.484 -0.114,-0.307 -0.064,-0.348 -0.091,-0.317 -0.231,-0.643 -0.079,-0.446 -0.186,-0.427 -0.268,-1.061 -0.045,-0.357 -0.078,-0.208 -0.053,-0.281 -0.085,-0.212 -0.002,-0.009 -0.301,-0.718 -0.105,-0.518 -0.291,-0.64 -0.111,-0.412 -0.204,-0.464 -0.181,-0.856 -0.462,-1.322 -0.088,-0.554 -0.213,-0.606 -0.036,-0.21 -0.094,-0.191 -0.474,-1.55 -0.11,-0.726 -0.174,-0.498 -0.177,-1.105 -0.351,-1.225 -0.09,-0.633 -0.142,-0.403 -0.346,-2.133 -0.432,-2.15 -0.588,-2.24 -0.008,-0.063 -0.016,-0.034 -0.688,-2.676 -0.005,-0.043 -0.009,-0.019 -0.758,-2.956 v -0.004 l -0.856,-3.022 -0.042,-0.299 -0.086,-0.208 -0.826,-3.71 -0.925,-3.629 -0.001,-0.002 -0.993,-3.502 -0.027,-0.196 -0.06,-0.137 -0.969,-3.938 -0.001,-0.012 -1.058,-4.026 -1.312,-4.128 -0.046,-0.287 -0.103,-0.233 -1.178,-4.639 -0.002,-0.01 -1.186,-4.342 -1.443,-4.323 -0.039,-0.238 -0.096,-0.205 -1.317,-4.707 -0.002,-0.013 -1.368,-4.646 -0.013,-0.088 -0.028,-0.06 -1.387,-4.918 -0.016,-0.113 -0.034,-0.075 -1.319,-4.988 -0.017,-0.13 -0.035,-0.081 -1.249,-5.13 -0.007,-0.054 -0.011,-0.026 -1.25,-5.2 L 9.289,120.764 9.246,120.655 8.134,115.312 8.129,115.259 8.12,115.238 7.009,109.825 7,109.747 6.987,109.714 5.875,104.09 5.867,104.014 5.856,103.983 4.743,98.148 4.731,98.027 4.712,97.976 3.739,92.419 3.738,92.411 2.644,86.743 2.641,86.715 2.639,86.709 1.526,81.015 1.521,80.963 1.514,80.945 0.401,75.18 0.396,75.126 0.389,75.106 -0.654,69.621 -0.658,69.58 -0.663,69.568 -1.612,64.569 -1.63,64.384 -1.658,64.305 -2.508,59.076 V 59.071 L -3.407,54.167 -3.413,54.1 -3.422,54.075 -4.275,49.266 -4.291,49.095 -4.314,49.028 -5.022,44.361 -5.88,40.211 -5.885,40.16 -5.893,40.14 -6.725,36.055 -6.749,35.822 -6.787,35.716 -7.399,31.985 -8.1,28.558 -8.158,28.005 -8.22,27.8 -8.581,24.457 -8.596,24.187 -8.61,24.136 -8.815,21.184 -9.204,18.545 -9.261,17.788 -9.282,17.697 -9.365,15.252 -9.369,15.039 -9.37,15.036 -9.383,12.633 -9.462,10.659 -9.468,10.372 -9.451,9.891 -9.317,7.986 -9.3,7.922 -9.282,7.634 -9.06,5.868 l 0.091,-0.281 0.067,-0.52 0.394,-1.523 0.042,-0.091 0.015,-0.1 0.35,-1.166 0.209,-0.813 0.299,-0.664 0.084,-0.37 0.41,-0.855 0.25,-0.279 0.532,-0.789 0.507,-1.026 0.052,-0.109 0.003,-0.004 0.003,-0.005 1.136,-1.208 0.048,-0.027 0.037,-0.039 0.532,-0.284 0.869,-0.493 0.344,-0.132 0.198,-0.09 0.084,-0.019 0.08,-0.054 2.144,-0.433 z"
         fill-mode="evenodd" />
    </g>
    <g
       id="g500"
       transform="translate(98.75,119.6875)">
      <path
         style="fill:#000000"
         inkscape:connector-curvature="0"
         id="path498"
         d="m 49.998,-39.146 0.62,0.077 h 0.75 l 0.901,0.05 1.077,0.119 0.938,0.058 0.446,0.117 1.205,0.164 1.319,0.365 0.561,0.263 0.413,0.085 0.891,0.38 0.749,0.29 0.668,0.19 0.298,0.142 0.268,0.049 1.177,0.439 1.611,0.914 0.444,0.241 0.057,0.043 v 0 h 10e-4 l 0.744,0.573 0.882,0.629 0.044,0.051 0.085,0.045 0.862,0.646 0.021,0.024 0.038,0.021 0.466,0.358 0.538,0.307 0.094,0.072 0.095,0.042 0.945,0.581 1.281,1.04 0.179,0.12 0.585,0.585 0.788,0.728 0.829,0.76 0.419,0.58 0.478,0.389 0.369,0.469 0.437,0.403 0.556,0.775 0.04,0.035 0.146,0.1 0.101,0.115 0.257,0.223 0.245,0.343 0.168,0.19 1.027,0.847 0.588,0.765 0.32,0.377 0.546,0.504 0.441,0.615 0.487,0.402 0.278,0.361 0.406,0.374 0.2,0.279 0.275,0.199 0.766,0.835 0.167,0.266 0.195,0.156 0.391,0.489 0.578,0.63 0.139,0.222 0.167,0.131 0.487,0.596 0.495,0.539 0.715,0.715 0.166,0.247 0.928,1.111 0.255,0.395 0.01,0.011 0.391,0.346 0.085,0.115 0.133,0.086 0.718,0.685 0.029,0.042 0.064,0.049 1.221,1.561 0.111,0.116 0.301,0.463 0.533,0.549 0.501,1.036 0.427,0.656 0.075,0.384 0.106,0.219 0.059,0.1 0.323,0.751 0.286,0.495 0.293,0.742 0.311,0.67 0.017,0.078 0.059,0.093 0.239,0.538 0.724,0.855 0.576,0.88 0.119,0.252 0.182,0.239 0.489,0.858 0.106,0.254 0.133,0.194 0.538,1.072 0.103,0.279 0.108,0.173 0.469,1.066 0.165,0.779 0.435,1.153 0.061,0.324 0.178,0.456 0.1,0.524 0.252,0.574 0.179,0.712 0.186,0.517 0.022,0.124 0.057,0.111 0.403,1.2 0.126,0.766 0.219,0.611 0.175,1.046 0.15,0.672 0.222,0.704 0.148,0.954 0.197,0.618 0.094,0.748 0.12,0.556 0.048,0.446 0.068,0.202 0.067,0.467 0.134,0.497 0.091,0.686 0.128,0.382 0.135,0.934 0.039,0.538 0.032,0.118 0.045,0.626 0.059,0.384 0.09,0.444 0.044,0.432 0.058,0.179 0.135,1.006 0.081,1.191 v 7.358 0 l -0.087,1.226 -0.146,1.028 -0.235,0.697 -0.258,1.923 -0.08,0.296 -0.071,0.468 -0.127,0.891 -0.016,0.049 -0.009,0.103 -0.07,0.424 -0.043,0.647 -0.03,0.114 -0.036,0.508 -0.146,1.028 -0.017,0.049 -0.008,0.103 -0.148,0.893 -0.029,0.08 -0.014,0.143 -0.165,0.832 -0.11,0.773 -0.274,0.813 -0.155,0.877 -0.053,0.147 -0.023,0.118 -0.182,0.463 -0.085,0.523 -0.197,0.596 -0.249,0.815 -0.188,0.376 -0.327,0.89 -0.268,0.538 -0.217,0.492 -1.315,2.063 -0.047,0.042 -0.303,0.572 -0.095,0.127 -0.646,1.139 -0.154,0.146 -0.089,0.15 -0.43,0.502 -0.248,0.188 -0.195,0.289 -0.123,0.122 -0.159,0.224 -0.08,0.178 -0.628,0.969 -0.012,0.032 -0.158,0.275 -0.159,0.431 -0.443,0.891 -1.338,1.928 -0.178,0.148 -0.086,0.128 -0.63,0.63 -0.199,0.135 -0.132,0.179 -0.693,0.624 -0.326,0.202 -0.19,0.19 -0.09,0.106 -0.068,0.051 -0.729,0.73 -0.369,0.452 -0.866,0.68 -0.631,0.75 -0.515,0.387 -0.46,0.418 -0.305,0.191 -0.177,0.217 -0.963,0.757 -0.386,0.214 -0.528,0.417 -0.426,0.256 -0.413,0.355 -0.435,0.258 -1.342,0.923 -0.942,0.473 -0.9,0.55 -0.116,0.052 -0.098,0.075 -1.29,0.749 -0.475,0.2 -0.352,0.225 -1.348,0.609 -0.453,0.098 -0.634,0.312 -1.166,0.356 -0.971,0.418 -0.325,0.068 -0.404,0.21 -1.832,0.612 -0.249,0.042 -0.216,0.1 -1.69,0.476 -0.134,0.019 -0.089,0.04 -1.397,0.363 -1.065,0.418 -0.034,0.007 -0.025,0.014 -1.553,0.61 -0.653,0.125 -0.723,0.294 -0.872,0.19 -0.784,0.322 -0.603,0.121 -0.728,0.31 -0.853,0.204 -0.751,0.302 -0.137,0.027 -0.144,0.08 -1.271,0.47 -0.009,0.002 -1.109,0.433 -0.421,0.08 -0.459,0.214 -1.201,0.335 -0.015,0.003 -0.904,0.26 -1.459,0.208 -0.503,0.128 -0.926,0.051 -0.677,0.091 -0.09,0.006 -0.025,0.008 -1.078,0.136 -1.119,0.071 v 0 L 42.363,81.114 41.335,80.968 41.231,80.933 41.01,80.913 39.834,80.694 39.329,80.501 38.745,80.406 37.423,79.967 37.06,79.777 36.348,79.515 35.093,78.89 33.713,78.234 33.492,78.086 33.226,77.977 31.855,77.203 30.325,76.471 30.288,76.445 30.251,76.432 28.66,75.638 28.618,75.609 28.576,75.593 26.917,74.729 26.909,74.723 25.176,73.824 25.055,73.737 24.921,73.682 23.408,72.819 23.215,72.671 23.026,72.582 21.62,71.67 20.354,70.871 20.32,70.843 20.293,70.831 19.154,70.091 17.993,69.454 17.578,69.145 17.215,68.962 15.997,68.104 15.742,67.873 15.557,67.767 14.662,67.041 13.718,66.375 12.65,65.641 12.093,65.148 11.793,64.963 11.183,64.414 10.552,63.882 10.011,63.491 9.309,62.673 8.412,61.938 8.071,61.498 7.607,60.978 6.768,59.612 6.31,58.933 6.29,58.835 6.231,58.739 5.73,56.063 l 0.002,-0.12 -0.23,-1.141 0.52,-2.578 1.419,-2.105 2.105,-1.419 2.578,-0.52 1.098,0.091 0.735,0.123 0.589,0.213 0.617,0.109 0.546,0.313 0.3,0.109 0.37,0.058 0.167,0.018 0.707,0.215 0.995,0.162 1.258,0.421 0.01,0.005 0.893,0.298 0.806,0.425 1.286,0.631 1.15,0.79 0.033,0.029 0.027,0.014 1.218,0.859 0.255,0.23 0.185,0.106 0.895,0.726 0.554,0.391 1.021,0.56 0.252,0.188 0.25,0.117 1.406,0.913 1.267,0.799 0.033,0.028 0.028,0.012 1.202,0.781 1.121,0.639 1.624,0.843 0.009,0.007 1.572,0.818 1.425,0.711 1.655,0.793 0.211,0.142 0.252,0.104 1.358,0.766 1.239,0.588 0.048,0.032 0.05,0.018 0.711,0.355 0.118,0.039 0.045,0.008 0.855,-0.114 0.605,-0.042 0.106,-0.026 0.29,-0.016 0.065,-0.01 0.048,-0.022 0.85,-0.237 0.792,-0.31 0.103,-0.02 0.101,-0.055 1.271,-0.471 h 0.002 l 1.179,-0.474 0.589,-0.115 0.681,-0.29 0.819,-0.197 0.862,-0.353 0.676,-0.135 0.823,-0.334 0.937,-0.205 0.91,-0.358 0.034,-0.006 0.025,-0.014 1.553,-0.61 0.495,-0.095 0.547,-0.245 1.831,-0.476 0.01,-0.002 1.469,-0.413 1.333,-0.446 1.07,-0.46 0.416,-0.086 0.53,-0.261 1.088,-0.332 0.498,-0.225 0.891,-0.518 1.096,-0.67 0.37,-0.164 0.311,-0.214 0.307,-0.155 0.159,-0.135 0.419,-0.25 0.774,-0.612 0.587,-0.353 0.307,-0.241 0.531,-0.483 0.408,-0.255 0.229,-0.272 0.277,-0.208 0.009,-0.007 0.257,-0.381 0.771,-0.771 0.7,-0.7 0.581,-0.392 0.298,-0.354 1.123,-1.946 0.081,-0.077 0.058,-0.09 0.28,-0.585 0.44,-0.662 0.092,-0.107 0.047,-0.092 0.368,-0.516 0.002,-0.002 0.349,-0.489 0.453,-0.393 0.454,-0.673 0.03,-0.03 0.004,-0.017 0.224,-0.332 0.198,-0.374 0.094,-0.127 0.556,-0.978 0.048,-0.158 0.035,-0.07 0.01,-0.061 0.037,-0.113 0.046,-0.233 0.238,-0.604 0.016,-0.092 0.082,-0.573 0.047,-0.139 0.028,-0.288 0.188,-0.947 0.101,-0.612 0.075,-0.524 0.049,-0.745 0.043,-0.161 0.054,-0.661 0.13,-0.782 0.126,-0.888 0.005,-0.017 0.003,-0.028 0.146,-0.96 0.121,-0.347 0.006,-0.03 0.071,-0.537 0.066,-0.24 0.26,-1.477 V 24.266 L 83.316,24.059 83.241,23.691 83.211,23.387 83.164,23.253 83.03,22.391 82.983,21.781 82.945,21.641 82.897,20.967 82.873,20.801 82.74,20.305 82.648,19.619 82.52,19.236 82.421,18.549 82.285,17.922 82.224,17.36 82.149,17.123 82.106,16.779 82.003,16.453 81.936,16.023 81.798,15.686 81.529,14.483 81.491,14.141 81.429,13.969 81.331,13.382 81.144,12.824 81.143,12.817 80.855,12.016 80.776,11.57 80.589,11.143 80.44,10.551 80.169,9.858 80.023,9.091 79.708,8.255 79.681,8.112 79.662,8.07 79.236,7.22 79.231,7.206 78.795,6.355 78.543,5.684 78.35,5.333 78.235,5.019 78.112,4.807 77.262,2.798 77.247,2.687 77.217,2.617 77.152,2.364 77.038,2.203 76.734,1.879 76.682,1.798 76.58,1.711 75.243,-0.297 74.961,-0.884 74.633,-1.451 74.012,-2.924 73.597,-3.377 73.382,-3.719 72.742,-4.485 72.585,-4.729 72.365,-4.949 72.261,-5.103 72.12,-5.205 71.354,-6.04 71.215,-6.262 71.048,-6.393 70.561,-6.988 69.952,-7.652 69.785,-7.918 69.59,-8.075 69.199,-8.563 68.846,-8.949 68.18,-9.563 l -0.441,-0.615 -0.487,-0.402 -0.278,-0.361 -0.406,-0.374 -0.305,-0.426 -0.384,-0.295 -0.762,-0.899 -0.107,-0.183 -0.028,-0.032 -0.113,-0.093 -0.199,-0.259 -0.526,-0.592 -1.059,-0.923 -0.213,-0.298 -0.298,-0.275 -0.41,-0.571 -0.467,-0.379 -0.36,-0.458 -0.355,-0.325 -0.006,-0.008 -0.009,-0.006 -0.916,-0.846 -0.092,-0.128 -0.138,-0.093 -0.021,-0.021 -0.003,-0.002 -0.886,-0.505 -0.513,-0.393 -0.375,-0.203 -0.892,-0.686 -0.716,-0.537 -0.917,-0.654 -0.044,-0.05 -0.5,-0.142 -0.355,-0.17 -0.304,-0.057 -1.316,-0.51 -0.118,-0.068 -0.084,-0.018 -0.427,-0.182 -0.254,-0.015 -0.06,-0.016 -0.308,-0.017 -0.816,-0.091 h -0.806 v 0 l -1.012,-0.063 -0.188,-0.023 -0.362,0.038 -0.89,0.048 h -3.133 l -0.579,0.073 -1.054,0.068 h -4.226 l -0.111,0.018 -0.66,0.196 -0.61,0.089 -0.409,0.146 -1.059,0.178 -0.98,0.219 -0.148,0.017 -0.077,0.029 -1.349,0.272 h -0.005 l -0.882,0.197 -0.858,0.254 -0.104,0.015 -0.072,0.034 -1.204,0.336 -0.281,0.039 -0.191,0.079 -0.653,0.146 -0.338,0.132 -0.334,0.168 -0.687,0.455 -0.938,0.447 -0.698,0.395 -0.798,0.305 -0.614,0.307 -0.509,0.273 -0.593,0.429 -0.039,0.02 -0.018,0.021 -0.846,0.604 -0.82,0.645 h -0.001 l -0.684,0.548 -0.68,0.68 -0.463,0.312 -0.283,0.343 -0.517,0.398 -0.348,0.348 -0.159,0.107 -0.105,0.145 -0.765,0.695 -0.309,0.193 -1.152,0.853 -0.134,0.074 -0.227,0.198 -0.006,0.004 -0.003,0.004 -0.845,0.738 h -10e-4 l -0.832,0.733 -0.385,0.233 -0.202,0.233 -0.214,0.152 -0.238,0.344 -0.291,0.258 -0.302,0.481 -0.714,0.779 -0.67,0.768 -0.354,0.264 -0.265,0.359 -0.472,0.42 L 9.831,-5.037 9.745,-4.965 9.669,-4.831 8.926,-3.922 8.556,-3.63 8.253,-3.213 7.97,-2.956 7.668,-2.533 7.326,-2.236 6.984,-1.733 6.355,-1.11 5.713,-0.405 5.66,-0.367 5.621,-0.308 5.033,0.307 4.781,0.483 4.611,0.705 4.351,0.925 4.142,1.302 4.088,1.356 4.084,1.37 4.073,1.429 4.017,1.511 3.841,1.806 3.777,1.868 3.093,2.883 2.661,3.173 2.501,3.382 2.219,3.471 1.639,3.862 -0.14,4.222 -1.92,3.862 -2.058,3.769 -2.184,3.74 -2.463,3.601 -2.554,3.518 -2.678,3.485 -3.115,3.056 -3.373,2.883 -3.529,2.651 -3.583,2.598 -3.838,2.429 -3.999,2.196 -4.371,1.856 -4.382,1.815 -4.414,1.784 -4.618,1.446 -4.687,1.199 -4.931,0.846 l -0.424,-1.947 -0.01,-0.553 -10e-4,-0.098 10e-4,-0.083 0.008,-0.498 0.062,-0.286 0.228,-1.365 0.243,-0.71 0.279,-0.521 0.344,-0.707 0.022,-0.143 0.336,-1.097 0.012,-0.023 0.002,-0.016 0.215,-0.666 0.18,-0.872 0.082,-0.204 0.039,-0.275 0.652,-1.45 0.057,-0.142 0.014,-0.016 0.008,-0.018 0.396,-0.637 0.356,-0.724 0.481,-1.033 0.502,-0.76 0.265,-0.492 0.823,-1.074 0.035,-0.029 0.03,-0.053 0.691,-0.871 0.171,-0.137 0.146,-0.233 0.44,-0.48 0.369,-0.533 0.394,-0.349 0.414,-0.615 0.617,-0.616 0.259,-0.293 0.493,-0.67 0.001,-10e-4 0.653,-0.895 0.001,-0.001 0.668,-0.915 0.202,-0.172 0.437,-0.586 1.505,-1.216 0.223,-0.138 0.109,-0.099 0.571,-0.572 0.463,-0.312 0.283,-0.342 0.518,-0.399 0.628,-0.628 0.388,-0.262 0.244,-0.303 1.036,-0.83 0.044,-0.025 0.023,-0.028 0.966,-0.759 0.198,-0.109 0.098,-0.113 0.448,-0.32 0.443,-0.449 0.371,-0.252 0.238,-0.302 0.96,-0.784 0.03,-0.017 0.015,-0.02 0.887,-0.717 0.316,-0.179 0.449,-0.371 0.875,-0.555 0.89,-0.636 0.526,-0.268 0.589,-0.405 1.075,-0.539 0.287,-0.069 0.451,-0.259 1.207,-0.471 0.593,-0.113 0.65,-0.267 1.073,-0.24 0.978,-0.274 0.012,-10e-4 1.061,-0.314 0.341,-0.05 0.249,-0.103 1.207,-0.269 0.148,-0.017 0.076,-0.03 1.349,-0.271 h 0.005 l 1.085,-0.243 0.322,-0.036 0.161,-0.058 0.774,-0.129 0.66,-0.196 0.61,-0.089 0.409,-0.146 1.213,-0.204 1.391,-0.118 h 4.394 l 0.579,-0.073 1.053,-0.067 h 3.214 l 0.871,-0.092 0.891,-0.048 z"
         fill-mode="evenodd" />
    </g>
    <g
       id="g504"
       transform="translate(189.875,-20.5)">
      <path
         style="fill:#000000"
         inkscape:connector-curvature="0"
         id="path502"
         d="m -12.543,-16.901 1.02,0.123 1.188,0.124 0.075,0.023 0.219,0.017 0.996,0.153 0.88,0.308 0.64,0.129 0.923,0.389 0.493,0.303 0.516,0.247 0.759,0.505 0.839,0.516 0.023,0.024 0.049,0.023 1.006,0.646 0.404,0.433 0.715,0.526 0.482,0.539 0.625,0.576 0.552,0.767 0.358,0.352 0.186,0.311 0.282,0.319 0.291,0.476 0.209,0.205 0.403,0.672 0.049,0.176 0.12,0.132 0.396,0.79 0.072,0.3 0.303,0.816 0.073,0.405 0.052,0.176 0.146,0.262 0.08,0.306 0.155,0.198 0.201,0.536 0.239,1.295 v 0 0.135 L 3.594,-1.822 3.524,-1.113 3.459,-0.788 3.384,0.256 3.051,1.486 2.313,2.482 1.265,3.15 0,3.393 -1.265,3.15 -2.313,2.482 -3.051,1.486 -3.384,0.244 -3.459,-0.789 -3.463,-0.807 -3.502,-0.908 -3.678,-1.831 -3.773,-1.901 -4.161,-2.148 -4.324,-2.221 -4.901,-2.39 -5.246,-2.559 -5.481,-2.609 -5.919,-2.805 -6.695,-3.039 -6.785,-3.083 -6.869,-3.097 -7.294,-3.245 -7.78,-3.316 -8.71,-3.401 -8.715,-3.403 h -0.009 l -0.327,-0.032 -0.165,0.019 -0.787,0.123 -0.278,0.022 -0.084,0.025 -1.217,0.129 h -0.002 l -0.555,0.067 -0.649,0.158 -0.035,0.004 -0.014,0.006 -0.817,0.198 -0.208,0.069 -0.219,0.127 -0.24,0.101 -0.187,0.128 -0.672,0.338 -0.39,0.28 -1.029,0.857 -0.001,0.001 -0.983,0.828 -0.967,1.021 v 0 l -1.311,1.386 -1.116,1.25 -1.015,1.392 -0.041,0.035 -0.036,0.067 -1.186,1.563 -1.041,1.718 -0.131,0.162 -0.072,0.15 -1.35,1.99 -0.041,0.037 -0.039,0.076 -1.208,1.704 -0.879,1.705 -0.072,0.101 -0.046,0.112 -1.173,2.088 -0.916,1.836 -0.768,1.812 -0.614,1.797 -0.547,2.316 -10e-4,0.002 -0.535,2.385 -0.362,2.416 -0.323,2.659 -0.239,2.451 -0.061,2.612 v 2.679 l 0.061,2.565 0.248,2.66 0.327,2.802 0.357,2.434 0.509,2.258 0.735,2.505 0.831,2.487 0.002,0.01 0.663,1.874 0.792,1.63 0.943,1.623 0.876,1.265 1.096,1.326 0.001,0.001 1.028,1.234 0.729,0.662 1.058,0.736 1.43,0.914 1.18,0.666 0.99,0.474 0.981,0.313 1.309,0.326 0.894,0.132 h 3.159 l 1.699,-0.213 h 0.007 l 1.879,-0.262 1.842,-0.528 0.245,-0.035 0.174,-0.074 2.607,-0.619 0.016,-0.002 2.066,-0.504 1.932,-0.753 2.189,-0.94 1.779,-0.838 1.789,-1.119 0.21,-0.095 0.185,-0.138 2.125,-1.182 1.544,-1.104 1.388,-1.163 1.334,-1.362 1.5,-1.725 0.054,-0.041 0.041,-0.066 1.601,-1.775 0.173,-0.127 0.128,-0.19 0.996,-0.996 0.61,-1.017 0.856,-1.608 0.758,-1.736 0.691,-1.848 0.623,-1.931 0.422,-1.645 0.214,-1.714 V 35.418 L 20.142,32.747 19.901,30.225 19.615,27.941 19.148,25.787 19.093,25.282 19.019,25.058 18.674,22.511 18.673,22.499 18.398,20.632 17.896,18.688 17.867,18.462 17.81,18.321 17.454,16.699 16.932,15.328 16.888,15.09 16.764,14.847 16.309,13.437 15.818,12.412 15.758,12.151 15.543,11.779 14.933,10.226 14.889,9.995 14.761,9.749 14.432,8.769 14.052,7.968 13.936,7.46 13.547,6.651 13.414,6.203 13.292,5.959 12.598,4.083 12.526,3.479 12.432,3.19 12.307,2.271 12.178,1.606 12.021,0 l 0.012,-0.436 0.041,-0.778 0.03,-0.118 0.046,-0.621 0.115,-0.776 0.093,-0.271 0.06,-0.475 0.671,-1.713 0.279,-0.524 0.079,-0.109 0.506,-1.84 1.256,-1.685 1.779,-1.127 2.143,-0.412 2.222,0.444 1.82,1.209 0.775,0.761 0.402,0.587 0.012,0.007 0.441,0.36 0.167,0.212 0.457,0.36 1.226,1.642 0.215,0.383 0.044,0.067 0.363,0.454 0.307,0.546 0.638,0.913 0.503,0.984 0.027,0.07 0.028,0.041 0.468,0.932 0.421,1.137 0.165,0.343 0.16,0.54 0.316,0.666 0.093,0.407 0.319,0.615 0.432,1.29 0.431,1.098 0.603,1.256 0.102,0.444 0.353,0.695 0.575,1.781 0.659,1.733 0.117,0.626 0.266,0.655 0.468,2.128 0.567,2.201 0.08,0.62 0.115,0.338 0.344,2.335 0.009,0.112 0.011,0.036 0.307,2.263 0.476,2.194 0.062,0.572 0.077,0.242 0.346,2.76 0.015,0.237 0.018,0.06 0.277,2.908 0.03,0.618 0.01,0.042 0.07,3.073 0.002,0.208 v 8.339 l -0.067,1.075 -0.355,2.847 -0.115,0.36 -0.086,0.68 -0.645,2.514 -0.097,0.217 -0.037,0.232 -0.788,2.444 -0.087,0.169 -0.027,0.145 -0.861,2.302 -0.122,0.215 -0.033,0.156 -1.003,2.298 -0.148,0.235 -0.123,0.315 -1.144,2.148 -0.117,0.161 -0.076,0.174 -1.283,2.14 -1.192,1.498 -0.09,0.134 -1.655,1.655 -1.539,1.64 -0.22,0.155 -0.155,0.22 -1.834,1.726 -0.228,0.147 -0.14,0.18 -1.961,1.645 -0.441,0.258 -0.219,0.244 -2.074,1.423 -0.22,0.108 -0.225,0.178 -2.261,1.36 -0.151,0.066 -0.125,0.093 -2.358,1.311 -2.012,1.258 -0.478,0.217 -0.406,0.267 -2.334,1.1 -0.134,0.03 -0.175,0.108 -2.4,1.031 -0.143,0.03 -0.167,0.095 -2.467,0.962 -0.518,0.099 -0.567,0.244 -2.537,0.619 -0.069,0.009 -0.035,0.015 -2.512,0.596 -2.185,0.626 -0.737,0.105 -0.44,0.146 -2.479,0.345 -0.119,0.009 -0.035,0.011 -2.202,0.276 -1.054,0.068 h -4.274 l -1.197,-0.089 -1.937,-0.286 -0.269,-0.092 -0.47,-0.058 -2.018,-0.502 -0.216,-0.096 -0.236,-0.037 -1.81,-0.577 -0.613,-0.314 -0.374,-0.085 -1.8,-0.862 -0.198,-0.134 -0.238,-0.098 -1.652,-0.932 -0.172,-0.131 -0.171,-0.079 -1.784,-1.14 -0.121,-0.102 -0.109,-0.053 -1.638,-1.139 -0.28,-0.317 -0.523,-0.327 -1.548,-1.407 -0.346,-0.476 -0.428,-0.333 -1.391,-1.669 -0.015,-0.026 -0.018,-0.013 -1.321,-1.599 -0.218,-0.378 -0.211,-0.188 -1.244,-1.795 -0.139,-0.281 -0.226,-0.293 -1.24,-2.135 -0.138,-0.324 -0.169,-0.252 -1.1,-2.264 -0.081,-0.351 -0.293,-0.542 -0.823,-2.326 -0.018,-0.102 -0.046,-0.09 -0.894,-2.676 -0.031,-0.186 -0.077,-0.159 -0.826,-2.816 -0.047,-0.324 -0.097,-0.235 -0.62,-2.748 -0.051,-0.45 -0.073,-0.215 -0.415,-2.828 -0.016,-0.217 -0.021,-0.067 -0.346,-2.975 -0.011,-0.182 -0.013,-0.044 -0.277,-2.98 -0.027,-0.555 -0.009,-0.04 -0.07,-2.933 -0.002,-0.204 v 0 0 -2.874 l 0.002,-0.189 0.07,-3.024 0.01,-0.042 0.026,-0.551 0.284,-2.907 0.011,-0.038 0.007,-0.124 0.355,-2.913 0.016,-0.052 0.01,-0.131 0.426,-2.848 0.064,-0.186 0.039,-0.35 0.642,-2.858 0.008,-0.02 0.002,-0.014 0.642,-2.719 0.149,-0.348 0.061,-0.363 0.858,-2.51 0.147,-0.275 0.043,-0.208 1.001,-2.366 0.156,-0.253 0.037,-0.156 1.143,-2.289 0.098,-0.142 0.067,-0.163 1.204,-2.142 1.061,-2.06 0.357,-0.502 0.219,-0.434 1.506,-2.123 1.209,-1.783 1.223,-1.929 0.726,-0.874 0.201,-0.313 1.625,-1.726 1.413,-1.514 0.298,-0.212 0.209,-0.283 1.616,-1.444 0.081,-0.05 0.047,-0.063 1.24,-1.062 0.99,-1.045 0.372,-0.262 0.251,-0.325 1.32,-1.112 0.027,-0.016 0.015,-0.019 1.249,-1.041 0.472,-0.274 0.224,-0.244 1.108,-0.732 1.983,-0.944 0.093,-0.014 0.066,-0.031 1.243,-0.355 0.013,-0.002 0.941,-0.279 0.788,-0.116 0.459,-0.144 1.241,-0.151 0.787,-0.049 0.033,-0.007 1.119,-0.014 h 0.004 v 0 l 1.118,-0.014 h 0.091 z"
         fill-mode="evenodd" />
    </g>
    <g
       id="g508"
       transform="translate(251.875,-16.75)">
      <path
         style="fill:#000000"
         inkscape:connector-curvature="0"
         id="path506"
         d="m 1.858,-4.73 1.631,1.101 1.1,1.631 L 4.993,0 4.653,1.841 4.605,1.919 4.589,1.998 4.285,2.449 3.723,3.38 3.473,3.665 3.352,4.234 3.122,5.635 3.08,5.752 3.057,5.955 2.737,7.337 2.533,8.982 2.506,9.065 2.489,9.265 2.101,11.451 2.08,11.506 2.071,11.599 1.629,13.718 1.423,16.16 l -0.017,0.06 -0.015,0.225 -0.364,2.787 -0.289,3.171 -0.059,0.204 -0.058,0.57 -0.718,3.464 -0.454,3.511 -0.47,4.034 -0.37,4.097 -0.362,4.583 -0.011,0.042 -0.01,0.173 -0.492,4.383 -0.354,4.652 -0.018,0.064 -0.016,0.265 -0.575,4.653 -0.261,4.886 -0.137,5.089 -0.001,0.005 -0.002,0.075 -0.209,5.363 -0.139,5.004 v 0.001 l -0.14,5.112 -10e-4,0.007 -0.002,0.087 -0.208,5.07 -0.134,4.941 0.1,4.736 0.255,4.825 0.006,0.209 0.003,0.015 0.122,4.505 0.32,4.33 0.012,0.296 0.007,0.03 0.16,4.314 0.272,4.355 0.004,0.112 0.003,0.013 0.207,4.131 0.258,3.669 0.438,3.372 0.588,3.325 0.02,0.226 0.029,0.088 0.45,3.142 0.693,3.141 0.001,0.016 0.652,2.861 0.761,2.629 0.988,2.65 0.056,0.303 0.147,0.307 0.675,2.301 0.984,2.128 10e-4,0.004 1.189,2.441 0.073,0.315 0.267,0.481 0.814,2.205 1.007,1.955 0.197,0.518 0.173,0.301 0.706,1.812 0.971,1.552 0.048,0.107 0.072,0.092 1.066,1.796 0.554,0.865 0.691,0.691 1.008,0.952 0.921,0.776 0.954,0.688 0.889,0.61 0.09,0.057 0.065,0.01 0.122,0.014 0.324,-0.036 0.714,-0.041 0.427,-0.167 0.514,-0.258 0.575,-0.372 0.769,-0.577 0.976,-0.794 0.404,-0.229 0.62,-0.483 0.41,-0.242 0.454,-0.425 0.13,-0.084 0.082,-0.108 1.032,-0.904 0.491,-0.455 0.479,-0.582 0.992,-1.365 0.001,-0.001 0.747,-1.035 0.89,-1.392 0.754,-1.322 0.47,-0.613 0.223,-0.397 0.813,-1.017 0.634,-1.026 0.952,-1.608 0.753,-1.447 0.318,-0.443 0.197,-0.399 0.822,-1.182 0.632,-1.217 0.85,-1.765 0.852,-1.97 0.043,-0.068 0.009,-0.042 1.146,-2.5 0.87,-2.091 0.758,-2.279 0.003,-0.005 0.668,-2.07 0.58,-2.197 0.132,-0.289 0.048,-0.282 0.851,-2.416 0.871,-2.622 0.072,-0.136 0.021,-0.114 0.87,-2.305 0.653,-2.262 0.739,-2.893 0.148,-0.331 0.056,-0.324 0.955,-2.691 0.6,-2.707 0.107,-0.257 0.046,-0.307 1.004,-3.285 0.797,-3.129 0.064,-0.142 0.023,-0.159 0.929,-3.059 0.726,-2.907 0.004,-0.011 0.734,-2.873 0.598,-2.801 0.016,-0.038 0.005,-0.047 0.635,-2.736 0.448,-2.883 0.04,-0.114 0.022,-0.22 0.619,-3.033 0.5,-2.821 0.331,-2.609 0.213,-2.826 0.018,-0.066 0.017,-0.277 0.344,-2.858 0.21,-2.78 0.021,-0.076 0.02,-0.317 0.402,-3.2 v -0.001 l 0.34,-2.93 0.06,-0.193 0.046,-0.465 0.555,-2.778 0.31,-2.925 0.011,-0.036 0.007,-0.106 0.415,-3.257 0.332,-3.06 0.272,-3.005 0.013,-0.045 0.01,-0.16 0.355,-2.986 10e-4,-0.004 0.352,-2.894 0.027,-0.084 0.017,-0.212 0.401,-2.483 0.319,-2.496 0.261,-2.478 0.192,-2.247 0.134,-2.212 V 35.54 l 0.139,-2.365 0.014,-0.056 0.016,-0.303 0.196,-1.901 0.13,-1.896 0.033,-0.123 0.039,-0.523 0.234,-1.59 0.107,-1.443 0.064,-1.488 0.043,-0.175 0.088,-0.981 0.141,-0.776 v -1.807 l 0.043,-0.863 0.122,-1.222 0.06,-1.082 0.081,-0.319 0.135,-1.163 0.049,-0.213 v -0.394 l 0.067,-1.076 0.145,-1.164 0.062,-0.193 0.044,-0.434 0.203,-0.996 0.012,-0.029 0.003,-0.031 0.246,-1.125 0.05,-0.121 0.021,-0.159 0.255,-0.973 0.26,-0.569 0.089,-0.441 0.35,-0.52 0.375,-0.82 0.64,-0.685 0.345,-0.512 0.36,-0.243 0.397,-0.424 1.2,-0.652 0.58,-0.391 0.222,-0.045 0.257,-0.14 2.627,-0.443 2.628,0.443 0.257,0.14 0.222,0.045 0.58,0.391 1.2,0.652 0.396,0.424 0.361,0.243 0.345,0.512 0.64,0.685 0.362,0.801 0.363,0.539 0.097,0.479 0.265,0.587 0.229,0.859 0.032,0.24 0.062,0.153 0.225,1.013 0.013,0.115 0.022,0.057 0.184,0.885 0.187,1.801 -0.067,1.076 -0.073,0.589 v 0.858 l -0.23,1.986 -0.106,0.451 -0.029,0.52 -0.013,0.053 -0.015,0.306 -0.098,0.975 v 2.157 l -0.139,1.55 -0.175,0.965 -0.045,1.033 -0.007,0.028 -0.008,0.218 -0.142,1.921 -0.032,0.12 -0.036,0.481 -0.231,1.567 -0.118,1.711 -0.012,0.047 -0.012,0.221 -0.191,1.853 -0.129,2.203 v 10e-4 l -0.141,2.327 -0.008,0.03 -0.007,0.162 -0.212,2.485 -0.008,0.029 -0.006,0.105 -0.284,2.702 -0.012,0.039 -0.007,0.117 -0.355,2.777 -0.023,0.071 -0.014,0.171 -0.396,2.451 -0.331,2.719 -0.001,0.004 -0.33,2.779 -0.27,2.971 -0.007,0.027 -0.005,0.091 -0.354,3.263 -0.01,0.032 -0.006,0.089 -0.413,3.243 -0.34,3.203 -0.063,0.209 -0.053,0.535 -0.563,2.822 -0.312,2.687 -0.014,0.046 -0.009,0.122 -0.449,3.196 -0.015,0.044 -0.007,0.091 -0.482,2.972 -0.038,0.106 -0.02,0.194 -0.579,2.824 -0.443,2.82 -0.034,0.096 -0.018,0.184 -0.59,2.976 -0.542,3.056 -0.022,0.06 -0.01,0.097 -0.596,2.921 -0.463,2.982 -0.069,0.196 -0.04,0.352 -0.704,3.032 -0.607,2.84 -0.044,0.11 -0.019,0.148 -0.784,3.071 -0.003,0.006 -0.756,3.034 -0.071,0.159 -0.027,0.181 -0.936,3.083 -0.799,3.134 -0.066,0.148 -0.025,0.165 -0.961,3.148 -0.638,2.876 -0.188,0.452 -0.079,0.457 -1,2.819 -0.688,2.693 -0.04,0.09 -0.014,0.1 -0.786,2.72 -0.143,0.298 -0.048,0.264 -0.937,2.481 -0.863,2.595 -0.024,0.045 -0.006,0.033 -0.736,2.09 -0.555,2.104 -0.082,0.179 -0.029,0.188 -0.788,2.44 -0.006,0.013 -0.858,2.579 -0.148,0.282 -0.044,0.219 -1.071,2.576 -0.079,0.129 -0.018,0.086 -1.184,2.579 -0.867,2.006 -0.096,0.153 -0.022,0.098 -1.003,2.08 -0.052,0.078 -0.035,0.091 -0.933,1.797 -0.32,0.448 -0.199,0.403 -0.825,1.187 -0.623,1.195 -0.116,0.163 -0.077,0.179 -1.142,1.929 -0.04,0.051 -0.021,0.047 -0.931,1.506 -0.371,0.454 -0.176,0.314 -0.722,0.904 -0.548,0.959 -0.119,0.156 -0.072,0.155 -1.14,1.784 -0.157,0.187 -0.082,0.16 -0.927,1.285 -0.002,0.002 -1.135,1.561 -0.147,0.126 -0.138,0.24 -0.992,1.205 -0.406,0.317 -0.33,0.462 -0.976,0.906 -0.114,0.072 -0.07,0.094 -1.017,0.891 -1.013,0.949 -0.311,0.199 -1.138,0.886 -0.663,0.391 -0.626,0.509 -0.174,0.099 -0.091,0.107 -1.1,0.826 -0.222,0.118 -0.262,0.22 -1.16,0.752 -0.425,0.199 -0.391,0.268 -1.215,0.609 -0.287,0.069 -0.451,0.26 -1.206,0.471 -0.397,0.075 -0.432,0.201 -1.204,0.337 -2.243,0.312 h -0.527 l -0.776,0.086 -0.939,0.054 v 0 l -0.902,-0.05 -1.299,-0.144 -0.108,-0.033 -0.295,-0.024 -1.31,-0.218 -0.746,-0.269 -0.73,-0.132 -1.177,-0.44 -0.594,-0.337 -0.811,-0.365 -1.154,-0.721 -0.139,-0.113 -0.126,-0.062 -1.148,-0.789 -0.043,-0.047 -0.085,-0.044 -1.285,-0.928 -0.158,-0.183 -0.297,-0.174 -1.344,-1.131 -0.128,-0.167 -0.207,-0.133 -1.265,-1.195 -0.065,-0.093 -0.098,-0.066 -1.402,-1.401 -0.164,-0.243 -0.939,-1.129 -1.102,-1.72 -0.066,-0.142 -0.101,-0.129 -1.096,-1.847 -1.307,-2.089 -0.372,-0.823 -0.333,-0.579 -0.834,-2.138 -1.038,-2.017 -0.236,-0.621 -0.186,-0.336 -0.847,-2.294 -1.055,-2.165 -0.02,-0.086 -0.073,-0.112 -1.24,-2.683 -0.105,-0.471 -0.339,-0.707 -0.767,-2.614 -0.993,-2.663 -0.058,-0.316 -0.152,-0.321 -0.897,-3.096 -0.043,-0.3 -0.089,-0.214 -0.69,-3.028 -0.008,-0.075 -0.015,-0.036 -0.761,-3.449 -0.049,-0.447 -0.07,-0.207 -0.476,-3.328 -0.595,-3.366 -0.028,-0.306 -0.036,-0.113 -0.486,-3.743 -0.029,-0.43 -0.023,-0.089 -0.279,-3.968 -0.006,-0.169 -0.006,-0.022 -0.208,-4.167 -0.275,-4.397 -0.01,-0.297 -0.004,-0.021 -0.117,-4.404 -10e-4,-0.073 v -0.003 l -0.084,-4.55 -0.002,-0.155 0.003,-0.216 0.123,-4.573 -0.017,-4.853 V 97.76 l 0.002,-0.164 0.107,-5.052 v -0.002 l 0.001,-0.035 0.14,-5.196 10e-4,-0.007 0.002,-0.09 0.209,-5.072 0.138,-5.066 v 0 l 0.141,-5.048 0.001,-0.006 10e-4,-0.069 0.209,-5.359 0.139,-5.142 0.003,-0.014 0.005,-0.177 0.281,-5.275 0.023,-0.09 0.032,-0.496 0.659,-4.942 0.001,-0.003 0.611,-4.717 0.024,-0.073 0.015,-0.175 0.737,-4.365 0.597,-4.489 0.004,-0.012 0.002,-0.021 0.59,-4.127 0.48,-4.115 0.005,-0.017 0.003,-0.04 0.494,-3.821 0.051,-0.156 0.035,-0.341 0.712,-3.434 0.365,-3.012 0.154,-0.486 0.112,-0.735 0.841,-2.704 0.7,-2.616 0.22,-0.476 0.072,-0.354 1.02,-2.394 0.005,-0.01 0.843,-1.959 0.692,-1.72 0.273,-0.457 0.056,-0.213 0.805,-1.411 0.664,-1.277 0.125,-0.134 0.185,-0.378 0.217,-0.319 0.141,-0.398 0.082,-0.106 0.536,-1.075 0.501,-0.717 0.165,-0.145 0.166,-0.275 0.496,-0.567 0.129,-0.097 0.099,-0.146 0.99,-0.668 0.487,-0.364 0.079,-0.017 0.076,-0.052 1.998,-0.403 z"
         fill-mode="evenodd" />
    </g>
    <g
       id="g512"
       transform="translate(367.75,1.25)">
      <path
         style="fill:#000000"
         inkscape:connector-curvature="0"
         id="path510"
         d="m 4.237,-12.412 0.374,0.184 0.273,0.055 0.433,0.292 0.914,0.45 0.639,0.598 0.4,0.269 0.191,0.283 0.376,0.352 0.787,1.373 0.255,0.378 0.016,0.08 0.007,0.01 0.007,0.03 0.054,0.094 0.1,0.254 0.272,1.432 0.254,1.062 0.025,0.614 0.007,0.327 v 0.561 L 9.517,-2.455 9.4,-1.75 9.354,-1.384 9.374,-0.727 9.377,-0.491 9.333,0.334 9.171,1.854 9.159,1.896 9.151,2.017 8.991,3.226 8.981,4.618 8.973,4.657 8.871,5.891 8.611,7.461 8.496,9.24 8.478,9.309 8.459,9.644 8.206,11.793 8.08,14.013 8.073,14.038 8.067,14.185 7.884,16.453 v 2.188 L 7.873,19.07 7.732,21.754 7.726,21.776 7.721,21.915 7.53,24.468 7.502,26.723 7.615,29.496 v 0.026 l 10e-4,0.002 0.126,3.202 v 0.029 l 0.001,0.002 0.125,3.315 0.158,3.191 0.205,3.269 0.006,0.179 0.004,0.019 0.138,3.22 0.203,3.321 0.018,0.555 v 2.944 l 0.361,3.188 0.027,0.469 0.019,0.075 0.208,3.8 0.273,3.886 0.009,0.267 0.007,0.028 0.138,3.515 0.2,3.672 0.269,3.278 0.007,0.179 0.007,0.028 0.207,3.375 0.271,3.454 0.002,0.049 0.002,0.007 0.279,3.685 0.019,0.505 0.006,0.025 0.066,3.75 0.26,3.511 0.011,0.292 0.008,0.031 0.137,3.418 0.195,3.187 0.261,2.675 0.011,0.219 0.011,0.041 0.205,2.866 0.268,2.87 0.001,0.013 0.275,2.821 0.009,0.178 0.01,0.035 0.2,2.596 0.255,2.293 0.325,2.393 0.251,1.564 0.028,0.35 0.034,0.112 0.151,1.353 0.281,1.166 0.083,0.687 0.102,0.32 0.206,1.639 0.021,0.324 0.021,0.075 0.117,1.4 0.152,1.013 0.243,1.327 0.048,0.522 0.053,0.175 0.136,1.293 10e-4,0.004 0.173,1.444 0.232,1.324 0.136,1.538 v 0.059 l 0.009,0.019 0.243,0.886 0.015,0.111 0.031,0.07 0.249,0.957 0.098,0.761 0.126,0.389 0.12,0.918 0.057,0.857 0.02,0.088 0.023,0.756 0.005,0.296 v 1.822 l -0.721,3.571 -0.004,0.007 -0.194,0.961 -1.921,2.848 -0.19,0.128 -0.022,0.031 -0.177,0.149 -0.086,0.127 -0.353,0.238 -1.186,0.987 -0.833,0.374 -0.389,0.262 -0.355,0.072 -0.59,0.265 -2.435,0.345 -3.38,-0.682 -2.76,-1.861 -1.861,-2.76 -0.182,-0.902 -0.043,-0.065 -0.077,-0.379 -0.321,-0.772 -0.316,-2.383 0.005,-0.122 -0.232,-1.771 0.17,-1.611 0.19,-0.891 0.03,-0.075 0.025,-0.192 -0.005,-0.389 -0.011,-0.575 -0.061,-0.579 -0.051,-0.943 v -0.65 L -1.596,137 l -0.033,-0.373 -0.041,-0.132 -0.206,-1.71 -0.008,-0.133 -0.011,-0.034 -0.106,-1.011 -0.213,-1.165 -0.021,-0.227 -0.032,-0.092 -0.204,-1.353 -0.037,-0.49 -0.035,-0.125 -0.126,-1.511 -0.128,-1.019 -0.295,-1.223 -0.095,-0.783 -0.104,-0.342 -0.189,-1.696 -0.239,-1.485 -0.015,-0.192 -0.022,-0.067 -0.345,-2.548 -0.014,-0.193 -0.017,-0.056 -0.276,-2.483 -0.016,-0.275 -0.016,-0.057 -0.205,-2.663 -0.267,-2.73 -0.003,-0.063 -0.003,-0.012 -0.278,-2.979 -0.009,-0.186 -0.009,-0.034 -0.203,-2.843 -0.266,-2.713 -0.014,-0.299 -0.013,-0.05 -0.209,-3.408 -0.006,-0.189 -0.005,-0.02 -0.134,-3.36 L -6.332,91.071 -6.35,90.578 -6.356,90.554 -6.422,86.81 -6.681,83.375 -6.682,83.364 -6.959,79.828 -6.966,79.672 -6.972,79.649 -7.178,76.29 -7.448,72.988 -7.457,72.756 -7.466,72.723 -7.675,68.892 -7.679,68.75 -7.682,68.737 -7.817,65.293 -8.086,61.463 -8.091,61.32 -8.096,61.301 -8.293,57.696 -8.681,54.276 -8.74,53.26 v -3.169 l -0.193,-3.144 -0.005,-0.168 -0.004,-0.018 -0.137,-3.214 -0.203,-3.246 -0.008,-0.238 -0.005,-0.022 -0.116,-3.279 -0.006,-0.321 0.006,-0.325 0.127,-3.375 V 32.74 l 0.127,-3.232 v -10e-4 l 0.123,-3.02 0.01,-0.043 0.016,-0.349 0.243,-2.691 0.197,-2.635 0.123,-2.346 v -2.305 l 0.027,-0.66 0.203,-2.512 0.135,-2.362 0.019,-0.072 0.023,-0.393 0.256,-2.182 0.127,-1.97 0.052,-0.201 0.074,-0.779 0.34,-1.789 0.24,-1.701 0.137,-0.405 0.089,-0.636 0.486,-1.703 0.002,-0.005 0.229,-0.829 0.102,-0.73 0.131,-1.05 0.025,-0.079 0.016,-0.192 0.037,-0.228 0.005,-0.227 0.026,-0.645 0.242,-1.007 0.265,-1.42 0.136,-0.355 0.052,-0.09 0.015,-0.074 0.196,-0.292 0.846,-1.459 0.376,-0.352 0.19,-0.283 0.4,-0.269 0.639,-0.598 0.914,-0.45 0.433,-0.292 0.273,-0.055 0.375,-0.184 2.274,-0.351 z"
         fill-mode="evenodd" />
    </g>
    <g
       id="g516"
       transform="translate(336.75,94.125)">
      <path
         style="fill:#000000"
         inkscape:connector-curvature="0"
         id="path514"
         d="m 69.284,-27.321 0.555,0.249 0.334,0.067 0.366,0.247 0.783,0.351 1.114,0.928 0.332,0.224 0.081,0.12 0.167,0.139 1.282,1.863 0.118,0.234 0.033,0.137 0.069,0.102 0.021,0.104 0.119,0.177 0.642,3.177 -0.642,3.178 -1.75,2.595 -1.505,1.015 -0.466,0.369 -0.075,0.078 -0.079,0.044 -0.358,0.283 -0.314,0.19 -0.613,0.267 -0.096,0.065 -0.096,0.019 -0.108,0.047 -0.534,0.294 -0.714,0.262 -0.438,0.078 -0.429,0.188 -0.362,0.092 -0.039,0.012 -0.194,0.097 -0.115,0.028 -0.161,0.104 -0.861,0.4 -0.509,0.113 -0.777,0.361 -1.204,0.337 -0.015,0.002 -1.399,0.401 -0.188,0.027 -0.132,0.058 -1.345,0.338 -0.274,0.035 -0.162,0.063 -1.699,0.341 -0.49,0.05 -0.191,0.06 -1.529,0.184 -1.673,0.3 -0.015,0.001 -2.157,0.406 -0.097,0.009 -0.04,0.015 -1.94,0.343 -1.883,0.556 -0.385,0.056 -0.278,0.112 -2.474,0.527 -0.322,0.035 -0.152,0.053 -2.707,0.43 -0.015,10e-4 -2.636,0.429 -0.152,0.013 -0.054,0.018 -2.555,0.362 -2.092,0.348 -2.087,0.66 -0.305,0.048 -0.245,0.106 -2.497,0.609 -2.495,0.705 -2.592,0.821 -0.588,0.093 -0.442,0.162 -2.429,0.429 -0.059,0.005 -0.021,0.008 -2.5,0.43 H 17.546 L 15.434,1.371 H 15.427 L 13.511,1.78 13.497,1.781 11.718,2.173 10.494,2.523 9.435,2.951 9.383,2.962 9.333,2.99 8.07,3.487 7.805,3.538 7.515,3.68 6.334,4.037 6.324,4.039 5.568,4.279 4.974,4.503 4.856,4.525 4.741,4.586 4.533,4.657 4.415,4.722 4.139,4.795 3.792,5.029 3.193,5.15 2.886,5.325 2.391,5.659 2.254,5.687 2.108,5.771 0,6.142 -2.391,5.659 -4.343,4.343 -5.659,2.391 -6.142,0 l 0.483,-2.391 0.093,-0.139 0.032,-0.137 0.423,-0.536 0.768,-1.14 0.277,-0.187 0.177,-0.224 0.76,-0.622 1.014,-0.58 0.495,-0.334 0.137,-0.028 0.146,-0.084 0.546,-0.096 0.478,-0.355 0.307,-0.163 0.133,-0.138 0.817,-0.512 0.313,-0.142 0.107,-0.101 0.954,-0.509 0.974,-0.602 0.059,-0.026 0.021,-0.022 1.306,-0.792 0.467,-0.206 0.361,-0.226 1.657,-0.728 0.229,-0.049 0.292,-0.158 1.87,-0.664 0.068,-0.012 0.057,-0.029 1.94,-0.665 0.136,-0.023 0.119,-0.059 2.153,-0.667 0.157,-0.024 0.122,-0.057 2.437,-0.669 0.014,-0.002 2.262,-0.64 2.538,-0.85 0.215,-0.035 0.186,-0.087 2.679,-0.758 0.19,-0.027 0.133,-0.057 2.361,-0.576 2.345,-0.742 0.296,-0.047 0.239,-0.103 2.654,-0.653 0.071,-0.008 0.037,-0.016 2.511,-0.599 0.007,-0.001 2.465,-0.641 0.067,-0.009 0.038,-0.016 2.645,-0.671 0.134,-0.017 0.079,-0.033 2.309,-0.537 2.074,-0.612 0.56,-0.082 0.383,-0.141 2.333,-0.413 0.013,-10e-4 2.142,-0.403 0.086,-0.008 0.035,-0.013 1.912,-0.343 0.377,-0.034 0.135,-0.042 1.441,-0.174 1.266,-0.254 1.102,-0.277 1.241,-0.356 0.071,-0.01 0.044,-0.021 0.623,-0.174 0.237,-0.11 0.641,-0.322 0.464,-0.111 0.833,-0.411 0.748,-0.232 0.655,-0.442 0.664,-0.556 0.249,-0.059 0.27,-0.183 3.178,-0.641 z"
         fill-mode="evenodd" />
    </g>
  </g>
</svg>
