<?xml version="1.0" encoding="UTF-8" standalone="no"?>
<svg
   xmlns:dc="http://purl.org/dc/elements/1.1/"
   xmlns:cc="http://creativecommons.org/ns#"
   xmlns:rdf="http://www.w3.org/1999/02/22-rdf-syntax-ns#"
   xmlns:svg="http://www.w3.org/2000/svg"
   xmlns="http://www.w3.org/2000/svg"
   xmlns:sodipodi="http://sodipodi.sourceforge.net/DTD/sodipodi-0.dtd"
   xmlns:inkscape="http://www.inkscape.org/namespaces/inkscape"
   viewBox="0 0 143.96391 142.67204"
   width="143.96391"
   height="142.67204"
   version="1.1"
   id="svg1340"
   sodipodi:docname="fisch_logo.svg"
   inkscape:version="0.92.4 (5da689c313, 2019-01-14)">
  <metadata
     id="metadata1346">
    <rdf:RDF>
      <cc:Work
         rdf:about="">
        <dc:format>image/svg+xml</dc:format>
        <dc:type
           rdf:resource="http://purl.org/dc/dcmitype/StillImage" />
        <dc:title></dc:title>
      </cc:Work>
    </rdf:RDF>
  </metadata>
  <defs
     id="defs1344" />
  <sodipodi:namedview
     pagecolor="#ffffff"
     bordercolor="#666666"
     borderopacity="1"
     objecttolerance="10"
     gridtolerance="10"
     guidetolerance="10"
     inkscape:pageopacity="0"
     inkscape:pageshadow="2"
     inkscape:window-width="3840"
     inkscape:window-height="2126"
     id="namedview1342"
     showgrid="false"
     fit-margin-top="0"
     fit-margin-left="0"
     fit-margin-right="0"
     fit-margin-bottom="0"
     inkscape:zoom="1.888"
     inkscape:cx="292.74876"
     inkscape:cy="-166.27074"
     inkscape:window-x="-11"
     inkscape:window-y="-11"
     inkscape:window-maximized="1"
     inkscape:current-layer="svg1340" />
  <g
     id="g1300"
     transform="matrix(0.15,0,0,0.15,5.4699,11.61742)">
    <path
       style="fill:#000000"
       inkscape:connector-curvature="0"
       id="path1298"
       d="m 1.033,-24.012 0.129,0.072 0.117,0.023 0.371,0.251 0.764,0.429 0.193,0.216 0.193,0.13 0.235,0.349 0.427,0.478 0.165,0.401 0.198,0.293 0.073,0.361 0.186,0.45 0.244,1.078 0.052,0.459 0.053,0.177 0.136,1.354 0.01,0.187 0.008,0.032 0.139,2.187 0.012,0.367 -0.003,0.161 -0.068,2.349 v 0 l -0.086,3.253 -0.089,3.87 0.024,4.7 0.001,0.035 -0.007,0.276 -0.252,5.608 -0.035,6.069 -10e-4,0.003 -0.004,0.216 -0.269,6.602 -0.153,7.372 -0.071,8.023 v 0.002 L 3.724,33.904 3.528,42.673 3.527,42.677 3.526,42.74 3.212,52.047 3.015,61.701 3.012,61.715 3.006,61.934 2.45,71.749 2.237,82.145 2.236,82.148 2.235,82.205 1.902,93.079 v 0 L 1.57,104.172 v 0 l -0.326,11.015 -0.095,11.61 -0.001,0.002 -10e-4,0.122 -0.328,12.122 -0.211,12.117 -0.001,0.003 -0.001,0.058 -0.329,12.041 v 0.001 l -0.327,12.11 -0.212,11.885 -0.001,0.005 -0.002,0.111 -0.444,12.459 -0.232,10.463 -0.214,10.967 v 0 0 l -0.234,11.33 -0.213,12.135 -10e-4,0.003 -0.001,0.058 -0.349,12.813 -0.209,13.279 -0.003,0.011 -0.006,0.239 -0.7,13.295 -0.558,13.28 -0.003,0.011 -0.003,0.093 -0.782,13.227 -0.433,13.924 -10e-4,0.003 v 0.031 l -0.552,14.7 -0.435,15.039 -0.003,0.016 -0.006,0.197 -0.896,14.786 -0.661,15.477 v 0 l -0.663,15.995 v 0 l -0.663,16.004 -0.003,0.013 -0.003,0.103 -0.904,15.207 v 0.001 l -0.901,15.504 -0.783,15.587 -0.667,15.97 -0.002,0.006 -0.001,0.045 -1.027,20.197 -0.792,18.772 -0.002,0.008 -0.002,0.06 -0.911,17.026 -0.677,16.31 -10e-4,0.006 -0.001,0.045 -0.803,15.906 v 0 l -0.8,17.129 -0.446,10.859 -0.217,11.135 -0.001,0.008 -0.003,0.136 -0.464,11.723 -0.215,11.646 v 11.376 l -0.001,0.139 -0.218,11.806 v 0 0.006 l -0.234,11.572 v 0 l -0.233,11.754 -0.116,11.18 -0.001,0.002 -0.001,0.072 -0.233,11.222 v 0 l -0.234,11.214 v 0 l -0.232,10.658 0.016,10.073 v 0.012 0 0.087 l -0.117,10.12 v 27.756 l -0.003,0.214 -0.232,8.247 -0.115,7.717 v 7.292 l 0.016,6.765 v 0.019 l -0.002,0.138 -0.117,6.432 v 0 10e-4 l -0.117,6.081 -0.001,0.009 -0.004,0.154 -0.23,5.539 -0.115,5.186 -0.003,0.013 -0.006,0.208 -0.234,4.458 -0.001,10e-4 -0.218,3.982 -0.034,0.135 -0.054,0.657 -0.528,3.201 -0.207,2.51 -0.477,1.701 -0.147,0.683 -0.071,0.096 -0.035,0.127 -1.582,2.107 -0.05,0.031 -0.03,0.041 -1.408,1.262 -0.378,0.232 -0.391,0.349 -0.518,0.212 -0.438,0.27 -0.404,0.076 -0.43,0.176 -0.617,0.138 -0.846,0.095 -1.654,-0.381 -0.625,-0.303 -0.112,-0.101 -0.157,-0.041 -1.755,-1.68 -0.256,-0.231 -0.006,-0.021 -0.015,-0.014 -0.985,-1.581 -0.32,-0.709 -0.223,-0.331 -0.06,-0.296 -0.219,-0.485 -0.292,-2.047 v -0.006 l 0.002,-2.804 10e-4,-0.002 0.037,-0.737 0.32,-3.158 0.015,-3.605 10e-4,-0.004 0.009,-0.362 0.228,-4.329 0.114,-5.145 0.002,-0.008 0.003,-0.13 0.23,-5.527 0.115,-5.992 v 0 l 0.116,-6.35 0.015,-6.705 v -7.35 l 0.001,-0.113 0.117,-7.832 10e-4,-0.004 0.001,-0.09 0.231,-8.189 v -27.692 -0.087 l 0.117,-10.126 0.015,-10.125 v 0 l 0.002,-0.152 0.234,-10.755 v 0 l 0.233,-11.206 v 0 l 0.233,-11.169 0.116,-11.176 10e-4,-0.002 0.001,-0.065 0.233,-11.805 v 0 l 0.234,-11.568 v 0 l 0.248,-11.718 V 630.54 l 0.001,-0.16 0.25,-11.805 0.002,-0.008 0.002,-0.123 0.465,-11.738 0.248,-11.151 0.002,-0.009 0.003,-0.146 0.484,-10.995 v -0.003 l 0.001,-0.015 0.834,-17.188 v -0.002 l 0.001,-0.01 0.832,-15.875 0.721,-16.317 0.002,-0.008 0.002,-0.064 0.955,-17.028 0.839,-18.763 0.001,-0.005 10e-4,-0.041 1.075,-20.203 0.731,-15.967 0.001,-0.006 10e-4,-0.04 0.85,-15.67 0.002,-0.005 0.001,-0.033 0.967,-15.555 v -0.002 l 0.962,-15.121 0.735,-15.941 10e-4,-0.001 0.738,-16 v -10e-4 l 0.739,-15.543 0.003,-0.014 0.003,-0.097 0.963,-14.726 0.495,-14.957 0.001,-0.005 0.001,-0.045 0.615,-14.712 0.498,-13.989 0.004,-0.018 0.005,-0.165 0.844,-13.265 0.605,-13.256 0.001,-0.004 0.001,-0.029 0.695,-13.205 0.255,-13.203 v -0.002 l 10e-4,-0.046 0.35,-12.834 0.253,-12.126 v 0 l 0.233,-11.329 h 10e-4 v -0.009 l 0.253,-10.988 v 0 l 0.234,-10.507 10e-4,-0.006 0.002,-0.102 0.487,-12.443 0.254,-11.855 0.001,-0.004 v -0.052 l 0.373,-12.158 v 0 l 0.371,-11.994 0.254,-12.116 10e-4,-0.003 0.001,-0.055 0.37,-12.087 0.138,-11.618 10e-4,-0.005 0.002,-0.137 0.373,-11.108 v 0 L -11.48,92.631 V 92.63 l 0.367,-10.829 0.251,-10.481 0.003,-0.015 0.007,-0.223 0.599,-9.824 0.266,-9.587 10e-4,-0.006 0.002,-0.074 0.385,-9.319 0.269,-8.686 0.161,-8.025 0.002,-0.007 0.002,-0.127 0.313,-7.486 0.004,-0.014 0.004,-0.117 0.422,-6.557 0.195,-6.089 0.006,-0.024 0.009,-0.249 0.438,-5.657 0.255,-4.714 0.008,-0.032 0.01,-0.195 0.377,-3.982 0.006,-0.023 0.005,-0.078 0.381,-3.281 0.025,-0.078 0.017,-0.203 0.402,-2.342 0.002,-0.003 0.366,-2.16 0.069,-0.19 0.039,-0.287 0.339,-1.245 0.227,-1.012 0.185,-0.441 0.068,-0.338 0.192,-0.286 0.171,-0.408 0.427,-0.478 0.235,-0.349 0.192,-0.13 0.194,-0.216 0.764,-0.429 0.371,-0.251 0.117,-0.023 0.129,-0.072 1.617,-0.281 z"
       fill-mode="evenodd" />
  </g>
  <g
     id="g1304"
     transform="matrix(0.15,0,0,0.15,5.97753,8.4978)">
    <path
       style="fill:#000000"
       inkscape:connector-curvature="0"
       id="path1302"
       d="m 179.998,-19.663 8.299,0.117 h 0.001 0.002 l 7.716,0.117 0.005,10e-4 0.127,0.002 7.138,0.234 h 0.001 v 0 l 6.322,0.218 0.015,0.004 0.153,0.004 5.948,0.343 4.776,0.114 0.015,0.003 0.213,0.006 4.342,0.235 0.036,0.009 0.221,0.009 3.527,0.316 3.289,0.109 0.038,0.009 0.37,0.016 2.717,0.236 0.002,0.001 2.6,0.236 0.152,0.043 0.474,0.042 1.613,0.284 1.152,0.088 0.046,0.013 0.193,0.01 1.087,0.121 0.053,0.016 0.15,0.01 0.975,0.138 1.1,0.371 0.816,0.165 0.328,0.221 0.413,0.139 1.038,0.839 0.726,0.49 0.145,0.214 0.226,0.183 0.848,1.411 0.471,0.697 0.025,0.128 0.078,0.129 0.516,2.811 -0.619,3.068 -1.69,2.506 -2.505,1.689 -3.068,0.619 -0.846,-0.045 -0.972,-0.105 -0.004,-0.001 -0.918,-0.101 -1.397,-0.108 -0.163,-0.044 -0.577,-0.051 -1.67,-0.293 -2.259,-0.205 -0.002,-10e-4 -2.42,-0.21 -3.299,-0.11 -0.048,-0.011 -0.446,-0.022 -3.576,-0.35 -4.026,-0.217 -4.791,-0.114 -0.017,-0.004 -0.24,-0.007 -6.014,-0.347 -6.214,-0.245 -7.018,-0.23 -7.642,-0.116 v 0 l -8.224,-0.116 h -17.18 l -8.82,0.116 h -0.004 v 0 l -8.755,0.117 h -0.007 v 0 l -8.872,0.117 h -0.006 v 0 l -8.728,0.115 -8.592,0.441 -0.318,0.008 -0.01,0.002 -8.186,0.098 -8.287,0.328 -0.325,0.007 h -0.022 l -8.128,-0.024 -7.646,0.304 h -0.006 l -7.457,0.311 -0.122,0.002 -0.008,0.002 -7.054,0.189 -6.912,0.529 -0.372,0.014 -0.029,0.007 -6.881,0.186 -6.741,0.415 -0.124,0.004 -0.014,0.003 -6.511,0.301 -6.011,0.523 h -0.01 L 31.885,0.709 31.774,0.715 31.754,0.72 26.581,1.117 22.037,1.73 21.62,1.758 21.532,1.782 17.263,2.079 13.751,2.393 13.464,2.406 13.426,2.415 9.119,2.62 H 9.112 V 2.621 L 4.923,2.826 4.766,2.83 4.755,2.832 1.497,2.923 -0.074,2.976 -1.416,3.881 -3.154,4.232 -3.716,4.196 -4.447,4.104 -4.789,4.173 -6.777,3.771 -6.816,3.745 -7.37,3.648 -7.491,3.579 l -2.59,-0.523 -2.223,-1.499 -1.499,-2.222 -0.549,-2.722 0.276,-1.951 0.215,-0.484 0.058,-0.288 0.208,-0.307 0.294,-0.66 0.815,-0.986 0.182,-0.269 0.093,-0.063 0.108,-0.13 1.581,-1.1 0.752,-0.383 0.181,-0.043 0.198,-0.138 2.695,-0.598 0.698,-0.015 1.132,-0.176 0.557,-0.044 0.118,-0.031 2.08,-0.133 0.133,-0.005 0.015,-0.003 2.903,-0.134 0.032,-0.001 0.002,-10e-4 3.21,-0.14 4.11,-0.255 0.03,-0.001 0.003,-10e-4 4.167,-0.252 3.426,-0.359 0.096,-0.005 0.021,-0.006 4.089,-0.379 4.5,-0.712 0.37,-0.03 0.108,-0.031 5.337,-0.52 h 0.005 l 5.737,-0.629 0.074,-0.004 0.017,-0.005 6.154,-0.627 0.3,-0.015 0.049,-0.013 6.614,-0.391 6.792,-0.504 0.259,-0.01 0.028,-0.007 6.826,-0.27 6.909,-0.605 0.37,-0.016 0.04,-0.01 7.191,-0.271 7.392,-0.386 0.035,-0.001 0.003,-0.001 7.805,-0.389 0.382,-0.009 0.003,-10e-4 8.133,-0.023 8.233,-0.361 0.223,-0.005 0.01,-0.002 8.14,-0.132 8.585,-0.476 0.34,-0.009 0.012,-0.003 8.873,-0.117 h 0.005 v 0 l 8.872,-0.116 h 0.004 v 0 l 8.755,-0.117 h 0.007 v 0 l 8.872,-0.117 0.109,-0.001 h 17.288 z"
       fill-mode="evenodd" />
  </g>
  <g
     id="g1308"
     transform="matrix(0.15,0,0,0.15,4.21504,60.26655)">
    <path
       style="fill:#000000"
       inkscape:connector-curvature="0"
       id="path1306"
       d="m 77.122,-12.471 0.859,0.105 0.369,0.118 0.685,0.09 1.392,0.573 0.262,0.083 0.064,0.051 0.098,0.04 0.632,0.355 1.517,1.154 0.155,0.104 0.143,0.213 0.122,0.089 0.436,0.483 0.406,0.653 0.345,0.32 0.301,0.458 0.406,0.861 0.273,0.405 0.062,0.304 0.213,0.452 0.34,2.289 -0.615,3.045 L 83.911,2.261 81.424,3.937 78.379,4.552 75.335,3.937 75.199,3.845 75.06,3.815 74.345,3.27 74.264,3.216 l -0.4,0.036 -0.15,0.007 -0.028,0.007 -1.376,0.1 -0.589,0.022 h -2.836 l -1.637,0.182 -0.9,0.051 v 0 0 H 66.289 L 64.216,3.606 H 62.329 L 60.08,3.713 60.033,3.714 60.029,3.715 57.359,3.831 57.314,3.832 57.31,3.833 54.755,3.934 h -0.01 v 0 L 51.84,4.05 51.826,4.051 H 51.825 L 48.92,4.167 48.593,4.174 H 45.556 L 45.219,4.167 42.049,4.029 v 0 L 38.792,3.893 H 38.791 L 35.412,3.755 35.409,3.754 H 35.386 L 32.333,3.613 v 0 L 28.62,3.452 28.56,3.437 28.135,3.414 24.759,3.045 21.394,2.899 18.143,2.858 15.232,3.015 12.69,3.471 12.404,3.497 12.296,3.532 9.237,3.932 6.707,4.424 6.399,4.455 6.271,4.497 4.109,4.798 2.525,5.06 2.051,5.164 1.874,5.245 1.522,5.448 1.341,5.569 0.535,5.957 0.154,6.214 -0.111,6.267 -0.49,6.449 -2.57,6.763 -5.293,6.214 -7.518,4.714 -9.017,2.49 l -0.55,-2.724 0.314,-2.08 0.183,-0.382 0.053,-0.261 0.249,-0.37 0.106,-0.222 0.004,-0.017 0.013,-0.017 0.257,-0.537 0.286,-0.429 0.409,-0.373 0.175,-0.259 0.149,-0.101 0.49,-0.651 0.745,-0.65 0.368,-0.221 0.889,-0.659 1.105,-0.612 1.376,-0.557 0.195,-0.092 0.102,-0.029 0.007,-0.002 0.005,-10e-4 1.224,-0.347 0.316,-0.045 0.216,-0.086 1.812,-0.382 0.189,-0.02 0.091,-0.034 2.074,-0.368 2.564,-0.572 0.353,-0.04 0.172,-0.06 3.102,-0.482 2.785,-0.574 0.769,-0.08 0.224,-0.06 3.592,-0.272 0.481,-0.018 0.017,-0.004 3.616,-0.045 0.1,-0.001 0.144,0.001 3.747,0.072 0.028,0.006 0.458,0.019 3.383,0.285 3.492,0.066 0.004,0.001 0.077,10e-4 3.05,0.094 v 0 l 3.367,0.094 v 0 h 10e-4 l 3.283,0.098 h 0.001 l 3.033,0.093 h 2.759 l 2.749,-0.11 h 0.015 l 10e-4,-10e-4 2.884,-0.115 2.495,-0.129 0.075,-0.002 0.008,-0.002 2.67,-0.116 h 0.005 l 2.414,-0.115 0.39,-0.01 h 2.073 l 1.668,-0.012 1.666,-0.186 0.901,-0.051 h 2.899 l 1.002,-0.095 0.051,-0.003 0.01,-0.003 1.254,-0.114 0.579,-0.027 0.029,-0.007 0.928,-0.015 0.139,-0.002 h 0.818 z"
       fill-mode="evenodd" />
  </g>
  <g
     id="g1312"
     transform="matrix(0.15,0,0,0.15,35.92129,71.3103)">
    <path
       style="fill:#000000"
       inkscape:connector-curvature="0"
       id="path1310"
       d="m 1.841,-4.241 0.298,0.2 0.227,0.061 0.292,0.289 0.687,0.463 0.44,0.653 0.286,0.283 0.406,0.686 0.069,0.248 0.403,0.802 0.303,0.953 0.027,0.173 0.061,0.139 0.308,1.197 0.05,0.389 0.07,0.209 0.264,1.817 0.001,0.016 10e-4,0.002 0.37,2.518 0.035,0.471 0.021,0.082 0.134,2.527 0.354,3.306 0.015,0.268 0.011,0.044 0.228,3.908 0.337,4.219 0.021,0.512 -0.003,0.165 -0.125,4.683 -0.002,0.01 -0.003,0.13 -0.235,4.646 -0.013,5.102 v 0 10e-4 l -0.017,5.491 -0.016,6.073 v 0.001 L 7.145,48.619 7.012,54.82 7.01,54.828 7.007,54.954 6.739,61.28 v 0 l -0.271,6.307 -0.27,7.101 v 10e-4 l -0.269,7.41 -0.172,7.548 v 10e-4 L 5.58,97.3 5.519,104.956 v 0.002 l -0.001,0.094 -0.178,8.248 -0.071,8.597 -0.001,0.007 -0.007,0.287 -0.421,8.672 -0.189,8.377 -0.075,8.593 -10e-4,0.005 -0.003,0.173 -0.301,9.19 -0.186,8.951 -0.002,0.011 -0.004,0.178 -0.417,8.931 -0.301,10.907 -0.199,8.158 v 0 l -0.202,8.407 -0.002,0.006 -0.001,0.092 -0.32,8.426 v 0.001 l -0.318,8.411 -0.003,0.012 -0.003,0.11 -0.442,7.957 -0.215,7.953 v 0 0.005 l -0.216,7.418 -0.1,7.533 -0.002,0.01 -0.007,0.26 -0.347,7.189 -0.232,7.182 v 0 l -0.234,7.129 v 0.001 l -0.217,7.107 v 0.001 L 0.3,279.56 0.071,286.32 v 24.82 l 0.227,5.667 0.004,0.169 0.001,0.008 0.117,5.949 v 0.003 l 0.115,5.64 0.227,5.446 0.344,5.496 0.004,0.126 0.004,0.015 0.248,5.238 0.005,0.205 0.003,0.012 0.117,5.248 0.002,0.184 v 4.704 l 0.222,4.333 v 0.004 l 0.248,4.26 0.015,0.483 v 3.94 l 0.238,3.565 0.017,0.499 0.002,0.008 0.022,3.619 v 0.05 l -0.014,0.47 -0.198,3.364 0.018,2.769 v 0.013 10e-4 l 0.015,3.034 0.001,0.044 -0.032,0.71 -0.22,2.486 v 0.002 l -0.181,2.14 0.013,1.724 v 0.064 l -0.016,0.504 -0.101,1.62 v 1.73 l -0.018,0.538 -0.118,1.777 v 0 l -0.098,1.587 -0.114,2.059 -10e-4,0.002 v 0.003 l -0.118,2.008 v 0.002 0.005 l -0.086,1.38 0.086,1.472 0.015,0.498 v 4.439 l -0.011,0.425 -0.105,2.01 v 5.737 l 0.101,1.726 0.015,0.498 v 2.102 l -0.013,0.476 -0.103,1.752 v 1.627 l -0.016,0.505 -0.118,1.893 -0.001,0.003 v 0.007 l -0.118,1.777 v 0 l -0.098,1.561 v 1.263 l -0.028,0.672 -0.119,1.432 -0.061,0.217 -0.066,0.668 -0.242,1.22 -0.17,0.432 -0.08,0.488 -0.191,0.577 -0.092,0.466 -0.079,0.554 -0.107,0.86 -0.009,0.029 -0.005,0.071 -0.036,0.25 v 0.357 l -0.11,1.331 -0.074,0.448 -0.092,0.93 -0.023,0.077 -0.017,0.239 -0.052,0.361 v 0.703 l -0.094,1.228 -0.139,0.912 v 4.481 l 0.133,0.865 0.1,1.274 v 1.402 0.084 l -0.016,1.477 v 4.163 l -0.13,1.442 -0.241,1.335 -0.068,0.181 -0.035,0.282 -0.179,0.722 -0.313,1.751 -0.274,0.748 -0.09,0.159 -0.026,0.129 -0.278,0.414 -0.782,1.392 -0.439,0.417 -0.223,0.332 -0.427,0.288 -0.637,0.607 -1.011,0.504 -0.48,0.324 -0.285,0.057 -0.379,0.19 -2.465,0.385 -3.129,-0.632 -2.555,-1.723 -1.722,-2.555 -0.632,-3.128 0.113,-0.772 0.007,-0.104 -0.016,-0.222 -0.166,-1.513 -0.044,-0.777 0.539,-2.669 0.244,-0.363 v -1.364 l -0.015,-1.472 v -0.089 -0.781 l -0.134,-0.865 -0.1,-1.274 v -5.724 l 0.094,-1.228 0.14,-0.912 v -0.663 l 0.044,-0.851 0.103,-0.972 v -10e-4 l 0.111,-1.119 0.037,-0.124 0.03,-0.367 0.007,-0.04 v -0.264 l 0.082,-1.145 0.112,-0.792 0.107,-0.86 0.009,-0.03 0.005,-0.07 0.122,-0.862 0.044,-0.13 0.027,-0.269 0.242,-1.22 0.17,-0.432 0.08,-0.488 0.191,-0.577 0.044,-0.222 0.05,-0.603 v -1.178 l 0.016,-0.505 0.118,-1.893 10e-4,-0.002 v -0.007 l 0.118,-1.778 v 0 l 0.098,-1.561 v -1.613 l 0.013,-0.475 0.103,-1.752 v -1.623 l -0.101,-1.726 -0.015,-0.498 v -6.191 l 0.011,-0.425 0.105,-2.01 v -3.985 l -0.101,-1.726 -0.015,-0.498 0.015,-0.505 0.118,-1.893 v 0 l 0.115,-1.955 v 0 l 0.115,-2.075 0.007,-0.026 0.006,-0.158 0.13,-1.602 0.093,-1.403 v -1.713 l 0.016,-0.504 0.103,-1.652 0.014,-1.88 0.004,-0.017 0.034,-0.698 0.252,-2.602 0.001,-0.003 0.21,-2.072 0.014,-2.648 v 0 -0.008 l 0.02,-3.04 0.002,-0.01 0.017,-0.493 0.235,-3.37 0.019,-3.121 -0.196,-3.596 -0.012,-0.452 v -4.007 l -0.206,-4.106 v -0.008 -10e-4 l -0.233,-4.536 -0.011,-0.424 v -4.819 l -0.113,-5.094 -0.212,-5.102 -0.343,-5.495 -0.006,-0.17 -0.004,-0.017 -0.233,-5.591 -0.004,-0.175 -0.002,-0.009 -0.117,-5.715 v -0.014 -0.001 l -0.115,-5.878 -0.23,-5.743 -0.007,-0.332 v -25.114 l 0.005,-0.267 0.234,-6.906 v 0 l 0.249,-7.134 v 0 l 0.233,-7.107 v 0 l 0.234,-7.238 0.002,-0.009 0.003,-0.104 0.344,-7.126 0.131,-7.473 10e-4,-0.006 0.002,-0.112 0.25,-7.488 v 0 l 0.248,-8.04 0.005,-0.018 0.006,-0.2 0.484,-8.016 0.379,-8.352 v -0.001 l 0.379,-8.347 0.264,-8.358 v 0 l 0.267,-8.184 10e-4,-0.002 v -0.013 l 0.398,-10.992 0.003,-0.014 0.004,-0.132 0.509,-8.901 0.278,-8.899 0.002,-0.007 10e-4,-0.07 0.394,-9.139 0.157,-8.552 10e-4,-0.005 10e-4,-0.092 0.276,-8.538 0.003,-0.015 0.005,-0.163 0.5,-8.619 0.16,-8.501 10e-4,-0.005 0.002,-0.105 0.287,-8.253 0.171,-7.665 0.002,-0.006 0.001,-0.094 0.29,-7.721 v -10e-4 l 0.295,-7.6 0.003,-0.012 0.003,-0.106 0.43,-7.49 v -0.001 l 0.431,-7.14 10e-4,-0.006 0.001,-0.028 0.43,-6.324 0.001,-0.002 0.429,-6.25 0.328,-6.068 0.215,-6.012 0.001,-0.002 v -0.012 l 0.218,-5.498 v -10e-4 0 l 0.22,-5.266 0.009,-0.038 0.014,-0.291 0.453,-4.727 0.312,-4.266 -0.113,-4.001 -0.003,-0.177 V 17.875 L -4.881,13.981 -4.973,10.558 -4.975,10.396 -4.967,10.09 -4.838,7.659 -4.92,5.345 -4.924,5.14 -4.923,5.036 -4.888,3.164 -4.885,3.15 -4.876,2.9 -4.787,1.613 -4.784,1.602 -4.782,1.55 -4.716,0.778 -4.729,0.228 -4.73,0.117 -4.358,-1.724 -3.345,-3.228 -1.841,-4.241 0,-4.613 Z"
       fill-mode="evenodd" />
  </g>
  <g
     id="g1320"
     transform="matrix(0.15,0,0,0.15,37.06503,53.1228)">
    <path
       style="fill:#000000"
       inkscape:connector-curvature="0"
       id="path1314"
       d="m -11.91,-8.52 0.72,0.067 0.055,0.016 0.184,0.013 0.835,0.113 0.004,10e-4 0.799,0.109 0.327,0.108 0.513,0.073 0.403,0.117 0.548,0.082 0.357,0.123 0.488,0.074 0.783,0.245 0.008,0.004 0.656,0.207 0.789,0.22 0.091,0.043 0.099,0.016 0.772,0.397 0.495,0.234 0.045,0.043 0.055,0.028 0.661,0.479 0.536,0.624 0.561,0.496 0.423,0.606 0.053,0.167 0.129,0.05 0.446,0.259 0.248,0.061 1.801,0.938 0.039,0.028 0.038,0.016 2.151,1.17 0.186,0.138 0.191,0.086 2.249,1.42 0.145,0.153 0.319,0.169 1.888,1.416 0.057,0.068 0.107,0.06 1.639,1.31 0.025,0.031 0.044,0.026 1.998,1.645 0.279,0.357 0.409,0.29 1.749,1.865 0.151,0.237 0.182,0.143 1.724,2.105 0.297,0.519 0.247,0.234 1.304,2.064 1.362,1.921 0.239,0.473 0.358,0.52 1.149,2.294 0.078,0.327 0.292,0.538 0.779,2.176 0.028,0.161 0.076,0.15 0.686,2.167 0.098,0.623 0.162,0.457 0.28,1.698 0.381,1.517 0.145,1.158 0.076,0.306 0.1,1.969 0.011,0.391 -0.012,0.408 -0.117,2.122 -0.069,0.271 -0.115,0.986 -0.477,2.036 -0.166,0.387 -0.066,0.377 -0.732,2.032 -0.257,0.464 -0.065,0.272 -1.07,2.145 -0.077,0.111 -0.053,0.129 -1.187,2.139 -0.083,0.111 -0.051,0.115 -1.303,2.134 -0.219,0.211 -0.265,0.478 -1.755,2.224 -1.509,1.942 -0.405,0.33 -0.355,0.501 -1.718,1.61 -1.626,1.708 -0.071,0.05 -0.051,0.075 -1.986,1.986 -0.817,0.551 -0.409,0.435 -2.07,1.326 -1.946,1.514 -0.557,0.306 -0.227,0.229 -2.314,1.366 -0.106,0.046 -0.084,0.063 -2.567,1.431 -2.038,1.264 -0.144,0.065 -0.126,0.095 -2.195,1.248 -0.988,0.41 -0.387,0.197 -1.794,0.58 -1.739,0.753 -0.692,0.146 -1.01,0.36 -2.06,0.345 -0.245,0.02 -0.085,0.028 -1.834,0.23 -0.919,0.058 h -1.869 l -1.314,-0.122 -1.914,-0.357 -0.509,-0.195 -0.53,-0.091 -1.685,-0.6 -0.6,-0.33 -0.845,-0.395 -1.438,-0.936 -0.193,-0.21 -0.404,-0.23 -1.298,-1.062 -0.028,-0.036 -0.05,-0.029 -1.529,-1.294 -0.265,-0.346 -0.376,-0.272 -1.281,-1.396 -0.507,-0.807 -0.357,-0.351 -0.974,-1.621 -1.048,-1.57 -0.16,-0.335 -0.234,-0.326 -1.149,-2.182 -0.117,-0.468 -0.543,-1.298 -0.555,-2.409 -0.019,-0.16 -0.033,-0.087 -0.46,-2.29 v -0.007 l -0.536,-2.436 -0.026,-0.235 -0.043,-0.118 -0.461,-2.643 -0.078,-0.88 -0.029,-0.124 -0.093,-2.558 -0.005,-0.269 V 38.43 l 0.009,-0.34 0.141,-2.936 0.019,-0.078 0.031,-0.479 0.35,-2.687 0.358,-3.087 0.072,-0.232 0.058,-0.505 0.71,-3.085 0.001,-0.001 0.563,-2.597 0.207,-0.505 0.085,-0.46 0.863,-2.27 0.777,-2.5 0.288,-0.574 0.079,-0.342 0.952,-1.975 0.862,-2.223 0.283,-0.487 0.284,-0.631 1.32,-2.12 0.048,-0.046 0.049,-0.103 1.26,-1.891 1.027,-1.656 0.079,-0.074 0.083,-0.169 1.209,-1.757 0.035,-0.031 0.032,-0.063 1.092,-1.519 0.297,-0.256 0.292,-0.45 1.086,-1.139 0.153,-0.107 0.106,-0.15 1.079,-1.015 0.624,-0.401 0.312,-0.336 0.872,-0.57 0.639,-0.533 0.706,-0.657 0.87,-0.554 0.349,-0.345 0.679,-0.391 0.321,-0.229 0.412,-0.21 0.158,-0.156 0.925,-0.529 0.336,-0.09 0.964,-0.427 0.139,-0.08 0.109,-0.029 0.101,-0.045 0.005,-10e-4 0.192,-0.144 2.33,-0.631 0.8,-0.06 0.495,-0.019 z m -1.496,14.403 -1.017,0.965 -0.38,0.246 -0.219,0.259 -0.672,0.504 -0.497,0.528 -0.646,0.761 -0.798,1.199 -1.008,1.564 -0.952,1.646 -0.054,0.054 -0.058,0.127 -1.236,1.97 -0.882,1.474 -0.71,1.906 -0.154,0.272 -0.041,0.184 -0.82,1.766 -0.666,2.243 -0.117,0.24 -0.039,0.21 -0.747,1.966 -0.479,2.209 -0.009,0.021 -0.002,0.02 -0.606,2.63 -0.291,2.753 -0.011,0.034 -0.006,0.103 -0.306,2.35 -0.079,2.458 v 2.495 l 0.108,1.958 0.363,2.083 0.542,2.299 0.021,0.181 0.039,0.101 0.443,2.206 0.352,1.426 0.593,1.126 0.942,1.411 0.107,0.224 0.091,0.089 0.681,1.134 0.489,0.533 1.133,0.959 0.993,0.812 0.375,0.256 0.249,0.089 0.663,0.124 h 0.757 l 1.3,-0.163 1.013,-0.17 1.19,-0.545 0.289,-0.063 0.399,-0.212 1.413,-0.488 1.481,-0.875 2.043,-1.315 0.178,-0.082 0.163,-0.125 2.625,-1.508 1.819,-1.11 1.827,-1.463 0.377,-0.212 0.177,-0.192 1.71,-1.13 1.358,-1.358 1.643,-1.78 0.214,-0.153 0.154,-0.217 1.406,-1.318 1.136,-1.51 0.049,-0.041 0.042,-0.077 1.48,-1.875 0.985,-1.613 1.018,-1.834 0.755,-1.512 0.408,-1.189 0.232,-0.989 L 10.973,31.93 10.914,31.054 10.618,29.873 10.58,29.575 10.514,29.4 10.221,27.848 9.709,26.232 9.08,24.58 8.366,23.154 7.223,21.602 7.056,21.282 6.91,21.144 5.783,19.362 4.472,17.816 3.178,16.435 1.65,15.178 0.125,14.001 -1.448,12.821 -3.272,11.67 -5.199,10.58 -6.481,9.882 -7.894,9.303 -8.225,9.103 -8.676,8.918 -10.39,7.951 -10.492,7.873 -10.596,7.827 -11.727,7.13 -12.729,6.55 -13.401,5.876 Z"
       fill-mode="evenodd" />
    <g
       id="g1318"
       transform="translate(-25.875,13.625)">
      <path
         style="fill:#000000"
         inkscape:connector-curvature="0"
         id="path1316"
         d="m 10.726,-14.571 0.021,0.014 0.024,0.005 0.689,0.465 1.361,0.896 0.029,0.04 0.04,0.028 0.533,0.79 0.837,1.194 0.016,0.072 0.042,0.062 0.208,1.031 0.31,1.351 0.235,0.35 0.106,0.525 0.27,0.655 0.001,0.009 1.144,0.771 0.793,1.175 0.196,0.04 1.898,1.28 1.78,-0.355 2.775,0.553 0.015,0.01 0.017,0.003 0.494,0.333 1.056,-0.16 0.316,-0.064 2.237,0.352 0.329,0.166 0.25,0.051 0.443,0.298 0.931,0.469 0.546,0.526 0.38,0.257 0.215,0.318 0.416,0.402 0.606,1.114 0.314,0.466 0.036,0.179 0.111,0.203 0.179,0.498 0.238,0.552 0.167,0.802 0.381,1.193 0.087,0.685 0.257,1.11 0.196,1.683 v 0.403 l 0.128,0.051 0.044,0.026 0.037,0.007 0.174,0.118 1.554,0.921 0.072,0.077 0.484,0.387 0.829,1.037 0.032,0.035 0.007,0.014 0.155,0.194 0.637,0.624 0.332,0.553 0.442,1.011 0.232,0.446 0.218,0.65 0.083,0.498 0.162,0.416 0.108,0.538 0.02,0.188 0.03,0.086 0.111,0.658 0.085,1.008 0.018,0.078 0.015,0.81 0.002,0.146 -0.006,0.085 0.03,0.149 -0.063,0.31 -0.034,0.475 -0.113,0.796 -0.107,0.867 -0.065,0.202 -0.048,0.431 -0.242,1.1 -0.116,0.279 v 0.212 l -0.056,0.886 -0.061,0.496 v 0.371 0 l -0.272,1.956 -0.231,0.532 -0.058,0.291 -0.191,0.283 -0.266,0.612 -0.368,0.615 -0.003,0.003 -0.348,0.581 -0.055,0.055 -0.272,0.517 -0.458,0.453 -0.237,0.353 -0.37,0.249 -0.489,0.485 -0.597,0.307 -0.074,0.072 -0.313,0.129 -0.442,0.298 -0.238,0.048 -0.301,0.155 -0.37,0.059 -0.02,0.009 -0.183,0.024 -1.686,0.27 -0.276,-0.055 -0.144,0.2 -0.136,0.117 -0.351,0.521 -0.467,0.467 -0.228,0.154 -0.028,0.035 -0.369,0.309 -0.14,0.166 -0.11,0.082 -0.603,0.754 -0.142,0.114 -0.12,0.193 -1.057,1.175 -0.329,0.241 -0.24,0.324 -1.044,0.928 -0.195,0.119 -0.112,0.139 -1.027,0.819 -0.406,0.227 -0.612,0.457 -0.335,0.186 -0.557,1.34 -0.486,0.853 -1.129,1.473 -0.012,0.009 -0.005,0.007 -0.037,0.025 -1.412,1.097 -0.579,0.246 -0.269,0.181 -0.302,0.061 -0.582,0.247 -1.929,0.26 -0.334,-0.067 -0.256,0.33 -0.465,0.729 -0.18,0.158 -0.174,0.26 -0.154,0.103 -0.125,0.16 -0.47,0.29 -0.388,0.342 -0.63,0.295 -0.488,0.329 -0.091,0.019 -0.089,0.055 -0.316,0.059 -0.206,0.097 -1.461,0.216 -0.597,0.112 -2.301,-0.465 -0.15,0.15 -2.049,1.382 -2.509,0.506 v 0 L 0.401,52.057 0.066,51.894 -0.173,51.846 -0.535,51.602 -1.3,51.23 -1.879,50.695 -2.222,50.464 -2.373,50.24 -2.674,49.962 -3.435,48.666 -3.603,48.415 -3.615,48.358 -3.649,48.3 l -0.218,-0.541 -0.158,-0.81 -0.279,-0.915 -0.114,-1.021 -0.01,-0.17 -0.01,-0.037 -0.115,-1.377 -0.024,-0.56 v -1.752 l 0.012,-0.402 0.065,-1.043 -0.489,-0.725 -0.505,-2.502 0.05,-0.798 0.12,-0.966 0.165,-0.515 0.112,-0.689 0.214,-0.646 0.323,-1.082 0.036,-0.073 0.011,-0.068 0.046,-0.14 -0.529,-0.357 -1.357,-2.013 -0.498,-2.465 v -1.752 l 0.042,-0.726 0.137,-1.196 0.044,-0.142 0.034,-0.343 0.241,-1.209 0.158,-0.402 0.072,-0.42 0.133,-0.379 v -1.141 l 0.035,-0.658 0.236,-2.248 0.016,-0.053 0.011,-0.157 0.374,-2.602 0.002,-0.003 0.348,-2.442 V 10.758 L -4.575,8.239 -4.248,5.618 -4.023,3.145 -4.019,3.131 -4.017,3.082 -3.78,0.834 -3.779,0.83 V 0.826 L -3.643,-0.397 -3.75,-0.998 V -1 l -0.156,-0.774 -0.068,-0.202 -0.272,-0.404 -0.392,-1.942 0.392,-1.942 1.069,-1.586 0.207,-0.139 0.022,-0.179 0.169,-0.527 0.114,-0.691 0.273,-0.515 0.135,-0.42 0.265,-0.336 0.246,-0.464 0.362,-0.483 0.296,-0.248 0.275,-0.408 1.084,-0.731 0.51,-0.427 0.192,-0.046 0.207,-0.14 2.441,-0.493 1.058,0.151 0.214,-0.141 0.689,-0.465 0.024,-0.005 0.021,-0.014 2.55,-0.505 z"
         fill-mode="evenodd" />
    </g>
  </g>
  <g
     id="g1324"
     transform="matrix(0.15,0,0,0.15,76.15878,62.40405)">
    <path
       style="fill:#000000"
       inkscape:connector-curvature="0"
       id="path1322"
       d="m -66.648,-48.956 2.662,0.016 h 2.894 0.054 l 2.807,0.018 0.005,10e-4 0.292,0.006 2.821,0.118 0.041,0.01 0.324,0.014 2.72,0.236 0.012,0.003 0.04,0.002 2.604,0.252 0.057,0.017 0.187,0.012 2.845,0.371 0.018,0.006 0.036,0.003 2.614,0.371 0.278,0.094 0.505,0.062 2.974,0.73 0.106,0.047 0.123,0.017 2.621,0.742 0.003,10e-4 2.583,0.7 0.528,0.245 0.415,0.082 2.381,0.981 0.18,0.109 0.119,0.026 2.577,1.204 2.336,1.043 0.01,0.007 2.125,0.948 2.435,0.885 0.704,0.392 0.931,0.438 2.225,1.459 0.006,0.005 v 0 l 2.215,1.469 0.124,0.135 0.26,0.139 2.033,1.54 2.251,1.649 0.32,0.375 0.542,0.361 1.757,1.73 1.864,1.749 0.068,0.097 0.102,0.068 1.345,1.343 0.203,0.301 0.252,0.195 1.214,1.442 0.249,0.425 0.233,0.21 0.967,1.422 0.1,0.203 0.161,0.205 0.801,1.343 0.756,1.164 0.108,0.23 0.161,0.216 0.696,1.241 0.637,1.053 0.534,1.213 0.193,0.382 0.33,1.04 0.007,0.039 0.011,0.023 0.329,1.041 10e-4,0.002 0.397,1.151 0.052,0.306 0.123,0.276 0.298,1.163 0.145,1.133 0.066,0.273 0.045,1.024 0.045,0.766 v 0.005 l 0.039,0.611 0.053,0.386 0.009,0.132 0.012,0.038 0.101,0.924 0.035,0.611 L 4.792,-4.324 4.775,-3.503 4.759,-3.432 4.692,-2.684 4.57,-2.011 4.499,-1.453 4.233,-0.635 4.127,-0.13 4.02,0.021 3.956,0.22 3.257,1.099 3,1.462 2.779,1.669 2.562,1.876 1.786,2.379 1.395,2.643 1.372,2.648 1.351,2.661 1.267,2.678 1.168,2.745 1.164,2.746 1.161,2.748 0,2.982 -0.733,2.834 -1.506,2.691 -1.833,2.567 -1.835,2.566 -2.106,2.465 -2.471,2.179 -2.953,2.04 -3.688,1.226 -4.362,0.698 -4.468,0.361 -4.737,0.062 -5.025,-0.519 -5.117,-0.91 -5.482,-1.892 -5.533,-2.169 -5.971,-2.642 -6.525,-3.236 -6.843,-3.733 -7.133,-3.993 -7.72,-4.851 -7.908,-5.233 -8.047,-5.376 -8.639,-6.43 -8.64,-6.434 l -0.663,-1.15 -0.003,-0.007 -0.542,-0.92 -0.014,-0.033 -0.01,-0.01 -0.31,-0.528 -0.544,-0.677 -0.123,-0.216 -0.126,-0.109 -0.765,-1.064 -0.849,-1.044 -0.102,-0.18 -0.11,-0.093 -0.891,-1.2 -0.755,-0.915 -0.846,-0.847 -1.192,-1.003 -2.013,-1.669 -0.075,-0.097 -0.128,-0.079 -1.496,-1.334 -1.937,-1.294 -0.02,-0.023 -0.04,-0.019 -1.937,-1.332 -2.064,-1.238 -0.007,-0.006 -1.442,-0.875 -1.875,-0.62 -0.266,-0.14 -0.21,-0.041 -2.524,-1.034 -0.01,-0.006 -2.459,-1.007 -0.087,-0.052 -0.058,-0.012 -2.438,-1.074 -1.659,-0.641 -2.236,-0.558 -0.018,-0.008 -0.01,-0.001 -2.533,-0.661 -2.353,-0.549 -2.172,-0.282 -2.558,-0.304 -2.438,-0.207 h -0.003 l -2.489,-0.216 -2.401,-0.1 -2.594,0.016 h -0.057 -2.895 l -2.175,0.013 -2.398,0.289 h -0.009 l -2.426,0.322 -2.19,0.457 -2.533,0.729 h -10e-4 l -2.335,0.745 -0.008,0.001 -2.623,0.896 -0.014,0.003 -2.146,0.748 -2.199,1.115 -2.17,1.185 -2.276,1.449 -0.074,0.034 -0.064,0.052 -2.476,1.527 -2.09,1.464 -0.284,0.142 -0.302,0.236 -2.168,1.283 -1.929,1.446 -0.117,0.063 -0.133,0.119 -2.309,1.617 -0.261,0.13 -0.276,0.219 -1.748,1.05 -1.317,1.109 -1.77,1.868 -1.978,2.094 -0.331,0.234 -0.229,0.308 -1.785,1.575 -1.334,1.334 -1.267,1.719 -0.015,0.013 -0.012,0.023 -1.242,1.657 -0.97,2.023 -1.284,3.001 -1.014,2.584 -0.809,3.245 -0.045,0.101 -0.016,0.117 -1.077,3.773 -0.754,3.78 -0.014,0.034 -0.004,0.042 -0.869,4.025 -0.5,3.609 -0.331,4.416 -0.009,0.035 -0.008,0.149 -0.446,4.47 -0.217,4.341 -0.114,4.797 -0.001,0.002 v 0.015 l -0.127,4.693 0.11,4.837 0.226,5.195 0.332,5.083 0.558,5.016 0.01,0.172 0.011,0.04 0.456,5.009 0.541,4.32 0.771,4.397 0.034,0.384 0.042,0.136 0.55,4.616 0.868,4.547 0.035,0.358 0.047,0.145 0.696,5.094 v 0.003 l 0.793,5.09 0.015,0.193 0.021,0.066 0.678,5.193 0.889,4.99 v 0.004 l 0.898,4.484 0.021,0.203 0.033,0.092 0.762,4.451 0.945,3.671 0.002,0.015 1.139,4.204 0.01,0.074 0.019,0.042 1.126,4.271 1.291,4.083 1.423,3.935 0.012,0.066 0.029,0.053 1.247,3.529 1.629,3.355 0.032,0.141 0.12,0.191 1.612,3.649 1.699,3.095 1.851,2.98 1.561,2.228 2.023,2.312 2.188,2.292 2.334,2.232 1.977,1.649 2.549,1.567 0.152,0.123 0.14,0.068 2.595,1.764 3.029,1.67 2.517,1.328 2.124,1.061 2.63,0.875 0.199,0.104 0.164,0.031 3.143,1.233 3.235,1.114 0.103,0.055 0.083,0.015 3.446,1.305 0.103,0.059 0.076,0.015 3.443,1.423 0.252,0.153 0.36,0.136 3.201,1.658 0.162,0.116 0.18,0.076 3.427,2.008 0.074,0.058 0.072,0.032 3.423,2.124 0.326,0.266 0.261,0.138 3.142,2.356 3.267,2.253 0.207,0.183 0.161,0.088 3.173,2.468 0.178,0.218 0.306,0.191 3.862,3.51 0.001,0.002 h 10e-4 l 3.978,3.627 0.029,0.04 0.045,0.029 3.626,3.392 0.038,0.054 0.059,0.038 3.507,3.39 0.04,0.059 0.061,0.04 3.283,3.283 3.401,3.175 0.128,0.179 0.185,0.129 3.268,3.385 0.257,0.392 0.295,0.237 2.671,3.367 2.977,3.665 0.033,0.058 0.039,0.032 3.141,3.954 0.121,0.218 0.248,0.282 2.785,4.06 0.031,0.062 0.051,0.059 2.784,4.175 0.063,0.132 0.104,0.127 2.665,4.287 0.07,0.154 0.102,0.134 2.665,4.632 0.011,0.026 0.011,0.014 2.665,4.632 0.064,0.153 0.085,0.117 2.664,4.978 0.174,0.442 0.177,0.289 2.315,5.435 v 0.002 l 2.474,5.393 0.05,0.225 0.172,0.3 2.199,5.665 0.015,0.077 0.039,0.07 2.083,5.549 0.033,0.179 0.093,0.178 1.851,5.547 0.006,0.038 0.012,0.022 1.851,5.547 0.041,0.246 0.099,0.213 1.621,5.78 0.045,0.323 0.09,0.221 1.391,6.368 0.017,0.154 0.03,0.078 1.275,6.486 0.035,0.348 0.049,0.147 0.929,6.495 0.031,0.427 0.03,0.107 0.578,6.808 0.684,6.264 0.023,0.425 0.017,0.068 0.35,6.285 0.008,0.281 0.004,0.018 0.116,5.012 0.003,0.21 -0.002,0.186 -0.117,5.383 -0.007,0.032 -0.019,0.469 -0.47,5.755 -0.013,0.048 -0.011,0.187 -0.693,6.134 -0.56,6.103 -0.039,0.135 -0.035,0.433 -1.058,6.475 -0.003,0.007 -1.053,6.326 -0.057,0.158 -0.031,0.275 -1.413,6.249 -0.045,0.109 -0.019,0.139 -1.532,5.784 -0.051,0.11 -0.017,0.119 -1.754,5.789 -0.054,0.11 -0.017,0.102 -2.004,5.901 -0.122,0.229 -0.036,0.183 -2.824,6.948 -0.116,0.194 -0.029,0.13 -3.06,6.594 -0.139,0.212 -0.106,0.265 -3.177,5.767 -0.094,0.126 -0.058,0.133 -3.279,5.419 -0.247,0.309 -0.134,0.259 -3.755,5.164 -0.052,0.045 -0.046,0.085 -3.753,4.927 -0.221,0.183 -0.198,0.322 -4.201,4.691 -0.36,0.264 -0.264,0.363 -5.016,4.55 -0.044,0.027 -0.027,0.037 -5.248,4.665 -0.317,0.194 -0.177,0.214 -5.47,4.19 -0.076,0.042 -0.038,0.044 -5.467,4.072 -0.326,0.172 -0.388,0.309 -5.57,3.366 -0.155,0.068 -0.128,0.097 -5.798,3.248 -0.276,0.113 -0.204,0.138 -4.505,2.197 -0.317,0.074 -0.48,0.269 -4.958,1.864 -0.012,0.002 -5.051,1.954 -0.497,0.094 -0.539,0.239 -5.43,1.388 -0.224,0.029 -0.138,0.056 -5.316,1.157 -0.54,0.06 -0.236,0.076 -5.329,0.696 -0.477,0.032 -0.097,0.025 -5.112,0.349 -0.616,0.022 h -4.906 l -1.252,-0.091 -4.837,-0.707 -0.551,-0.189 -0.753,-0.116 -4.5,-1.418 -0.323,-0.165 -0.26,-0.05 -4.38,-1.774 -0.568,-0.339 -0.7,-0.315 -3.997,-2.491 -0.188,-0.154 -0.167,-0.084 -3.74,-2.623 -0.433,-0.494 -0.741,-0.507 -3.236,-3.303 -0.343,-0.518 -0.369,-0.308 -3.099,-4.097 -0.151,-0.282 -0.282,-0.344 -2.858,-4.547 -0.225,-0.495 -0.28,-0.424 -2.988,-6.322 -0.072,-0.318 -0.252,-0.465 -2.205,-6.188 -0.453,-2.576 0.592,-2.928 1.612,-2.392 2.392,-1.613 2.929,-0.591 2.06,0.286 1.842,0.803 1.545,1.244 1.189,1.645 3.001,5.612 3.564,5.683 0.001,0.002 2.697,4.122 2.618,3.327 2.347,2.299 2.969,1.999 3.205,1.96 3.363,1.362 3.438,1.084 3.475,0.508 h 3.975 l 4.585,-0.313 4.751,-0.621 4.9,-1.066 4.811,-1.231 4.589,-1.775 0.094,-0.018 0.09,-0.049 4.639,-1.713 3.954,-1.928 5.51,-3.087 5.102,-3.084 5.125,-3.817 v 0 l 5.173,-3.962 4.99,-4.437 4.669,-4.235 3.687,-4.076 3.47,-4.554 3.473,-4.776 3.01,-4.919 2.913,-5.29 2.83,-6.1 2.627,-6.463 1.877,-5.526 1.672,-5.416 1.432,-5.407 1.306,-5.775 1.014,-6.088 0.002,-0.005 0.994,-6.083 0.574,-5.927 0.007,-0.025 0.004,-0.077 0.688,-6.08 0.434,-5.32 0.107,-4.919 -0.11,-4.692 -0.33,-5.945 -0.672,-6.155 -0.011,-0.201 -0.013,-0.044 -0.564,-6.654 -0.871,-6.088 -1.229,-6.25 -10e-4,-0.006 -1.328,-6.08 -1.516,-5.41 -1.773,-5.312 -0.007,-0.038 -0.011,-0.023 -1.838,-5.507 -2.008,-5.349 -0.002,-0.011 -2.124,-5.472 -2.427,-5.292 -0.027,-0.12 -0.09,-0.148 -2.197,-5.157 -2.459,-4.594 -2.576,-4.477 -0.011,-0.027 -0.011,-0.014 -2.632,-4.575 -2.535,-4.077 -2.691,-4.035 -0.002,-0.003 -2.595,-3.783 -2.947,-3.712 -2.979,-3.665 -0.035,-0.062 -0.04,-0.032 -2.429,-3.063 -2.825,-2.925 -3.346,-3.123 -0.083,-0.117 -0.124,-0.083 -3.337,-3.337 -3.401,-3.288 -3.532,-3.303 -3.936,-3.589 v 0 l -3.595,-3.269 -2.705,-2.103 -3.209,-2.212 -0.136,-0.121 -0.112,-0.06 -2.972,-2.228 -3.005,-1.864 -3.087,-1.809 -2.625,-1.359 -2.973,-1.229 -3.148,-1.191 -3.265,-1.124 -0.155,-0.083 -0.125,-0.024 -3.092,-1.213 -2.969,-0.987 -0.358,-0.189 -0.704,-0.258 -2.852,-1.425 -0.025,-0.017 -0.018,-0.007 -2.741,-1.41 -0.081,-0.057 -0.088,-0.035 -3.431,-1.892 -0.329,-0.246 -0.307,-0.149 -2.771,-1.883 -2.895,-1.781 -0.548,-0.445 -0.354,-0.201 -2.711,-2.219 -0.184,-0.235 -0.299,-0.194 -2.689,-2.573 -0.113,-0.161 -0.161,-0.112 -2.45,-2.567 -0.11,-0.17 -0.144,-0.108 -2.445,-2.794 -0.263,-0.435 -0.265,-0.23 -1.982,-2.768 -0.122,-0.238 -0.211,-0.26 -2.082,-3.352 -0.105,-0.233 -0.15,-0.203 -1.963,-3.578 -0.169,-0.419 -0.182,-0.29 -1.712,-3.875 -1.757,-3.619 -0.086,-0.37 -0.308,-0.572 -1.383,-3.912 -0.002,-0.013 -1.495,-4.133 -0.036,-0.201 -0.096,-0.191 -1.384,-4.378 -0.041,-0.256 -0.093,-0.207 -1.154,-4.378 -0.002,-0.016 -1.151,-4.25 -0.013,-0.101 -0.028,-0.062 -1.038,-4.028 -0.062,-0.479 -0.1,-0.277 -0.806,-4.712 -0.892,-4.455 -0.017,-0.162 -0.027,-0.075 -0.926,-5.204 -0.03,-0.324 -0.039,-0.122 -0.693,-5.303 -0.789,-5.068 -0.012,-0.156 -0.018,-0.053 -0.673,-4.931 -0.88,-4.612 -0.046,-0.472 -0.055,-0.176 -0.558,-4.684 -0.767,-4.376 -0.031,-0.344 -0.04,-0.124 -0.579,-4.63 -0.017,-0.266 -0.019,-0.066 -0.462,-5.078 -0.568,-5.106 -0.021,-0.364 -0.017,-0.067 -0.349,-5.347 -0.007,-0.191 -0.005,-0.022 -0.233,-5.354 -0.004,-0.187 -0.002,-0.01 -0.117,-5.13 -0.002,-0.206 0.002,-0.177 0.101,-4.916 v -0.001 -0.017 l 0.117,-4.917 0.003,-0.014 0.005,-0.201 0.235,-4.693 0.013,-0.055 0.018,-0.352 0.458,-4.589 0.343,-4.572 0.028,-0.102 0.028,-0.411 0.589,-4.251 0.066,-0.195 0.042,-0.396 0.94,-4.356 0.794,-3.978 0.105,-0.267 0.05,-0.356 1.142,-4.004 0.899,-3.604 0.24,-0.541 0.087,-0.462 1.306,-3.329 0.064,-0.109 0.016,-0.077 1.423,-3.326 0.105,-0.17 0.025,-0.11 1.425,-2.971 0.544,-0.808 0.309,-0.585 1.76,-2.347 1.601,-2.173 0.424,-0.36 0.405,-0.6 1.986,-1.986 0.237,-0.16 0.155,-0.209 1.692,-1.492 1.719,-1.821 0.003,-0.002 0.002,-0.003 2.107,-2.223 0.419,-0.296 0.283,-0.367 2.207,-1.858 0.417,-0.245 0.715,-0.565 2.087,-1.253 1.975,-1.384 2.187,-1.64 0.363,-0.193 0.446,-0.349 2.294,-1.357 2.026,-1.419 0.258,-0.129 0.273,-0.216 2.637,-1.586 2.407,-1.533 0.28,-0.129 0.254,-0.186 2.526,-1.379 0.207,-0.083 0.148,-0.102 2.761,-1.365 0.393,-0.093 0.638,-0.34 2.627,-0.916 0.118,-0.021 0.102,-0.052 2.749,-0.898 0.069,-0.011 0.049,-0.025 2.509,-0.801 0.223,-0.035 0.18,-0.083 2.865,-0.784 0.343,-0.047 0.226,-0.09 2.747,-0.574 0.572,-0.06 0.228,-0.071 2.764,-0.326 0.022,-0.002 h 0.002 l 2.879,-0.347 1.059,-0.065 v 0 z"
       fill-mode="evenodd" />
  </g>
  <g
     id="g1332"
     transform="matrix(0.15,0,0,0.15,112.04631,61.9353)">
    <path
       style="fill:#000000"
       inkscape:connector-curvature="0"
       id="path1326"
       d="m -32.711,-23.294 2.809,0.04 h 0.001 0.028 l 2.46,0.046 0.049,0.011 0.741,0.044 2.599,0.312 0.087,0.028 0.222,0.018 2.603,0.431 0.056,0.02 0.1,0.009 2.254,0.435 0.722,0.279 0.611,0.117 1.937,0.769 2.082,0.77 0.398,0.224 0.618,0.253 2.082,1.17 0.009,0.007 v 0 l 1.846,1.054 0.575,0.441 0.357,0.203 1.403,1.136 1.164,0.839 0.193,0.223 0.353,0.217 0.871,0.777 0.878,0.61 0.624,0.706 0.828,0.682 0.786,1.021 0.71,0.895 0.138,0.249 0.198,0.216 0.287,0.655 0.378,0.678 0.052,0.306 0.123,0.28 0.106,0.424 0.112,0.24 0.047,0.207 0.161,0.293 0.319,0.871 0.082,0.458 0.167,0.439 0.136,0.707 0.125,0.541 0.001,0.006 0.075,0.301 0.231,0.308 0.079,0.234 0.397,0.59 L 3.863,0 3.559,1.504 2.732,2.732 1.504,3.559 0,3.863 -1.504,3.559 -1.632,3.473 -1.75,3.445 -2.058,3.186 -2.732,2.732 -2.771,2.673 -2.881,2.646 -3.511,2.502 -3.865,2.352 -4.177,2.294 -4.958,1.993 -6.368,1.175 -6.384,1.158 -6.4,1.149 -7.013,0.653 -7.602,0.235 -8.09,-0.326 -8.579,-0.713 -8.835,-0.865 -9.019,-1.052 -9.45,-1.286 l -0.332,-0.255 -0.571,-0.235 -0.345,-0.209 -0.452,-0.192 -1.076,-0.628 -1.197,-0.55 -0.358,-0.234 -0.398,-0.18 -1.235,-0.772 -1.456,-0.628 -0.011,-0.007 -1.6,-0.704 -1.723,-0.45 -0.126,-0.058 -0.137,-0.02 -1.363,-0.421 -1.528,-0.187 -2.309,-0.246 -2.073,-0.128 -2.125,0.039 -0.042,0.001 h -0.001 l -2.329,0.033 -2.247,0.299 -2.404,0.454 -0.443,0.042 -0.163,0.05 -1.526,0.179 -1.723,0.512 -0.013,10e-4 -1.823,0.568 -1.995,0.889 -2.192,1.161 -2.158,1.329 -2.259,1.661 v 0 l -2.509,1.9 -3.006,2.606 -2.736,2.856 -2.625,3.03 -2.556,3.646 -2.572,3.752 -2.289,3.956 -2.354,4.712 -0.003,0.004 -2.367,4.851 -2.28,5.019 -2.259,5.202 -2.273,5.572 -2.209,5.749 -2.16,6.6 v 0 l -2.062,6.652 -0.004,0.008 -2.029,6.657 -1.826,7.084 -0.013,0.028 -0.004,0.023 -2.087,7.662 -1.9,7.828 -1.248,6.589 -0.003,0.009 -1.41,7.173 -0.003,0.008 -1.388,6.949 -1.253,7.066 -1.151,7.379 -0.002,0.004 -1.124,7.426 -0.798,8.095 -10e-4,0.003 -0.818,8.186 v 0.003 l -0.811,7.999 -0.688,8.146 -0.575,8.507 -0.46,8.747 -0.348,9.285 -0.003,0.011 -0.002,0.093 -0.465,8.958 -0.346,8.765 -0.231,8.766 -0.116,8.708 v 0.002 l -0.001,0.053 -0.233,11.339 -10e-4,0.004 -0.001,0.072 -0.347,11.206 v 21.386 l 0.231,10.175 0.001,0.072 10e-4,0.002 0.116,7.82 0.001,0.01 v 0 l 0.116,8.054 v 0.017 h 0.001 l 0.115,8.767 0.344,8.6 0.455,8.405 0.797,8.195 0.001,0.03 0.002,0.005 0.807,8.3 1.023,7.946 1.24,7.871 0.001,0.01 1.356,7.906 1.672,7.349 1.899,7.029 2.101,6.629 2.232,5.948 2.633,5.368 2.914,5.096 2.841,3.919 3.313,3.605 3.338,2.861 3.426,2.283 3.674,1.913 3.617,1.319 3.555,0.86 3.739,0.486 3.641,0.034 3.821,-0.25 3.583,-0.737 3.737,-0.998 3.859,-1.311 3.569,-1.465 0.009,-0.002 3.586,-1.533 3.124,-1.72 2.9,-1.699 2.318,-1.635 2.301,-2.226 0.218,-0.143 0.252,-0.276 1.798,-1.07 0.108,-0.071 0.017,-0.004 0.008,-0.004 2.858,-1.17 3.334,-1.716 1.812,-0.444 1.523,0.307 1.243,0.839 0.839,1.243 0.307,1.523 -0.064,0.705 -0.734,4.016 -0.058,0.155 -0.03,0.234 -0.853,3.277 -0.232,0.512 -0.082,0.415 -0.343,0.522 -0.357,0.789 -0.544,0.585 -0.314,0.478 -2.643,2.732 -0.542,0.375 -0.336,0.403 -2.98,2.256 -0.393,0.21 -0.171,0.181 -3.207,2.019 -0.134,0.061 -0.119,0.091 -3.442,2.011 -0.419,0.178 -0.317,0.204 -3.902,1.779 -0.069,0.015 -0.079,0.049 -3.784,1.662 -0.232,0.05 -0.294,0.161 -4.25,1.547 -0.285,0.051 -0.279,0.133 -4.136,1.197 -0.296,0.043 -0.211,0.088 -4.258,0.968 -0.859,0.099 -0.298,0.083 -4.638,0.393 -0.621,0.027 -0.017,0.004 -4.435,0.041 -0.08,10e-4 -0.969,-0.058 -4.715,-0.565 -0.264,-0.083 -0.564,-0.065 -4.5,-1.039 -0.41,-0.174 -0.414,-0.071 -4.621,-1.629 -0.579,-0.316 -0.33,-0.078 -4.617,-2.328 -0.412,-0.288 -0.401,-0.191 -4.234,-2.822 -0.475,-0.411 -0.288,-0.171 -4.099,-3.513 -0.288,-0.379 -0.407,-0.293 -3.966,-4.317 -0.303,-0.481 -0.307,-0.264 -3.371,-4.649 -0.186,-0.359 -0.314,-0.413 -3.249,-5.684 -0.119,-0.284 -0.147,-0.217 -2.899,-5.91 -0.072,-0.308 -0.266,-0.474 -2.434,-6.484 -0.042,-0.231 -0.117,-0.232 -2.203,-6.95 -0.035,-0.221 -0.082,-0.179 -1.972,-7.301 -0.03,-0.228 -0.063,-0.15 -1.741,-7.654 -0.037,-0.323 -0.061,-0.167 -1.394,-8.127 -0.008,-0.094 -0.013,-0.035 -1.293,-8.009 -0.019,-0.231 -0.026,-0.08 -1.047,-8.135 -0.015,-0.235 -0.018,-0.061 -0.815,-8.376 -10e-4,-0.03 -0.002,-0.004 -0.815,-8.376 -0.016,-0.338 -0.013,-0.05 -0.466,-8.623 -0.004,-0.124 -0.003,-0.013 -0.35,-8.744 -0.004,-0.23 -0.002,-0.008 -0.117,-8.872 v -0.002 l -0.117,-8.046 v -0.003 0 l -0.116,-7.796 -0.233,-10.235 -0.002,-0.198 v -21.609 l 0.004,-0.256 0.349,-11.295 0.232,-11.255 0.117,-8.732 0.001,-0.004 0.001,-0.098 0.234,-8.888 0.001,-0.007 0.002,-0.091 0.351,-8.893 0.002,-0.01 0.002,-0.077 0.465,-8.948 0.348,-9.288 0.002,-0.01 0.003,-0.099 0.468,-8.898 0.004,-0.014 0.003,-0.088 0.585,-8.67 0.005,-0.019 0.004,-0.094 0.703,-8.324 0.007,-0.023 0.004,-0.084 0.821,-8.096 v -0.003 l 0.816,-8.161 10e-4,-0.003 0.816,-8.279 0.028,-0.095 0.022,-0.297 1.174,-7.756 0.002,-0.006 1.172,-7.509 0.015,-0.042 0.007,-0.078 1.293,-7.293 0.018,-0.048 0.007,-0.078 1.411,-7.062 0.003,-0.007 1.394,-7.093 10e-4,-0.004 1.272,-6.715 0.055,-0.141 0.026,-0.217 1.997,-8.233 0.034,-0.078 0.012,-0.089 2.117,-7.768 v -0.001 l 1.839,-7.131 0.062,-0.138 0.022,-0.151 2.118,-6.95 0.007,-0.013 2.108,-6.8 0.019,-0.038 0.004,-0.027 2.237,-6.833 0.094,-0.182 0.029,-0.154 2.355,-6.13 0.035,-0.06 0.008,-0.04 2.356,-5.778 0.043,-0.071 0.01,-0.047 2.357,-5.426 0.029,-0.046 0.005,-0.026 2.358,-5.19 0.062,-0.097 0.014,-0.059 2.474,-5.071 0.012,-0.017 0.001,-0.004 2.475,-4.953 0.128,-0.185 0.09,-0.213 2.591,-4.477 0.199,-0.258 0.116,-0.236 2.821,-4.116 0.033,-0.029 0.029,-0.058 2.833,-3.987 0.238,-0.207 0.235,-0.391 3.045,-3.515 0.173,-0.13 0.134,-0.204 3.167,-3.261 0.307,-0.212 0.206,-0.272 3.494,-3.029 0.32,-0.192 0.172,-0.203 2.791,-2.075 0.083,-0.043 0.039,-0.046 2.556,-1.839 0.276,-0.142 0.309,-0.245 2.659,-1.601 0.28,-0.123 0.233,-0.163 2.649,-1.365 0.359,-0.136 0.226,-0.138 2.643,-1.126 0.43,-0.089 0.545,-0.26 2.285,-0.663 0.094,-0.014 0.063,-0.029 2.402,-0.664 0.994,-0.137 0.46,-0.133 1.965,-0.184 2.382,-0.382 0.349,-0.028 0.109,-0.033 2.889,-0.31 0.886,-0.048 z"
       fill-mode="evenodd" />
    <g
       id="g1330"
       transform="translate(82.125,-407.25)">
      <path
         style="fill:#000000"
         inkscape:connector-curvature="0"
         id="path1328"
         d="m 1.343,-5.263 1.574,1.061 1.061,1.574 0.389,1.927 L 4.101,0.619 4.1,0.63 4.07,0.788 4.064,1.248 4.046,1.331 3.921,2.438 3.837,2.809 3.846,3.16 3.969,4.583 3.972,4.645 3.975,4.656 4.109,6.376 4.11,6.396 4.111,6.398 4.245,8.117 4.25,8.242 4.255,8.26 l 0.103,1.73 0.206,2.04 0.005,0.104 0.006,0.022 0.22,2.535 v 0.006 l 0.208,2.189 0.293,2.284 v 0.009 l 0.41,2.939 0.036,0.512 0.024,0.093 0.187,3.247 10e-4,0.042 0.001,0.005 0.187,3.482 0.007,0.27 0.003,0.013 0.06,3.545 0.278,3.987 0.002,0.065 0.003,0.009 0.291,4.647 0.001,0.029 0.001,0.004 0.282,4.595 0.492,4.317 0.012,0.199 0.012,0.045 0.398,4.64 0.001,0.025 10e-4,0.003 0.397,4.64 0.01,0.217 0.008,0.032 0.282,4.999 0.006,0.203 0.004,0.016 0.151,4.99 0.378,5.428 0.011,0.287 0.005,0.025 0.147,4.542 0.478,4.974 0.011,0.215 0.01,0.039 0.376,5.58 0.002,0.043 10e-4,0.005 0.375,5.815 0.006,0.175 0.004,0.019 0.258,6.018 0.37,6.331 v 0.001 l 0.478,6.922 0.005,0.157 0.005,0.019 0.365,7.331 0.463,7.629 0.003,0.1 0.003,0.012 0.366,7.419 0.681,7.265 0.012,0.251 0.011,0.041 0.482,7.919 10e-4,0.041 10e-4,0.004 0.466,8.038 v 0.002 l 0.696,10.317 10e-4,0.009 0.713,10.003 0.004,0.089 0.003,0.013 0.582,9.423 0.694,9.126 0.001,0.044 0.002,0.006 0.699,9.552 0.005,0.123 0.004,0.017 0.576,9.781 0.916,9.386 0.008,0.158 0.008,0.031 0.696,8.918 0.92,9.086 0.007,0.118 0.007,0.025 0.815,9.314 0.002,0.041 0.002,0.006 0.815,9.548 0.002,0.034 0.001,0.005 0.816,9.665 v 0.004 l 0.925,9.593 0.002,0.036 0.001,0.006 0.932,9.779 0.001,0.009 1.043,9.961 0.007,0.131 0.008,0.028 0.932,10.482 0.004,0.095 0.005,0.017 0.816,10.368 v 0.013 l 10e-4,0.001 0.815,10.133 0.002,0.04 0.002,0.005 0.831,10.6 0.002,0.047 0.002,0.007 0.816,10.836 0.004,0.107 0.004,0.016 0.7,11.074 0.003,0.091 0.003,0.012 0.583,10.959 0.003,0.106 0.002,0.01 0.464,11.254 0.71,11.451 0.011,0.344 0.004,0.019 0.234,11.906 v 0.008 0 l 0.234,11.907 v 0.086 l 10e-4,0.002 0.117,12.143 0.116,9.912 10e-4,0.099 v 10.63 l -0.002,0.157 -0.218,11.106 -0.001,0.004 -10e-4,0.078 -0.351,11.343 -10e-4,0.005 -0.001,0.049 -0.467,11.931 v 0 l -0.467,12.142 -10e-4,0.004 -0.001,0.036 -0.569,12.518 -0.004,0.016 -0.004,0.126 -0.814,12.442 -0.581,12.197 -0.001,0.006 -10e-4,0.039 -0.702,12.637 -0.004,0.017 -0.004,0.099 -0.933,12.84 -0.799,12.8 v 0.002 l -0.817,12.602 -0.693,12.487 -0.465,12.429 -0.002,0.007 -0.001,0.061 -0.583,12.239 -0.465,12.457 -0.002,0.006 -10e-4,0.058 -0.581,12.32 -0.348,11.731 -0.002,0.006 -0.001,0.068 -0.464,11.487 -0.232,11.717 -0.001,0.004 -0.001,0.072 -0.35,11.533 -0.231,11.247 -0.117,11.057 -0.001,0.008 -0.006,0.257 -0.462,10.501 -0.115,10.498 v 0 l -0.117,10.629 v 0 l -0.101,9.922 -0.002,0.01 -0.008,0.313 -0.456,9.027 v 41.214 l 0.446,6.472 0.008,0.228 0.006,0.024 0.233,5.707 0.007,0.346 v 5.036 l 0.114,4.442 v 0.001 l 0.122,4.053 10e-4,0.023 v 0.002 l 0.103,3.613 v 0.002 l 0.098,3.006 0.005,0.264 v 0.059 l -0.02,2.571 -0.005,0.024 -0.051,0.838 -0.298,2.438 -0.035,0.109 -0.024,0.264 -0.352,1.943 -0.812,2.161 -1.466,1.729 -1.971,1.146 -2.326,0.416 -2.141,-0.35 -1.854,-0.974 -1.452,-1.482 -0.948,-1.924 -0.553,-1.797 -0.052,-0.343 -0.107,-0.262 -0.512,-2.313 -0.077,-0.683 -0.074,-0.256 -0.247,-2.492 -0.35,-2.875 -0.01,-0.158 -0.012,-0.04 -0.36,-3.574 -0.007,-0.135 -0.008,-0.028 -0.342,-4.049 -0.02,-0.467 -0.008,-0.035 -0.116,-4.545 -0.003,-0.218 v -4.975 L 5.709,828.855 5.252,822.223 5.231,821.641 V 779.94 l 0.01,-0.409 0.46,-9.083 0.131,-9.769 0.116,-10.619 v 0 l 0.117,-10.63 0.002,-0.008 0.005,-0.253 0.462,-10.499 0.115,-10.963 0.001,-0.002 v -0.075 l 0.234,-11.339 10e-4,-0.004 0.001,-0.065 0.349,-11.529 0.233,-11.757 0.002,-0.008 0.003,-0.15 0.466,-11.532 0.349,-11.756 0.002,-0.01 0.003,-0.118 0.583,-12.358 0.465,-12.459 0.002,-0.007 10e-4,-0.06 0.583,-12.239 0.466,-12.457 0.003,-0.013 0.003,-0.119 0.702,-12.636 0.002,-0.009 10e-4,-0.044 0.819,-12.64 10e-4,-0.002 0.833,-12.847 0.002,-0.007 10e-4,-0.031 0.93,-12.8 0.696,-12.522 0.582,-12.225 0.004,-0.016 0.003,-0.108 0.814,-12.445 0.594,-12.391 0.466,-12.108 v -0.001 l 0.466,-11.885 0.348,-11.258 0.247,-10.966 v -10.491 l -0.116,-9.876 -0.001,-0.022 v -10e-4 l -0.116,-12.108 -0.233,-11.866 v -0.008 0 l -0.23,-11.757 -0.675,-11.383 -0.005,-0.151 -0.003,-0.015 -0.466,-11.293 -0.58,-10.902 v 0 l -0.696,-11.012 -0.811,-10.766 -10e-4,-0.024 v -0.002 l -0.8,-10.604 -10e-4,-0.009 -0.814,-10.112 -10e-4,-0.037 -0.002,-0.006 -0.816,-10.368 v -0.005 L 10.616,309.469 9.578,299.55 9.573,299.46 9.567,299.44 8.635,289.661 8.634,289.64 8.633,289.637 7.702,279.975 7.696,279.869 7.69,279.847 6.875,270.182 6.874,270.162 6.873,270.16 6.058,260.612 6.057,260.599 v 0 l -0.815,-9.314 v -0.003 L 4.318,242.169 4.309,241.986 4.299,241.95 3.602,233.015 2.68,223.566 2.665,223.273 2.653,223.226 2.071,213.338 1.377,203.859 v -0.01 l -0.699,-9.195 -0.005,-0.122 -0.004,-0.018 -0.583,-9.439 v -0.006 l -0.682,-9.987 -0.001,-0.028 -0.001,-0.004 -0.699,-10.371 -0.003,-0.088 -0.003,-0.012 -0.466,-8.037 -0.001,-0.029 -10e-4,-0.003 -0.444,-7.803 -0.684,-7.293 -0.018,-0.386 -0.012,-0.047 -0.324,-7.531 -0.461,-7.61 -0.004,-0.128 -0.004,-0.015 -0.332,-7.292 -0.444,-6.904 -0.004,-0.118 -0.004,-0.015 -0.324,-6.406 -0.003,-0.136 -0.003,-0.012 -0.206,-5.995 -0.318,-5.733 -10e-4,-0.008 -0.318,-5.521 -0.419,-5.129 -0.022,-0.508 -0.005,-0.025 -0.077,-4.64 -0.302,-5.438 -0.009,-0.318 -0.002,-0.013 -0.076,-5.058 -0.178,-4.839 -0.293,-4.545 -10e-4,-0.021 v -0.002 l -0.296,-4.585 -0.404,-4.422 -0.018,-0.394 -0.01,-0.041 -0.174,-4.778 v -0.007 0 l -0.174,-4.661 v -0.004 l -0.173,-4.172 -0.007,-0.316 0.001,-0.123 0.061,-3.629 -0.044,-3.392 V 26.495 L -8.343,23.502 -8.595,20.759 -8.604,20.563 -8.613,20.531 -8.766,18.093 -8.78,17.68 -8.781,17.674 -8.793,15.339 v -0.005 0 l -0.012,-2.568 v -0.003 0 l -0.011,-2.218 v -0.032 l 0.012,-0.39 0.111,-1.881 0.004,-0.016 0.004,-0.086 0.137,-1.764 V 6.374 l 0.136,-1.739 0.001,-0.007 10e-4,-0.021 0.142,-1.647 0.052,-0.184 0.056,-0.53 0.272,-1.293 0.103,-0.254 0.048,-0.304 0.4,-0.801 0.199,-0.491 0.107,-0.122 0.081,-0.162 0.426,-0.608 0.269,-0.521 0.293,-0.314 1.124,-1.409 0.488,-0.393 0.468,-0.265 0.371,-0.291 0.326,-0.102 0.353,-0.2 0.642,-0.112 0.514,-0.161 0.478,-0.057 0.614,-0.038 z"
         fill-mode="evenodd" />
    </g>
  </g>
  <g
     id="g1336"
     transform="matrix(0.15,0,0,0.15,126.74631,63.0978)">
    <path
       style="fill:#000000"
       inkscape:connector-curvature="0"
       id="path1334"
       d="m 49.102,-79.371 1.309,0.103 0.177,0.049 0.568,0.056 0.972,0.193 1.333,0.177 2.23,0.732 0.036,0.029 0.026,0.007 1.45,0.807 0.15,0.146 0.384,0.191 1.161,0.812 1.521,0.944 0.208,0.218 0.457,0.261 1.553,1.266 v 10e-4 l 1.537,1.251 0.239,0.303 0.36,0.251 1.426,1.49 0.288,0.442 0.292,0.251 1.419,1.945 0.253,0.487 0.182,0.185 1.296,2.287 0.001,0.004 1.513,2.608 0.002,0.003 1.831,3.025 0.11,0.25 0.146,0.209 1.647,3.217 0.001,0.005 1.616,3.064 0.044,0.174 0.177,0.281 1.639,3.684 0.002,0.007 1.731,3.754 0.004,0.017 0.009,0.014 1.87,4.036 0.043,0.191 0.147,0.257 1.619,4.157 0.002,0.01 1.746,4.355 0.001,0.007 1.821,4.319 0.026,0.128 0.083,0.146 1.757,4.616 0.005,0.027 0.011,0.018 1.852,4.858 0.033,0.176 0.093,0.18 1.636,4.968 0.002,0.017 0.003,0.006 1.387,4.155 0.004,0.021 0.004,0.008 1.636,4.852 0.055,0.335 0.127,0.294 1.275,5.207 v 0.004 l 1.473,5.432 0.002,0.013 1.617,5.769 0.02,0.144 0.043,0.098 1.508,6.025 0.002,0.014 1.637,6.361 0.032,0.249 0.06,0.153 1.394,6.846 0.017,0.164 0.027,0.076 1.279,7.316 0.002,0.024 0.002,0.005 1.294,7.312 0.006,0.07 0.009,0.025 1.279,7.55 0.024,0.284 0.031,0.098 0.951,7.906 v 0.008 l 1.04,7.847 0.02,0.301 0.02,0.072 0.716,8.464 0.921,8.634 0.019,0.335 0.013,0.054 0.486,8.623 0.003,0.105 0.003,0.011 0.349,8.137 0.483,8.567 0.006,0.219 0.003,0.016 0.234,8.867 10e-4,0.103 0.001,0.003 0.117,8.989 v 0.099 l -0.002,0.173 -0.216,9.004 -0.003,0.012 -0.004,0.185 -0.468,8.896 h -10e-4 l -0.446,8.862 v 0 l -0.451,9.329 -0.01,0.043 -0.014,0.286 -0.933,9.683 -1.022,12.327 -0.01,0.035 -0.008,0.136 -1.268,11.483 v 0 l -1.144,11.157 -0.012,0.038 -0.007,0.118 -1.388,10.786 -0.002,0.004 -1.382,10.745 -10e-4,0.002 -1.278,10.463 -0.001,0.004 -1.269,10.158 -0.906,9.933 -0.005,0.018 -0.004,0.059 -1.041,9.839 -0.693,9.126 -0.004,0.014 -0.002,0.061 -0.81,9.024 -0.571,9.263 -0.332,8.91 -0.002,0.011 -0.003,0.104 -0.462,8.44 -0.231,7.968 v 10e-4 l -0.234,7.719 v 0 l -0.232,7.644 -0.116,7.888 -0.002,0.008 -0.004,0.208 -0.35,7.814 -0.229,6.192 -0.1,6.001 -0.002,0.007 -0.002,0.142 -0.234,6.205 -0.006,0.026 -0.009,0.228 -0.468,6.323 -0.448,6.729 -10e-4,0.003 v 0.009 l -0.469,6.566 -0.01,0.038 -0.009,0.173 -0.696,6.73 -0.562,6.705 -0.02,0.073 -0.018,0.27 -0.803,5.971 -0.568,5.683 -0.456,5.247 -0.33,4.728 -0.033,0.122 -0.038,0.496 -0.67,4.245 -0.315,3.161 -0.226,3.499 v 0 l -0.138,2.301 -0.006,0.023 -0.006,0.128 -0.138,1.661 -0.364,1.296 -0.19,0.943 -0.128,0.189 -0.064,0.227 -0.867,1.154 -0.528,0.784 -0.123,0.083 -0.095,0.126 -1.424,0.898 -0.712,0.48 -0.073,0.015 -0.069,0.043 -2.741,0.524 -2.883,-0.582 -2.354,-1.587 -1.587,-2.354 -0.582,-2.883 0.013,-0.439 0.093,-1.574 0.091,-2.27 0.004,-0.017 0.005,-0.151 0.234,-3.644 0.011,-0.039 0.01,-0.2 0.353,-3.536 0.028,-0.096 0.023,-0.293 0.655,-4.154 0.345,-4.505 0.002,-0.01 0.002,-0.041 0.47,-5.402 0.004,-0.015 0.002,-0.052 0.587,-5.872 0.016,-0.053 0.011,-0.167 0.797,-5.924 0.585,-6.617 0.005,-0.018 0.003,-0.062 0.69,-6.674 0.459,-6.432 10e-4,-10e-4 0.482,-6.772 0.001,-0.001 0.457,-6.177 0.226,-5.996 0.132,-6.017 0.001,-0.006 0.002,-0.098 0.234,-6.322 10e-4,-0.004 0.001,-0.039 0.345,-7.72 0.115,-7.833 0.001,-0.005 0.002,-0.105 0.234,-7.72 v -0.001 l 0.233,-7.709 v 0 l 0.234,-8.05 0.003,-0.013 0.004,-0.166 0.465,-8.488 0.364,-8.944 0.004,-0.015 0.004,-0.124 0.585,-9.483 0.007,-0.029 0.007,-0.155 0.816,-9.092 0.696,-9.172 0.01,-0.036 0.008,-0.156 1.052,-9.939 0.946,-9.983 0.013,-0.044 0.009,-0.144 1.289,-10.316 v -0.003 l 1.282,-10.49 0.004,-0.012 0.001,-0.022 1.424,-10.783 0.001,-0.004 1.404,-10.637 1.176,-11.12 0.003,-0.009 0.001,-0.018 1.295,-11.371 1.067,-12.287 0.002,-0.01 0.002,-0.031 0.919,-9.545 0.475,-9.19 0.001,-0.002 v -0.003 l 0.488,-8.896 v 0 l 0.461,-8.76 0.244,-8.752 -0.114,-8.799 -0.23,-8.739 -0.442,-8.534 -0.002,-0.074 -0.002,-0.007 -0.35,-8.158 -0.435,-8.408 -0.911,-8.531 -0.01,-0.184 -0.01,-0.038 -0.667,-8.35 -1.022,-7.716 -0.009,-0.123 -0.01,-0.034 -0.896,-7.769 -1.245,-7.353 -0.002,-0.018 V 51.672 L 92.758,44.353 92.756,44.33 92.754,44.325 91.478,37.026 90.13,30.404 88.568,24.21 88.562,24.167 88.554,24.148 87.046,18.123 V 18.122 L 85.463,12.475 85.454,12.408 85.435,12.367 83.928,6.81 83.91,6.677 83.872,6.59 82.648,1.589 81.136,-2.989 81.132,-3.01 81.128,-3.019 79.741,-7.174 79.73,-7.24 l -0.026,-0.051 -1.575,-4.881 -1.775,-4.657 -0.011,-0.06 -0.03,-0.054 -1.69,-4.567 -1.777,-4.215 -0.022,-0.107 -0.068,-0.119 -1.713,-4.4 -0.006,-0.028 -0.011,-0.02 -1.58,-4.058 -1.743,-3.858 -0.006,-0.03 -0.019,-0.029 -1.714,-3.82 -0.014,-0.064 -0.046,-0.074 -1.534,-3.559 -1.483,-2.906 -0.015,-0.061 -0.057,-0.084 -1.506,-3.079 -1.69,-2.911 -0.052,-0.123 -0.041,-0.042 -1.471,-2.668 -0.012,-0.047 -0.049,-0.068 -1.086,-2.032 -0.915,-1.34 -0.811,-0.91 -1.191,-1.048 H 53.99 l -1.148,-1.007 -1.273,-0.846 -0.099,-0.108 -0.206,-0.11 -1.005,-0.76 -0.044,-0.026 -0.332,-0.058 -0.043,-0.016 -0.072,-0.007 -0.874,-0.174 -0.366,-0.038 -0.305,0.026 -0.201,0.048 -0.463,0.232 -0.051,0.012 -0.065,0.044 -0.657,0.318 -0.795,0.579 v 0 l -1.125,0.844 -1.082,0.965 -0.277,0.171 -0.154,0.182 -1.386,1.04 -0.002,10e-4 -1.372,1.036 -1.318,1.13 -1.616,1.582 -0.192,0.128 -0.123,0.161 -1.649,1.414 -1.673,1.744 -0.007,0.005 -0.005,0.007 -1.893,1.961 -1.69,1.948 -0.071,0.053 -0.054,0.085 -1.733,1.874 -1.645,2.11 -0.121,0.099 -0.105,0.172 -1.905,2.162 -1.557,1.998 -1.694,2.506 -0.001,0.002 -1.458,2.152 -1.368,2.298 -0.032,0.031 -0.01,0.035 -1.29,2.079 -0.976,1.977 -0.129,0.141 -0.201,0.43 -1.384,2.116 -1.202,2.003 -1.153,2.118 -0.896,2.018 -0.063,0.074 -0.027,0.112 -0.969,1.951 -0.781,2.08 -0.126,0.221 -0.033,0.146 -0.796,1.696 -0.6,1.718 -0.004,0.007 -0.682,1.947 -0.159,0.294 -0.043,0.187 -0.936,1.966 -10e-4,10e-4 -0.583,1.26 -0.426,1.249 -0.004,0.005 v 0.002 l -0.524,1.493 -0.161,0.211 -0.083,0.344 -0.803,1.552 -0.275,0.295 -0.098,0.294 -0.464,0.62 -0.498,0.775 -0.24,0.224 -0.092,0.127 0.023,0.223 0.11,0.232 L 2.337,0 1.652,1.652 0,2.337 -1.219,1.994 -1.467,1.729 -1.652,1.652 -1.742,1.435 -2.068,1.087 -2.427,0.406 -2.703,-0.701 v -0.233 l -0.029,-0.145 -0.136,-0.34 -0.615,-0.855 -0.021,-0.097 -0.04,-0.05 -0.351,-0.899 -0.316,-0.702 -0.013,-0.06 -0.039,-0.056 -0.343,-1.702 0.094,-0.905 0.313,-1.481 0.154,-1.34 0.002,-0.006 0.001,-0.013 0.194,-1.563 0.067,-0.207 0.049,-0.389 0.439,-1.71 0.085,-0.189 0.032,-0.187 0.622,-1.783 0.424,-1.78 0.002,-0.006 0.481,-2.009 0.113,-0.26 0.044,-0.256 0.706,-1.989 0.737,-2.277 0.162,-0.314 0.047,-0.217 0.966,-2.148 0.849,-2.137 0.153,-0.258 0.036,-0.156 1.26,-2.506 0.072,-0.078 0.027,-0.104 1.263,-2.269 0.073,-0.074 0.026,-0.091 1.182,-1.941 0.881,-1.946 0.177,-0.205 0.075,-0.277 1.346,-2.325 1.322,-2.416 0.069,-0.072 0.084,-0.186 1.488,-2.39 0.002,-0.002 1.718,-2.733 0.097,-0.092 0.105,-0.204 1.721,-2.385 0.111,-0.096 0.105,-0.183 1.823,-2.225 1.607,-2.23 0.155,-0.134 0.149,-0.251 1.762,-2.063 1.654,-2.068 0.154,-0.123 0.13,-0.207 1.967,-2.128 v 0 l 1.849,-2.002 0.253,-0.182 0.179,-0.244 1.694,-1.512 1.585,-1.618 0.245,-0.169 0.163,-0.213 1.627,-1.395 0.145,-0.086 0.08,-0.099 1.494,-1.172 0.082,-0.045 0.042,-0.05 1.136,-0.852 1.023,-0.948 0.331,-0.209 0.187,-0.223 1.385,-1.039 0.063,-0.033 0.03,-0.035 1.267,-0.922 0.641,-0.332 0.21,-0.195 1.125,-0.583 0.048,-0.012 0.066,-0.045 1.131,-0.567 0.435,-0.104 0.861,-0.387 1.352,-0.355 0.822,-0.108 0.329,-0.092 1.378,-0.115 0.564,-0.024 z"
       fill-mode="evenodd" />
  </g>
</svg>
