<?xml version="1.0" encoding="UTF-8" standalone="no"?>
<svg
   xmlns:dc="http://purl.org/dc/elements/1.1/"
   xmlns:cc="http://creativecommons.org/ns#"
   xmlns:rdf="http://www.w3.org/1999/02/22-rdf-syntax-ns#"
   xmlns:svg="http://www.w3.org/2000/svg"
   xmlns="http://www.w3.org/2000/svg"
   xmlns:sodipodi="http://sodipodi.sourceforge.net/DTD/sodipodi-0.dtd"
   xmlns:inkscape="http://www.inkscape.org/namespaces/inkscape"
   viewBox="0 0 62.773499 44.347274"
   width="62.773499"
   height="44.347275"
   version="1.1"
   id="svg616"
   sodipodi:docname="games.svg"
   inkscape:version="0.92.4 (5da689c313, 2019-01-14)">
  <metadata
     id="metadata622">
    <rdf:RDF>
      <cc:Work
         rdf:about="">
        <dc:format>image/svg+xml</dc:format>
        <dc:type
           rdf:resource="http://purl.org/dc/dcmitype/StillImage" />
        <dc:title></dc:title>
      </cc:Work>
    </rdf:RDF>
  </metadata>
  <defs
     id="defs620" />
  <sodipodi:namedview
     pagecolor="#ffffff"
     bordercolor="#666666"
     borderopacity="1"
     objecttolerance="10"
     gridtolerance="10"
     guidetolerance="10"
     inkscape:pageopacity="0"
     inkscape:pageshadow="2"
     inkscape:window-width="3840"
     inkscape:window-height="2126"
     id="namedview618"
     showgrid="false"
     inkscape:zoom="3.776"
     inkscape:cx="-108.20374"
     inkscape:cy="-24.55189"
     inkscape:window-x="-11"
     inkscape:window-y="-11"
     inkscape:window-maximized="1"
     inkscape:current-layer="svg616"
     fit-margin-top="0"
     fit-margin-left="0"
     fit-margin-right="0"
     fit-margin-bottom="0" />
  <g
     id="g482"
     transform="matrix(0.15,0,0,0.15,23.2596,6.844125)">
    <path
       style="fill:#000000"
       inkscape:connector-curvature="0"
       id="path452"
       d="m -42.351,-41.694 1.301,0.144 0.06,0.018 0.169,0.012 1.028,0.146 h 10e-4 l 0.356,0.048 h 2.154 l 1.425,0.118 0.135,0.022 h 0.192 l 0.785,0.035 0.805,0.073 0.581,0.167 1.091,0.16 0.037,0.011 0.415,0.055 0.16,0.053 0.349,0.035 0.529,0.104 0.75,0.115 1,0.348 0.002,10e-4 0.14,0.014 0.655,0.139 0.056,0.011 0.005,0.002 0.107,0.022 1.104,0.449 0.651,0.143 0.911,0.417 0.606,0.396 0.578,0.282 0.402,0.274 0.508,0.271 0.279,0.205 0.277,0.129 0.499,0.324 0.063,0.035 0.46,0.163 0.739,0.406 0.987,0.471 0.508,0.338 0.741,0.394 0.327,0.239 0.316,0.151 0.416,0.276 0.575,0.287 0.081,0.056 0.092,0.036 0.954,0.512 0.097,0.071 0.103,0.044 0.725,0.422 0.939,0.499 0.464,0.338 0.396,0.201 1.005,0.717 0.012,0.014 0.021,0.011 0.22,0.159 0.287,0.144 0.099,0.068 0.113,0.045 0.813,0.442 1.718,1.271 0.209,0.263 0.179,0.143 0.011,0.007 0.002,0.003 1.105,0.879 0.045,0.06 0.174,0.09 0.642,0.465 0.516,0.344 0.356,0.391 0.679,0.436 0.619,0.582 0.304,0.43 0.373,0.29 0.524,0.629 0.004,0.009 0.006,0.004 0.523,0.629 0.113,0.194 0.123,0.103 0.52,0.686 0.25,0.467 0.014,0.02 0.094,0.063 0.63,0.631 0.076,0.112 0.157,0.131 0.742,1.079 0.455,0.336 0.554,0.624 0.347,0.566 0.308,0.281 0.528,0.791 0.1,0.143 0.219,0.23 0.35,0.541 0.568,0.637 0.279,0.675 0.339,0.525 0.109,0.559 0.266,0.643 0.081,0.357 0.099,0.233 0.01,0.052 0.03,0.05 0.079,0.189 0.101,0.163 0.19,0.284 0.35,0.73 0.355,0.606 0.061,0.151 0.631,1.129 0.002,0.004 0.005,0.01 0.002,0.01 0.161,0.427 0.018,0.099 0.051,0.094 0.145,0.413 0.257,1.491 v 0.001 l 0.001,0.002 0.147,0.858 -0.013,0.094 0.125,0.887 -0.114,0.738 0.007,0.136 0.003,0.134 0.002,0.009 0.014,0.485 0.003,0.18 L 6.955,-1.595 6.872,-1.329 6.777,-0.971 6.495,-0.355 6.413,0.007 6.208,0.269 5.986,0.751 5.667,1.093 5.372,1.601 5.091,1.864 4.949,2.075 4.839,2.149 4.804,2.217 3.705,3.321 2.309,4.045 0.701,4.305 -0.595,4.095 -0.461,4.17 -0.646,4.127 -0.748,4.071 -0.907,4.045 -1.112,3.939 -1.387,3.883 -1.469,3.827 -1.67,3.787 -2.976,2.906 -3.857,1.6 -3.897,1.399 -3.953,1.317 -4.015,1.012 -4.131,0.782 -4.264,0.374 -4.337,-0.086 -4.356,-0.134 -4.485,-0.811 -4.566,-0.893 -4.573,-0.907 -4.659,-0.992 -4.741,-1.133 -4.83,-1.212 -4.989,-1.428 -5.364,-1.745 -6.034,-2.739 -6.117,-2.838 -6.144,-2.884 -6.191,-2.928 -6.386,-3.26 -6.479,-3.398 -6.54,-3.524 -6.989,-4.288 -7.071,-4.409 -7.347,-4.625 -7.852,-5.236 -7.927,-5.366 -8.012,-5.435 -8.59,-6.182 -8.867,-6.69 l -0.509,-0.738 -0.095,-0.189 -0.447,-0.395 -0.475,-0.677 -0.058,-0.116 -0.056,-0.051 -0.178,-0.266 -0.205,-0.168 -0.206,-0.263 -0.579,-0.482 -0.718,-1.043 -0.341,-0.304 -0.246,-0.332 -0.336,-0.245 -0.055,-0.061 -0.417,-0.27 -0.005,-0.004 -0.695,-0.451 -0.472,-0.4 -0.297,-0.173 -0.297,-0.25 -0.286,-0.19 -0.079,-0.087 -0.166,-0.085 -0.364,-0.265 -0.241,-0.133 -1.697,-1.274 -0.192,-0.243 -0.163,-0.13 -0.011,-0.008 -0.002,-0.002 -0.816,-0.65 -0.385,-0.191 -0.61,-0.424 -0.494,-0.254 -0.787,-0.572 -0.473,-0.338 -0.626,-0.333 -0.11,-0.08 -0.119,-0.05 -0.741,-0.431 -0.689,-0.37 -0.887,-0.442 -0.421,-0.292 -0.41,-0.196 -0.508,-0.338 -0.741,-0.394 -0.327,-0.238 -0.312,-0.149 -0.1,-0.036 -0.396,-0.217 -0.672,-0.265 -0.352,-0.189 -0.505,-0.123 -0.318,-0.139 -0.328,-0.055 -0.22,-0.074 -0.241,-0.04 -0.692,-0.104 -0.905,-0.312 -0.734,-0.112 -0.113,-0.04 -0.22,-0.022 -0.434,-0.086 -0.808,-0.107 -0.515,-0.169 -0.204,-0.03 h -0.473 l -1.425,-0.118 -0.135,-0.022 h -0.192 v 0 h -1.822 l -1.146,-0.076 -1.096,-0.145 -0.014,-0.005 -0.021,-10e-4 -0.872,-0.124 -0.629,-0.069 h -2.958 l -0.827,0.051 -0.076,0.003 -0.009,0.002 -1.073,0.06 -1.171,0.118 h -0.008 l -1.156,0.129 -0.013,0.001 -0.819,0.097 -1.002,0.202 -0.042,0.004 -0.014,0.005 -0.361,0.073 -0.189,0.089 -0.691,0.156 -2.095,0.638 -0.564,0.064 -0.004,0.001 -0.503,0.221 -0.218,0.046 -0.268,0.151 -1.062,0.4 -0.182,0.034 -0.18,0.093 -0.99,0.332 -0.226,0.038 -0.195,0.092 -0.92,0.265 h -0.004 l -0.306,0.097 -0.309,0.155 -0.571,0.211 -0.311,0.175 -1.062,0.4 -0.493,0.091 -0.508,0.222 -0.443,0.112 -0.291,0.125 -0.676,0.141 -0.914,0.376 -0.666,0.148 -0.494,0.187 -0.011,0.002 -1.153,0.45 -0.081,0.016 -0.076,0.042 -1.062,0.401 -0.006,10e-4 -1.221,0.49 -0.315,0.062 -0.352,0.177 -0.78,0.248 -0.61,0.288 -0.35,0.079 -0.508,0.274 -0.505,0.179 -0.58,0.323 -0.388,0.159 -0.278,0.178 -0.859,0.391 -0.677,0.464 -0.903,0.443 -0.802,0.471 -0.565,0.226 -0.478,0.319 -0.251,0.121 -0.245,0.188 -1.291,0.749 -0.116,0.05 -0.09,0.066 -0.94,0.518 -0.8,0.578 -0.224,0.115 -0.248,0.204 -0.852,0.54 -0.802,0.668 -1.286,1.093 -0.908,0.807 -1.008,1.065 -0.094,0.066 -0.066,0.098 -2.733,2.733 -0.332,0.224 -0.214,0.277 -1.135,0.956 -1.058,1.005 -1.328,1.391 -0.278,0.195 -0.191,0.26 -1.316,1.185 -0.993,0.943 -0.982,1.146 -0.007,0.005 -0.004,0.008 -1.137,1.317 -1.098,1.464 -0.206,0.173 -0.189,0.312 -1.347,1.54 -1.184,1.48 -1.108,1.497 -1.036,1.647 -0.005,0.005 -1.106,1.758 -1.036,1.771 -0.97,1.813 -1.025,1.989 -1.072,2.214 -10e-4,0.002 -0.909,1.935 -0.733,1.959 -0.236,0.416 -0.06,0.262 -1.144,2.364 -0.046,0.067 -0.029,0.076 -1.093,2.122 -0.968,2.004 -0.999,2.188 -0.923,2.248 -0.2,0.331 -0.184,0.463 -1.098,2.015 -0.851,1.917 -0.886,2.474 -0.006,0.011 -0.975,2.722 -0.007,0.013 -1.039,2.847 -0.941,2.759 -0.003,0.007 -0.957,2.877 v 0.001 l -0.812,2.565 -0.797,2.93 -0.064,0.137 -0.022,0.141 -0.764,2.416 -0.542,2.781 -0.02,0.05 -0.008,0.072 -0.704,3.245 -0.607,3.046 -0.056,0.142 -0.025,0.205 -0.733,2.939 -0.508,2.489 -0.309,2.787 -0.066,0.214 -0.053,0.526 -0.533,2.613 -0.239,2.688 -0.073,0.254 -0.074,0.721 -0.545,2.61 -0.307,2.827 -0.002,0.009 -0.001,0.016 -0.355,3.055 -0.007,0.022 -0.004,0.056 -0.384,2.952 -0.192,3.022 -0.025,0.095 -0.029,0.449 -0.415,3.186 -0.307,2.77 -0.128,2.616 -0.005,0.022 -0.006,0.152 -0.188,2.64 v 2.407 l 0.128,2.49 0.007,0.249 0.003,0.015 0.068,2.904 0.134,2.741 0.011,0.443 v 0 2.555 l 0.282,2.31 0.001,0.01 0.406,3.044 0.034,0.499 0.027,0.102 0.192,2.808 0.378,2.828 0.014,0.199 0.016,0.055 0.331,3.038 0.452,2.894 0.001,0.016 0.479,2.936 0.003,0.04 0.004,0.011 0.427,2.615 0.582,2.217 0.841,2.396 0.096,0.556 0.208,0.51 0.52,2.364 0.714,2.026 0.002,0.011 0.896,2.428 0.863,2.029 0.022,0.106 0.068,0.116 1.016,2.536 1.023,2.102 0.029,0.127 0.109,0.171 1.112,2.48 1.259,2.452 0.002,0.006 1.388,2.576 0.004,0.01 1.343,2.414 0.002,0.003 1.381,2.365 0.004,0.012 0.002,0.001 1.206,2.05 1.357,1.886 0.001,0.003 1.441,1.963 1.647,2.108 0.121,0.22 0.242,0.278 1.593,2.353 0.032,0.068 0.054,0.063 1.071,1.632 1.385,1.487 0.055,0.085 0.072,0.053 1.589,1.781 1.658,1.657 1.488,1.431 1.895,1.528 0.116,0.146 0.199,0.123 1.774,1.584 1.791,1.42 2.053,1.573 0.033,0.04 0.059,0.033 1.865,1.479 1.807,1.29 0.033,0.037 0.063,0.033 1.467,1.087 1.683,0.952 0.317,0.241 0.289,0.143 2.01,1.385 2.043,1.361 10e-4,10e-4 1.974,1.292 0.368,0.314 0.265,0.148 1.522,1.218 1.428,0.787 0.025,0.018 0.018,0.008 2.144,1.213 0.073,0.055 0.071,0.032 1.877,1.124 1.962,1.011 0.131,0.093 0.146,0.061 1.601,0.914 1.67,0.746 1.586,0.678 1.547,0.556 0.155,0.085 0.119,0.023 1.95,0.793 0.097,0.058 0.066,0.014 1.116,0.489 1.084,0.28 1.464,0.317 0.01,0.004 1.104,0.245 1.05,0.04 0.03,0.007 0.261,0.01 1.921,0.142 0.145,0.039 0.555,0.044 1.076,0.171 h 0.909 l 1.788,-0.119 h 0.007 l 1.698,-0.126 1.686,-0.188 0.317,-0.018 0.063,-0.017 1.635,-0.117 1.366,-0.203 1.466,-0.295 0.339,-0.034 0.147,-0.05 1.353,-0.202 1.163,-0.327 0.007,-0.001 1.418,-0.433 0.509,-0.077 0.376,-0.147 1.123,-0.226 1.085,-0.392 0.036,-0.006 0.024,-0.013 1.692,-0.611 0.377,-0.067 0.366,-0.167 0.912,-0.247 0.868,-0.452 0.903,-0.346 0.403,-0.21 1.81,-0.605 0.796,-0.296 0.763,-0.498 0.624,-0.294 0.557,-0.357 1.207,-0.551 1.102,-0.624 0.655,-0.414 0.806,-0.672 0.096,-0.055 0.052,-0.066 1.256,-1.005 0.505,-0.442 0.446,-0.52 0.248,-0.188 0.194,-0.289 0.351,-0.35 0.201,-0.322 0.758,-0.923 0.22,-0.346 0.435,-0.469 0.476,-0.714 0.026,-0.031 0.012,-0.025 0.576,-0.842 0.37,-0.742 0.568,-1.266 0.286,-0.445 0.227,-0.507 0.61,-0.987 0.419,-0.935 0.211,-0.328 0.17,-0.404 0.456,-0.789 0.35,-0.878 0.178,-0.301 0.171,-0.444 0.546,-1.046 0.335,-0.865 0.249,-0.428 0.255,-0.622 0.534,-0.952 0.101,-0.203 0.135,-0.541 0.094,-0.213 0.036,-0.235 0.438,-1.393 0.052,-0.102 0.015,-0.09 0.322,-0.924 0.18,-0.814 0.224,-0.54 0.093,-0.518 0.183,-0.499 0.085,-0.571 0.143,-0.414 0.089,-0.634 0.266,-0.938 0.133,-0.888 0.097,-0.28 0.06,-0.488 0.318,-1.281 0.223,-1.065 0.225,-1.244 0.189,-1.327 0.002,-0.006 0.242,-1.638 0.119,-1.371 0.027,-0.097 0.025,-0.345 0.216,-1.518 0.011,-0.033 0.005,-0.064 0.287,-1.802 0.064,-0.18 0.036,-0.322 0.134,-0.596 v -0.636 l 0.154,-1.622 0.235,-1.24 0.18,-1.387 0.17,-0.521 0.118,-0.804 0.024,-0.083 -0.003,-0.15 -0.003,-0.219 0.001,-0.131 0.018,-1.2 0.01,-0.047 0.053,-0.885 0.123,-1.013 0.068,-1.15 0.136,-0.528 0.199,-1.415 0.248,-0.875 0.15,-0.777 0.169,-1.095 0.031,-0.087 0.016,-0.17 0.211,-1.106 0.117,-0.957 0.084,-0.845 v -0.684 l 0.017,-0.542 0.065,-1.036 0.015,-0.366 -0.046,-0.424 -0.001,-0.013 -0.119,-1.045 -0.001,-0.002 -0.106,-0.812 -0.081,-1.226 0.032,-0.774 0.034,-0.396 -0.009,-0.318 -0.004,-0.264 0.012,-0.464 0.055,-1.067 0.034,-0.134 0.054,-0.714 0.042,-0.278 0.006,-0.278 -0.279,-1.69 v -0.09 l -0.178,-0.454 -0.183,-0.897 -0.027,-0.256 -0.042,-0.117 -0.117,-0.696 -0.013,-0.162 -0.024,-0.063 -0.089,-0.75 -0.079,-0.35 -0.144,-1.286 h -2.264 l -0.677,-0.025 -1.924,-0.142 -0.056,-0.016 -0.248,-0.013 -1.934,-0.215 -0.064,-0.019 -0.178,-0.013 -2.013,-0.286 -0.037,-0.013 -0.076,-0.006 -1.759,-0.283 -1.694,-0.112 -0.001,-0.001 -2.101,-0.139 -0.064,-0.017 -0.31,-0.018 -1.935,-0.214 -0.14,-0.043 -0.376,-0.032 -1.393,-0.241 -1.365,-0.164 -1.048,-0.09 h -0.999 l -1.139,-0.071 -1.167,-0.145 -0.624,-0.201 -0.929,-0.141 -1.186,-0.369 -0.465,-0.235 -0.347,-0.071 -1.04,-0.443 -0.288,-0.179 -0.389,-0.153 -0.959,-0.515 -1.947,-1.427 -0.073,-0.091 -0.065,-0.043 -0.338,-0.337 -0.173,-0.145 -0.103,-0.131 -0.017,-0.018 -0.025,-0.036 -0.103,-0.133 -0.38,-0.258 -0.311,-0.316 -0.076,-0.114 -0.156,-0.131 -0.868,-1.27 -0.071,-0.089 -0.046,-0.082 -0.346,-0.505 -0.242,-0.486 -0.025,-0.104 -0.049,-0.088 -0.415,-0.616 -0.04,-0.197 -0.123,-0.22 -0.464,-2.689 0.088,-1.182 0.057,-0.382 0.023,-0.413 0.365,-1.437 0.21,-1.037 0.087,-0.13 0.039,-0.152 0.909,-1.254 0.567,-0.84 0.083,-0.057 0.062,-0.085 1.484,-0.957 0.747,-0.503 0.049,-0.01 0.046,-0.03 2.814,-0.548 2.91,0.588 0.356,0.24 0.3,0.076 0.424,0.387 1.532,0.27 0.902,0.326 0.435,0.241 0.715,0.282 0.553,0.297 0.019,0.008 h 0.614 l 0.795,0.034 1.647,0.143 0.056,0.016 0.207,0.012 1.797,0.215 0.123,0.039 0.311,0.027 1.35,0.234 1.408,0.156 1.915,0.127 h 0.002 l 2.1,0.14 0.159,0.042 0.664,0.053 2.154,0.346 1.705,0.243 1.57,0.174 1.372,0.101 h 6.664 l 1.509,0.125 0.895,0.148 0.006,0.002 0.045,-0.016 2.17,-0.259 3.572,0.721 2.916,1.967 1.967,2.916 0.721,3.572 -0.29,2.295 -0.057,0.145 -0.019,0.132 -0.055,0.122 v 0.669 l -0.14,1.001 v 0.034 l 0.162,0.439 0.259,2.17 v 0 0.351 l -0.065,0.59 0.205,1.722 v 0 l -0.008,0.388 -0.025,0.579 -0.037,0.155 -0.078,0.94 -0.045,0.275 -0.007,0.12 0.01,0.392 0.003,0.235 -0.065,0.864 0.251,1.519 v 0.806 l 0.007,0.317 0.024,0.155 0.063,0.335 0.078,0.246 0.202,1.305 0.194,0.694 0.075,0.87 0.035,0.808 -0.076,1.179 -0.122,0.94 -0.116,1.028 v 0.002 l -0.114,1.057 -0.073,0.242 -0.062,0.591 -0.102,0.484 -0.013,0.217 v 0.847 l -0.043,0.864 -0.139,1.392 -0.079,0.904 -0.008,0.827 0.044,1.004 0.009,0.405 -0.002,0.159 -0.024,1.342 -0.018,0.086 -0.095,1.182 -0.211,1.327 -0.086,0.242 -0.05,0.414 -0.346,1.434 -0.129,0.297 -0.052,0.322 -0.266,0.818 -0.065,0.293 -0.127,1.105 -0.171,0.552 -0.134,0.908 -0.218,0.732 -0.124,0.956 -0.046,0.139 -0.03,0.317 -0.127,0.671 v 0.79 l -0.216,1.922 -0.29,1.286 -0.231,1.447 -0.158,1.114 -0.121,1.393 -0.031,0.108 -0.028,0.378 -0.286,1.94 -0.001,0.003 -0.203,1.423 -0.029,0.089 -0.018,0.189 -0.288,1.595 -0.026,0.07 -0.012,0.112 -0.291,1.388 -0.044,0.109 -0.018,0.151 -0.251,1.007 -0.153,1.028 -0.143,0.414 -0.089,0.633 -0.266,0.938 -0.133,0.888 -0.281,0.816 -0.151,0.847 -0.289,0.788 -0.165,0.747 -0.189,0.455 -0.08,0.47 -0.463,1.327 -0.289,0.922 -0.267,1.072 v 0 0.001 l -0.028,0.111 -0.077,0.175 -0.566,1.539 -0.654,1.311 -0.104,0.15 -0.071,0.174 -0.328,0.585 -0.29,0.748 -0.189,0.326 -0.191,0.496 -0.567,1.085 -0.415,1.043 -0.267,0.45 -0.259,0.616 -0.55,0.952 -0.471,1.049 -0.285,0.444 -0.227,0.508 -0.61,0.987 -0.42,0.935 -0.074,0.115 -0.055,0.15 -0.724,1.451 -0.348,0.502 -0.228,0.467 -0.912,1.334 -0.801,1.203 -0.634,0.734 -0.207,0.326 -0.347,0.374 -0.287,0.459 -1.055,1.285 -0.146,0.215 -0.815,0.816 -0.634,0.74 -0.491,0.372 -0.373,0.499 -1.112,0.972 -0.193,0.117 -0.109,0.137 -1.344,1.075 -1.172,0.977 -0.364,0.212 -0.57,0.469 -1.297,0.82 -0.21,0.096 -0.188,0.142 -1.569,0.889 -0.418,0.172 -0.303,0.195 -0.949,0.433 -1.024,0.668 -1.045,0.492 -0.712,0.397 -1.833,0.68 -0.167,0.031 -0.162,0.084 -1.246,0.417 -1.092,0.569 -1.594,0.612 -0.2,0.091 -0.128,0.034 -0.007,0.003 -0.005,0.001 -1.35,0.365 -1.341,0.484 -0.036,0.007 -0.024,0.013 -1.692,0.611 -0.666,0.118 -0.63,0.245 -1.341,0.27 -1.138,0.348 -0.142,0.021 -0.106,0.05 -1.69,0.475 -0.705,0.099 -0.424,0.144 -1.691,0.251 -1.467,0.295 -0.338,0.034 -0.148,0.05 -1.844,0.275 -0.572,0.043 -0.129,0.034 -1.798,0.129 -1.676,0.187 -0.297,0.017 -0.06,0.016 -1.863,0.138 -0.081,0.003 -0.012,0.004 -2.076,0.138 -0.603,0.021 h -1.892 l -1.37,-0.109 -1.399,-0.223 -1.372,-0.101 -1.675,-0.065 -0.246,-0.058 -1.285,-0.141 -1.951,-0.432 -0.006,-0.002 -1.566,-0.339 -0.118,-0.049 -0.158,-0.02 -1.953,-0.504 -0.741,-0.335 -0.514,-0.108 -1.698,-0.745 -1.597,-0.649 -1.606,-0.576 -0.24,-0.133 -0.179,-0.036 -2.018,-0.863 -0.048,-0.03 -0.027,-0.006 -2.087,-0.933 -0.311,-0.2 -0.39,-0.162 -1.823,-1.04 -2.034,-1.048 -0.208,-0.148 -0.228,-0.099 -2.046,-1.227 -2.015,-1.14 -10e-4,-0.001 -1.947,-1.072 -0.727,-0.543 -0.457,-0.256 -1.782,-1.425 -1.72,-1.126 -0.016,-0.014 -0.01,-0.004 -2.133,-1.422 -0.044,-0.038 -0.038,-0.019 -1.721,-1.186 -1.808,-1.023 -0.469,-0.358 -0.375,-0.196 -1.853,-1.372 -1.906,-1.36 -0.109,-0.126 -0.213,-0.119 -1.99,-1.578 -2.052,-1.573 -0.033,-0.039 -0.06,-0.034 -2.049,-1.625 -0.136,-0.168 -0.234,-0.144 -1.801,-1.608 -2.018,-1.627 -0.21,-0.264 -0.34,-0.223 -1.825,-1.754 -0.048,-0.069 -0.071,-0.048 -1.892,-1.892 -0.145,-0.215 -0.192,-0.141 -1.694,-1.897 -1.823,-1.959 -0.222,-0.348 -0.686,-0.808 -1.452,-2.21 -0.001,-0.004 -1.403,-2.072 -1.549,-1.982 -0.084,-0.153 -0.089,-0.076 -1.525,-2.079 -0.033,-0.062 -0.033,-0.029 -1.594,-2.217 -0.167,-0.325 -0.283,-0.365 -1.38,-2.343 -0.017,-0.04 -0.021,-0.027 -1.45,-2.482 -0.047,-0.112 -0.065,-0.086 -1.379,-2.48 -0.034,-0.085 -0.043,-0.058 -1.449,-2.688 -0.047,-0.119 -0.057,-0.081 -1.378,-2.685 -0.107,-0.281 -0.116,-0.182 -1.16,-2.589 -1.084,-2.229 -0.059,-0.252 -0.215,-0.367 -1.1,-2.745 -0.002,-0.006 -0.91,-2.142 -0.042,-0.205 -0.134,-0.24 -0.961,-2.603 -0.018,-0.097 -0.046,-0.086 -0.892,-2.533 -0.098,-0.56 -0.21,-0.515 -0.522,-2.37 -0.786,-2.241 -0.065,-0.377 -0.157,-0.351 -0.757,-2.883 -0.072,-0.546 -0.113,-0.318 -0.483,-2.962 -0.003,-0.041 -0.004,-0.01 -0.484,-2.963 -0.007,-0.083 -0.009,-0.028 -0.484,-3.104 -0.027,-0.34 -0.032,-0.105 -0.343,-3.146 -0.398,-2.977 -0.034,-0.499 -0.027,-0.103 -0.191,-2.807 -0.378,-2.828 -0.008,-0.11 -0.01,-0.032 -0.346,-2.83 -0.068,-1.093 v -2.871 l -0.129,-2.642 -0.006,-0.228 -0.003,-0.014 -0.067,-2.893 -0.133,-2.589 -0.012,-0.466 v -2.943 l 0.022,-0.618 0.204,-2.86 0.135,-2.782 0.018,-0.069 0.024,-0.445 0.354,-3.194 0.01,-0.033 0.006,-0.09 0.385,-2.952 0.192,-3.023 0.025,-0.094 0.029,-0.449 0.42,-3.225 0.34,-2.933 v -0.001 l 0.343,-3.156 0.071,-0.232 0.058,-0.568 0.527,-2.524 0.237,-2.669 0.069,-0.241 0.07,-0.694 0.553,-2.711 0.309,-2.786 0.066,-0.215 0.053,-0.525 0.641,-3.14 0.051,-0.128 0.022,-0.181 0.728,-2.917 0.593,-2.974 0.015,-0.037 0.005,-0.048 0.696,-3.209 0.608,-3.117 0.159,-0.407 0.076,-0.493 0.869,-2.748 0.797,-2.931 0.064,-0.136 0.022,-0.142 0.928,-2.934 0.018,-0.036 0.004,-0.024 1,-3.005 0.007,-0.013 0.994,-2.92 0.035,-0.066 0.009,-0.05 1.071,-2.933 0.005,-0.008 0.958,-2.676 0.006,-0.011 0.975,-2.722 0.171,-0.31 0.047,-0.222 1.144,-2.577 0.159,-0.251 0.13,-0.325 1.038,-1.905 0.82,-1.997 0.089,-0.147 0.022,-0.099 1.143,-2.506 0.049,-0.075 0.01,-0.044 1.073,-2.223 0.048,-0.07 0.03,-0.079 1.096,-2.128 0.878,-1.813 0.716,-1.914 0.201,-0.354 0.052,-0.234 1.144,-2.435 0.018,-0.027 0.003,-0.011 1.143,-2.364 0.046,-0.067 0.029,-0.076 1.144,-2.22 0.026,-0.037 0.013,-0.033 1.074,-2.008 0.086,-0.118 0.054,-0.127 1.213,-2.072 0.077,-0.098 0.044,-0.097 1.212,-1.927 0.005,-0.006 1.187,-1.886 0.229,-0.278 0.12,-0.228 1.418,-1.915 0.095,-0.081 0.085,-0.152 1.415,-1.769 0.126,-0.101 0.106,-0.175 1.257,-1.436 1.081,-1.442 0.187,-0.158 0.171,-0.285 1.341,-1.553 v 0 l 1.241,-1.448 0.338,-0.257 0.263,-0.375 1.398,-1.328 0.107,-0.069 0.068,-0.093 1.158,-1.042 1.247,-1.306 0.175,-0.123 0.122,-0.173 1.398,-1.328 0.241,-0.157 0.149,-0.193 1.049,-0.883 2.387,-2.387 1.185,-1.251 0.313,-0.22 0.217,-0.293 1.253,-1.114 0.097,-0.059 0.056,-0.074 1.39,-1.182 0.049,-0.029 0.028,-0.035 1.248,-1.04 0.364,-0.212 0.57,-0.469 1.113,-0.704 1.008,-0.729 0.43,-0.221 0.493,-0.364 1.358,-0.749 0.002,-0.001 0.982,-0.57 0.991,-0.661 0.886,-0.425 0.734,-0.43 0.515,-0.207 0.513,-0.352 0.673,-0.33 0.664,-0.426 1.237,-0.564 0.9,-0.501 0.901,-0.367 0.467,-0.252 0.788,-0.28 0.737,-0.348 0.449,-0.102 0.684,-0.343 1.038,-0.33 1.028,-0.413 0.115,-0.022 0.119,-0.067 1.061,-0.4 0.012,-0.002 1.152,-0.451 0.081,-0.015 0.076,-0.043 1.062,-0.4 0.604,-0.111 0.619,-0.255 0.466,-0.104 0.186,-0.08 0.589,-0.123 0.779,-0.341 0.644,-0.162 0.237,-0.089 0.519,-0.261 0.974,-0.361 0.367,-0.183 1.06,-0.333 0.149,-0.023 0.116,-0.055 0.83,-0.239 0.732,-0.246 0.736,-0.277 0.829,-0.365 0.513,-0.109 0.696,-0.323 1.201,-0.336 0.94,-0.13 0.104,-0.032 0.046,-0.022 0.099,-0.022 0.235,-0.072 0.16,-0.018 0.219,-0.049 1.331,-0.518 1.345,-0.271 0.043,-0.004 0.013,-0.006 1.346,-0.27 0.537,-0.055 0.206,-0.064 1.15,-0.136 0.078,-0.005 0.019,-0.005 1.222,-0.137 0.109,-0.006 0.025,-0.008 1.365,-0.137 0.362,-0.018 0.057,-0.014 1.238,-0.069 0.005,-10e-4 1.054,-0.066 0.566,-0.018 h 3.714 z"
       fill-mode="evenodd" />
    <g
       id="g456"
       transform="translate(1.625,38.75)">
      <path
         style="fill:#000000"
         inkscape:connector-curvature="0"
         id="path454"
         d="m -9.367,-10.824 0.3,0.042 h 1.779 l 1.403,0.15 0.626,0.134 0.616,0.101 0.679,0.245 0.598,0.114 0.697,0.273 0.454,0.266 0.33,0.096 0.808,0.393 0.337,0.086 0.184,0.168 0.404,0.196 0.82,0.792 0.181,0.092 0.177,0.075 h 10e-4 l 0.001,0.001 0.031,0.013 0.051,0.042 0.016,0.011 0.092,0.047 0.359,0.257 1.033,0.696 0.364,0.54 0.253,0.211 0.006,0.019 0.022,0.018 0.223,0.291 0.218,0.402 0.003,0.004 0.001,0.003 0.148,0.274 0.223,0.33 0.026,0.129 0.081,0.149 0.252,1.501 -0.004,0.019 0.269,-0.054 3.178,0.642 0.248,0.167 0.225,0.053 0.467,0.231 1.816,1.26 0.14,0.168 0.12,0.08 0.224,0.332 0.928,1.115 0.351,0.783 0.246,0.365 0.068,0.335 0.249,0.555 0.12,0.848 0.101,0.231 0.058,0.224 0.256,2.037 v 8.689 l -0.018,0.543 -0.071,1.077 -0.029,0.108 -0.034,0.478 -0.145,1.026 -0.138,0.406 L 13,19.451 v 1.152 l -0.111,1.342 -0.082,0.491 -0.018,0.236 v 0.454 l -0.112,0.749 0.145,0.705 0.001,0.008 0.372,1.639 0.605,1.756 0.061,0.356 0.143,0.322 0.515,1.996 0.644,1.66 0.009,0.048 0.022,0.039 0.734,1.915 0.855,1.601 0.078,0.198 0.092,0.137 0.923,1.909 0.932,1.737 0.005,0.012 0.465,0.852 0.765,0.934 0.247,0.432 0.534,0.701 0.476,0.832 0.242,0.287 0.662,0.58 0.154,0.205 0.234,0.158 0.255,0.255 0.187,0.105 0.056,0.043 0.055,0.023 0.614,0.362 0.042,0.021 0.237,0.062 0.533,0.243 0.413,0.084 0.487,0.328 0.768,0.351 0.642,0.599 0.479,0.324 0.228,0.337 0.397,0.371 0.611,1.125 0.366,0.543 0.042,0.208 0.131,0.24 0.415,2.462 -0.415,2.461 -0.131,0.24 -0.042,0.208 -0.366,0.543 -0.611,1.125 -0.397,0.371 -0.228,0.337 -0.479,0.324 -0.642,0.599 -0.75,0.339 -0.505,0.34 -0.448,0.091 -0.55,0.248 -0.863,0.23 -2.029,0.269 -0.271,-0.004 -1.143,-0.04 -0.108,-0.026 -0.808,-0.061 -1.058,-0.162 -0.315,-0.109 -0.526,-0.07 -1.856,-0.76 L 14.987,59.465 14.98,59.46 13.827,58.813 12.145,57.538 12.12,57.506 12.097,57.491 11.238,56.632 10.312,55.822 9.933,55.315 9.453,54.945 8.341,53.625 8.089,53.194 7.488,52.405 6.982,51.522 6.744,51.23 6.533,51.549 6.37,51.924 5.929,52.661 5.758,52.876 5.661,53.072 5.648,53.09 5.638,53.119 4.831,54.588 4.499,55.215 4.453,55.277 v 0 0 l -0.3,0.4 -0.125,0.214 -0.391,0.786 -0.48,0.691 -0.27,0.51 -0.261,0.348 -0.224,0.419 -0.837,1.141 -0.233,0.36 -0.029,0.047 -0.005,0.005 -0.876,1.353 -0.098,0.086 -0.052,0.083 -0.776,0.847 -0.344,0.248 -0.245,0.331 -0.623,0.554 -0.268,0.164 -0.152,0.185 -0.613,0.477 -0.282,0.155 -0.365,0.302 -0.631,0.403 -0.516,0.362 -0.683,0.342 -0.709,0.447 -0.579,0.259 -0.009,0.002 -0.7,0.321 -0.754,0.165 -1.333,0.476 -0.792,0.133 -0.507,0.043 -0.145,0.042 -0.404,0.037 -0.366,0.067 -1.511,0.14 h -7.708 l -1.013,-0.063 -0.897,-0.112 -0.831,-0.055 -0.079,-0.021 -0.365,-0.023 -1.162,-0.144 -0.654,-0.21 -0.875,-0.142 -0.36,-0.119 -0.454,-0.09 -0.709,-0.117 -0.827,-0.127 -0.146,-0.05 -0.277,-0.03 -0.818,-0.174 -0.684,-0.113 -1.325,-0.478 -0.705,-0.155 -0.799,-0.367 -0.726,-0.301 -1.8,-1.097 -0.176,-0.1 -0.032,-0.027 h -10e-4 v -0.001 l -0.665,-0.543 -0.501,-0.39 -0.521,-0.39 -0.539,-0.342 -0.209,-0.174 -0.177,-0.092 -0.794,-0.576 -0.094,-0.111 -0.182,-0.101 -0.48,-0.384 -0.705,-0.487 -0.573,-0.647 -0.897,-0.672 -0.483,-0.552 -0.281,-0.463 -0.271,-0.24 -0.206,-0.294 -0.289,-0.321 -0.09,-0.145 -1.15,-1.673 -0.329,-0.654 -0.006,-0.023 -0.016,-0.023 -0.31,-0.618 -0.33,-0.564 -0.369,-0.866 -0.272,-0.495 -0.262,-0.715 -10e-4,-0.008 -0.296,-0.763 -0.135,-0.718 -0.288,-0.764 -0.169,-0.893 -0.206,-0.817 -0.086,-0.689 -0.107,-0.335 -0.136,-1.081 -0.005,-0.079 -0.006,-0.02 -0.136,-1.152 -0.06,-0.993 v -6.097 l 0.045,-0.855 0.143,-1.368 10e-4,-0.003 0.091,-0.87 v -0.899 l 0.175,-1.682 0.148,-0.705 0.039,-0.773 0.016,-0.066 0.022,-0.408 0.144,-1.299 0.009,-0.031 0.006,-0.083 0.168,-1.3 0.108,-0.331 0.077,-0.608 0.275,-1.075 0.221,-0.491 0.033,-0.269 0.3,-0.938 0.167,-0.888 0.386,-0.999 0.005,-0.007 0.259,-0.679 0.048,-0.338 0.191,-0.565 0.117,-0.724 0.192,-0.58 0.146,-0.699 0.052,-0.13 0.023,-0.178 0.313,-1.208 0.309,-0.683 0.099,-0.47 0.412,-0.936 0.443,-1.11 0.483,-0.813 0.384,-0.772 0.587,-0.838 0.481,-0.794 0.159,-0.197 0.088,-0.178 0.581,-0.837 0.603,-1.009 0.002,-0.003 0.67,-1.14 0.166,-0.211 0.095,-0.195 0.928,-1.357 0.037,-0.034 0.035,-0.068 0.716,-1.003 0.901,-0.782 0.786,-0.92 0.455,-0.334 0.344,-0.372 0.043,-0.031 0.054,-0.072 1.512,-1.22 0.445,-0.274 0.406,-0.338 0.346,-0.201 0.555,-0.448 0.445,-0.275 0.406,-0.338 0.306,-0.178 0.157,-0.18 0.958,-0.685 0.157,-0.08 0.069,-0.076 1.024,-0.683 0.433,-0.208 0.418,-0.288 0.807,-0.404 0.743,-0.427 0.36,-0.15 0.268,-0.173 0.841,-0.39 0.792,-0.398 0.081,-0.019 0.111,-0.073 0.945,-0.449 0.05,-0.012 0.057,-0.037 0.918,-0.426 0.319,-0.071 0.455,-0.24 0.83,-0.285 0.172,-0.029 0.153,-0.074 0.964,-0.29 0.049,-0.007 0.029,-0.014 0.125,-0.037 0.625,-0.3 0.624,-0.356 0.594,-0.23 0.486,-0.244 0.221,-0.053 0.339,-0.2 0.593,-0.241 2.717,-0.536 0.261,0.009 0.834,-0.109 0.27,-0.064 0.482,-0.017 0.255,-0.005 z m 0.99,13.337 -1.359,0.586 -0.082,0.011 -0.051,0.023 -0.051,0.013 -0.716,0.36 -0.26,0.062 -0.412,0.235 -0.17,0.066 -0.156,0.104 -0.367,0.176 -0.356,0.251 -0.877,0.452 -0.513,0.294 -0.306,0.209 -0.602,0.477 -0.47,0.262 -0.726,0.519 -0.929,0.492 -0.077,0.019 -0.111,0.077 -0.937,0.47 -0.109,0.026 -0.151,0.098 -0.617,0.286 -0.648,0.371 -0.232,0.097 -0.179,0.123 -0.559,0.28 -0.563,0.376 -0.637,0.456 -0.606,0.505 -0.346,0.201 -0.555,0.448 -0.445,0.274 -0.406,0.338 -0.346,0.201 -0.555,0.448 -0.012,0.008 -0.13,0.141 -0.672,0.482 -0.422,0.494 -0.057,0.041 -0.669,0.979 -0.286,0.486 -0.343,0.843 -0.056,0.094 -0.013,0.063 -0.378,0.854 -0.272,0.807 -0.182,0.342 -0.052,0.247 -0.536,1.224 -0.154,0.244 -0.128,0.321 -0.649,1.196 -0.322,0.436 -0.188,0.369 -0.283,0.395 -0.222,0.446 -0.258,0.555 -0.02,0.146 -0.194,0.573 -0.118,0.726 -0.296,0.895 -0.027,0.052 0.021,0.341 -0.038,0.777 -0.051,0.516 -0.009,0.712 -0.006,0.026 -0.028,0.609 -0.119,1.297 -0.008,0.027 -0.005,0.091 -0.113,1.024 -0.058,1.165 -0.058,0.232 -0.106,1.023 -0.105,0.502 v 0.479 l -0.045,0.854 -0.144,1.368 -10e-4,0.003 -0.091,0.87 v 5.183 l 0.081,0.68 v 0.012 l 0.075,0.598 0.149,0.589 0.042,0.336 0.074,0.196 0.072,0.383 0.065,0.168 0.019,0.099 0.053,0.097 0.028,0.077 0.101,0.173 0.12,0.28 0.151,0.22 0.399,0.795 0.006,0.023 0.001,0.001 0.015,0.022 0.006,0.013 0.054,0.087 0.118,0.104 0.066,0.046 0.052,0.059 0.071,0.062 0.033,0.047 0.271,0.152 0.556,0.445 0.414,0.3 0.588,0.374 0.267,0.222 0.216,0.115 0.861,0.645 0.033,0.039 0.061,0.033 0.626,0.487 0.066,0.007 0.763,0.162 0.707,0.108 0.021,0.007 0.033,0.003 0.889,0.147 0.076,0.027 0.135,0.014 1.104,0.219 0.435,0.172 0.493,0.08 0.072,0.023 0.096,0.012 0.832,0.056 0.078,0.02 0.366,0.023 0.62,0.077 h 6.454 0.003 l 0.592,-0.055 0.124,-0.035 0.126,-0.105 0.449,-0.286 0.114,-0.089 0.007,-0.006 0.798,-1.233 0.053,-0.046 0.07,-0.131 0.41,-0.56 0.226,-0.425 0.186,-0.248 0.186,-0.373 0.134,-0.195 0.094,-0.221 0.512,-0.879 0.32,-0.411 0.022,-0.062 0.465,-0.846 0.493,-0.999 0.48,-0.694 0.063,-0.107 0.334,-0.717 0.184,-0.279 0.055,-0.13 0.122,-0.616 0.172,-0.435 0.08,-0.493 0.079,-0.237 0.007,-0.136 0.09,-0.347 0.139,-1.131 0.161,-0.648 0.083,-0.668 0.133,-0.413 0.098,-0.718 0.272,-0.987 0.228,-1.145 v 0 l 0.145,-0.777 0.114,-0.863 0.177,-0.538 0.118,-0.776 0.285,-0.915 0.099,-0.399 0.083,-0.668 0.054,-0.166 0.037,-0.381 0.168,-0.845 0.112,-0.786 0.001,-0.004 0.139,-0.977 v 0 l 0.129,-0.973 0.049,-0.151 0.033,-0.329 0.052,-0.26 V 24.553 L -4.059,23.072 -4.115,22.397 -4.153,22.25 -4.291,20.107 -4.424,18.385 -4.426,18.34 -4.428,18.333 -4.566,16.469 -4.59,15.838 V 14.016 L -4.562,13.338 -4.45,11.99 V 10.722 L -4.306,9.194 -4.17,8.476 V 7.428 L -3.926,5.448 -3.773,4.831 -3.582,4.398 -3.51,4.001 -3.385,3.665 -3.178,2.639 -3.108,2.535 -3.154,2.54 -3.476,2.531 -3.492,2.53 -3.737,2.556 -4.415,2.593 -5.17,2.547 -5.35,2.525 -5.392,2.532 -6.517,2.627 -7.488,2.556 -7.78,2.513 Z"
         fill-mode="evenodd" />
    </g>
    <g
       id="g460"
       transform="translate(73.5,-19.8125)">
      <path
         style="fill:#000000"
         inkscape:connector-curvature="0"
         id="path458"
         d="m 1.863,-5.129 0.642,0.432 0.271,0.09 0.127,0.179 0.367,0.247 0.948,1.407 0.048,0.237 0.052,0.102 0.048,0.069 0.024,0.074 0.147,0.294 0.019,0.076 0.517,1.744 L 5.168,0.74 5.19,1.149 5.197,1.183 5.233,2.502 5.235,2.663 5.23,2.886 5.16,4.689 5.149,6.554 5.135,9.144 5.134,9.149 5.126,9.454 l -0.138,2.441 0.114,2.834 0.006,0.268 -0.002,0.158 -0.079,3.17 0.119,3.289 0.004,0.251 v 0.024 l -0.014,3.786 v 0 l -0.013,4.075 0.055,4.169 0.121,4.495 0.325,4.725 0.004,0.116 0.004,0.016 0.265,4.95 0.006,0.22 0.003,0.014 0.124,5.05 0.327,5.442 0.002,0.079 0.003,0.009 0.305,5.936 0.001,0.062 0.002,0.007 0.28,6.22 0.002,0.1 0.002,0.008 0.206,6.254 0.411,6.225 0.014,0.433 0.003,0.013 0.069,6.462 0.274,6.305 0.002,0.093 0.002,0.007 0.21,6.434 0.004,0.263 v 6.491 l 0.273,6.264 0.008,0.349 v 31.396 l -0.009,0.364 -0.272,5.708 v 5.255 l 0.037,5.508 v 0.054 l -0.004,0.23 -0.156,5.282 -0.082,5.007 -0.014,5.061 v 0.003 l -0.011,0.399 -0.245,4.698 v 4.548 l -0.009,0.382 -0.208,4.436 -0.138,4.289 H 7.318 v 0.004 l -0.14,4.079 v 0.001 0 l -0.135,3.709 v 3.4 l 0.133,3.324 0.007,0.343 v 12.614 l -0.01,0.398 -0.13,2.678 v 4.938 l 0.123,1.965 0.017,0.533 v 1.961 l 0.119,1.726 0.021,0.588 v 9.741 l -0.641,3.178 -1.75,2.595 -2.595,1.749 -3.178,0.642 -3.178,-0.642 -2.595,-1.749 -1.75,-2.595 -0.641,-3.178 v -9.459 l -0.119,-1.727 -0.021,-0.588 v -1.987 l -0.123,-1.964 -0.017,-0.534 v -5.396 l 0.009,-0.397 0.131,-2.678 v -12.249 l -0.133,-3.324 -0.007,-0.343 v -3.714 l 0.005,-0.297 0.141,-3.869 v 0 L -9,199.008 v 0 l 0.14,-4.326 0.002,-0.009 0.002,-0.096 0.201,-4.297 v -4.571 l 0.016,-0.505 0.303,-4.89 0.264,-5.064 0.003,-0.012 0.002,-0.077 0.338,-5.132 0.002,-0.009 0.002,-0.044 0.39,-5.155 0.167,-5.236 v -5.342 l 0.009,-0.364 0.271,-5.708 v -31.043 l -0.272,-6.265 -0.008,-0.349 v -6.532 l -0.205,-6.288 -0.278,-6.383 -0.006,-0.26 -0.001,-0.007 -0.068,-6.376 -0.405,-6.143 -0.009,-0.253 -0.005,-0.022 -0.209,-6.338 -0.277,-6.168 -10e-4,-0.031 -10e-4,-0.002 -0.254,-5.942 -0.005,-0.22 -0.002,-0.008 -0.083,-5.602 -10e-4,-0.119 0.002,-0.182 0.124,-5.085 -0.013,-4.822 -0.083,-4.849 -10e-4,-0.128 0.002,-0.192 0.127,-4.702 0.002,-0.009 0.002,-0.114 0.197,-4.285 0.003,-0.013 0.004,-0.098 0.267,-4.147 0.001,-0.004 10e-4,-0.016 0.258,-3.669 0.122,-3.39 0.01,-0.042 0.018,-0.36 0.318,-3.169 0.118,-2.963 0.021,-0.085 0.042,-0.575 0.387,-2.592 0.252,-2.452 0.013,-0.043 0.009,-0.132 0.271,-1.976 0.024,-0.073 0.015,-0.161 0.35,-1.903 0.039,-0.104 0.02,-0.164 0.319,-1.328 0.104,-0.242 0.043,-0.254 0.332,-0.608 0.249,-0.574 0.158,-0.174 0.113,-0.208 0.271,-0.349 0.125,-0.252 0.072,-0.078 0.028,-0.107 1.185,-1.228 0.068,-0.1 0.083,-0.056 0.088,-0.091 0.211,-0.23 0.015,-0.004 0.01,-0.011 0.384,-0.237 0.245,-0.07 0.37,-0.249 1.723,-0.348 z"
         fill-mode="evenodd" />
    </g>
    <g
       id="g464"
       transform="translate(77.875,-29.4375)">
      <path
         style="fill:#000000"
         inkscape:connector-curvature="0"
         id="path462"
         d="M 1.801,-4.264 3.272,-3.272 4.264,-1.801 4.627,0 4.623,0.059 4.702,0.262 4.79,0.725 4.984,1.226 5.125,1.931 5.147,2.154 5.18,2.251 5.307,3.11 5.311,3.165 5.316,3.181 5.417,3.899 5.48,4.206 5.7,4.798 l 0.015,0.083 0.041,0.077 0.386,1.105 0.057,0.331 0.13,0.302 0.299,1.226 0.373,1.24 0.438,1.215 0.667,1.641 0.038,0.189 0.112,0.212 0.478,1.392 0.749,1.549 0.099,0.424 0.341,0.712 0.632,2.149 0.62,1.855 0.826,1.886 0.013,0.057 0.037,0.062 0.844,1.986 1.031,1.867 1.175,1.912 0.018,0.041 0.015,0.013 1.35,2.215 0.101,0.227 0.139,0.193 1.213,2.283 0.015,0.059 0.057,0.082 1.026,2.001 1.231,2.03 0.016,0.036 0.021,0.026 1.242,2.069 0.132,0.301 0.17,0.248 0.927,1.851 1.044,1.593 1.131,1.632 1.303,1.759 0.027,0.051 0.027,0.023 1.107,1.521 0.054,0.104 0.054,0.048 0.979,1.407 0.945,1.181 0.241,0.428 0.212,0.197 0.406,0.624 0.447,0.419 0.549,0.774 0.506,0.45 0.343,0.496 0.353,0.388 0.225,0.361 0.24,0.201 0.427,0.57 0.394,0.437 0.3,0.484 0.288,0.254 0.474,0.677 0.107,0.213 0.096,0.091 0.084,0.131 0.98,0.661 1.75,2.595 0.641,3.178 -0.641,3.178 -1.75,2.595 -2.595,1.75 -3.178,0.641 -3.178,-0.641 -2.595,-1.75 -1.75,-2.595 -0.139,-0.691 -0.061,-0.057 -0.408,-0.64 -0.119,-0.17 -0.31,-0.344 -0.213,-0.344 -0.227,-0.191 -0.416,-0.554 -0.45,-0.495 -0.327,-0.525 -0.309,-0.274 -0.167,-0.241 -0.53,-0.497 -0.652,-0.92 -0.527,-0.49 -0.709,-1.09 -0.871,-1.087 -0.16,-0.286 -0.158,-0.14 -1.091,-1.567 -1.043,-1.434 -10e-4,-0.002 -1.362,-1.837 -0.078,-0.15 -0.079,-0.07 L 11.169,52.178 11.104,52.047 11.043,51.991 9.73,49.987 9.534,49.574 9.268,49.186 8.27,47.193 7.187,45.391 7.184,45.383 5.803,43.107 5.648,42.754 5.452,42.464 4.372,40.256 4.326,40.06 4.156,39.777 3.226,37.53 2.206,35.429 2.202,35.409 2.19,35.392 1.127,33.208 1.104,33.109 1.021,32.978 -0.055,30.596 -0.074,30.509 -0.138,30.405 -1.101,28.138 -1.103,28.13 -2.05,25.968 -2.11,25.685 -2.301,25.318 -3.057,23.056 -3.097,22.814 -3.193,22.604 -3.738,20.585 -4.354,18.818 -4.444,18.297 -4.625,17.832 -4.953,16.181 -5.392,14.526 -5.434,14.207 -5.509,14.009 -5.799,12.486 -5.824,12.225 -5.859,12.119 -6.08,10.525 -6.112,10.072 -6.134,9.988 -6.205,8.794 -6.329,7.834 V 7.825 L -6.477,6.745 -6.537,5.887 -6.527,5.535 -6.47,4.545 -6.45,4.467 -6.423,4.075 -6.294,3.15 -6.292,3.145 V 3.143 l 0.135,-0.924 0.028,-0.083 0.017,-0.168 0.153,-0.778 0.184,-0.47 0.079,-0.421 0.248,-0.645 0.181,-0.227 0.002,-0.007 0.033,-0.037 0.004,-0.005 0.105,-0.4 0.302,-0.531 0.301,-0.304 0.486,-0.729 0.315,-0.319 0.245,-0.167 0.156,-0.196 0.401,-0.324 0.75,-0.425 0.366,-0.247 0.108,-0.022 0.118,-0.067 L 0,-4.627 Z"
         fill-mode="evenodd" />
    </g>
    <g
       id="g468"
       transform="translate(110.5,32.75)">
      <path
         style="fill:#000000"
         inkscape:connector-curvature="0"
         id="path466"
         d="m 38.342,-66.287 0.219,0.147 0.202,0.048 0.536,0.45 0.596,0.401 0.343,0.209 0.041,0.05 0.188,0.127 0.299,0.443 0.316,0.266 0.089,0.117 0.265,0.497 0.293,0.367 0.114,0.35 0.057,0.085 0.022,0.11 0.264,0.496 0.125,0.755 0.182,0.562 0.05,0.368 0.063,0.942 -0.006,0.291 -0.001,0.026 0.014,0.128 0.046,0.817 -0.307,2.077 -0.197,0.422 -0.056,0.276 -0.238,0.352 -0.354,0.758 -0.472,0.729 -0.124,0.114 -0.13,0.246 -0.25,0.332 -0.394,0.702 -0.226,0.23 -0.319,0.581 -0.219,0.282 -0.244,0.542 -0.578,1.481 -0.184,0.315 -0.045,0.191 -0.858,1.72 -0.023,0.033 -0.004,0.016 -0.999,1.928 -0.193,0.272 -0.127,0.27 -1.006,1.54 -0.981,1.902 -0.104,0.146 -0.069,0.162 -1.329,2.24 -1.366,2.392 -0.002,0.002 -1.46,2.574 -0.009,0.009 -0.002,0.008 -1.559,2.695 -0.006,0.006 -0.004,0.009 -1.628,2.763 -0.108,0.106 -0.124,0.254 -1.788,2.6 -0.082,0.073 -0.081,0.15 -1.864,2.463 -0.069,0.058 -0.061,0.107 -2,2.454 -0.013,0.011 -0.011,0.019 -1.716,2.071 -1.602,2.224 -0.05,0.043 -0.044,0.082 -1.575,2.057 -1.396,2.143 -0.055,0.051 -0.056,0.111 -1.446,2.047 -0.044,0.038 -0.04,0.075 -1.373,1.831 -0.023,0.019 -0.021,0.037 -1.09,1.407 -0.209,0.171 -0.185,0.281 -0.902,0.927 -0.595,0.793 -0.626,1.014 -0.164,0.157 -0.197,0.348 -0.736,0.911 v 0 L 5.906,-0.364 5.815,-0.165 5.633,0.043 5.074,0.958 4.538,1.564 4.415,1.655 4.323,1.789 3.936,2.169 3.044,2.762 2.592,3.067 2.582,3.069 2.573,3.075 1.62,3.265 1.587,3.289 1.129,3.436 0,3.616 -1.408,3.332 -2.557,2.557 -3.332,1.408 -3.616,0 l 0.089,-0.442 -0.049,-0.259 0.132,-0.653 -0.005,-0.118 0.286,-1.591 0.068,-0.184 0.02,-0.201 0.451,-1.516 0.034,-0.146 0.022,-0.044 10e-4,-0.004 0.002,-0.003 0.506,-1.014 0.002,-0.003 0.403,-0.81 0.44,-1.125 0.153,-0.19 0.072,-0.294 0.743,-1.419 0.145,-0.153 0.218,-0.433 0.788,-1.109 0.748,-1.318 0.023,-0.024 0.007,-0.027 1.145,-1.945 1.15,-2.038 1.253,-2.375 0.094,-0.1 0.124,-0.272 1.476,-2.336 1.466,-2.456 0.098,-0.096 0.111,-0.225 1.662,-2.406 10e-4,-10e-4 1.706,-2.475 1.588,-2.504 0.03,-0.027 0.027,-0.058 1.638,-2.469 1.534,-2.602 10e-4,-0.002 1.514,-2.616 0.001,-0.001 1.442,-2.544 0.003,-0.003 1.409,-2.466 0.019,-0.02 0.019,-0.044 1.237,-2.084 1.042,-2.022 0.197,-0.277 0.129,-0.276 1.01,-1.545 0.837,-1.616 0.653,-1.308 0.533,-1.368 0.09,-0.153 0.023,-0.108 0.648,-1.443 0.121,-0.188 0.027,-0.111 0.273,-0.526 0.215,-0.668 0.063,-0.123 0.019,-0.106 0.199,-0.541 0.013,-0.12 0.537,-1.748 0.113,-0.499 0.264,-0.551 0.019,-0.029 0.003,-0.013 0.2,-0.404 0.409,-0.593 0.229,-0.431 0.113,-0.151 0.142,-0.119 0.157,-0.227 0.163,-0.136 0.141,-0.21 0.57,-0.384 0.541,-0.452 0.245,-0.11 0.348,-0.291 0.202,-0.048 0.219,-0.147 0.568,-0.115 0.121,-0.054 0.505,-0.072 1.408,-0.285 z"
         fill-mode="evenodd" />
    </g>
    <g
       id="g472"
       transform="translate(148.75,-25.125)">
      <path
         style="fill:#000000"
         inkscape:connector-curvature="0"
         id="path470"
         d="m -0.123,-7.888 0.071,0.01 0.018,0.008 0.903,0.182 1.855,1.25 1.25,1.855 0.372,1.843 0.232,0.916 0.031,0.558 0.084,0.721 L 4.743,0.28 4.741,0.415 4.714,1.828 4.709,1.849 4.697,2.191 4.624,3.203 v 3.525 l -0.003,0.21 -0.068,2.321 -0.027,2.336 0.116,2.802 10e-4,0.039 0.001,0.003 0.126,3.345 v 0.029 l 0.001,0.002 0.126,3.556 0.004,0.23 0.001,0.004 0.023,3.641 0.001,0.052 -0.005,0.269 -0.136,3.863 v 8.326 l 0.102,4.474 0.254,4.464 0.007,0.246 0.004,0.017 0.122,4.65 0.321,4.477 0.021,0.562 0.002,0.008 0.023,4.833 v 0.042 14.577 0.11 L 5.57,81.408 v 0.003 l -0.002,0.098 -0.137,5.149 v 19.021 l -0.014,0.472 -0.27,4.678 -0.066,3.684 v 11.769 l -0.006,0.297 -0.136,3.742 -0.031,3.865 0.118,4.107 v 0.008 0.001 l 0.122,4.201 0.256,4.098 0.007,0.202 0.005,0.02 0.163,4.117 0.007,0.36 v 14.913 l 0.069,3.553 10e-4,0.175 v 42.91 l 0.129,2.96 0.133,2.128 0.019,0.567 -0.015,0.509 -0.125,2.132 v 4.251 l 0.124,2.105 0.016,0.533 v 4.476 l 0.119,1.788 0.012,0.357 0.006,0.025 0.07,2.721 0.003,0.234 v 2.127 l 0.124,2.105 0.016,0.533 v 10.162 l -0.059,1.013 -0.081,0.69 v 3.413 l -0.043,0.862 -0.027,0.273 v 0.336 L 6,259.998 l 0.043,0.115 0.244,2.052 v 0.35 l -0.244,2.051 -0.377,1.026 -0.06,0.298 -0.109,0.16 -0.017,0.047 -0.014,0.073 -0.027,0.039 -0.067,0.183 -0.163,0.33 -1.338,1.928 -0.178,0.148 -0.085,0.128 -0.353,0.237 -1.184,0.986 -0.831,0.373 -0.388,0.262 -0.355,0.071 -0.589,0.265 -2.431,0.345 v 0 l -2.553,-0.382 -0.488,-0.232 -0.333,-0.067 -0.458,-0.309 -0.972,-0.462 -0.876,-0.783 -0.45,-0.304 -0.17,-0.251 -0.34,-0.305 -1.329,-2.16 -0.013,-0.031 -0.006,-0.009 -0.002,-0.009 -0.167,-0.385 -0.218,-1.049 -0.476,-1.721 -0.052,-0.624 -0.029,-0.708 0.051,-0.92 10e-4,-0.014 v -0.818 l 0.14,-1.551 10e-4,-0.006 0.042,-0.847 0.027,-0.273 v -3.49 l 0.06,-1.013 0.081,-0.69 v -9.394 l -0.124,-2.105 -0.017,-0.533 v -2.272 l -0.062,-2.445 -0.127,-1.898 -0.021,-0.603 v -4.511 l -0.124,-2.104 -0.016,-0.533 v -4.766 l 0.015,-0.509 0.109,-1.859 -0.106,-1.691 -0.005,-0.171 -0.005,-0.018 -0.139,-3.205 -0.009,-0.396 v -43.015 l -0.068,-3.552 -0.002,-0.175 v -14.875 l -0.113,-4.001 -0.003,-0.226 -10e-4,-0.002 -0.013,-4.274 v -0.028 l 0.003,-0.248 0.127,-4.354 v 0 l 0.122,-4.267 0.004,-0.019 0.007,-0.225 0.241,-4.044 0.131,-3.603 v -11.692 l 0.002,-0.146 0.07,-3.932 0.003,-0.016 0.009,-0.303 0.267,-4.603 V 86.547 l 0.003,-0.217 0.138,-5.207 0.069,-5.074 v -14.52 -0.04 l 0.023,-4.743 -0.082,-4.597 -10e-4,-0.151 0.003,-0.209 0.123,-4.716 -0.017,-4.504 -10e-4,-0.031 0.002,-0.177 0.105,-4.607 v -8.461 l 0.005,-0.269 0.136,-3.888 0.023,-3.534 10e-4,-0.004 0.004,-0.214 0.126,-3.583 h 10e-4 v -0.003 l 0.126,-3.373 10e-4,-0.001 v -0.012 l 0.125,-3.023 0.011,-0.045 0.016,-0.341 0.227,-2.349 0.06,-2.033 V 2.943 l 0.08,-1.065 0.194,-1.294 0.275,-0.795 0.134,-0.708 0.532,-1.355 0.038,-0.065 0.009,-0.045 0.39,-0.926 0.315,-0.511 0.256,-0.537 0.206,-0.309 0.072,-0.144 0.085,-0.092 0.072,-0.108 0.147,-0.134 0.651,-1.028 0.952,-0.708 0.295,-0.321 0.337,-0.15 0.195,-0.145 0.332,-0.091 0.651,-0.29 0.869,-0.123 0.367,-0.1 0.349,-0.027 0.465,-0.019 z"
         fill-mode="evenodd" />
    </g>
    <g
       id="g476"
       transform="translate(191.125,25.1875)">
      <path
         style="fill:#000000"
         inkscape:connector-curvature="0"
         id="path474"
         d="m 36.068,-70.786 0.871,0.072 0.176,0.049 0.576,0.052 0.047,0.009 h 1.506 l 2.032,0.255 0.83,0.322 0.316,0.064 0.208,0.14 0.448,0.175 0.607,0.322 0.526,0.236 1.888,1.219 0.151,0.174 0.137,0.088 0.687,0.655 0.241,0.345 0.305,0.232 0.07,0.082 0.366,0.224 0.104,0.085 0.098,0.047 0.868,0.578 0.298,0.327 0.578,0.361 0.777,0.706 v 0 l 0.771,0.701 0.148,0.204 0.342,0.285 1.202,1.747 0.224,0.446 0.334,0.467 0.297,0.584 0.427,0.652 0.374,0.799 0.462,0.82 0.004,0.009 0.531,0.928 0.214,0.51 0.215,0.354 0.541,1.282 0.002,0.005 0.499,1.119 0.099,0.462 0.301,0.647 0.337,1.208 0.097,0.697 0.128,0.394 0.136,1.011 0.011,0.161 0.014,0.046 0.137,1.226 0.021,0.369 0.016,0.062 0.058,0.995 0.115,1.027 0.05,0.881 v 1.261 l -0.034,0.726 -0.143,1.503 -0.031,0.105 -0.026,0.332 -0.216,1.376 -0.023,0.067 -0.012,0.127 -0.289,1.52 -0.073,0.191 -0.036,0.277 -0.362,1.385 -0.126,0.276 -0.047,0.27 -0.186,0.532 -0.107,0.681 -0.56,1.587 -0.131,0.564 -0.44,0.892 -0.328,0.955 -0.225,0.418 -0.303,0.743 -0.64,1.147 -0.626,1.194 -0.01,0.015 -10e-4,0.004 -0.743,1.388 -0.363,0.497 -0.2,0.377 -0.582,0.777 -0.399,0.878 -0.23,0.357 -0.181,0.404 -0.929,1.502 -0.009,0.009 -0.007,0.015 -0.859,1.361 -0.194,0.183 -0.222,0.401 -1.062,1.346 -0.147,0.118 -0.126,0.204 -1.197,1.339 -0.075,0.055 -0.057,0.088 -1.199,1.265 -1.205,1.34 -0.076,0.055 -0.056,0.087 -1.404,1.474 -0.07,0.049 -0.049,0.073 -1.332,1.331 -0.078,0.054 -0.053,0.074 -1.304,1.239 -1.395,1.43 -0.151,0.104 -0.103,0.143 -1.483,1.375 -0.457,0.29 -0.249,0.285 -1.598,1.137 -1.32,1.114 -0.595,0.349 -0.258,0.266 -1.596,0.972 -1.517,1.093 -0.343,0.176 -0.14,0.143 -1.506,0.904 -1.279,0.931 -0.429,0.221 -0.504,0.35 -1.725,0.872 -0.07,0.017 -0.095,0.063 -1.627,0.78 -0.029,0.007 -0.031,0.02 -1.348,0.64 L 19.403,6.359 19.032,6.56 17.633,7.062 17.624,7.063 16.382,7.523 15.358,7.98 15.322,7.987 15.286,8.01 14.204,8.485 14.183,8.489 14.165,8.5 13.083,8.975 12.682,9.06 12.132,9.307 11.187,9.555 10.94,9.587 10.787,9.646 9.68,9.866 9.225,9.912 9.07,9.957 8.241,10.04 8.184,10.043 8.173,10.046 7.477,10.11 7.375,11.231 7.249,13.821 7.181,16.87 7.178,16.881 7.174,17.058 7.043,19.885 v 14.264 l 0.131,2.805 0.004,0.187 0.003,0.012 0.07,2.863 0.002,0.209 v 2.455 l 0.235,2.283 0.01,0.202 0.011,0.04 0.209,2.705 0.026,0.655 v 1.902 l 0.22,1.87 0.024,0.394 0.019,0.073 0.134,2.075 0.187,2.054 0.255,1.968 0.028,0.417 0.023,0.088 0.132,1.841 0.193,1.859 0.013,0.247 0.012,0.047 0.125,1.734 0.245,1.896 0.011,0.17 0.014,0.047 0.175,1.623 0.345,1.778 0.157,1.603 v 1.284 l 0.233,1.39 0.063,0.741 0.04,0.156 0.139,2.289 0.008,0.25 0.004,0.02 0.066,2.156 0.111,1.618 0.241,1.799 0.032,0.464 0.025,0.096 0.139,2.006 0.009,0.271 0.006,0.025 0.054,1.506 0.208,1.398 0.02,0.261 0.024,0.08 0.207,1.854 0.016,0.28 0.015,0.056 0.138,1.865 0.003,0.076 0.003,0.011 0.139,2.077 v 0.01 l 0.139,2.003 0.021,0.588 v 1.834 l 0.167,1.664 0.013,0.258 0.012,0.046 0.139,2.077 v 0.006 l 0.135,1.824 10e-4,0.025 0.001,0.002 0.13,1.75 0.189,1.698 0.054,0.94 v 1.495 l 0.112,1.398 0.004,0.102 0.004,0.017 0.139,2.006 v 0.01 l 0.139,1.932 0.01,0.278 0.007,0.028 0.051,1.393 0.196,1.216 0.003,0.038 0.003,0.009 0.274,1.705 0.053,0.653 0.038,0.144 0.057,0.855 0.273,1.081 0.148,1.165 0.101,0.383 0.084,1.258 0.261,1.2 0.037,0.34 0.058,0.164 0.268,1.644 0.07,0.849 0.036,0.148 0.093,1.878 0.011,0.437 -0.021,0.601 -0.036,0.505 0.152,0.662 0.075,0.656 0.086,0.278 0.183,1.576 0.013,0.22 0.014,0.05 0.098,1.127 0.242,1.153 0.014,0.13 0.023,0.062 0.272,1.42 0.029,0.301 0.042,0.124 0.204,1.427 0.027,0.365 0.027,0.096 0.071,0.771 0.194,0.678 0.084,0.584 0.134,0.376 0.204,1.213 v 0 l 0.245,1.283 0.095,0.98 0.048,0.193 0.04,0.795 0.153,0.76 10e-4,0.015 0.254,1.199 0.195,0.794 0.281,0.867 0.058,0.359 0.128,0.297 0.13,0.533 0.146,0.309 0.167,0.738 0.609,1.911 0.069,0.541 0.167,0.659 0.133,1.047 0.109,0.393 0.076,0.932 0.134,1.16 v 0.002 l 0.016,0.121 0.069,0.19 0.016,0.093 0.044,0.082 0.285,0.826 0.254,0.505 0.694,1.873 0.022,0.179 0.04,0.1 0.172,0.818 0.176,0.611 0.081,0.564 0.136,0.372 0.099,0.556 0.06,0.181 0.062,0.375 0.143,0.325 0.267,1.061 0.027,0.216 0.052,0.13 0.171,0.79 0.205,0.764 0.058,0.429 0.101,0.268 0.16,0.847 0.128,0.209 0.399,0.925 0.146,0.701 0.162,0.402 0.057,0.105 0.387,0.977 0.227,0.437 0.262,0.78 10e-4,0.007 0.018,0.05 0.168,0.279 0.693,1.586 0.094,0.052 0.082,0.061 0.084,0.035 0.05,0.03 0.177,-0.019 0.143,-0.052 0.773,-0.13 0.631,-0.192 0.123,-0.052 0.228,-0.055 0.185,-0.056 0.094,-0.011 0.053,-0.012 0.699,-0.311 0.085,-0.066 0.051,-0.051 0.075,-0.092 0.399,-0.62 0.919,-1.094 0.158,-0.235 0.571,-0.571 0.325,-0.456 0.051,-0.044 0.045,-0.085 0.377,-0.503 0.435,-0.726 0.162,-0.204 0.091,-0.186 0.708,-1.03 0.258,-0.403 0.337,-0.721 0.429,-0.647 0.283,-0.564 0.25,-0.353 0.249,-0.786 0.002,-0.004 0.394,-1.287 0.24,-0.481 0.073,-0.351 0.372,-0.861 0.361,-1.108 0.22,-0.424 0.064,-0.301 0.137,-0.31 -0.016,-0.142 -0.054,-0.941 v -1.402 l 0.222,-1.892 0.238,-1.003 0.179,-1.097 0.04,-0.113 0.022,-0.202 0.307,-1.439 0.285,-0.7 0.108,-0.533 0.278,-0.412 0.235,-0.576 0.652,-0.739 0.362,-0.538 0.276,-0.186 0.271,-0.307 1.155,-0.655 0.564,-0.38 0.166,-0.033 0.182,-0.103 2.426,-0.424 2.266,0.368 0.281,0.147 0.227,0.045 0.472,0.319 0.985,0.512 0.451,0.456 0.358,0.241 0.253,0.376 0.483,0.487 0.453,0.901 0.338,0.501 0.058,0.286 0.17,0.338 0.376,1.181 0.381,1.002 0.093,0.498 0.222,0.522 0.288,1.204 0.233,1.948 v 0.947 l 0.087,0.776 0.054,0.94 -0.083,1.157 -0.145,1.026 -0.002,0.005 -0.191,1.299 -0.071,0.208 -0.045,0.39 -0.229,0.999 -0.184,1.215 -0.08,0.228 -0.048,0.409 -0.27,1.142 -0.244,1.263 -0.088,0.226 -0.045,0.338 -0.825,1.999 -0.622,1.1 -0.259,0.34 -0.151,0.302 -0.752,1.076 -0.503,0.442 -0.519,0.75 -0.279,0.27 -0.206,0.311 -0.593,0.924 -0.08,0.094 -0.041,0.085 -0.63,0.917 -0.519,0.866 -0.294,0.37 -0.155,0.293 -0.582,0.777 -0.654,0.916 -0.428,0.371 -0.428,0.634 -0.427,0.428 -0.177,0.276 -0.365,0.434 -0.166,0.29 -0.642,0.785 -0.293,0.231 -0.242,0.359 -0.701,0.701 -0.472,0.318 -0.29,0.355 -0.613,0.477 -0.152,0.084 -0.076,0.088 -0.748,0.545 -0.294,0.151 -0.335,0.265 -0.238,0.143 -1.199,1.042 -0.534,0.361 -0.494,0.24 -0.49,0.337 -0.679,0.343 -1.879,0.696 -0.768,0.092 -0.292,0.089 -0.831,0.297 -0.79,0.133 -0.135,0.011 -0.049,0.017 -0.726,0.111 -1.337,0.102 -0.776,-0.035 -0.653,-0.058 -0.136,-0.039 -0.441,-0.036 -0.8,-0.129 -0.316,-0.113 -0.486,-0.065 -0.728,-0.197 -0.06,-0.028 -0.594,-0.058 -0.85,-0.168 -0.571,-0.224 -0.582,-0.102 -0.54,-0.192 -0.532,-0.167 -0.48,-0.244 -0.352,-0.074 -0.515,-0.367 -1.051,-0.534 -0.769,-0.762 -0.485,-0.346 -0.534,-0.572 -0.183,-0.287 -0.026,-0.021 -0.524,-0.676 -0.632,-0.507 -0.354,-0.443 -10e-4,-0.001 -0.962,-0.851 -0.427,-0.612 -0.187,-0.165 -0.571,-0.815 -0.189,-0.379 -0.302,-0.405 -0.309,-0.554 -0.516,-0.859 -0.444,-1.015 -0.308,-0.568 -0.331,-0.92 -0.022,-0.124 -0.058,-0.111 -0.042,-0.127 -0.115,-0.211 -0.782,-1.976 -0.029,-0.226 -0.055,-0.137 -0.023,-0.105 -0.232,-0.429 -0.783,-1.976 -0.061,-0.482 -0.097,-0.272 -0.133,-0.79 v -0.004 l -0.129,-0.681 -0.18,-0.669 -0.038,-0.291 -0.076,-0.188 -0.189,-0.873 -0.158,-0.626 -0.153,-0.458 -0.119,-0.715 -0.212,-0.581 -0.133,-0.748 -0.141,-0.488 -0.089,-0.622 -0.143,-0.401 -0.125,-0.75 -0.188,-0.72 -0.07,-0.539 -0.107,-0.307 -0.221,-1.372 -0.011,-0.127 -0.015,-0.044 -0.159,-1.093 -0.081,-1.096 -0.021,-0.066 -0.002,-0.012 -0.157,-0.483 -0.294,-0.634 -0.119,-0.538 -0.38,-0.82 -0.27,-0.969 -0.026,-0.188 -0.054,-0.126 -0.285,-1.163 -0.15,-1.217 -0.09,-0.352 -0.068,-1.134 -0.122,-0.961 -0.016,-0.26 -0.019,-0.064 -0.072,-0.792 -0.172,-0.813 -0.01,-0.093 -0.017,-0.042 -0.271,-1.349 -0.105,-1.035 -0.053,-0.213 -0.041,-0.833 -0.166,-0.867 -0.016,-0.166 -0.026,-0.071 -0.135,-0.806 -0.278,-0.967 -0.151,-1.059 -0.144,-0.505 -0.123,-1.339 -0.155,-1.086 -0.234,-1.219 -0.001,-0.009 -0.321,-1.533 -0.08,-0.764 -0.07,-0.249 -0.121,-1.382 -0.076,-0.522 -0.365,-0.991 -0.243,-1.343 -0.266,-0.995 -0.094,-1.317 -0.197,-1.131 -0.326,-1.268 -0.14,-1.087 -0.114,-0.415 -0.153,-1.872 -0.03,-0.72 0.019,-0.569 0.074,-1.1 -0.131,-1.089 -0.063,-1.026 0.018,-0.547 0.045,-0.683 -0.128,-0.796 -0.003,-0.038 -0.003,-0.01 -0.274,-1.704 -0.075,-0.912 -0.029,-0.123 -0.065,-1.755 -0.128,-1.793 -0.002,-0.042 -10e-4,-0.005 -0.139,-2.006 v -0.002 l -0.133,-1.658 -0.028,-0.68 v -1.369 l -0.157,-1.406 -0.015,-0.28 -0.016,-0.056 -0.138,-1.865 -0.001,-0.025 -10e-4,-0.002 -0.138,-1.865 -0.003,-0.076 -0.003,-0.012 -0.132,-1.974 -0.193,-1.926 -0.044,-0.847 V 99.163 L -4.289,97.437 -4.29,97.397 -4.292,97.392 -4.431,95.315 V 95.309 L -4.558,93.6 -4.736,91.997 -4.987,90.312 -5.051,89.467 -5.076,89.361 -5.141,87.533 -5.254,85.894 -5.495,84.095 -5.526,83.631 -5.552,83.535 -5.691,81.529 -5.702,81.214 -5.708,81.188 -5.774,78.997 -5.881,77.237 -6.154,75.604 -6.272,74.213 V 73.037 L -6.535,71.682 -6.588,71.14 -6.646,70.948 -6.85,69.047 -7.111,67.031 -7.139,66.613 -7.162,66.526 -7.294,64.684 -7.487,62.825 -7.5,62.578 -7.513,62.531 -7.637,60.798 -7.882,58.901 -7.901,58.623 -7.92,58.554 -8.128,56.274 -8.138,56.063 -8.147,56.028 -8.274,54.067 -8.525,51.94 -8.585,50.947 V 48.879 L -8.764,46.548 -9.03,43.967 -9.075,43.098 V 40.325 L -9.141,37.639 -9.276,34.737 -9.285,34.339 V 19.692 l 0.008,-0.379 0.136,-2.921 0.068,-3.058 0.003,-0.012 0.004,-0.195 0.141,-2.892 0.011,-0.042 0.012,-0.28 0.256,-2.818 0.061,-2.569 V 1.752 l 0.039,-0.793 0.261,-2.686 0.131,-2.685 0.004,-0.016 0.004,-0.11 0.212,-3.178 0.033,-0.128 0.042,-0.545 0.373,-2.431 0.187,-2.503 0.051,-0.186 0.06,-0.654 0.498,-2.714 0.023,-0.059 0.009,-0.093 0.571,-2.717 0.004,-0.009 0.566,-2.628 0.004,-0.009 0.567,-2.56 0.019,-0.044 0.006,-0.053 0.572,-2.369 0.034,-0.078 0.012,-0.091 0.645,-2.37 0.003,-0.005 0.611,-2.318 0.098,-0.215 0.036,-0.221 0.788,-2.37 0.027,-0.052 0.007,-0.039 0.789,-2.229 0.003,-0.005 0.673,-1.959 0.08,-0.147 0.022,-0.119 0.79,-2.018 0.172,-0.292 0.043,-0.19 0.792,-1.66 0.035,-0.052 0.006,-0.028 0.793,-1.588 0.113,-0.165 0.079,-0.189 0.647,-1.134 0.489,-1.089 0.235,-0.366 0.188,-0.434 0.862,-1.437 0.08,-0.102 0.046,-0.097 0.79,-1.222 0.142,-0.169 0.074,-0.145 0.928,-1.285 0.418,-0.36 0.411,-0.609 0.543,-0.543 0.657,-0.81 0.07,-0.054 0.056,-0.096 0.85,-0.992 0.124,-0.094 0.097,-0.152 0.986,-1.056 0.23,-0.164 0.163,-0.229 1.047,-0.977 0.123,-0.079 0.076,-0.101 0.712,-0.623 0.63,-0.721 0.095,-0.071 0.073,-0.114 0.985,-1.056 0.652,-0.464 0.414,-0.492 1.101,-0.826 0.324,-0.172 0.395,-0.312 1.129,-0.679 0.684,-0.489 0.691,-0.352 0.763,-0.482 0.892,-0.398 0.576,-0.33 0.365,-0.153 0.273,-0.178 0.555,-0.26 0.483,-0.311 0.672,-0.312 0.558,-0.344 0.929,-0.4 0.368,-0.076 0.465,-0.233 0.999,-0.314 0.736,-0.265 1.282,-0.225 0.895,-0.244 0.216,-0.017 0.125,-0.032 2.037,-0.256 v 0 h 1.682 z m -1.529,16.3 -0.585,0.073 -0.177,0.064 -0.189,0.033 -0.178,0.089 -0.708,0.222 -0.364,0.235 -0.528,0.245 -0.466,0.305 -0.755,0.354 -0.64,0.367 -0.449,0.187 -0.325,0.206 -0.507,0.226 -0.282,0.201 -0.271,0.138 -0.298,0.236 -1.046,0.629 -0.202,0.151 -0.399,0.428 -0.902,1.031 -0.436,0.326 -0.324,0.433 -1.025,0.897 -0.748,0.698 -0.671,0.719 -0.661,0.771 -0.852,1.049 -0.301,0.238 -0.251,0.373 -0.377,0.377 -0.41,0.568 -0.589,0.911 -0.513,0.856 -0.454,1.013 -0.186,0.289 -0.15,0.36 -0.735,1.288 -0.666,1.334 -0.584,1.225 -0.607,1.55 -0.65,1.891 -0.007,0.013 -0.774,2.187 -0.641,1.928 -0.572,2.167 -0.005,0.012 -0.612,2.247 -0.519,2.149 -0.536,2.42 -0.002,0.005 -0.548,2.541 -0.002,0.006 -0.528,2.513 -0.383,2.085 L 8.77,-9.243 8.737,-9.119 8.7,-8.64 8.332,-6.244 8.15,-3.508 l -0.059,1.214 0.346,-0.109 0.765,-0.335 0.022,-0.005 0.017,-0.011 1.083,-0.475 0.007,-10e-4 1.064,-0.475 1.106,-0.594 0.004,-10e-4 1.029,-0.566 0.959,-0.667 0.106,-0.053 0.046,-0.049 1.518,-1.002 0.403,-0.191 0.14,-0.133 1.343,-0.72 1.149,-0.836 0.36,-0.186 0.148,-0.151 1.52,-0.913 1.47,-1.059 1.143,-0.865 0.984,-1.057 0.258,-0.184 0.181,-0.246 1.3,-1.166 0.995,-1.185 0.133,-0.102 0.106,-0.166 1.458,-1.562 0.174,-0.124 0.124,-0.177 1.335,-1.269 1.205,-1.204 1.272,-1.336 1.2,-1.333 0.067,-0.049 0.051,-0.079 1.192,-1.258 0.976,-1.091 0.681,-0.863 0.658,-1.043 v 0 l 0.619,-1.001 0.53,-1.168 0.489,-0.755 0.282,-0.532 0.422,-0.563 0.132,-0.359 0.404,-1.251 0.013,-0.025 0.002,-0.013 0.237,-0.702 0.131,-0.834 0.434,-1.228 0.149,-0.688 0.179,-0.395 0.055,-0.35 0.219,-0.62 0.118,-0.69 0.319,-0.907 0.203,-0.776 0.21,-1.11 0.151,-0.958 0.082,-0.866 v -0.467 l -0.09,-0.807 -0.021,-0.369 -0.016,-0.062 -0.059,-0.994 -0.112,-1.003 -0.055,-0.416 -0.059,-0.21 -0.31,-0.695 -0.019,-0.086 -0.061,-0.1 -0.384,-0.911 -0.308,-0.538 -0.021,-0.048 -0.024,-0.033 -0.611,-1.084 -0.132,-0.319 -0.153,-0.235 -0.194,-0.413 -0.274,-0.383 -0.252,-0.495 -0.083,-0.12 -0.205,-0.187 -0.26,-0.173 -0.449,-0.275 -0.511,-0.246 -0.509,-0.344 -0.471,-0.231 -0.08,-0.056 h -0.844 l -1.461,-0.132 -0.386,-0.069 -0.108,-0.009 z"
         fill-mode="evenodd" />
    </g>
    <g
       id="g480"
       transform="translate(258.375,59.0625)">
      <path
         style="fill:#000000"
         inkscape:connector-curvature="0"
         id="path478"
         d="m -5.518,-8.604 0.773,0.012 0.306,0.066 1.433,0.242 0.53,0.183 0.466,0.127 0.642,0.163 0.284,0.127 0.251,0.047 0.38,0.236 0.518,0.232 0.29,0.269 0.277,0.171 0.083,0.075 0.325,0.223 0.205,0.231 0.365,0.246 0.454,0.674 0.275,0.308 0.039,0.158 0.123,0.182 0.327,1.619 -0.007,0.231 -0.022,0.396 0.242,1.195 v 0.199 L 3.079,-0.591 3.095,-0.28 2.949,0.657 2.863,0.933 2.806,1.012 2.773,1.172 2.128,2.128 1.875,2.299 1.785,2.424 1.6,2.484 1.172,2.773 0,3.01 -1.172,2.773 -1.6,2.484 -1.785,2.424 -1.874,2.3 -2.128,2.128 -2.233,1.973 -2.318,2.019 -2.92,2.229 -3.065,2.286 -3.404,2.49 l -0.141,0.04 -0.106,0.101 -0.5,0.272 -0.463,0.339 -0.663,0.535 -0.424,0.38 -0.478,0.613 -0.832,1.132 -10e-4,10e-4 -0.851,1.154 -0.6,0.851 -0.764,1.352 -0.075,0.076 -0.087,0.19 -0.607,0.956 -0.314,0.839 -0.436,1.64 -0.036,0.078 -0.012,0.083 -0.364,1.213 -0.097,1.243 -0.072,0.261 -0.085,0.752 -0.394,1.725 -0.228,1.715 -0.155,1.393 v 4.452 l 0.153,0.79 0.365,1.194 v 0.003 l 0.502,1.5 v 0.002 l 0.232,0.636 0.584,0.894 0.031,0.067 0.028,0.027 0.96,1.506 0.903,1.354 0.069,0.144 0.062,0.058 0.823,1.316 0.903,1.115 0.256,0.452 0.219,0.206 0.922,1.439 1.151,1.439 0.332,0.591 0.247,0.244 1.073,1.809 1.024,1.598 0.088,0.19 0.131,0.174 0.893,1.577 0.156,0.379 0.171,0.271 0.789,1.771 0.806,1.608 0.069,0.289 0.26,0.467 0.684,1.843 0.011,0.059 0.028,0.051 0.614,1.703 0.062,0.344 0.148,0.333 0.48,1.842 v 0.004 l 0.513,1.788 0.203,1.427 0.08,0.342 0.066,1.911 0.13,1.885 0.019,0.515 v 3.714 l -0.031,0.668 -0.213,2.272 -0.069,0.237 -0.068,0.617 -0.43,1.941 -0.053,0.129 -0.023,0.167 -0.54,1.971 -0.043,0.092 -0.014,0.094 -0.528,1.7 -0.053,0.105 -0.016,0.095 -0.598,1.706 -0.154,0.283 -0.043,0.204 -0.815,1.851 -0.369,0.582 -0.278,0.573 -1.118,1.651 -0.169,0.152 -0.173,0.309 -1.133,1.416 -0.46,0.368 -0.385,0.526 -1.395,1.255 -0.379,0.235 -0.208,0.244 -1.311,0.967 -0.407,0.213 -0.49,0.359 -1.373,0.75 -1.244,0.772 -0.508,0.228 -0.412,0.263 -1.354,0.611 -0.005,0.001 -1.03,0.489 -0.991,0.552 -0.042,0.017 -0.025,0.018 -1.363,0.751 -0.592,0.239 -0.361,0.208 -1.21,0.473 -0.072,0.013 -0.067,0.038 -1.068,0.403 -0.436,0.08 -0.449,0.197 -0.787,0.198 -0.156,0.02 -0.094,0.038 -0.579,0.13 -1.713,0.193 v 0 l -1,-0.141 h -0.121 l -2.313,-0.355 -0.39,-0.19 -0.278,-0.056 -0.425,-0.287 -0.056,-0.027 -0.166,-0.039 -0.135,-0.108 -0.553,-0.27 -0.264,-0.179 -0.381,-0.425 -0.454,-0.307 -0.173,-0.255 -0.288,-0.195 -0.095,-0.14 -0.207,-0.167 -0.222,-0.276 -0.401,-0.716 -0.127,-0.141 -0.038,-0.152 -0.08,-0.143 -0.378,-0.56 -0.035,-0.176 -0.11,-0.195 -0.422,-2.439 0.404,-2.387 0.124,-0.227 0.039,-0.197 0.358,-0.53 0.599,-1.096 0.374,-0.348 0.217,-0.321 0.473,-0.319 0.634,-0.589 0.706,-0.314 0.482,-0.325 0.298,-0.06 0.302,-0.204 0.281,-0.057 0.387,-0.189 2.313,-0.356 h 0.631 l 0.006,10e-4 0.336,-0.126 0.01,-0.002 0.75,-0.293 0.915,-0.504 0.01,-0.004 1.223,-0.681 0.277,-0.113 0.202,-0.134 1.286,-0.61 0.08,-0.019 0.101,-0.064 0.948,-0.428 1.005,-0.623 0.212,-0.095 0.184,-0.135 1.09,-0.595 0.608,-0.449 0.655,-0.589 0.6,-0.751 0.85,-1.191 0.752,-1.246 0.647,-1.239 0.567,-1.196 0.429,-1.09 0.201,-0.909 0.137,-1.459 V 65.28 l -0.122,-1.764 -0.009,-0.246 -0.005,-0.023 -0.04,-1.153 -0.307,-1.072 -0.019,-0.13 -0.04,-0.091 -0.413,-1.584 -0.499,-1.382 -0.002,-0.011 -0.562,-1.513 -0.712,-1.423 -0.033,-0.137 -0.125,-0.198 -0.707,-1.588 -0.648,-1.145 -0.989,-1.544 -0.08,-0.171 -0.066,-0.066 -0.87,-1.466 -1.074,-1.343 -0.242,-0.431 -0.208,-0.195 -0.91,-1.421 -0.927,-1.145 -0.284,-0.5 -0.233,-0.222 -1.01,-1.615 -0.892,-1.337 -0.052,-0.108 -0.047,-0.045 -0.964,-1.513 -0.002,-0.005 -1.006,-1.541 -0.426,-0.904 -0.322,-0.586 -0.544,-1.492 -0.022,-0.12 -0.058,-0.112 -0.546,-1.632 -0.021,-0.125 -0.051,-0.105 -0.477,-1.561 -0.068,-0.451 -0.127,-0.331 -0.343,-1.777 -0.136,-1.396 v -5.536 l 0.044,-0.79 0.213,-1.925 0.01,-0.033 0.006,-0.09 0.285,-2.14 0.089,-0.272 0.063,-0.502 0.482,-1.91 0.376,-1.804 0.331,-0.823 0.114,-0.539 0.783,-1.769 0.702,-1.747 0.183,-0.307 0.044,-0.183 0.883,-1.741 0.179,-0.255 0.122,-0.264 0.893,-1.405 0.837,-1.484 0.149,-0.15 0.19,-0.38 0.855,-1.211 0.106,-0.093 0.1,-0.181 0.942,-1.189 0.314,-0.253 0.271,-0.389 1.066,-1.029 0.104,-0.067 0.066,-0.09 1.059,-0.952 0.71,-0.439 0.302,-0.305 1.087,-0.647 0.245,-0.068 0.183,-0.165 1.002,-0.502 0.14,-0.033 0.204,-0.126 0.993,-0.43 0.426,-0.089 0.575,-0.247 0.901,-0.22 0.01,-10e-4 0.797,-0.204 1.453,-0.185 z"
         fill-mode="evenodd" />
    </g>
  </g>
</svg>
