<?xml version="1.0" encoding="UTF-8" standalone="no"?>
<svg
   xmlns:dc="http://purl.org/dc/elements/1.1/"
   xmlns:cc="http://creativecommons.org/ns#"
   xmlns:rdf="http://www.w3.org/1999/02/22-rdf-syntax-ns#"
   xmlns:svg="http://www.w3.org/2000/svg"
   xmlns="http://www.w3.org/2000/svg"
   xmlns:sodipodi="http://sodipodi.sourceforge.net/DTD/sodipodi-0.dtd"
   xmlns:inkscape="http://www.inkscape.org/namespaces/inkscape"
   viewBox="0 0 26.061899 51.457951"
   width="26.061899"
   height="51.457951"
   version="1.1"
   id="svg1300"
   sodipodi:docname="l_arrow.svg"
   inkscape:version="0.92.4 (5da689c313, 2019-01-14)">
  <metadata
     id="metadata1306">
    <rdf:RDF>
      <cc:Work
         rdf:about="">
        <dc:format>image/svg+xml</dc:format>
        <dc:type
           rdf:resource="http://purl.org/dc/dcmitype/StillImage" />
        <dc:title></dc:title>
      </cc:Work>
    </rdf:RDF>
  </metadata>
  <defs
     id="defs1304" />
  <sodipodi:namedview
     pagecolor="#ffffff"
     bordercolor="#666666"
     borderopacity="1"
     objecttolerance="10"
     gridtolerance="10"
     guidetolerance="10"
     inkscape:pageopacity="0"
     inkscape:pageshadow="2"
     inkscape:window-width="3840"
     inkscape:window-height="2126"
     id="namedview1302"
     showgrid="false"
     fit-margin-top="0"
     fit-margin-left="0"
     fit-margin-right="0"
     fit-margin-bottom="0"
     inkscape:zoom="7.552"
     inkscape:cx="54.541"
     inkscape:cy="15.26458"
     inkscape:window-x="-11"
     inkscape:window-y="-11"
     inkscape:window-maximized="1"
     inkscape:current-layer="svg1300" />
  <g
     id="g6468"
     transform="translate(-739.72785,-598.19997)">
    <g
       transform="matrix(0.15,0,0,0.15,741.7641,623.46462)"
       id="g1284">
      <path
         fill-mode="evenodd"
         d="m 118.435,-168.328 1.106,0.183 1.113,0.093 0.333,0.093 0.841,0.104 1.454,0.362 0.05,0.022 0.053,0.007 0.879,0.239 1.131,0.173 0.054,0.019 0.106,0.009 1.303,0.236 1.32,0.219 0.025,0.009 0.039,0.004 1.332,0.241 0.006,0.002 1.279,0.231 0.842,0.317 0.65,0.129 1.078,0.445 0.83,0.31 0.06,0.034 0.041,0.008 0.866,0.345 0.893,0.266 0.085,0.042 0.079,0.013 1.104,0.366 0.076,0.04 0.063,0.011 1.337,0.485 0.467,0.259 0.274,0.065 0.637,0.318 0.651,0.204 0.26,0.132 0.212,0.041 1.155,0.46 0.848,0.316 0.496,0.282 0.274,0.067 0.969,0.501 0.888,0.633 0.414,0.241 0.555,0.462 0.799,0.599 0.297,0.353 0.486,0.328 0.701,0.701 0.338,0.502 0.358,0.3 0.589,0.786 0.449,0.537 0.335,0.578 0.271,0.259 0.288,0.459 0.325,0.38 0.052,0.087 0.091,0.084 1.132,1.93 0.052,0.129 10e-4,0.002 0.001,0.002 0.303,0.756 0.303,0.604 0.116,0.485 0.43,0.935 0.263,0.958 0.208,0.552 0.065,0.35 0.165,0.36 0.338,1.233 0.001,0.003 0.263,0.874 0.246,0.685 0.086,0.485 0.188,0.458 0.022,0.098 0.342,0.818 0.18,0.364 0.314,1.006 0.001,0.006 0.3,0.894 0.018,0.112 0.046,0.092 0.106,0.339 0.28,0.651 0.176,0.848 0.04,0.129 0.63,1.314 0.026,0.168 0.057,0.128 0.207,0.77 0.04,0.301 0.074,0.19 0.205,1.009 0.05,0.499 0.057,0.186 0.114,1.018 0.011,0.193 0.012,0.042 0.115,1.375 v 0.01 l 0.099,1.137 v 0.009 l 0.113,1.242 0.033,0.694 v 0 l -0.026,0.609 -0.118,1.429 -0.024,0.086 -0.023,0.315 -0.238,1.676 -0.052,0.154 -0.033,0.306 -0.339,1.59 -0.332,1.776 -0.004,0.01 v 0.004 l -0.374,1.913 -0.157,0.402 -0.074,0.458 -0.53,1.596 -0.437,1.589 -0.074,0.157 -0.025,0.158 -0.6,1.804 -0.176,0.334 -0.05,0.242 -0.639,1.458 -0.369,0.993 -0.371,1.583 -0.391,0.912 -0.113,0.501 -0.627,1.319 -0.47,1.454 -0.004,0.009 -0.599,1.854 -0.193,0.376 -0.057,0.267 -0.737,1.673 -0.006,0.009 -0.713,1.619 -0.005,0.008 -0.655,1.496 -0.475,1.186 -0.525,1.58 -0.092,0.176 -0.028,0.143 -0.616,1.561 -0.229,0.39 -0.054,0.222 -0.664,1.281 -0.69,1.48 -0.67,1.622 -0.03,0.049 -0.006,0.03 -0.836,1.915 -0.185,0.293 -0.042,0.165 -1.202,2.249 -0.067,0.092 -0.042,0.098 -0.807,1.383 -0.723,1.517 -0.127,0.189 -0.028,0.107 -0.929,1.704 -0.915,1.782 -0.058,0.082 -0.012,0.045 -0.874,1.595 -0.77,1.602 -0.299,0.443 -0.204,0.417 -1.063,1.558 -0.858,1.454 -0.206,0.202 -0.261,0.479 -0.963,1.243 -0.867,1.253 -0.202,0.179 -0.206,0.347 -0.734,0.86 -0.676,1.099 -0.527,0.506 -0.715,0.97 -1.181,1.054 -0.949,0.929 -0.136,0.09 -0.089,0.12 -1.049,0.939 -0.861,1.033 -0.223,0.172 -0.18,0.267 -1.285,1.286 -0.488,0.329 -0.287,0.336 -0.729,0.536 -0.523,0.639 -0.37,0.291 -0.3,0.413 -1.28,1.164 -0.02,0.012 -0.012,0.016 -1.283,1.155 -2.562,2.562 -0.305,0.205 -0.193,0.245 -1.402,1.145 -0.072,0.042 -0.038,0.047 -1.43,1.123 -1.242,1.148 -1.452,1.43 -0.317,0.211 -0.197,0.246 -1.037,0.829 -1.158,1.03 -1.043,0.938 -0.961,0.942 -0.469,0.31 -0.27,0.314 -1.267,0.922 -0.121,0.062 -0.055,0.062 -0.816,0.558 -0.833,0.75 -0.642,0.398 -0.294,0.307 -0.801,0.498 -0.727,0.655 -0.351,0.217 -0.19,0.221 -0.828,0.602 -0.588,0.47 -0.439,0.503 -0.487,0.364 -0.346,0.431 -1.283,1.028 -0.169,0.095 -0.085,0.099 -1.139,0.829 -1.125,0.92 -0.243,0.139 -0.123,0.141 -1.276,0.907 -0.002,0.001 -1.225,0.891 -0.067,0.035 -0.031,0.035 -1.001,0.706 -0.768,0.683 -0.259,0.159 -0.144,0.172 -0.707,0.535 -0.734,0.734 -0.229,0.155 -0.149,0.194 -0.92,0.785 -0.89,0.779 -0.23,0.139 -0.127,0.152 -1.045,0.794 -0.609,0.327 -0.219,0.21 -0.867,0.474 -0.661,0.5 -0.308,0.165 -0.136,0.144 -1.259,0.802 -0.561,0.259 -0.446,0.268 -1.36,0.569 h -10e-4 l -1.36,0.614 -0.068,0.014 -0.079,0.049 -1.594,0.685 -0.087,0.018 -0.099,0.058 -1.71,0.685 -0.085,0.017 -0.088,0.049 -1.826,0.687 -0.008,0.001 -1.553,0.608 -1.285,0.594 -0.071,0.016 -0.085,0.053 -1.829,0.802 -0.255,0.054 -0.328,0.171 -1.708,0.571 -0.005,10e-4 -2.084,0.749 -0.234,0.042 -0.225,0.106 -1.539,0.438 -1.284,0.583 h -10e-4 l -1.727,0.84 -0.16,0.038 -0.23,0.137 -1.602,0.662 -1.568,0.842 -0.218,0.055 -0.384,0.231 -1.606,0.663 -1.572,0.844 -0.306,0.078 -0.611,0.326 -1.843,0.643 -0.005,0.001 -1.648,0.613 -0.025,0.005 -0.016,0.009 L 41.744,0.481 41.74,0.482 40.224,1.088 39.837,1.163 39.393,1.355 37.672,1.777 37.643,1.781 37.631,1.786 35.91,2.208 35.697,2.235 35.574,2.281 33.969,2.589 33.936,2.592 33.925,2.596 32.339,2.898 31.185,3.154 29.867,3.525 29.553,3.569 29.346,3.648 27.738,3.954 27.702,3.958 27.689,3.963 26.146,4.252 24.554,4.623 23.985,4.689 23.771,4.751 22.083,4.909 20.545,5.161 20.498,5.165 20.483,5.17 18.75,5.444 18.639,5.453 18.6,5.466 17.349,5.635 16.22,5.971 15.721,6.045 15.411,6.146 13.784,6.366 13.696,6.372 13.671,6.38 11.981,6.579 11.132,6.751 11,6.764 10.939,6.786 9.659,6.998 9.642,6.999 9.639,7 8.358,7.215 8.143,7.233 8.074,7.254 7.145,7.354 6.66,7.381 H 6.653 L 5.602,7.379 5.597,7.378 4.895,7.319 4.189,7.198 4.005,7.131 3.75,7.094 2.937,6.856 2.792,6.755 2.496,6.693 1.699,6.347 1.445,6.132 1.141,6.041 0.477,5.604 0.329,5.443 0.192,5.395 -0.339,4.965 -0.474,4.795 -0.677,4.653 -0.951,4.367 -1.313,4.112 -1.436,3.971 -1.544,3.931 -1.682,3.689 -2.371,2.9 -2.555,2.153 -2.721,1.862 -2.84,1.159 -2.95,0.61 -3.012,0 -2.775,-1.172 -2.13,-2.13 -1.172,-2.775 0,-3.012 l 1.172,0.237 0.579,0.39 0.16,0.057 0.502,0.412 0.111,0.142 0.005,0.002 0.139,0.101 0.031,0.022 0.003,0.003 0.122,0.089 0.43,0.119 0.412,0.248 0.293,0.124 0.26,0.093 0.159,0.023 h 0.174 l 0.24,-0.042 0.57,-0.129 0.532,-0.215 0.064,-0.013 0.03,-0.024 1.206,-0.465 0.019,-0.003 0.006,-0.005 1.077,-0.417 0.791,-0.378 0.333,-0.077 0.571,-0.255 1.783,-0.464 1.102,-0.327 1.061,-0.508 0.308,-0.071 0.5,-0.242 1.562,-0.464 0.17,-0.025 0.126,-0.054 1.698,-0.414 0.045,-0.005 0.022,-0.01 1.7,-0.404 0.301,-0.036 0.155,-0.054 1.482,-0.233 1.325,-0.402 0.197,-0.029 0.15,-0.064 1.586,-0.385 0.036,-0.004 0.016,-0.007 1.388,-0.333 1.216,-0.409 0.172,-0.029 0.15,-0.07 1.351,-0.378 0.15,-0.021 0.103,-0.044 1.586,-0.381 0.033,-0.004 0.014,-0.006 1.511,-0.36 1.544,-0.448 0.028,-0.004 0.014,-0.006 1.319,-0.383 1.17,-0.538 0.078,-0.017 0.096,-0.059 1.695,-0.729 0.021,-0.005 0.018,-0.011 1.694,-0.729 0.08,-0.017 0.09,-0.052 1.428,-0.576 1.415,-0.835 0.189,-0.052 0.382,-0.249 1.58,-0.732 1.543,-0.911 0.192,-0.053 0.387,-0.252 1.759,-0.816 1.682,-0.866 0.078,-0.019 0.111,-0.074 1.705,-0.821 0.359,-0.083 0.582,-0.286 1.798,-0.549 1.954,-0.74 0.142,-0.026 0.141,-0.074 1.489,-0.497 1.551,-0.68 0.004,-10e-4 1.399,-0.647 0.128,-0.029 0.167,-0.099 1.704,-0.7 0.107,-0.022 0.116,-0.065 1.826,-0.686 0.004,-0.001 1.619,-0.649 h 0.003 l 1.454,-0.625 1.334,-0.632 0.134,-0.031 0.182,-0.109 0.893,-0.373 0.524,-0.334 0.753,-0.603 0.7,-0.393 0.253,-0.242 0.794,-0.434 0.487,-0.388 0.793,-0.694 0.759,-0.682 0.928,-0.927 0.33,-0.223 0.207,-0.257 0.91,-0.728 0.915,-0.814 0.274,-0.168 0.151,-0.179 1.254,-0.942 0.064,-0.034 0.031,-0.036 1.267,-0.922 10e-4,-0.001 1.118,-0.832 1.153,-0.944 0.203,-0.115 0.104,-0.121 1.109,-0.808 0.708,-0.592 0.487,-0.556 0.487,-0.365 0.347,-0.432 1.155,-0.925 0.063,-0.035 0.033,-0.04 0.733,-0.567 0.979,-0.881 0.551,-0.342 0.267,-0.288 0.847,-0.552 0.778,-0.7 0.375,-0.232 0.202,-0.232 1.14,-0.818 0.002,-0.001 0.817,-0.594 0.652,-0.667 0.181,-0.123 0.121,-0.166 1.13,-1.017 1.226,-1.14 0.238,-0.152 0.141,-0.175 0.863,-0.691 1.231,-1.249 0.135,-0.093 0.091,-0.126 1.515,-1.398 0.257,-0.163 0.151,-0.185 1.539,-1.21 1.083,-0.92 2.495,-2.495 0.098,-0.067 0.066,-0.092 1.386,-1.295 0.043,-0.027 0.027,-0.037 0.919,-0.836 0.748,-0.914 0.633,-0.498 0.47,-0.568 1.041,-0.797 0.754,-0.755 0.982,-1.178 0.306,-0.238 0.246,-0.347 1.284,-1.206 0.943,-0.964 0.141,-0.096 0.096,-0.134 0.592,-0.548 0.466,-0.758 0.192,-0.184 0.227,-0.414 0.827,-1.056 0.753,-1.174 0.1,-0.094 0.105,-0.204 0.78,-1.075 0.723,-1.313 0.107,-0.109 0.132,-0.283 0.86,-1.324 0.597,-1.323 0.118,-0.183 0.027,-0.109 0.891,-1.724 0.874,-1.8 0.057,-0.084 0.012,-0.048 0.839,-1.616 0.736,-1.618 0.201,-0.309 0.042,-0.164 0.878,-1.572 0.986,-1.91 0.668,-1.528 0.629,-1.636 0.138,-0.239 0.035,-0.161 0.837,-1.795 0.015,-0.024 0.003,-0.01 0.541,-1.128 0.422,-1.132 0.546,-1.643 0.045,-0.086 0.013,-0.072 0.578,-1.576 0.077,-0.137 0.02,-0.103 0.705,-1.689 0.005,-0.008 0.671,-1.621 0.006,-0.009 0.522,-1.26 0.471,-1.568 0.005,-0.009 0.561,-1.867 0.258,-0.522 0.075,-0.346 0.505,-1.107 0.312,-1.333 0.134,-0.311 0.054,-0.326 0.577,-1.694 0.122,-0.228 0.035,-0.175 0.586,-1.407 0.418,-1.256 0.395,-1.542 0.097,-0.215 0.036,-0.225 0.418,-1.256 0.247,-1.388 0.004,-0.01 v -0.005 l 0.358,-1.916 0.021,-0.054 0.009,-0.085 0.299,-1.402 0.167,-1.168 0.044,-0.538 -0.053,-0.584 -0.118,-1.034 -0.012,-0.208 -0.013,-0.045 -0.11,-1.313 -0.052,-0.468 -0.02,-0.082 -0.051,-0.061 -0.189,-0.521 -0.478,-0.996 -0.081,-0.535 -0.172,-0.373 -0.061,-0.275 -0.208,-0.381 -0.232,-0.644 -0.019,-0.107 -0.049,-0.096 -0.335,-0.999 -0.001,-0.006 -0.115,-0.318 -0.12,-0.211 -0.741,-1.772 -0.029,-0.212 -0.056,-0.137 -0.107,-0.479 -0.134,-0.338 -0.058,-0.304 -0.163,-0.335 -0.336,-1.115 -0.021,-0.135 -0.045,-0.1 -0.263,-0.957 -0.208,-0.553 -0.065,-0.35 -0.166,-0.36 -0.155,-0.568 -0.116,-0.231 -0.058,-0.24 -0.217,-0.37 -0.079,-0.198 -0.189,-0.317 -0.298,-0.284 -0.316,-0.505 -0.246,-0.295 -0.118,-0.204 -0.129,-0.108 -0.36,-0.48 -0.499,-0.374 -0.099,-0.118 -0.054,-0.031 -0.593,-0.222 -0.059,-0.033 -0.041,-0.008 -0.814,-0.324 -0.846,-0.239 -0.823,-0.393 -0.431,-0.102 -0.785,-0.391 -0.832,-0.301 -0.841,-0.279 -1.067,-0.319 -0.318,-0.156 -0.261,-0.05 -1.154,-0.46 -0.848,-0.316 -0.013,-0.008 v 0 l -0.512,-0.196 -0.632,-0.114 -0.006,-0.003 -1.251,-0.226 -1.319,-0.219 -0.026,-0.009 -0.039,-0.004 -1.221,-0.221 -1.424,-0.218 -0.307,-0.107 -0.487,-0.065 -1.275,-0.346 -0.669,-0.167 -0.816,-0.067 -0.132,-0.037 -0.453,-0.038 -0.791,-0.131 h -8.992 l -0.264,0.072 -0.126,0.018 -0.082,0.036 -1.228,0.308 -1.251,0.387 -0.005,0.001 -0.917,0.306 -0.87,0.397 -0.119,0.026 -0.148,0.089 -0.806,0.337 -0.395,0.252 -0.832,0.666 -0.227,0.128 -0.114,0.131 -0.796,0.568 -0.154,0.079 -0.068,0.075 -0.619,0.413 -0.649,0.577 -0.996,0.897 -0.971,0.97 -0.959,1.309 -10e-4,0.001 -0.937,1.287 -0.969,1.65 -1.011,1.8 -0.073,0.096 -0.044,0.099 -0.965,1.582 -0.612,1.138 -0.426,0.926 -0.356,1.072 -0.417,1.717 -0.036,0.083 -0.013,0.098 -0.471,1.7 -0.258,1.636 -0.216,1.948 -0.002,0.008 -0.001,0.013 -0.222,1.878 -0.092,1.657 v 1.126 l 0.129,0.901 0.129,0.628 0.091,0.122 0.13,0.244 0.093,0.085 1.385,0.202 0.838,0.088 1.138,-0.047 0.282,-0.006 2.529,0.51 2.064,1.392 1.392,2.065 0.511,2.528 -0.298,1.95 -0.164,0.338 -0.049,0.24 -0.245,0.365 -0.375,0.77 -0.539,0.585 -0.233,0.345 -0.226,0.153 -0.279,0.303 -1.309,0.767 -0.25,0.169 -0.057,0.012 -0.058,0.034 -1.486,0.596 -0.388,0.076 -0.447,0.201 -1.399,0.371 -0.531,0.07 -0.296,0.101 -1.561,0.229 -1.096,0.082 -0.438,-0.013 -1.308,-0.079 -0.815,-0.21 -1.232,-0.218 -1.233,-0.446 -0.539,-0.301 -0.783,-0.351 -1.103,-0.686 -0.197,-0.207 -0.437,-0.241 -0.862,-0.677 -0.84,-1.038 -0.738,-0.675 -0.592,-0.887 -0.558,-0.743 -0.361,-0.679 -0.57,-0.945 -0.566,-1.353 -0.115,-0.567 -0.296,-0.718 -0.356,-1.582 -0.048,-0.427 -0.068,-0.201 -0.228,-1.595 -0.08,-1.097 v -1.87 0 l 0.011,-0.414 0.118,-2.123 0.012,-0.049 0.015,-0.286 0.221,-2.138 0.002,-0.007 0.001,-0.016 0.237,-2.137 0.025,-0.081 0.018,-0.226 0.356,-2.263 0.11,-0.312 0.066,-0.481 0.543,-1.96 0.416,-1.838 0.133,-0.316 0.055,-0.344 0.6,-1.805 0.227,-0.432 0.063,-0.287 0.72,-1.565 0.154,-0.234 0.033,-0.133 0.838,-1.558 0.076,-0.103 0.047,-0.111 1.022,-1.736 1.011,-1.799 0.034,-0.045 0.019,-0.044 1.187,-2.021 0.195,-0.248 0.11,-0.221 1.17,-1.669 0.041,-0.036 0.037,-0.071 1.3,-1.774 0.374,-0.318 0.359,-0.533 1.519,-1.519 0.173,-0.117 0.115,-0.156 1.161,-1.046 0.026,-0.016 0.016,-0.02 1.044,-0.929 0.557,-0.341 0.277,-0.303 0.965,-0.644 0.543,-0.388 0.988,-0.791 0.466,-0.262 0.21,-0.222 1.255,-0.8 0.656,-0.302 0.521,-0.315 1.335,-0.558 1.086,-0.495 0.328,-0.072 0.454,-0.236 1.349,-0.452 0.12,-0.02 0.1,-0.049 1.466,-0.453 0.248,-0.038 0.193,-0.085 1.35,-0.339 h 0.007 l 1.123,-0.308 2.035,-0.279 h 10.633 z"
         id="path1282"
         inkscape:connector-curvature="0"
         style="fill:#000000" />
    </g>
    <g
       transform="matrix(0.15,0,0,0.15,740.43285,624.00837)"
       id="g1288">
      <path
         fill-mode="evenodd"
         d="m 11.019,-4.853 1.03,0.046 0.893,-0.036 0.262,-0.006 1.402,0.163 0.757,0.177 0.86,0.043 0.073,0.019 0.422,0.028 1.144,0.153 1.49,0.069 0.17,0.041 0.81,0.084 1.567,0.325 0.241,0.097 0.293,0.044 1.19,0.365 0.843,0.19 1.452,0.173 0.269,0.085 0.524,0.066 1.363,0.346 1.369,0.167 0.226,0.071 0.463,0.055 1.534,0.366 1.538,0.192 0.066,0.021 0.162,0.013 1.853,0.307 1.846,0.217 0.096,0.03 0.245,0.022 1.913,0.337 0.158,0.059 0.25,0.03 1.622,0.405 1.538,0.252 2.047,0.215 0.09,0.027 0.258,0.021 2.029,0.333 0.125,0.044 0.22,0.025 2.035,0.459 0.136,0.057 0.171,0.024 2.038,0.579 0.031,0.015 0.026,0.003 1.922,0.58 0.008,0.004 1.866,0.563 0.091,0.046 0.085,0.014 2.04,0.694 0.009,0.005 1.985,0.676 0.009,0.005 1.643,0.562 0.323,0.173 0.222,0.048 1.804,0.815 0.09,0.058 0.055,0.013 1.915,0.938 0.009,0.006 1.297,0.648 1.423,0.399 0.48,0.228 0.344,0.072 2.107,0.918 1.688,0.693 1.761,0.602 2.13,0.671 0.004,0.002 2.167,0.662 0.267,0.134 0.219,0.042 2.37,0.946 2.017,0.766 0.47,0.27 0.25,0.062 1.52,0.803 1.533,0.527 0.499,0.268 0.286,0.068 1.801,0.899 1.903,0.873 0.192,0.125 0.111,0.028 2.024,1.069 0.041,0.03 0.02,0.005 1.716,0.943 2.297,1.093 0.182,0.122 0.102,0.026 2.151,1.165 0.256,0.189 0.246,0.118 1.522,1.014 1.431,0.793 0.426,0.415 1.082,0.73 0.731,0.731 1.013,0.636 0.16,0.169 0.352,0.19 1.513,1.164 1.497,1.127 0.104,0.124 0.189,0.111 1.529,1.294 0.137,0.178 0.216,0.143 1.303,1.269 0.125,0.182 0.169,0.123 1.131,1.244 1.187,1.262 3.077,3.078 0.077,0.113 0.106,0.076 0.873,0.942 1.066,0.888 0.161,0.207 0.252,0.167 0.876,0.859 1.199,0.922 0.343,0.418 0.518,0.371 0.868,0.938 1.062,0.884 0.181,0.235 0.282,0.189 1.309,1.31 1.544,1.433 0.074,0.104 0.111,0.074 1.519,1.519 0.066,0.099 0.093,0.066 1.238,1.321 1.335,1.232 0.166,0.231 0.231,0.166 1.398,1.514 0.078,0.125 0.1,0.075 1.394,1.627 0.093,0.157 0.107,0.086 1.274,1.621 0.263,0.476 0.212,0.205 0.745,1.209 0.927,1.204 0.201,0.37 0.174,0.164 0.658,1.034 0.863,1.128 0.222,0.412 0.402,0.552 0.799,1.482 0.056,0.222 0.238,0.385 0.683,1.59 v 10e-4 l 0.621,1.342 0.001,0.007 0.686,1.445 0.033,0.149 0.122,0.2 0.566,1.356 0.033,0.164 0.104,0.188 0.451,1.236 0.015,0.084 0.04,0.075 0.371,1.069 0.528,1.141 0.008,0.039 0.027,0.042 0.524,1.148 0.43,0.834 0.695,1.189 0.165,0.387 0.187,0.292 0.493,1.081 0.676,1.254 0.002,0.005 0.681,1.246 0.004,0.018 0.015,0.019 0.554,1.014 0.737,1.105 0.135,0.281 0.108,0.108 0.761,1.302 0.714,1.121 0.04,0.087 0.034,0.033 0.917,1.489 0.033,0.072 0.027,0.027 1.034,1.721 0.123,0.282 0.159,0.231 0.799,1.596 0.005,0.02 0.014,0.02 0.799,1.595 0.022,0.091 0.081,0.124 0.8,1.71 0.052,0.233 0.182,0.324 0.685,1.821 0.039,0.212 0.107,0.215 0.57,1.819 0.015,0.095 0.034,0.071 0.572,1.936 0.004,0.034 0.009,0.017 0.571,1.935 0.065,0.444 0.116,0.308 0.344,1.825 v 0.004 l 0.335,1.596 0.042,0.398 0.056,0.171 0.185,1.383 0.267,1.099 0.112,0.924 0.081,0.302 0.115,1.612 v 10e-4 l 0.11,1.313 0.023,0.533 0.003,0.017 0.016,1.515 v 0.079 l -0.024,0.599 -0.092,1.106 v 2.579 l 0.017,1.592 v 0.083 l -0.018,0.515 -0.098,1.382 v 1.141 l -0.014,0.437 -0.086,1.421 v 1.297 l -0.116,1.296 -0.11,0.603 0.01,0.815 0.001,0.09 -0.022,0.557 -0.118,1.545 -0.002,0.005 v 0.015 l -0.119,1.429 -0.006,0.02 -0.003,0.073 -0.12,1.2 -0.042,0.142 -0.036,0.403 -0.164,0.907 -0.066,0.915 -0.038,0.138 -0.044,0.528 -0.225,1.332 -0.344,0.946 -0.136,0.665 -0.236,0.554 -0.209,0.806 -0.015,0.032 -0.005,0.043 -0.738,1.736 -0.297,0.506 -0.261,0.639 -0.058,0.094 -0.015,0.072 -0.169,0.234 -0.866,1.432 -0.507,0.462 -0.221,0.304 -0.198,0.181 -0.225,0.319 -0.814,0.712 -0.753,0.904 -0.529,0.402 -0.656,0.601 -0.507,0.318 -0.268,0.304 -1.012,0.707 -0.018,0.009 -0.006,0.007 -1.012,0.708 -0.208,0.104 -0.088,0.093 -1.255,0.8 -0.519,0.239 -0.444,0.285 -1.239,0.565 -0.003,0.001 -1.261,0.608 -0.108,0.025 -0.144,0.091 -1.004,0.448 -0.312,0.067 -0.415,0.216 -0.946,0.316 -0.783,0.38 -0.027,0.006 -0.027,0.018 -1.226,0.593 -0.202,0.047 -0.287,0.169 -1.457,0.593 -0.168,0.034 -0.185,0.101 -1.583,0.567 -0.009,10e-4 -1.748,0.658 -0.131,0.024 -0.126,0.067 -1.694,0.583 h -0.001 l -1.665,0.626 -0.623,0.115 -0.633,0.245 -2.401,0.476 -0.007,0.001 -2.064,0.451 -0.335,0.037 -0.162,0.056 -2.29,0.36 -0.075,0.006 -0.025,0.009 -2.038,0.305 -1.754,0.463 -0.48,0.063 -0.282,0.101 -2.172,0.359 -0.378,0.032 -0.119,0.036 -2.185,0.23 -0.25,0.014 -0.047,0.012 -1.843,0.132 -0.575,0.021 h -1.987 l -0.907,-0.054 -2.023,-0.237 -0.171,-0.054 -0.407,-0.04 -1.803,-0.359 -1.069,-0.421 -0.612,-0.134 -1.134,-0.523 -1.043,-0.346 -0.01,-0.005 -0.966,-0.32 -0.705,-0.156 -0.343,-0.143 -0.376,-0.061 -1.039,-0.344 -0.002,-0.001 -0.002,-0.001 -0.063,-0.02 -0.91,-0.479 -1.128,-0.579 -1.018,-0.735 -0.796,-0.521 -0.046,-0.049 -0.096,-0.048 -0.969,-0.672 -0.849,-0.556 -0.119,-0.128 -0.251,-0.133 -0.954,-0.715 -0.23,-0.275 -0.397,-0.254 -0.534,-0.501 -0.596,-0.488 -0.674,-0.535 -0.446,-0.554 -0.604,-0.46 -0.692,-0.808 -0.215,-0.361 -0.216,-0.188 -0.569,-0.795 -0.164,-0.323 -0.274,-0.359 -0.447,-0.781 -0.304,-0.727 -0.243,-0.433 -0.233,-0.617 -0.278,-0.575 -0.086,-0.372 -0.302,-0.581 -0.335,-0.997 -0.073,-0.444 -0.155,-0.379 -0.176,-0.786 -0.252,-0.834 -0.128,-0.858 -0.159,-0.509 -0.093,-0.783 -0.058,-0.945 v -1.051 l 0.003,-0.212 0.026,-0.945 0.018,-0.08 0.055,-0.779 0.138,-0.974 0.194,-0.575 0.118,-0.731 0.367,-1.105 0.238,-0.454 0.363,-0.872 0.471,-0.828 10e-4,-0.001 0.001,-0.001 0.014,-0.025 0.348,-0.454 0.802,-1.06 0.027,-0.022 0.021,-0.028 0.795,-0.617 0.701,-0.554 0.055,-0.033 0.005,-0.004 0.005,-0.002 0.485,-0.292 0.021,-0.01 0.013,-0.009 0.55,-0.332 0.302,-0.132 0.248,-0.17 0.658,-0.331 0.299,-0.071 0.481,-0.27 0.882,-0.333 1.049,-0.193 0.934,-0.275 0.367,-0.037 0.245,-0.078 0.634,-0.1 0.471,-0.169 1.242,-0.21 0.664,-0.057 0.149,-0.038 1.497,-0.098 0.519,-0.018 0.116,0.001 0.862,0.013 1.193,-0.078 0.21,-0.007 0.021,-0.005 1.389,-0.052 1.363,-0.142 0.035,-0.002 0.006,-0.002 1.341,-0.138 1.182,-0.222 0.544,-0.052 0.172,-0.049 1.382,-0.13 h 0.003 l 0.895,-0.095 1.155,-0.198 1.217,-0.105 2.73,0.551 2.229,1.503 1.503,2.229 0.551,2.73 -0.353,2.204 -0.151,0.294 -0.047,0.232 -0.303,0.45 -0.484,0.941 -0.473,0.477 -0.243,0.361 -0.344,0.232 -0.442,0.446 -0.958,0.498 -0.485,0.327 -0.236,0.047 -0.277,0.144 -1.317,0.441 -0.148,0.024 -0.126,0.061 -1.086,0.325 -0.235,0.034 -0.174,0.075 -1.309,0.319 -1.297,0.358 -0.416,0.058 -0.266,0.099 -1.577,0.29 -0.042,0.004 -0.014,0.005 -1.578,0.289 -0.453,0.042 -0.153,0.046 -1.596,0.168 -0.131,0.007 -0.028,0.009 -1.488,0.132 -0.56,0.025 -0.025,0.006 -0.888,0.013 -0.84,0.075 -0.213,0.042 0.057,0.254 0.031,0.094 0.18,0.345 0.08,0.325 0.318,0.566 0.124,0.327 0.132,0.185 0.113,0.132 0.276,0.241 0.023,0.031 0.038,0.023 0.809,0.725 0.195,0.265 0.275,0.195 0.22,0.235 0.074,0.055 0.631,0.375 0.09,0.071 0.086,0.04 0.977,0.624 0.858,0.51 0.18,0.142 0.167,0.081 0.21,0.142 0.455,0.101 0.343,0.142 0.376,0.061 1.457,0.484 0.01,0.005 1.392,0.462 0.447,0.235 0.297,0.065 0.687,0.317 0.56,0.111 1.217,0.143 h 1.317 l 1.467,-0.08 1.86,-0.196 1.632,-0.247 1.759,-0.464 0.635,-0.084 0.342,-0.112 2.415,-0.33 0.013,-0.001 2.105,-0.302 1.942,-0.396 0.134,-0.014 0.062,-0.023 1.787,-0.328 1.176,-0.443 0.191,-0.035 0.191,-0.098 1.625,-0.527 1.621,-0.61 0.086,-0.016 0.08,-0.043 1.582,-0.568 0.012,-0.002 1.353,-0.494 1.032,-0.443 0.031,-0.006 0.027,-0.017 1.25,-0.534 0.279,-0.058 0.343,-0.178 1.064,-0.357 0.519,-0.231 1.129,-0.588 0.156,-0.038 0.241,-0.154 0.805,-0.368 0.802,-0.511 0.026,-0.012 0.008,-0.008 1.037,-0.66 0.023,-0.011 0.007,-0.007 0.654,-0.417 0.561,-0.469 0.373,-0.217 0.163,-0.205 0.52,-0.418 0.231,-0.344 0.169,-0.354 0.078,-0.275 0.292,-0.611 0.086,-0.392 0.112,-0.243 0.026,-0.132 0.109,-1.006 0.04,-0.13 0.031,-0.346 0.183,-1.008 0.083,-0.837 0.111,-1.342 v 0 l 0.094,-1.214 0.015,-1.282 0.013,-0.062 0.103,-1.146 0.117,-0.645 v -0.862 l 0.024,-0.595 0.11,-1.342 v -1.101 l 0.019,-0.515 0.101,-1.422 0.015,-1.375 v -2.881 l 0.025,-0.599 0.095,-1.145 0.009,-0.914 -0.087,-1.041 -0.004,-0.096 -0.004,-0.016 -0.08,-1.111 -0.213,-0.965 -0.049,-0.444 -0.065,-0.198 -0.209,-1.563 -0.288,-1.503 -0.005,-0.05 -0.007,-0.018 -0.286,-1.521 -0.467,-1.583 -0.005,-0.034 -0.008,-0.017 -0.571,-1.935 -0.001,-0.01 -0.511,-1.628 -0.531,-1.412 -0.674,-1.441 v -0.001 l -0.733,-1.464 -0.005,-0.02 -0.014,-0.02 -0.702,-1.402 -0.885,-1.473 -0.003,-0.006 -0.89,-1.446 -0.002,-0.003 -0.759,-1.192 -0.089,-0.192 -0.073,-0.073 -0.717,-1.228 -0.792,-1.187 -0.138,-0.287 -0.206,-0.282 -0.683,-1.248 -0.004,-0.018 -0.015,-0.019 -0.682,-1.249 -0.008,-0.03 -0.029,-0.04 -0.799,-1.482 -0.045,-0.176 -0.188,-0.293 -0.439,-0.963 -0.611,-1.046 -0.124,-0.29 -0.152,-0.227 -0.552,-1.134 -0.02,-0.087 -0.074,-0.116 -0.566,-1.241 -0.002,-0.008 -0.682,-1.474 -0.077,-0.347 -0.256,-0.504 -0.425,-1.315 -0.364,-0.997 -0.491,-1.176 v 0 l -0.606,-1.343 -0.002,-0.008 -0.671,-1.451 -0.022,-0.099 -0.076,-0.123 -0.583,-1.356 -0.427,-0.792 -0.725,-0.984 -0.151,-0.29 -0.134,-0.126 -0.653,-1.024 -0.959,-1.247 -0.238,-0.437 -0.194,-0.187 -0.725,-1.178 -0.941,-1.197 -1.216,-1.419 -1.12,-1.212 -1.314,-1.214 -0.183,-0.255 -0.251,-0.182 -1.277,-1.405 -1.306,-1.307 -1.545,-1.433 -0.073,-0.104 -0.111,-0.075 -1.175,-1.174 -1.166,-0.972 -0.31,-0.4 -0.429,-0.316 -0.717,-0.803 -1.011,-0.777 -0.278,-0.339 -0.442,-0.302 -0.909,-0.927 -1.142,-0.951 -0.311,-0.401 -0.43,-0.318 -1.021,-1.146 -3.01,-3.01 -0.116,-0.172 -0.154,-0.114 -1.253,-1.401 -1.063,-1.17 -0.949,-0.973 -1.167,-0.988 -1.396,-1.096 -1.268,-0.976 -1.433,-0.941 -0.374,-0.407 -0.697,-0.47 -0.658,-0.657 -0.893,-0.525 -0.087,-0.089 -0.211,-0.1 L 94.624,34.29 92.96,33.345 90.702,32.27 90.505,32.139 90.271,32.041 88.492,31.02 86.725,30.086 84.85,29.184 84.816,29.161 84.799,29.157 83.282,28.4 81.637,27.807 81.091,27.504 80.808,27.434 79.146,26.555 77.356,25.846 77.346,25.84 75.24,24.999 73.211,24.341 73.206,24.339 71.046,23.658 70.925,23.597 70.818,23.578 68.792,22.843 68.668,22.774 68.573,22.755 66.542,21.921 66.44,21.859 66.372,21.845 64.663,21.072 63.056,20.581 62.413,20.26 62.063,20.178 60.155,19.225 60.147,19.219 58.312,18.286 56.954,17.635 55.58,17.126 55.573,17.122 53.638,16.418 53.629,16.413 51.787,15.743 50.031,15.179 50.022,15.174 48.186,14.583 46.492,14.071 44.858,13.672 43.322,13.384 41.349,13.176 41.213,13.135 40.85,13.101 38.826,12.721 38.694,12.67 38.494,12.646 36.757,12.213 35.312,11.927 33.561,11.722 33.445,11.685 33.158,11.659 31.353,11.323 29.659,11.112 29.379,11.022 28.858,10.955 27.334,10.559 25.915,10.354 25.619,10.253 25.144,10.188 23.779,9.81 22.402,9.608 22.122,9.512 21.671,9.451 20.233,9.057 20.018,8.957 19.814,8.922 18.701,8.524 17.985,8.343 16.725,8.233 16.559,8.186 16.065,8.137 14.911,7.908 13.748,7.773 13.318,7.639 12.651,7.538 12.148,7.382 11.776,7.367 11.704,7.349 11.206,7.315 10.194,7.177 9.176,7.13 v 0 L 7.8,7.072 7.791,7.07 7.718,7.067 6.983,7.025 6.256,7.06 5.959,7.068 5.498,7.05 4.715,6.987 3.712,6.923 3.671,6.913 3.469,6.901 2.751,6.822 2.402,6.715 1.804,6.629 0.982,6.386 0.675,6.236 0.442,6.189 -0.13,5.948 -0.302,5.804 -0.906,5.437 -0.977,5.415 -1.208,5.298 -1.391,5.261 -1.727,5.035 -2.386,4.7 -2.736,4.355 -3.005,4.173 -3.176,3.919 -3.499,3.6 -3.865,2.897 -4.093,2.56 -4.125,2.399 -4.229,2.199 -4.276,1.912 -4.331,1.83 -4.7,0 -4.331,-1.83 -3.324,-3.324 -1.83,-4.331 0,-4.7 l 0.987,0.199 0.298,-0.007 0.117,-0.001 1.233,0.224 0.432,-0.002 0.376,-0.041 0.242,-0.014 0.044,-0.011 1.012,-0.065 0.49,-0.04 0.742,-0.129 0.576,-0.051 0.121,-0.031 1.032,-0.061 0.1,-0.003 0.011,-0.002 1.387,-0.059 h 0.004 l 1.254,-0.058 0.292,-0.007 z"
         id="path1286"
         inkscape:connector-curvature="0"
         style="fill:#000000" />
    </g>
  </g>
</svg>
