<?xml version="1.0" encoding="UTF-8" standalone="no"?>
<svg
   xmlns:dc="http://purl.org/dc/elements/1.1/"
   xmlns:cc="http://creativecommons.org/ns#"
   xmlns:rdf="http://www.w3.org/1999/02/22-rdf-syntax-ns#"
   xmlns:svg="http://www.w3.org/2000/svg"
   xmlns="http://www.w3.org/2000/svg"
   xmlns:sodipodi="http://sodipodi.sourceforge.net/DTD/sodipodi-0.dtd"
   xmlns:inkscape="http://www.inkscape.org/namespaces/inkscape"
   viewBox="0 0 50.162971 34.70055"
   width="50.162971"
   height="34.70055"
   version="1.1"
   id="svg616"
   sodipodi:docname="misc.svg"
   inkscape:version="0.92.4 (5da689c313, 2019-01-14)">
  <metadata
     id="metadata622">
    <rdf:RDF>
      <cc:Work
         rdf:about="">
        <dc:format>image/svg+xml</dc:format>
        <dc:type
           rdf:resource="http://purl.org/dc/dcmitype/StillImage" />
        <dc:title></dc:title>
      </cc:Work>
    </rdf:RDF>
  </metadata>
  <defs
     id="defs620" />
  <sodipodi:namedview
     pagecolor="#ffffff"
     bordercolor="#666666"
     borderopacity="1"
     objecttolerance="10"
     gridtolerance="10"
     guidetolerance="10"
     inkscape:pageopacity="0"
     inkscape:pageshadow="2"
     inkscape:window-width="3291"
     inkscape:window-height="909"
     id="namedview618"
     showgrid="false"
     inkscape:zoom="10.680141"
     inkscape:cx="-6.1078612"
     inkscape:cy="20.445861"
     inkscape:window-x="-11"
     inkscape:window-y="2149"
     inkscape:window-maximized="1"
     inkscape:current-layer="svg616"
     fit-margin-top="0"
     fit-margin-left="0"
     fit-margin-right="0"
     fit-margin-bottom="0" />
  <g
     id="g534"
     transform="matrix(0.15,0,0,0.15,1.0812,5.993325)">
    <path
       style="fill:#000000"
       inkscape:connector-curvature="0"
       id="path520"
       d="m 0.844,-6.971 0.265,0.13 0.194,0.039 0.308,0.208 0.648,0.318 0.199,0.253 0.539,0.363 1.142,1.694 0.02,0.102 0.04,0.05 0.137,0.354 0.056,0.11 0.279,0.497 0.067,0.257 0.3,0.52 0.265,0.675 0.045,0.234 0.126,0.255 0.254,0.827 0.005,0.03 0.008,0.017 0.306,0.997 0.334,0.955 0.117,0.681 0.192,0.566 0.19,1.276 0.029,0.381 0.027,0.095 0.075,0.916 0.233,0.868 0.134,1.003 0.097,0.364 0.124,1.79 0.005,0.113 0.003,0.015 0.115,2.089 0.237,2.043 0.003,0.049 0.003,0.011 0.262,2.334 v 0 l 0.319,2.439 0.01,0.154 0.013,0.043 0.303,2.765 0.025,0.449 0.015,0.062 0.137,2.955 0.205,3.197 0.006,0.191 0.005,0.02 0.132,3.365 0.328,3.472 v 0.007 l 0.409,3.879 0.473,3.708 0.006,0.104 0.009,0.029 0.487,4.238 0.004,0.062 0.004,0.015 0.488,4.45 0.013,0.248 0.014,0.05 0.348,4.66 0.411,4.581 0.478,4.502 0.012,0.227 0.012,0.045 0.341,4.566 0.471,4.233 0.008,0.126 0.008,0.029 0.416,4.366 0.476,4.141 0.026,0.438 0.017,0.069 0.2,3.797 0.396,3.759 0.006,0.116 0.008,0.026 0.348,3.824 0.006,0.124 0.006,0.023 0.264,3.5 0.422,3.158 0.003,0.037 0.003,0.009 0.467,3.517 0.006,0.085 0.007,0.024 0.402,3.238 0.011,0.179 0.014,0.046 0.333,3.316 0.019,0.379 0.014,0.055 0.157,3.088 0.266,3.119 0.007,0.175 0.008,0.028 0.204,3.203 0.268,3.01 0.016,0.333 0.01,0.042 0.136,2.918 0.201,2.81 0.007,0.187 0.006,0.024 0.139,2.853 v 0.008 l 0.139,2.704 v 0.008 l 0.139,2.562 0.006,0.219 0.004,0.016 0.069,2.511 0.004,0.238 v 4.44 l 0.123,1.965 0.017,0.533 v 5.54 l 0.144,0.934 10e-4,0.013 0.247,1.497 0.045,0.539 0.041,0.147 0.124,1.428 v 0.012 l 0.122,1.34 0.038,0.814 -0.103,1.329 -0.222,1.439 -0.056,0.159 -0.032,0.298 -0.169,0.778 -0.079,0.667 -0.134,0.427 -0.093,0.686 v 0.683 l 0.14,1.383 v 0.166 0.002 l 0.106,1.143 0.034,0.189 0.14,1.513 v 1.262 l -0.195,1.774 -0.085,0.389 v 1.341 0 l -0.367,2.427 -0.214,0.449 -0.062,0.307 -0.29,0.43 -0.441,0.923 -0.158,0.239 -0.122,0.11 -0.122,0.232 -0.225,0.3 -0.281,0.236 -0.098,0.106 -0.016,0.023 -0.015,0.011 -0.754,0.817 -0.232,0.372 -1.82,1.386 -0.321,0.292 -0.129,0.051 -0.072,0.055 -0.253,0.073 -1.402,0.552 -0.905,0.114 -0.373,0.108 -0.327,0.032 -0.791,0.038 -0.062,-0.013 -0.218,0.044 -3.045,-0.614 -2.487,-1.677 -1.676,-2.486 -0.615,-3.045 0.044,-0.218 -0.012,-0.063 0.046,-0.232 -0.035,-0.306 -0.065,-0.211 -0.126,-1.082 -0.041,-0.691 0.454,-2.246 1.236,-1.834 0.213,-0.143 -0.003,-0.032 -0.034,-0.189 -0.14,-1.513 v -0.229 l -0.14,-1.383 v -1.566 l -0.021,-0.714 -0.003,-0.243 10e-4,-0.115 0.006,-0.426 -0.054,-0.45 -0.064,-1.041 0.002,-0.168 0.024,-1.202 0.002,-0.011 0.005,-0.196 0.063,-1.424 0.011,-0.045 0.015,-0.327 0.129,-1.424 v -0.001 l 0.085,-0.987 -0.013,-1.163 -0.033,-1.563 -10e-4,-0.179 v -5.911 L 3.066,148.89 3.048,148.357 v -4.582 L 2.984,141.47 2.851,139.008 2.85,138.968 2.849,138.964 2.71,136.251 2.709,136.214 2.708,136.21 2.572,133.422 2.37,130.605 2.362,130.4 l -0.006,-0.025 -0.132,-2.844 -0.262,-2.947 -0.01,-0.202 -0.008,-0.033 -0.206,-3.219 -0.27,-3.165 -0.017,-0.389 -0.009,-0.04 -0.116,-3.209 -0.002,-0.1 -0.001,-0.006 -0.082,-3.282 -0.147,-3.152 -0.223,-3.483 v -0.006 l -0.24,-3.379 v -0.008 L 0.355,97.252 0.014,93.508 v -0.002 l -0.409,-3.881 -0.021,-0.376 -0.014,-0.057 -0.198,-3.76 -0.46,-4.002 -0.009,-0.148 -0.01,-0.035 -0.418,-4.384 v 0 l -0.477,-4.291 -0.015,-0.259 -0.014,-0.052 -0.343,-4.587 -0.474,-4.462 -0.007,-0.13 -0.008,-0.029 -0.418,-4.665 -0.006,-0.121 -0.006,-0.022 -0.341,-4.573 -0.472,-4.31 -0.001,-0.012 -0.485,-4.221 V 45.121 L -5.07,41.371 -5.081,41.21 -5.094,41.167 -5.511,37.207 -5.516,37.111 -5.522,37.09 -5.87,33.407 -5.89,33.002 -5.901,32.957 -6.038,29.473 -6.24,26.3 -6.245,26.161 -6.249,26.145 -6.381,23.298 -6.618,20.693 -6.639,20.26 -6.648,20.219 -6.731,17.634 -6.735,17.426 -6.736,17.423 -6.749,15.042 v -10e-4 0 L -6.763,12.73 V 12.684 L -6.752,12.288 -6.625,9.963 -6.622,9.951 -6.62,9.877 -6.535,8.654 -6.628,7.717 -6.664,7.008 -6.641,6.444 -6.526,5.039 -6.5,4.419 -6.579,3.803 -6.6,3.493 -6.618,3.426 -6.701,2.317 -6.717,1.888 -6.719,1.877 -6.727,0.968 V 0.911 0.831 l 0.01,-0.774 0.009,-0.04 0.058,-0.778 0.114,-0.766 0.469,-1.363 0.089,-0.371 0.1,-0.2 0.15,-0.389 0.032,-0.041 0.015,-0.075 1.142,-1.694 0.535,-0.36 0.203,-0.256 0.649,-0.318 0.307,-0.208 0.194,-0.039 0.265,-0.13 1.615,-0.25 z"
       fill-mode="evenodd" />
    <g
       id="g524"
       transform="translate(-0.125,-3.875)">
      <path
         style="fill:#000000"
         inkscape:connector-curvature="0"
         id="path522"
         d="m 1.499,-6.917 0.337,0.164 0.239,0.048 0.366,0.246 0.781,0.381 0.458,0.311 0.325,0.363 0.166,0.112 0.2,0.296 0.104,0.116 0.907,0.801 0.374,0.533 0.087,0.174 0.08,0.074 0.175,0.272 0.117,0.109 0.614,0.864 0.503,0.466 0.223,0.34 0.241,0.251 0.849,0.88 0.492,0.752 0.41,0.379 0.704,1.079 0.018,0.038 0.015,0.015 0.549,0.847 0.636,0.782 0.113,0.199 0.12,0.102 0.746,1.012 1.064,1.166 0.272,0.436 0.277,0.238 1.041,1.432 1.212,1.417 0.205,0.346 0.209,0.18 1.348,1.865 0.037,0.072 0.037,0.032 1.404,1.994 0.049,0.097 0.047,0.043 1.246,1.835 1.277,1.723 0.048,0.092 0.05,0.043 1.385,1.938 0.073,0.143 0.129,0.153 1.297,1.978 1.311,1.899 10e-4,0.004 1.438,2.052 0.062,0.125 0.06,0.054 1.297,1.945 1.258,1.697 0.107,0.203 0.104,0.094 1.313,1.934 0.162,0.333 0.249,0.336 0.963,1.742 0.826,1.239 1.108,1.329 0.168,0.288 0.173,0.15 1.106,1.519 0.105,0.204 0.101,0.092 0.947,1.42 0.893,1.274 0.101,0.2 0.17,0.21 0.891,1.438 0.003,0.006 0.628,0.994 0.67,0.876 0.029,0.054 0.032,0.026 0.826,1.1 0.032,0.062 0.035,0.029 0.403,0.549 0.398,0.399 0.279,0.413 0.323,0.259 0.547,0.684 0.045,0.055 0.104,0.06 0.652,0.548 0.296,0.384 0.429,0.306 0.209,0.223 0.189,0.172 0.415,0.573 0.49,0.391 0.317,0.394 0.127,0.086 1.011,1.499 0.59,0.705 0.141,0.379 0.116,0.172 0.063,0.313 0.374,1.011 0.244,2.051 -0.681,3.375 -1.858,2.756 -2.756,1.858 -3.374,0.681 L 38.614,67.073 38.3,66.907 38.042,66.855 37.537,66.514 37.407,66.485 37.199,66.324 36.215,65.802 35.913,65.576 35.61,65.215 35.286,64.997 35.165,64.817 35.054,64.74 34.807,64.463 34.476,64.206 34.137,63.799 33.993,63.553 33.678,63.2 33.295,62.653 32.914,61.89 32.433,61.113 32.22,60.627 32.213,60.596 32.128,60.484 31.605,59.845 31.574,59.791 31.537,59.762 31.258,59.413 30.738,58.893 30.337,58.298 29.927,57.948 29.172,56.919 29.171,56.917 28.383,55.866 28.382,55.865 27.517,54.734 27.368,54.459 27.085,54.116 26.264,52.817 26.24,52.764 26.206,52.722 25.408,51.434 24.584,50.259 24.522,50.134 24.462,50.08 23.564,48.734 22.704,47.553 21.49,46.095 21.211,45.616 20.958,45.385 19.715,43.522 19.566,43.212 19.341,42.908 18.395,41.195 17.367,39.681 16.09,37.958 15.963,37.716 15.842,37.606 14.474,35.555 13.091,33.58 13.066,33.529 13.041,33.508 11.657,31.502 11.611,31.408 11.532,31.314 10.28,29.405 9.007,27.624 7.681,25.835 7.574,25.631 7.47,25.538 6.157,23.603 6.142,23.573 6.129,23.562 4.766,21.544 4.63,21.264 4.417,20.984 3.407,19.21 2.374,17.676 2.234,17.387 2.018,17.098 1.23,15.694 0.353,14.498 0.352,14.494 v 0 L -0.527,13.303 -1.308,12.342 -1.574,11.875 -1.805,11.659 -2.558,10.497 -2.62,10.363 -2.718,10.239 -3.366,9.157 -3.941,8.251 -4.013,8.094 -4.121,7.954 -4.623,7.085 -4.947,6.316 -5.185,5.882 -5.367,5.384 -5.458,5.219 -5.533,4.928 -5.541,4.908 -5.544,4.89 -5.912,4.229 -6.198,3.462 -6.335,2.712 -6.576,2 -6.622,1.692 -6.703,1.342 -6.728,1.128 l -0.355,-1.759 0.518,-2.566 1.413,-2.095 2.095,-1.413 2.566,-0.518 z"
         fill-mode="evenodd" />
    </g>
    <g
       id="g528"
       transform="translate(40.25,52.5625)">
      <path
         style="fill:#000000"
         inkscape:connector-curvature="0"
         id="path526"
         d="m 31.783,-63.26 2.435,1.641 1.641,2.435 0.602,2.981 -0.278,1.444 -0.104,0.822 -0.107,0.272 -0.059,0.306 -0.158,0.402 -0.183,0.308 -0.177,0.45 -0.206,0.225 -0.062,0.13 -0.138,0.466 -0.224,0.292 -0.019,0.039 -0.005,0.021 -0.124,0.251 -0.073,0.152 -0.012,0.018 -0.161,0.323 -0.005,0.008 -0.275,0.553 -0.006,0.007 -0.205,0.413 -0.005,0.008 -0.275,0.553 -0.411,0.592 -0.259,0.493 -0.081,0.343 -0.51,1.025 -0.127,0.182 -0.088,0.208 -0.042,0.073 -0.039,0.127 -0.207,0.414 -0.449,1.079 -0.58,1.018 -0.005,0.006 -0.556,0.975 -0.002,0.003 -0.547,0.974 -0.53,1.01 -0.489,1.089 -0.585,1.434 -0.291,0.483 -0.266,0.598 -0.654,1.056 -0.518,1.142 -0.305,0.472 -0.232,0.495 -0.608,0.933 -0.429,1.119 -0.112,0.194 -0.03,0.137 -0.93,2.081 -0.32,0.499 -0.246,0.522 -1.005,1.533 -1.082,1.917 -1.042,1.951 -0.977,1.895 -0.003,0.004 -0.932,1.843 -0.75,1.754 -0.733,1.803 -0.252,0.42 -0.057,0.225 -0.751,1.398 -0.498,1.334 -0.229,0.403 -0.056,0.239 -0.813,1.626 -0.684,1.563 -0.107,0.168 -0.024,0.104 -0.662,1.325 -0.329,1.004 -0.055,0.106 -0.016,0.089 -0.624,1.683 -0.161,0.285 -0.041,0.186 -0.622,1.315 -0.313,0.47 -0.209,0.42 L 9.854,-0.514 9.718,-0.146 8.921,1.272 8.834,1.43 8.824,1.444 8.823,1.446 8.822,1.447 8.234,2.207 8.233,2.208 7.644,2.971 7.638,2.975 7.635,2.982 7.247,3.478 6.314,4.236 6.014,4.682 5.593,5.103 5.397,5.235 5.154,5.498 4.022,6.162 3.803,6.309 3.754,6.319 3.703,6.349 3.39,6.476 1.261,6.892 0.468,6.836 0.094,6.783 -0.841,6.467 -0.93,6.449 -0.966,6.425 -1.787,6.148 -1.889,6.065 -1.965,6.045 -2.349,5.815 -2.667,5.488 -3.347,5.029 -3.872,4.251 -4.204,3.911 -4.27,3.66 -4.489,3.335 -4.908,1.261 l 0.419,-2.074 0.219,-0.324 0.066,-0.251 0.228,-0.232 0.011,-0.055 0.922,-1.368 0.986,-0.665 0.052,-0.124 0.005,-0.008 0.041,-0.098 0.05,-0.372 0.335,-1.011 0.132,-0.625 0.322,-0.736 0.204,-0.757 0.286,-1.337 0.198,-1.312 0.19,-0.55 0.107,-0.63 0.591,-1.694 0.46,-1.621 0.083,-0.174 0.029,-0.168 0.667,-1.914 0.004,-0.008 0.596,-1.728 0.365,-0.679 0.082,-0.325 0.802,-1.491 0.641,-1.579 0.027,-0.044 0.005,-0.027 0.827,-1.932 0.844,-2.123 0.001,-0.001 0.761,-1.988 0.021,-0.037 0.004,-0.021 0.882,-2.2 0.059,-0.097 0.014,-0.068 1.025,-2.341 0.272,-0.432 0.223,-0.496 0.825,-1.323 0.62,-1.385 0.635,-1.658 0.36,-0.624 0.356,-0.758 0.733,-1.126 0.481,-1.061 0.247,-0.381 0.194,-0.433 0.575,-0.93 0.409,-1.003 0.069,-0.114 0.016,-0.078 0.651,-1.45 0.153,-0.237 0.034,-0.139 0.721,-1.373 0.051,-0.07 0.031,-0.076 0.65,-1.159 0.006,-0.008 0.58,-1.017 0.005,-0.007 0.112,-0.196 0.049,-0.16 0.211,-0.422 0.479,-1.13 0.369,-0.634 0.132,-0.265 0.126,-0.381 0.016,-0.031 0.006,-0.032 0.294,-0.538 0.778,-1.48 0.068,-0.068 0.042,-0.077 0.024,-0.031 0.173,-0.347 0.005,-0.008 0.275,-0.553 0.005,-0.008 0.101,-0.202 0.008,-0.059 0.534,-1.357 0.066,-0.222 0.044,-0.057 0.04,-0.102 0.238,-0.261 0.846,-1.102 0.256,-0.433 0.358,-0.33 0.18,-0.267 0.407,-0.274 0.688,-0.635 0.909,-0.442 0.43,-0.29 0.284,-0.057 0.398,-0.194 2.299,-0.351 z"
         fill-mode="evenodd" />
    </g>
    <g
       id="g532"
       transform="translate(77.25,0.8125)">
      <path
         style="fill:#000000"
         inkscape:connector-curvature="0"
         id="path530"
         d="m 0.342,-5.598 0.453,0.029 2.04,0.536 0.317,0.232 0.219,0.063 0.271,0.296 0.847,0.621 0.657,1.026 0.259,0.283 0.093,0.186 0.072,0.1 0.276,0.542 0.369,0.595 0.207,0.473 0.286,0.56 0.027,0.11 L 7.38,2.155 7.502,3.232 7.509,3.35 7.517,3.378 7.641,4.67 v 0.004 l 0.187,1.717 0.012,0.226 0.012,0.044 0.125,1.72 0.01,0.283 0.006,0.023 0.053,1.71 0.118,1.893 0.002,0.056 10e-4,0.007 0.126,2.215 v 0.029 l 0.001,0.003 0.125,2.287 0.002,0.056 0.002,0.007 0.125,2.569 0.01,0.383 v 0.039 l -0.014,2.666 -0.001,0.006 -0.01,0.37 -0.134,2.448 0.111,2.837 0.006,0.324 v 0.032 l -0.013,3.352 0.055,3.343 10e-4,0.141 -0.021,0.578 -0.234,3.29 v 6.994 l -0.005,0.291 -0.135,3.782 v 3.916 L 8.16,54.588 8.022,58.656 7.954,62.789 V 71.2 L 7.95,71.468 7.809,75.756 7.804,75.778 7.796,76.009 7.534,80.021 v 3.863 l -0.002,0.132 -0.069,4.28 v 4.278 l -0.018,0.552 -0.262,3.863 v 3.714 l -0.005,0.302 -0.141,3.8 v 0 l -0.137,3.63 -0.069,3.777 -0.005,0.023 -0.015,0.413 -0.25,3.44 0.094,3.137 v 0 l 0.121,3.379 0.005,0.314 v 0.035 l -0.013,3.296 v 0 l -0.014,3.156 v 0.001 l -10e-4,0.084 -0.045,3.163 v 8.906 l -0.086,1.212 -0.316,2.25 -0.103,2.325 -0.013,0.052 -0.018,0.38 -0.26,2.666 -0.154,1.974 0.064,2.281 0.004,0.245 v 0.082 l -0.021,2.109 0.108,1.939 0.014,0.495 v 0.054 l -0.014,2.09 0.023,1.732 0.001,0.119 v 1.752 l -0.03,0.72 -0.143,1.714 v 0.003 l -0.108,1.237 v 2.353 l -0.013,0.48 -0.071,1.285 -0.125,0.492 -0.141,1.005 v 0.101 l -0.445,2.742 -0.067,0.202 -0.056,0.257 -0.134,0.322 -0.069,0.761 -0.07,0.391 v 0.231 0 l -0.508,2.93 -0.131,0.234 -0.042,0.21 -0.136,0.202 -0.254,1.458 -0.109,0.308 -0.055,0.1 -0.007,0.035 -0.054,0.081 -0.033,0.162 -0.326,0.483 -0.771,1.399 -0.49,0.471 -0.251,0.373 -0.452,0.305 -0.652,0.628 -1.099,0.552 -0.523,0.353 -0.298,0.06 -0.392,0.197 -2.647,0.416 -2.648,-0.416 -0.392,-0.197 -0.298,-0.06 -0.523,-0.353 -1.099,-0.552 -0.652,-0.628 -0.452,-0.305 -0.251,-0.373 -0.489,-0.471 -0.729,-1.335 -0.368,-0.547 -0.033,-0.162 -0.055,-0.081 -0.014,-0.072 -0.067,-0.123 -0.07,-0.188 -0.53,-2.992 v -1.261 l 0.304,-2.286 0.306,-0.735 0.071,-0.354 0.06,-0.088 0.029,-0.331 0.149,-0.824 0.021,-0.055 0.353,-2.004 0.084,-0.235 0.032,-0.143 0.028,-0.068 0.298,-2.127 0.014,-0.048 0.003,-0.056 v -2.49 l 0.032,-0.751 0.143,-1.645 v -0.001 l 0.105,-1.261 v -1.387 l 0.001,-0.113 0.024,-1.828 0.009,-0.042 0.055,-0.896 0.231,-1.884 0.109,-1.962 0.015,-0.062 0.019,-0.352 0.221,-2.05 0.062,-2.189 -0.052,-2.302 -0.002,-0.196 v 0 -0.042 l 0.013,-2.526 -0.11,-2.501 -0.009,-0.397 0.02,-0.595 0.165,-2.373 v -8.665 l 0.004,-0.252 0.094,-3.236 0.009,-0.038 0.018,-0.427 0.268,-3.175 v -0.001 l 0.246,-3.039 0.115,-3.224 0.106,-3.543 0.006,-0.027 0.011,-0.309 0.265,-3.638 0.066,-3.635 10e-4,-0.007 0.003,-0.144 0.141,-3.73 v 0 l 0.134,-3.615 v -3.84 l 0.018,-0.553 0.262,-3.863 v -4.064 l 10e-4,-0.132 0.069,-4.28 V 79.75 l 0.018,-0.535 0.271,-4.149 0.132,-4.002 V 62.72 l 0.001,-0.133 0.07,-4.282 0.001,-0.006 0.002,-0.13 0.136,-3.999 v -3.924 l 0.005,-0.291 0.135,-3.781 v -7.14 l 0.03,-0.697 0.297,-3.472 0.19,-3.319 0.005,-0.021 0.004,-0.12 0.255,-3.282 0.121,-3.074 0.024,-0.1 0.05,-0.698 0.383,-2.635 0.228,-2.281 0.117,-2.403 0.001,-0.004 0.001,-0.022 0.127,-2.325 V 14.58 l 0.127,-2.247 0.001,-0.004 10e-4,-0.018 0.127,-2.045 0.012,-0.048 L -5.909,9.969 -5.726,8.268 -5.619,6.794 -5.567,5.111 -5.559,5.074 -5.541,4.697 -5.413,3.351 -5.407,3.33 -5.403,3.262 -5.377,3.036 -5.466,2.032 -5.465,1.944 -5.455,1.241 -5.442,1.178 -5.354,0.222 -5.293,-0.107 -5.328,-0.28 -4.91,-2.354 -3.768,-4.048 -2.074,-5.19 0,-5.609 Z"
         fill-mode="evenodd" />
    </g>
  </g>
  <g
     id="g538"
     transform="matrix(0.15,0,0,0.15,19.7937,18.13395)">
    <path
       style="fill:#000000"
       inkscape:connector-curvature="0"
       id="path536"
       d="m 1.06,-4.351 0.021,0.013 0.022,0.005 0.415,0.279 0.821,0.534 0.027,0.039 0.038,0.025 0.317,0.47 0.504,0.704 0.017,0.069 0.04,0.059 0.122,0.606 0.057,0.231 L 3.849,0 3.547,1.498 3.394,1.724 3.336,2.012 3.356,2.175 3.461,2.673 3.587,3.854 3.343,5.483 3.287,5.668 3.255,6.149 3.061,6.884 2.891,7.817 2.666,8.413 2.532,9.263 2.522,9.292 2.518,9.342 2.151,11.404 1.808,13.533 1.453,16.072 v 0.002 l -0.299,2.254 -0.012,2.449 -10e-4,0.005 -0.008,0.305 -0.155,3.037 -0.005,0.02 -0.005,0.134 -0.205,2.706 -0.013,3.041 v 0.003 l -0.004,0.203 -0.11,3.318 v 3.523 l -0.001,0.132 -0.069,3.719 v 6.441 l 0.067,3.006 0.127,3.056 0.284,2.613 0.575,2.639 0.038,0.347 0.056,0.163 0.425,2.824 0.646,2.67 0.893,3.082 0.022,0.156 0.05,0.112 0.719,2.78 0.746,2.128 0.701,1.492 0.869,1.412 0.035,0.077 0.05,0.064 0.748,1.262 0.623,0.701 0.003,0.004 0.004,0.003 0.465,0.523 0.008,0.005 0.083,-0.227 0.454,-1.3 0.043,-0.08 0.012,-0.063 0.491,-1.294 0.225,-0.712 0.125,-0.877 0.042,-0.123 0.025,-0.255 0.254,-1.274 0.088,-0.561 V 69.669 L 10.533,69.486 10.44,69.273 10.241,68.485 10.166,67.888 10.068,67.587 9.933,66.576 9.93,66.532 9.926,66.521 9.806,65.61 9.739,64.613 l 0.118,-1.147 -0.01,-0.325 0.52,-2.578 1.419,-2.104 2.105,-1.42 2.578,-0.52 1.855,0.264 0.455,0.203 0.267,0.053 0.286,0.193 0.617,0.275 0.647,0.399 0.481,0.503 0.074,0.05 0.013,0.02 0.9,0.653 0.474,0.521 0.011,0.018 0.015,0.01 0.636,0.705 0.46,0.741 0.59,0.738 0.145,0.447 0.255,0.411 0.167,0.885 0.294,0.903 0.083,0.621 0.058,0.227 0.264,0.839 0.363,2.339 v 3.784 l -0.094,1.195 -0.216,1.375 -0.032,0.091 -0.017,0.173 -0.241,1.211 -0.183,1.285 -0.171,0.506 -0.107,0.691 -0.506,1.596 -0.096,0.188 -0.03,0.162 -0.542,1.428 -0.454,1.302 -0.021,0.039 -0.005,0.026 -0.508,1.384 -0.333,0.595 -0.374,0.816 -1,1.572 -0.198,0.186 -0.223,0.404 -0.783,0.997 -0.105,0.085 -0.09,0.151 -0.849,0.992 -0.763,0.579 -0.514,0.602 -1.031,0.757 -2.113,1.101 -0.014,0.002 -10e-4,0.001 -0.787,0.264 -1.239,0.205 -0.691,0.185 -0.956,0.068 -0.571,0.021 v 0 L 9.512,94.539 8.712,94.486 H 7.989 L 6.131,94.258 4.957,93.966 4.922,93.95 4.873,93.944 3.113,93.222 1.954,92.572 0.862,91.745 0.571,91.562 0.167,91.192 -0.631,90.66 l -0.543,-0.597 -0.906,-0.67 -1.115,-1.254 -0.003,-0.005 -0.003,-0.003 -1.115,-1.253 -0.222,-0.363 -0.649,-0.829 -1.102,-1.857 -0.002,-0.004 -1.054,-1.711 -0.194,-0.436 -0.237,-0.36 -1.031,-2.196 -0.071,-0.313 -0.243,-0.454 -0.964,-2.749 -0.07,-0.406 -0.162,-0.376 -0.737,-3.036 -0.02,-0.171 -0.04,-0.098 -0.708,-3.34 -0.031,-0.287 -0.047,-0.135 -0.5,-3.131 -0.044,-0.545 -0.035,-0.128 -0.209,-2.898 -0.411,-2.792 -0.018,-0.235 -0.021,-0.071 -0.347,-3.191 -0.026,-0.451 -0.013,-0.057 -0.14,-3.349 -0.003,-0.145 -0.002,-0.008 -0.07,-3.146 -0.002,-0.167 v -6.587 l 0.002,-0.133 0.069,-3.719 v -3.576 l 0.008,-0.346 0.166,-3.449 0.007,-0.027 0.008,-0.188 0.268,-3.309 0.032,-0.117 0.034,-0.415 0.465,-2.867 0.371,-2.748 0.253,-2.732 0.068,-0.231 0.066,-0.594 0.623,-2.749 0.007,-0.017 0.001,-0.014 0.623,-2.607 0.034,-0.08 0.013,-0.095 L -10,8.59 -9.972,8.531 -9.963,8.473 -9.34,6.434 -9.298,6.35 -9.285,6.272 -8.802,4.87 l 0.25,-0.465 0.343,-0.751 0.255,-0.4 0.122,-0.389 0.064,-0.126 0.021,-0.119 0.289,-0.494 0.432,-0.851 0.165,-0.167 0.103,-0.175 0.561,-0.666 v 0 l 0.489,-0.583 0.118,-0.091 0.095,-0.146 0.555,-0.583 0.547,-0.383 0.012,-0.05 0.118,-0.585 0.04,-0.059 0.017,-0.069 0.504,-0.704 0.316,-0.47 0.038,-0.025 0.028,-0.039 0.821,-0.534 0.415,-0.279 0.022,-0.005 0.021,-0.013 1.55,-0.304 z"
       fill-mode="evenodd" />
  </g>
  <g
     id="g542"
     transform="matrix(0.15,0,0,0.15,20.5062,12.73395)">
    <path
       style="fill:#000000"
       inkscape:connector-curvature="0"
       id="path540"
       d="M 2.644,-6.171 4.918,-4.638 6.451,-2.364 7.013,0.42 6.451,3.205 4.918,5.478 2.644,7.011 -0.14,7.574 -2.924,7.011 -5.198,5.478 -6.731,3.205 -7.293,0.42 l 0.562,-2.784 1.533,-2.274 2.274,-1.533 2.784,-0.562 z"
       fill-mode="evenodd" />
  </g>
  <g
     id="g550"
     transform="matrix(0.15,0,0,0.15,31.2687,1.7652)">
    <path
       style="fill:#000000"
       inkscape:connector-curvature="0"
       id="path544"
       d="m -8.103,-11.681 0.864,0.13 0.113,0.04 0.221,0.022 0.653,0.132 0.337,0.135 0.396,0.062 0.643,0.205 0.438,0.225 0.311,0.132 0.293,0.093 0.344,0.176 v 0.001 h 0.002 l 0.024,0.013 0.264,0.055 0.623,0.274 0.551,0.35 0.525,0.257 0.032,0.022 0.049,0.022 0.279,0.177 0.346,0.146 0.457,0.266 0.258,0.26 0.243,0.154 0.12,0.137 0.666,0.448 0.624,0.927 0.4,0.402 0.085,0.316 0.006,0.009 0.24,0.255 0.04,0.155 0.096,0.107 0.012,0.024 0.249,0.281 0.189,0.463 0.232,0.352 0.083,0.417 0.21,0.311 0.031,0.154 0.098,0.185 0.232,1.405 0.02,0.03 L 4.12,-0.35 3.796,1.253 2.913,2.563 2.429,2.889 2.263,3.114 1.939,3.219 1.604,3.446 0.65,3.638 0,3.849 -0.65,3.638 -1.604,3.446 -1.629,3.429 -1.682,3.436 -2.172,3.338 -2.523,3.381 -2.955,3.314 -3.294,3.364 -3.529,3.319 -3.644,3.342 -3.826,3.339 -4.307,3.326 -4.92,3.313 -5.077,3.278 -5.982,3.171 -5.99,3.172 -6.657,3.203 -6.807,3.201 -6.856,3.211 -7.149,3.241 -7.281,3.287 -8.06,3.406 -8.247,3.421 -8.308,3.44 -8.526,3.467 -8.723,3.522 -9.225,3.59 -9.533,3.7 l -0.796,0.134 -0.161,0.014 -0.06,0.02 -0.939,0.135 -0.175,0.012 -0.003,0.001 -0.457,0.214 -0.586,0.132 -0.97,0.416 -0.235,0.057 -0.183,0.089 -0.151,0.035 -0.156,0.108 -3.085,0.682 -0.419,0.009 -0.303,0.061 -0.166,0.112 -0.884,0.434 -0.007,0.002 -1.004,0.503 -0.018,0.004 -0.016,0.011 -1.018,0.512 -0.133,0.031 -0.188,0.121 -0.753,0.345 -0.74,0.396 -0.803,0.459 -0.009,0.004 -0.77,0.451 -0.157,0.067 -0.124,0.09 -0.868,0.469 -0.154,0.061 -0.108,0.074 -0.318,0.16 -0.358,0.325 -0.252,0.157 -0.146,0.183 -0.349,0.279 -0.209,0.21 -0.544,0.643 -0.68,0.816 -0.27,0.209 -0.219,0.324 -0.771,0.771 -0.169,0.114 -0.112,0.154 -0.468,0.426 -0.363,0.404 -0.166,0.121 -0.123,0.183 -0.152,0.151 -0.052,0.074 -0.437,0.778 -0.24,0.317 -0.142,0.287 -0.298,0.431 -0.255,0.512 -0.232,0.335 -0.161,0.35 -0.51,0.803 -0.377,0.454 -0.172,0.301 -0.642,0.785 -0.131,0.103 -0.108,0.174 -0.067,0.074 -0.011,0.02 -0.436,0.811 -0.006,0.009 -0.273,0.501 -0.247,0.547 -0.089,0.138 -0.02,0.084 -0.442,0.886 -0.292,1.065 -0.137,0.623 -0.024,0.053 -0.111,0.482 -0.092,0.741 -0.017,0.054 -0.01,0.134 -0.046,0.296 v 3.061 l 0.092,0.319 0.06,0.415 0.11,0.285 0.178,0.879 0.215,0.857 0.046,0.366 0.029,0.066 0.306,0.565 0.125,0.317 0.14,0.218 0.106,0.233 0.06,0.092 0.321,0.392 0.185,0.325 0.395,0.476 0.092,0.144 0.4,0.431 0.379,0.597 0.355,0.316 0.521,0.75 0.556,0.723 0.061,0.112 0.065,0.056 0.403,0.549 1.054,1.054 0.796,0.735 0.326,0.454 0.403,0.313 0.359,0.432 0.524,0.483 0.177,0.246 0.248,0.177 0.977,1.047 0.023,0.036 0.031,0.022 0.549,0.599 0.745,0.692 v 0 l 0.789,0.732 0.482,0.394 0.365,0.281 0.538,0.307 0.163,0.125 0.162,0.075 0.81,0.519 0.827,0.472 0.056,0.043 0.055,0.024 0.787,0.471 0.579,0.289 0.959,0.393 0.456,0.276 0.583,0.253 1.087,0.651 0.047,0.038 0.043,0.019 0.613,0.382 0.627,0.274 0.202,0.127 0.125,0.029 0.977,0.487 1.122,0.497 0.279,0.178 0.356,0.146 0.963,0.541 1.115,0.555 0.353,0.245 0.364,0.169 0.989,0.634 1.059,0.661 0.61,0.502 0.343,0.203 0.779,0.668 0.902,0.676 1.009,0.74 0.24,0.281 0.427,0.268 0.722,0.662 0.798,0.675 0.103,0.134 0.167,0.107 0.986,0.915 0.086,0.119 0.127,0.086 0.981,0.981 0.882,0.882 0.953,0.889 0.464,0.652 0.492,0.414 0.671,0.894 0.711,0.82 0.178,0.297 0.192,0.161 0.659,0.879 0.598,0.683 0.858,0.858 0.279,0.413 0.323,0.26 1.109,1.385 0.153,0.273 0.154,0.135 0.824,1.166 0.3,0.595 0.425,0.644 0.358,0.752 0.526,0.768 0.068,0.139 0.114,0.139 0.691,1.092 0.786,1.066 0.137,0.262 0.247,0.305 0.892,1.438 0.101,0.226 0.144,0.196 0.792,1.448 0.801,1.354 0.198,0.46 0.226,0.352 0.68,1.492 0.004,0.016 0.006,0.011 0.6,1.305 0.669,1.13 0.264,0.612 0.264,0.438 0.68,1.628 0.057,0.281 0.172,0.331 0.614,1.835 0.006,0.036 0.011,0.021 0.411,1.228 0.623,1.155 0.296,0.749 0.218,0.399 0.613,1.695 0.006,0.035 0.012,0.022 0.589,1.632 0.672,1.643 0.035,0.175 0.106,0.194 0.612,1.695 0.014,0.082 0.038,0.07 0.613,1.765 v 0 l 0.688,1.808 0.075,0.405 0.194,0.424 0.408,1.51 0.493,1.365 0.059,0.331 0.148,0.32 0.546,1.974 0.011,0.078 0.022,0.047 0.544,2.033 0.563,1.872 0.09,0.6 0.151,0.416 0.308,1.779 0.412,1.701 0.076,0.628 0.096,0.299 0.229,1.767 0.385,1.642 0.044,0.373 0.069,0.196 0.344,2.054 0.054,0.631 0.042,0.156 0.125,1.691 0.102,0.808 0.354,1.193 0.352,2.378 v 1.438 l 0.157,1.407 0.053,0.939 v 1.355 l 0.112,1.398 0.003,0.067 0.003,0.011 0.138,1.864 0.011,0.275 0.007,0.029 0.054,1.355 0.221,1.597 0.082,1.159 v 3.582 l 0.121,1.806 0.019,0.569 v 1.892 l -0.024,0.626 -0.116,1.513 v 1.435 l -0.024,0.626 -0.142,1.851 -10e-4,0.002 -0.141,1.775 -0.015,0.051 -0.011,0.205 -0.195,1.697 -0.13,1.621 -0.024,0.087 -0.023,0.336 -0.215,1.585 -0.336,1.012 -0.168,0.874 -0.219,0.549 -0.074,0.472 -0.303,0.857 -0.146,0.782 -0.454,1.173 -0.448,1.285 -0.308,0.568 -0.078,0.329 -0.487,0.977 -0.497,1.121 -0.328,0.515 -0.257,0.554 -0.525,0.812 -0.45,0.903 -0.579,0.834 -0.282,0.512 -0.431,0.548 -0.444,0.757 -0.872,1.112 -0.189,0.295 -0.54,0.577 -0.249,0.388 -0.404,0.481 -0.177,0.305 -0.765,0.916 -0.762,0.924 -0.585,0.724 -0.78,1.062 -0.371,0.316 -0.354,0.54 -0.896,0.93 -0.157,0.11 -1.394,1.164 -0.948,0.61 -0.068,0.032 -0.059,0.048 -0.73,0.457 -0.593,0.466 -0.164,0.091 -0.083,0.097 -1.028,0.754 -0.756,0.394 -0.919,0.574 -0.491,0.216 -0.365,0.235 -2.217,1.03 -0.109,0.016 -0.075,0.035 -1.201,0.336 -0.166,0.023 -0.112,0.049 -0.592,0.149 -0.693,0.271 -1.04,0.198 -1.085,0.345 -1.078,0.135 -0.167,0.011 -0.044,0.013 -1.293,0.137 -0.947,0.051 h -2.522 v 0 l -1.881,-0.207 -1.32,-0.291 -0.911,-0.379 -0.625,-0.13 -0.225,-0.098 -0.57,-0.108 -0.775,-0.298 -0.69,-0.13 -1.32,-0.511 -0.011,-0.006 -1.25,-0.484 -0.533,-0.31 -0.727,-0.316 -1.44,-0.862 -0.015,-0.012 -0.007,-0.003 -0.87,-0.531 -0.965,-0.456 -0.055,-0.036 -0.059,-0.022 -1.591,-0.794 -0.734,-0.509 -0.542,-0.287 -1.143,-0.856 -0.085,-0.102 -0.158,-0.09 -0.703,-0.571 -0.703,-0.438 -0.42,-0.345 -0.306,-0.169 -0.999,-0.785 -0.081,-0.1 -0.145,-0.085 -0.793,-0.671 -0.873,-0.686 -0.292,-0.359 -0.464,-0.313 -0.701,-0.701 -0.151,-0.224 -0.198,-0.147 -0.554,-0.622 -0.108,-0.176 -0.129,-0.102 -0.619,-0.756 -0.233,-0.407 -0.496,-0.625 -0.037,-0.062 -0.13,-0.152 -0.259,-0.433 -0.663,-0.865 -0.5,-0.865 -0.179,-0.425 -0.204,-0.317 -0.123,-0.269 -0.103,-0.158 -0.166,-0.354 -0.184,-0.23 -0.168,-0.52 -0.458,-0.975 -0.119,-0.808 -0.16,-0.493 -0.061,-0.465 -0.113,-0.619 -0.059,-0.644 -0.049,-0.176 -0.082,-1.033 -0.026,-0.637 0.268,-2.013 0.285,-1.06 0.289,-0.623 0.089,-0.413 0.464,-1.032 0.002,-0.003 1.199,-2.74 0.205,-0.325 0.044,-0.169 1.087,-1.955 2.076,-2.124 2.949,-0.81 2.246,0.453 1.834,1.236 1.236,1.834 0.453,2.246 -0.009,0.329 -0.127,2.219 -0.007,0.025 -0.006,0.149 -0.104,1.183 0.325,0.787 0.214,0.417 0.035,0.106 0.154,0.118 0.399,0.468 0.082,0.057 0.926,0.824 0.268,0.182 0.557,0.563 0.249,0.373 0.298,0.235 0.521,0.637 0.272,0.305 0.152,0.152 0.593,0.466 0.081,0.1 0.144,0.085 0.794,0.67 0.487,0.384 0.763,0.476 0.502,0.412 0.335,0.19 0.994,0.807 0.355,0.267 0.823,0.41 1.24,0.585 0.356,0.238 0.401,0.177 1.299,0.793 0.002,0.001 0.668,0.401 0.636,0.246 0.011,0.006 0.452,0.175 0.746,0.142 1.077,0.414 0.721,0.15 0.101,0.044 h 0.872 l 0.767,-0.081 0.204,-0.079 0.524,-0.1 0.574,-0.252 1.049,-0.264 0.371,-0.172 0.571,-0.357 0.243,-0.107 0.172,-0.126 0.839,-0.66 0.334,-0.184 0.446,-0.364 1.086,-0.68 0.005,-0.002 0.203,-0.132 0.312,-0.3 0.001,-0.001 10e-4,-0.001 1.066,-1.028 0.351,-0.229 0.214,-0.27 0.9,-0.726 0.876,-0.723 0.64,-0.763 0.202,-0.315 0.428,-0.457 0.264,-0.449 0.399,-0.509 0.197,-0.358 0.257,-0.326 0.284,-0.57 0.253,-0.365 0.173,-0.373 0.423,-0.653 0.323,-0.731 0.112,-0.176 0.026,-0.108 0.328,-0.659 0.337,-0.967 0.062,-0.114 0.017,-0.091 0.172,-0.443 0.08,-0.511 0.326,-0.925 0.152,-0.787 0.187,-0.469 0.045,-0.333 0.123,-1.542 0.014,-0.05 0.012,-0.205 0.195,-1.697 0.129,-1.622 10e-4,-0.001 0.111,-1.458 v -1.434 l 0.024,-0.626 0.117,-1.514 v -1.302 l -0.121,-1.806 -0.02,-0.569 v -3.292 l -0.198,-1.435 -0.052,-0.735 -0.023,-0.098 -0.065,-1.616 -0.128,-1.724 v -0.008 l -0.136,-1.694 -0.028,-0.68 v -1.229 l -0.157,-1.406 -0.054,-0.939 v -0.704 l -0.209,-0.703 -0.126,-0.855 -0.162,-0.51 -0.206,-1.641 -0.024,-0.372 -0.021,-0.078 -0.113,-1.522 -0.249,-1.489 -0.417,-1.779 -0.069,-0.592 -0.088,-0.274 -0.225,-1.735 -0.374,-1.542 -0.046,-0.378 -0.075,-0.207 -0.268,-1.55 -0.472,-1.568 -0.026,-0.172 -0.058,-0.128 -0.547,-2.045 -0.002,-0.015 -0.477,-1.722 -0.501,-1.386 -0.063,-0.356 -0.157,-0.344 -0.389,-1.44 -0.603,-1.585 -0.026,-0.142 -0.075,-0.139 -0.613,-1.765 -0.002,-0.012 -0.571,-1.582 -0.672,-1.643 -0.035,-0.176 -0.106,-0.193 -0.612,-1.696 -0.006,-0.034 -0.012,-0.022 -0.429,-1.187 -0.668,-1.24 -0.365,-0.92 L 5.219,102.444 4.606,100.609 4.6,100.573 4.589,100.552 4.044,98.925 3.681,98.054 3.083,97.045 2.891,96.6 2.67,96.256 1.92,94.624 1.912,94.588 1.888,94.551 1.363,93.399 0.7,92.279 0.633,92.124 0.541,91.998 -0.203,90.637 -0.817,89.646 -1.582,88.609 -1.704,88.374 -1.927,88.104 -2.7,86.881 l -0.797,-1.162 -0.279,-0.571 -0.379,-0.572 -0.331,-0.697 -0.295,-0.418 -0.682,-0.852 -0.73,-0.731 -0.162,-0.239 -0.21,-0.157 -0.973,-1.112 -0.19,-0.315 -0.205,-0.172 -0.671,-0.894 -0.711,-0.82 -0.178,-0.297 -0.192,-0.162 -0.409,-0.544 -0.527,-0.492 -0.079,-0.112 -0.119,-0.08 -0.981,-0.981 -0.874,-0.874 -0.732,-0.68 -0.779,-0.659 -0.088,-0.114 -0.144,-0.09 -0.511,-0.469 -0.714,-0.523 -0.017,-0.02 -0.032,-0.017 -1.141,-0.856 -0.14,-0.166 -0.255,-0.152 -0.513,-0.44 -0.636,-0.397 -0.03,-0.024 -0.025,-0.011 -0.611,-0.393 -0.914,-0.456 -0.141,-0.098 -0.164,-0.067 -0.79,-0.443 -0.957,-0.424 -0.176,-0.112 -0.108,-0.026 -0.952,-0.474 -0.964,-0.42 -0.466,-0.294 -0.536,-0.242 -1.097,-0.684 -0.422,-0.253 -0.681,-0.279 -0.302,-0.183 -0.186,-0.044 -1.168,-0.582 -0.238,-0.165 -0.265,-0.115 -1.013,-0.606 -0.909,-0.518 -0.163,-0.126 -0.162,-0.074 -0.809,-0.52 -0.828,-0.472 -0.513,-0.393 -0.375,-0.203 -0.929,-0.715 -0.062,-0.074 -0.112,-0.064 -0.785,-0.642 -0.14,-0.178 -0.231,-0.147 -0.986,-0.916 v 0 l -0.981,-0.911 -0.193,-0.27 -0.265,-0.191 -0.75,-0.817 -0.745,-0.799 -0.693,-0.64 -0.326,-0.454 -0.403,-0.313 -0.359,-0.431 -0.524,-0.484 -0.092,-0.128 -0.138,-0.093 -1.612,-1.612 -0.401,-0.595 -0.409,-0.35 -0.727,-0.99 -0.619,-0.803 -0.128,-0.237 -0.127,-0.113 -0.3,-0.432 -0.507,-0.547 -0.216,-0.339 -0.694,-0.838 -0.231,-0.363 -0.31,-0.378 -0.179,-0.313 -0.381,-0.456 -0.611,-0.949 -0.266,-0.572 -0.318,-0.496 -0.244,-0.533 -0.332,-0.615 -0.152,-0.382 -0.161,-0.258 -0.47,-1.07 -0.166,-0.785 -0.428,-1.197 -0.088,-0.522 -0.187,-0.745 -0.034,-0.274 -0.064,-0.162 -0.147,-0.732 -0.173,-0.601 -0.083,-0.582 -0.135,-0.376 -0.133,-0.793 -0.118,-1.39 v -4.485 l 0.095,-1.242 0.126,-0.826 0.127,-1.018 0.081,-0.255 0.06,-0.528 0.191,-0.831 0.118,-0.598 0.407,-1.032 0.08,-0.292 0.097,-0.444 0.061,-0.132 0.293,-1.067 0.137,-0.623 0.441,-0.961 0.074,-0.112 0.016,-0.068 0.433,-0.87 0.299,-0.659 0.136,-0.212 0.108,-0.269 0.441,-0.813 0.004,-0.005 0.466,-0.868 0.071,-0.097 0.044,-0.103 0.511,-0.879 0.742,-0.953 0.221,-0.357 0.502,-0.558 0.199,-0.243 0.005,-0.007 0.324,-0.652 0.345,-0.497 0.223,-0.452 0.415,-0.599 0.465,-0.829 0.286,-0.378 0.165,-0.325 0.717,-1.005 0.427,-0.37 0.427,-0.633 0.479,-0.479 0.494,-0.549 0.329,-0.241 0.241,-0.331 0.628,-0.571 0.37,-0.37 0.475,-0.57 0.016,-0.013 0.013,-0.021 0.78,-0.923 0.251,-0.192 0.199,-0.296 0.771,-0.77 0.414,-0.279 0.259,-0.324 0.502,-0.401 0.571,-0.52 0.45,-0.281 0.247,-0.287 0.748,-0.544 0.538,-0.279 0.635,-0.437 0.909,-0.456 0.669,-0.361 0.655,-0.383 0.059,-0.025 0.042,-0.033 0.942,-0.539 0.14,-0.059 0.108,-0.077 1.008,-0.54 0.516,-0.202 0.32,-0.189 0.936,-0.379 0.488,-0.096 0.568,-0.253 1.097,-0.286 0.031,-0.004 0.012,-0.005 1.098,-0.287 0.146,-0.02 0.09,-0.038 0.535,-0.127 0.094,-0.035 0.501,-0.252 0.177,-0.042 0.262,-0.162 1.021,-0.445 0.595,-0.125 0.394,-0.166 0.654,-0.313 0.433,-0.297 0.336,-0.071 0.487,-0.234 2.083,-0.314 0.231,-0.049 0.333,-0.004 0.263,-0.056 0.733,-0.078 0.244,-0.069 0.962,-0.086 0.719,-0.033 0.781,0.046 0.308,-0.052 0.346,-0.095 1.226,-0.168 0.403,-0.103 0.751,-0.043 0.46,-0.014 z"
       fill-mode="evenodd" />
    <g
       id="g548"
       transform="translate(118.3728,176.3846)">
      <path
         style="fill:#000000"
         inkscape:connector-curvature="0"
         id="path546"
         d="M 2.911,-7.057 5.345,-5.415 6.987,-2.981 7.589,0 6.987,2.981 5.345,5.415 2.911,7.057 -0.07,7.659 -3.051,7.057 -5.486,5.415 -7.127,2.981 -7.729,0 l 0.602,-2.981 1.641,-2.434 2.435,-1.642 2.981,-0.602 z"
         fill-mode="evenodd" />
    </g>
  </g>
  <g
     id="g554"
     transform="matrix(0.15,0,0,0.15,42.6124,3.949575)">
    <path
       style="fill:#000000"
       inkscape:connector-curvature="0"
       id="path552"
       d="m -10.339,-23.722 0.513,0.136 0.102,0.046 0.107,0.016 0.096,0.029 0.235,0.051 0.113,0.047 0.943,0.153 0.474,0.157 0.116,0.061 0.098,0.017 0.613,0.228 0.172,0.098 0.726,0.126 0.302,0.169 0.194,0.027 0.545,0.154 0.494,0.236 0.365,0.075 0.301,0.128 0.614,0.222 0.436,0.242 0.693,0.288 0.527,0.3 0.007,0.005 0.484,0.276 0.006,0.004 0.267,0.152 0.41,0.204 1.704,1.182 0.131,0.157 0.112,0.076 0.491,0.49 0.107,0.16 0.145,0.105 0.328,0.361 0.018,0.029 1.172,1.71 0.053,0.106 0.075,0.116 0.261,0.561 0.3,0.478 0.118,0.265 0.093,0.169 0.026,0.101 0.108,0.158 0.081,0.161 0.017,0.026 0.069,0.143 0.062,0.059 0.333,0.531 0.32,0.706 0.222,0.33 0.059,0.291 0.213,0.471 0.184,1.282 0.104,0.305 0.133,0.803 0.181,0.579 0.058,0.476 0.051,0.82 -0.109,0.78 0.024,0.131 -0.31,1.922 -0.062,0.12 0.001,0.061 L 6.076,-1.82 4.957,-0.159 4.223,0.336 4.151,0.406 4.101,0.558 4.034,0.648 3.999,0.821 3.862,1.151 V 1.152 H 3.861 L 3.854,1.17 3.829,1.199 2.996,2.435 2.56,2.729 2.39,2.934 2.331,2.952 2.067,3.248 0,3.849 -1.498,3.547 -2.722,2.722 -3.547,1.498 -3.849,0 -3.838,-0.113 -3.899,-0.409 -3.9,-0.758 V -0.771 L -3.763,-1.611 -4.824,-2.714 -4.91,-2.885 -4.982,-2.972 -5.61,-3.43 -5.909,-3.76 -6.53,-4.758 -6.556,-4.794 -6.612,-4.857 -6.617,-4.879 -7.1,-5.553 -7.148,-5.75 -7.264,-5.938 -7.289,-6.067 -7.611,-6.308 -7.805,-6.54 -8.148,-6.753 -8.396,-6.979 -8.742,-7.176 -8.748,-7.18 l -0.368,-0.21 -0.212,-0.076 -0.175,-0.098 -0.108,-0.03 -0.063,-0.013 -0.035,-0.015 -0.088,-0.024 -0.062,-0.03 -0.056,-0.017 -0.909,-0.158 -0.11,0.095 -0.144,0.085 -0.08,0.101 -0.294,0.235 -0.048,0.04 -0.077,0.092 -0.134,0.338 -0.208,0.351 -0.05,0.214 -0.2,0.4 -0.313,0.787 -0.021,0.035 -0.003,0.019 -0.06,0.143 -0.064,0.304 -0.282,0.691 -0.111,0.576 -0.122,0.308 -0.073,0.388 -0.255,0.67 -0.116,0.641 -0.171,0.457 -0.088,0.475 -0.065,0.168 -0.031,0.256 -0.194,0.781 -0.159,1.012 -0.034,0.097 -0.018,0.184 -0.28,1.403 -0.152,0.842 -0.048,1.191 -0.041,0.175 -0.096,1.01 -0.289,1.524 -0.013,0.036 -0.006,0.05 -0.249,1.2 -0.1,1.207 -0.024,0.086 -0.022,0.321 -0.272,1.98 -0.178,1.543 -0.128,1.738 -0.02,0.073 -0.019,0.309 -0.218,1.743 v 1.66 l -0.086,1.188 -0.298,2.032 -0.113,1.972 -0.063,2.215 v 2.404 l -0.011,0.429 -0.129,2.452 v 4.897 l -0.012,0.441 -0.128,2.376 v 13.26 l 0.131,2.955 v 0.006 l 0.139,2.91 0.005,0.205 0.003,0.013 0.068,2.924 0.127,2.801 0.26,2.786 0.027,0.574 0.008,0.037 0.066,2.993 0.26,3.315 0.011,0.273 0.008,0.032 0.127,2.863 0.313,2.685 0.011,0.182 0.012,0.043 0.278,2.98 0.007,0.151 0.008,0.028 0.191,2.547 0.379,2.708 0.007,0.103 0.01,0.031 0.346,2.692 0.012,0.177 0.014,0.048 0.242,2.29 0.476,2.377 0.004,0.039 0.005,0.013 0.552,2.751 0.038,0.373 0.052,0.158 0.334,2.403 0.433,2.467 0.572,2.535 0.036,0.313 0.058,0.16 0.483,2.824 10e-4,0.015 0.477,2.648 10e-4,0.016 0.454,2.453 0.559,2.294 0.023,0.185 0.043,0.107 0.427,2.006 0.658,2.209 0.034,0.232 0.076,0.172 0.618,2.467 0.027,0.214 0.052,0.128 0.455,2.139 0.559,2.104 v 0.006 l 0.577,1.979 0.045,0.312 0.093,0.224 0.331,1.463 0.465,1.095 0.088,0.425 0.254,0.533 0.463,1.589 0.56,1.211 0.081,0.366 0.273,0.523 0.489,1.464 0.691,1.485 0.023,0.103 0.08,0.129 0.68,1.56 0.042,0.198 0.136,0.243 0.486,1.29 0.429,0.856 0.752,1.234 0.809,1.243 0.238,0.508 0.307,0.462 0.476,0.998 0.309,0.477 0.55,0.719 0.232,-1.023 0.31,-0.734 0.114,-0.578 0.116,-0.282 0.057,-0.347 0.04,-0.111 0.021,-0.198 0.207,-0.989 0.099,-0.796 0.046,-0.143 0.031,-0.336 0.219,-1.176 0.117,-0.307 0.059,-0.423 0.087,-0.306 v -4.297 l -0.008,-0.032 -0.108,-0.862 -0.115,-0.382 -0.043,-0.392 -0.051,-0.948 0.035,-0.775 0.004,-0.046 -0.003,-0.16 0.031,-0.152 0.02,-0.225 0.085,-0.294 0.519,-2.571 1.784,-2.647 2.648,-1.785 3.241,-0.654 2.037,0.251 0.881,0.338 0.324,0.065 0.204,0.138 0.445,0.171 0.619,0.546 0.488,0.33 0.052,0.025 0.029,0.029 0.81,0.546 0.467,0.693 0.089,0.086 0.377,0.333 0.226,0.321 0.517,1.033 0.012,0.015 0.2,0.334 0.13,0.3 0.206,0.381 0.165,0.461 0.003,0.019 0.414,0.952 0.021,0.156 0.046,0.104 0.057,0.225 0.019,0.056 0.009,0.054 0.042,0.165 0.046,0.372 0.366,2.212 v 6.167 l -0.076,1.146 -0.145,1.096 -0.15,0.454 -0.103,0.737 -0.17,0.6 -0.088,0.472 -0.111,0.888 -0.066,0.208 -0.048,0.46 -0.247,1.179 -0.183,1.104 -0.369,1.022 -0.159,0.802 -0.283,0.692 -0.176,0.649 -0.251,0.542 -0.085,0.427 -0.348,0.848 -0.243,0.403 -0.225,0.538 -0.55,0.959 -0.006,0.007 -0.183,0.32 -0.036,0.3 -0.164,0.518 -0.125,0.863 -0.483,1.059 -0.164,0.517 -0.172,0.218 -0.156,0.343 -0.446,0.706 -1.357,1.634 -0.078,0.058 -0.499,0.658 -0.566,0.444 -0.04,0.049 -0.022,0.031 -0.017,0.017 -0.114,0.141 -0.169,0.135 -0.123,0.12 -0.118,0.078 -1.532,1.166 -0.452,0.259 -0.012,0.005 -0.768,0.518 -0.759,0.577 -0.143,0.032 -0.14,0.094 -3.178,0.642 H 3.994 l -1.771,-0.195 -0.685,-0.15 -0.115,-0.048 -0.164,-0.021 -1.86,-0.754 -0.311,-0.172 -0.047,-0.021 -0.556,-0.2 -0.605,-0.337 -0.876,-0.394 -0.594,-0.371 -1.558,-1.28 -0.104,-0.141 -0.079,-0.058 -0.535,-0.601 -0.66,-0.726 -0.24,-0.385 -0.256,-0.215 -0.283,-0.378 -0.36,-0.359 -0.104,-0.154 -0.141,-0.103 -0.766,-0.835 -0.415,-0.66 -0.365,-0.334 -0.559,-0.837 -0.731,-0.955 -0.132,-0.244 -0.251,-0.3 -0.752,-1.16 -0.235,-0.503 -0.301,-0.453 -0.473,-0.99 -0.594,-0.913 -0.057,-0.123 -0.09,-0.112 -0.961,-1.577 -0.152,-0.343 -0.197,-0.286 -0.749,-1.495 -0.077,-0.32 -0.287,-0.511 -0.57,-1.514 -0.583,-1.339 -10e-4,-0.003 -0.828,-1.779 -0.083,-0.37 -0.278,-0.536 -0.493,-1.473 -0.625,-1.352 -0.106,-0.477 -0.343,-0.718 -0.501,-1.719 -0.559,-1.317 -0.128,-0.622 -0.337,-0.814 -0.442,-1.952 -0.541,-1.857 -0.021,-0.144 -0.046,-0.101 -0.617,-2.326 -0.037,-0.276 -0.071,-0.176 -0.469,-2.206 -0.552,-2.203 -0.695,-2.329 -0.059,-0.399 -0.117,-0.291 -0.477,-2.241 -0.579,-2.373 -0.039,-0.324 -0.069,-0.183 -0.482,-2.612 -0.006,-0.064 -0.009,-0.024 -0.483,-2.682 -0.008,-0.086 -0.011,-0.033 -0.46,-2.682 -0.568,-2.521 -0.033,-0.29 -0.055,-0.15 -0.483,-2.754 -0.022,-0.241 -0.03,-0.092 -0.32,-2.295 -0.501,-2.501 -0.004,-0.039 -0.005,-0.013 -0.552,-2.751 -0.059,-0.588 -0.063,-0.211 -0.274,-2.596 -0.331,-2.575 -10e-4,-0.011 -0.407,-2.91 -0.033,-0.458 -0.028,-0.104 -0.206,-2.749 -0.266,-2.848 -0.333,-2.861 -0.032,-0.546 -0.018,-0.074 -0.135,-3.019 -0.267,-3.403 -0.019,-0.461 -0.006,-0.029 -0.064,-2.934 -0.251,-2.691 -0.017,-0.372 -0.012,-0.047 -0.139,-3.065 -0.005,-0.188 -0.002,-0.011 -0.068,-2.916 -0.135,-2.823 -10e-4,-0.041 -10e-4,-0.004 -0.139,-3.136 -0.009,-0.38 V 40.365 l 0.012,-0.44 0.128,-2.376 v -4.892 l 0.012,-0.429 0.128,-2.452 v -2.305 l 0.004,-0.233 0.07,-2.465 0.004,-0.017 0.006,-0.204 0.141,-2.475 0.03,-0.117 0.043,-0.582 0.263,-1.798 v -1.57 l 0.063,-1.012 0.256,-2.052 0.126,-1.701 0.015,-0.057 0.014,-0.248 0.214,-1.861 0.012,-0.038 0.007,-0.103 0.252,-1.828 0.123,-1.479 0.067,-0.24 0.074,-0.717 0.35,-1.69 0.14,-0.735 0.046,-1.158 0.038,-0.159 0.087,-0.959 0.288,-1.592 0.014,-0.036 0.005,-0.054 0.252,-1.265 0.186,-1.187 0.087,-0.246 0.051,-0.414 0.224,-0.903 0.171,-0.915 0.255,-0.67 0.116,-0.641 0.171,-0.457 0.088,-0.475 0.306,-0.802 0.13,-0.674 0.162,-0.406 0.076,-0.359 0.318,-0.779 0.119,-0.596 0.37,-0.893 0.376,-0.946 0.208,-0.351 0.051,-0.214 0.198,-0.397 0.174,-0.44 0.208,-0.35 0.05,-0.214 0.372,-0.747 0.114,-0.164 0.079,-0.189 0.301,-0.53 0.69,-0.9 0.233,-0.386 0.427,-0.489 0.297,-0.356 0.27,-0.209 0.218,-0.324 0.491,-0.491 0.333,-0.224 0.213,-0.275 0.408,-0.34 0.09,-0.052 0.049,-0.062 0.246,-0.197 0.371,-0.318 0.144,-0.085 0.08,-0.1 0.294,-0.236 0.338,-0.281 0.333,-0.194 0.007,-0.008 0.085,-0.053 0.614,-0.485 0.314,-0.189 0.584,-0.255 0.437,-0.269 0.438,-0.19 0.322,-0.067 0.16,-0.081 0.163,-0.039 0.38,-0.179 0.433,-0.126 0.371,-0.053 1.283,-0.416 0.312,-0.042 0.802,-0.054 0.076,-0.017 0.483,-0.014 0.235,-0.003 z"
       fill-mode="evenodd" />
  </g>
</svg>
