<?xml version="1.0" encoding="UTF-8" standalone="no"?>
<svg
   xmlns:dc="http://purl.org/dc/elements/1.1/"
   xmlns:cc="http://creativecommons.org/ns#"
   xmlns:rdf="http://www.w3.org/1999/02/22-rdf-syntax-ns#"
   xmlns:svg="http://www.w3.org/2000/svg"
   xmlns="http://www.w3.org/2000/svg"
   xmlns:sodipodi="http://sodipodi.sourceforge.net/DTD/sodipodi-0.dtd"
   xmlns:inkscape="http://www.inkscape.org/namespaces/inkscape"
   viewBox="0 0 117.36975 125.3712"
   width="117.36975"
   height="125.3712"
   version="1.1"
   id="svg1056"
   sodipodi:docname="music_logo.svg"
   inkscape:version="0.92.4 (5da689c313, 2019-01-14)">
  <metadata
     id="metadata1062">
    <rdf:RDF>
      <cc:Work
         rdf:about="">
        <dc:format>image/svg+xml</dc:format>
        <dc:type
           rdf:resource="http://purl.org/dc/dcmitype/StillImage" />
        <dc:title></dc:title>
      </cc:Work>
    </rdf:RDF>
  </metadata>
  <defs
     id="defs1060" />
  <sodipodi:namedview
     pagecolor="#ffffff"
     bordercolor="#666666"
     borderopacity="1"
     objecttolerance="10"
     gridtolerance="10"
     guidetolerance="10"
     inkscape:pageopacity="0"
     inkscape:pageshadow="2"
     inkscape:window-width="3840"
     inkscape:window-height="2126"
     id="namedview1058"
     showgrid="false"
     fit-margin-top="0"
     fit-margin-left="0"
     fit-margin-right="0"
     fit-margin-bottom="0"
     inkscape:zoom="3.776"
     inkscape:cx="220.12991"
     inkscape:cy="75.017676"
     inkscape:window-x="-11"
     inkscape:window-y="-11"
     inkscape:window-maximized="1"
     inkscape:current-layer="svg1056" />
  <g
     id="g1040"
     transform="matrix(0.15,0,0,0.15,1.5258,4.80465)">
    <path
       style="fill:#000000"
       inkscape:connector-curvature="0"
       id="path1018"
       d="M 1.545,-3.658 2.807,-2.807 3.658,-1.545 3.97,0 3.719,1.393 3.673,1.471 3.658,1.545 3.434,1.876 3.031,2.564 2.49,3.203 1.521,3.947 1.504,4.063 1.379,5.388 1.473,7.145 1.849,9.5 l 0.024,0.285 0.022,0.078 0.271,3.057 0.003,0.049 0.002,0.009 0.272,3.352 0.41,4.293 0.554,4.585 0.003,0.051 0.004,0.013 0.564,4.959 0.003,0.049 0.004,0.011 0.564,5.254 0.003,0.047 0.003,0.01 0.564,5.549 0.016,0.299 0.01,0.04 0.268,5.769 0.556,6.619 0.007,0.151 0.006,0.023 0.419,7.18 0.011,0.352 v 0.003 l 0.024,7.792 v 0.02 23.779 l 0.105,8.138 0.266,8.673 0.56,9.438 0.004,0.106 0.002,0.011 0.42,9.538 0.007,0.287 v 0.002 l 0.024,9.703 v 0.017 9.309 l 0.291,9.594 v 0.018 0.001 l 0.293,10.119 0.399,10.385 0.002,0.092 0.001,0.006 0.27,10.427 v 0.006 0.001 l 0.273,10.426 10e-4,0.105 0.001,0.003 0.126,10.433 10e-4,0.074 v 0 l 0.023,10.052 0.291,10.188 0.001,0.015 v 0.001 l 0.294,10.576 v 0.01 0 l 0.294,10.576 v 0.012 10e-4 l 0.294,10.723 v 0.017 10e-4 l 0.292,11.079 0.582,10.911 10e-4,0.03 10e-4,0.003 0.587,11.451 v 0.017 l 0.001,0.001 0.587,11.45 0.005,0.189 0.003,0.012 0.293,11.43 0.439,11.703 v 0.016 l 10e-4,0.001 0.44,11.877 0.584,12.128 0.731,12.278 0.003,0.094 0.003,0.011 0.587,12.334 0.004,0.172 0.003,0.01 0.294,12.048 10e-4,0.094 v 0.003 l 0.146,12.115 0.438,11.806 0.002,0.1 10e-4,0.006 0.293,12.16 0.439,11.847 0.005,0.278 v 11.866 l 0.147,12.009 v 0.003 0 l 0.145,11.775 0.581,11.611 0.007,0.269 0.002,0.01 0.147,11.022 v 0.006 10e-4 l 0.146,11.129 0.292,11.226 0.438,10.81 v 0.007 0 l 0.441,10.571 v 0.007 0 l 0.441,10.277 0.004,0.201 0.002,0.008 0.146,9.348 0.292,8.746 0.004,0.25 v 26.4 l 0.145,7.953 0.288,7.642 0.435,7.096 0.014,0.458 v 6.532 l 0.145,6.081 10e-4,0.056 v 0.002 l 0.107,6.309 0.121,5.703 0.002,0.165 v 0.029 l -0.02,5.184 0.123,4.877 0.003,0.203 -0.001,0.121 -0.077,4.857 -0.001,0.004 -0.001,0.092 -0.117,3.977 v 10e-4 0.012 l -0.125,3.831 -0.001,0.003 -0.001,0.032 -0.126,3.244 -0.06,0.252 -0.141,1.164 -0.507,2.074 -0.245,2.086 -0.026,0.085 -0.019,0.221 -0.246,1.484 -0.124,1.489 v 10e-4 l -0.105,1.295 -0.022,0.08 -0.021,0.305 -0.126,0.902 -0.055,0.164 -0.036,0.327 -0.132,0.607 -0.267,0.647 -0.1,0.495 -0.27,0.4 -0.234,0.567 -0.615,0.692 -0.341,0.506 -0.268,0.181 -0.268,0.301 -1.095,0.618 -0.534,0.36 -0.119,0.024 -0.273,0.184 -0.067,0.013 -0.064,0.04 -0.422,0.081 -0.231,0.155 -0.521,0.388 -0.079,0.017 -0.076,0.051 -2.123,0.429 -2.122,-0.429 -1.733,-1.168 -1.169,-1.734 -0.428,-2.122 0.043,-0.422 -0.182,-0.901 0.064,-0.43 -0.002,-0.012 0.001,-0.008 -0.019,-0.058 -0.117,-0.827 -0.026,-0.362 -0.024,-0.087 -0.104,-1.289 -0.025,-0.603 0.025,-0.595 0.148,-1.791 0.036,-0.126 0.035,-0.431 0.268,-1.612 0.275,-2.345 0.07,-0.221 0.054,-0.485 0.357,-1.587 -0.089,-2.27 L 7.097,668.645 7.096,668.64 6.972,664.834 6.971,664.8 v -0.002 l -0.116,-3.955 -0.002,-0.109 -10e-4,-0.004 -0.077,-4.845 -0.001,-0.127 0.003,-0.193 0.126,-5.006 0.003,-0.013 0.004,-0.175 0.268,-5.18 0.12,-5.605 0.104,-6.153 -0.144,-6.02 -0.002,-0.179 v -6.398 L 6.829,613.871 6.824,613.699 6.82,613.683 6.526,605.903 6.523,605.757 6.522,605.75 6.375,597.67 6.374,597.533 v -26.346 l -0.29,-8.691 -0.002,-0.133 -10e-4,-0.005 -0.146,-9.313 -0.436,-10.18 -10e-4,-0.022 v -10e-4 L 5.057,532.27 v -0.021 L 5.056,532.247 4.616,521.382 4.613,521.27 4.612,521.263 4.318,509.951 4.317,509.853 4.316,509.85 4.169,498.681 v -0.004 0 L 4.024,487.78 3.443,476.166 3.436,475.889 3.434,475.88 3.287,463.975 v -0.005 0 L 3.14,451.918 3.139,451.826 V 440.049 L 2.703,428.285 2.701,428.185 2.7,428.179 2.407,416.019 1.968,404.172 1.965,403.986 1.963,403.98 1.817,391.82 1.526,379.889 0.943,367.654 0.212,355.378 l -0.003,-0.091 -0.002,-0.01 -0.588,-12.187 -0.002,-0.088 -0.002,-0.008 -0.44,-11.897 -0.001,-0.009 v -0.001 l -0.44,-11.749 -0.002,-0.092 -0.002,-0.006 -0.291,-11.378 -0.583,-11.358 v -0.016 l -10e-4,-10e-4 -0.587,-11.451 v -0.007 l -0.587,-11.005 -0.006,-0.198 -0.003,-0.013 -0.294,-11.165 v -0.004 l -0.294,-10.721 v -0.007 -0.001 L -4.209,241.339 -4.21,241.33 v -0.001 l -0.294,-10.576 v -0.004 0 l -0.293,-10.282 -0.004,-0.215 v -0.016 l 0.024,-10.146 v -0.001 l 0.001,-0.068 0.125,-10.389 -0.02,-10.389 v 0 l -0.025,-10.385 -0.186,-10.354 -0.292,-10.096 v -0.004 l -0.294,-9.691 -0.003,-0.212 v -9.41 -0.016 l 0.023,-9.638 -0.165,-9.444 -0.313,-9.5 -0.004,-0.201 v -0.001 l -0.025,-8.821 v -0.019 l 0.001,-0.081 0.106,-8.193 V 69.399 69.38 L -5.824,61.668 -5.989,54.609 -6.3,47.924 -6.306,47.661 -6.307,47.659 -6.327,41.928 -6.632,36.5 -6.633,36.495 -6.946,31.217 V 31.212 L -7.26,26.23 v -0.006 l -0.314,-4.686 -0.005,-0.152 -0.003,-0.015 -0.168,-4.406 -0.003,-0.17 -10e-4,-0.002 -0.02,-3.381 v -0.001 l -0.02,-2.949 -0.159,-2.504 -0.01,-0.312 0.007,-0.254 0.127,-2.358 0.044,-0.175 0.076,-0.641 0.423,-1.766 0.101,-0.232 0.04,-0.223 0.422,-1.163 0.374,-0.486 0.174,-0.538 0.697,-0.968 0.218,-0.188 0.214,-0.318 0.709,-0.478 0.33,-0.284 0.144,-0.035 0.16,-0.108 0.594,-0.12 0.641,-0.416 0.057,-0.014 0.528,-0.311 0.338,-0.228 0.075,-0.015 0.077,-0.046 L 0,-3.97 Z"
       fill-mode="evenodd" />
    <g
       id="g1022"
       transform="translate(-3.75,-0.5)">
      <path
         style="fill:#000000"
         inkscape:connector-curvature="0"
         id="path1020"
         d="m 1.683,-6.552 0.511,0.345 0.33,0.096 0.289,0.322 0.724,0.488 0.864,1.281 0.251,0.28 0.505,1.03 0.086,0.364 0.303,0.631 0.322,1.09 0.529,1.582 0.016,0.098 0.04,0.081 0.576,1.868 0.023,0.15 0.053,0.117 0.451,1.685 0.534,1.142 0.013,0.058 0.044,0.07 0.733,1.632 0.976,1.845 0.021,0.081 0.081,0.119 0.941,1.899 0.6,0.937 0.91,1.25 1.306,1.568 0.244,0.419 0.222,0.203 1.454,2.18 0.045,0.095 0.042,0.039 1.458,2.274 1.646,2.271 2.038,2.564 0.139,0.248 0.138,0.122 1.999,2.844 0.116,0.231 0.104,0.099 2.196,3.468 2.06,3.088 2.665,3.198 0.093,0.16 0.104,0.086 2.927,3.805 0.021,0.039 0.023,0.019 3.221,4.246 0.109,0.203 0.108,0.096 2.822,4.091 2.934,3.772 0.158,0.287 0.15,0.136 3.071,4.532 0.01,0.019 0.007,0.007 3.071,4.532 0.121,0.249 0.192,0.251 2.774,4.816 0.065,0.154 0.086,0.12 2.573,4.856 2.665,4.487 0.003,0.007 2.458,4.047 0.003,0.007 2.325,3.777 0.1,0.223 0.14,0.192 2.027,3.762 2.108,3.651 0.01,0.025 0.011,0.014 1.983,3.438 0.004,0.008 1.829,3.101 0.069,0.161 0.094,0.129 1.854,3.427 0.034,0.085 0.041,0.057 1.561,2.986 0.061,0.157 0.07,0.105 1.471,3.029 0.054,0.236 0.201,0.341 1.025,2.559 1.244,2.361 0.086,0.221 0.098,0.149 0.866,1.837 1.02,1.428 0.085,0.167 0.082,0.074 1.157,1.735 0.138,0.287 0.166,0.199 0.154,0.431 0.173,0.083 0.722,0.654 0.393,0.265 0.157,0.233 0.315,0.285 1.06,1.754 0.07,0.104 0.004,0.018 0.006,0.01 0.8,1.911 0.083,0.409 0.238,0.503 0.323,1.132 0.263,0.524 0.344,0.55 0.159,0.212 0.49,0.611 0.076,0.136 0.123,0.122 0.678,1.304 0.446,0.795 0.017,0.096 0.042,0.081 0.277,0.825 0.436,2.639 v 0 l -0.641,3.178 -1.75,2.595 -2.595,1.75 -3.178,0.642 v -0.001 l -2.566,-0.411 -0.036,-0.018 -0.037,-0.007 -0.807,-0.427 -1.351,-0.694 -0.047,-0.047 -0.054,-0.028 -0.609,-0.456 -0.572,-0.683 -0.781,-0.607 -0.047,-0.057 -0.338,-0.269 -0.605,-0.47 -0.022,-0.029 -0.03,-0.024 -1.24,-1.639 -0.004,-0.011 h -10e-4 l -0.455,-0.795 -0.407,-0.61 -0.011,-0.021 -0.008,-0.008 -0.863,-1.294 -0.293,-0.611 -0.365,-0.568 -0.426,-0.935 -0.577,-0.824 -0.811,-1.618 -0.263,-0.508 -0.02,-0.058 -0.005,-0.011 -0.002,-0.011 -0.544,-1.627 -0.119,-0.72 -0.206,-0.577 -0.006,-0.034 -0.144,-0.216 -1.365,-1.909 -0.311,-0.611 -0.449,-0.683 -1.115,-2.365 -1.348,-2.558 -0.196,-0.506 -0.181,-0.308 -1.102,-2.752 -1.317,-2.81 -0.027,-0.12 -0.094,-0.152 -1.334,-3.087 -10e-4,-0.003 -1.554,-3.371 -1.553,-3.083 -0.002,-0.011 -0.005,-0.007 -1.736,-3.416 L 51.316,99.433 51.261,99.302 51.187,99.201 49.222,95.555 47.015,91.971 46.997,91.93 46.973,91.899 44.492,87.815 44.468,87.76 44.434,87.718 41.66,83.047 41.574,82.848 41.457,82.686 38.856,77.775 36.28,73.303 33.375,69.015 33.365,68.996 33.358,68.989 30.405,64.632 27.49,60.884 27.353,60.634 27.218,60.514 24.368,56.382 21.26,52.285 21.259,52.283 18.423,48.597 15.593,45.201 15.331,44.751 15.094,44.535 12.759,41.033 12.697,40.904 12.596,40.78 10.43,37.271 10.402,37.208 10.361,37.157 8.662,34.326 6.856,31.679 6.74,31.443 6.641,31.346 5.001,28.666 4.91,28.461 4.783,28.287 3.564,26.023 2.495,24.421 1.282,22.966 1.135,22.713 0.983,22.583 -0.179,20.985 -0.353,20.65 -0.645,20.261 -1.466,18.801 -2.151,17.137 -2.154,17.111 -2.158,17.102 -2.785,14.733 -2.786,14.724 -3.395,12.569 -3.453,12.155 -3.552,11.886 -3.888,10.001 -4.212,8.462 -4.732,6.514 -5.265,4.789 V 4.784 L -5.808,3.16 -5.875,2.759 -6.009,2.421 -6.247,1.274 -6.343,0.357 -6.377,0.213 l -0.041,-1.175 -0.004,-0.214 0.458,-2.271 1.251,-1.854 1.854,-1.251 2.271,-0.458 z"
         fill-mode="evenodd" />
    </g>
    <g
       id="g1026"
       transform="translate(79.5,135.25)">
      <path
         style="fill:#000000"
         inkscape:connector-curvature="0"
         id="path1024"
         d="m 88.57,-163.559 0.464,0.013 2.916,0.666 0.184,0.129 0.163,0.039 0.689,0.349 0.008,0.006 0.638,0.323 0.624,0.438 0.474,0.25 0.248,0.184 0.236,0.133 1.678,1.275 0.021,0.027 0.019,0.013 0.056,0.083 1.202,1.537 0.284,0.666 0.208,0.309 0.069,0.341 0.276,0.648 0.296,2.189 v 0 l -0.365,2.423 -0.214,0.448 -0.062,0.307 -0.241,0.357 -0.142,0.427 -0.31,0.59 -0.495,1.098 -0.53,0.85 -0.582,1.167 -0.165,0.238 -0.116,0.265 -0.902,1.506 -0.217,0.273 -0.12,0.236 -1.303,1.825 -1.482,2.427 -0.002,0.002 -1.728,2.883 -0.168,0.211 -0.095,0.192 -2.242,3.248 -0.128,0.113 -0.124,0.228 -2.466,3.175 -0.024,0.02 -0.021,0.036 -2.757,3.466 h -0.001 l -2.529,3.188 -2.568,3.83 -0.004,0.004 -0.002,0.004 -2.811,4.143 -0.002,0.002 -3.032,4.478 -2.897,4.491 -0.001,0.001 -2.543,3.999 -2.637,4.398 -0.001,10e-4 -2.445,4.169 -2.475,4.491 -2.386,4.511 -0.224,0.309 -0.144,0.305 -2.77,4.225 -0.029,0.026 -0.026,0.054 -2.769,4.072 -0.007,0.007 -0.006,0.011 -2.828,4.1 -2.767,4.32 -2.894,4.777 -0.031,0.039 -0.016,0.034 -3.253,5.177 -0.06,0.057 -0.062,0.127 -3.349,4.952 -3.357,5.214 h -0.001 l -3.386,5.359 -3.29,5.581 -0.242,0.309 -0.133,0.257 -3.498,4.798 -0.052,0.044 -0.046,0.086 -3.293,4.278 -2.705,3.691 -0.129,0.11 -0.12,0.206 -2.578,3.102 -2.23,3.139 -1.7,2.612 -1.503,2.6 -0.002,0.001 -1.016,1.783 -0.778,1.567 -0.003,0.004 -0.303,0.613 -0.122,0.652 -0.121,0.317 -0.06,0.381 -0.123,0.384 0.037,0.075 0.041,0.172 0.126,0.187 0.12,0.595 0.048,0.108 0.055,0.253 0.172,0.342 0.186,0.582 v 10e-4 L 4.914,-1.746 5.214,0 4.804,2.029 3.687,3.687 2.029,4.804 0,5.214 -2.476,4.59 -4.323,2.914 -4.656,2.422 -4.799,2.222 -5.016,2.076 -5.808,0.901 -6.072,0.61 -6.499,-0.24 -6.554,-0.473 -6.671,-0.614 -7.194,-1.86 -7.341,-2.582 -7.63,-3.585 -7.75,-4.874 -7.777,-5.44 l 0.046,-0.733 0.127,-1.012 0.016,-1.139 0.044,-0.205 0.23,-1.516 0.479,-1.552 0.033,-0.065 0.009,-0.057 0.629,-1.85 0.133,-0.248 0.038,-0.183 0.929,-2.151 0.065,-0.103 0.015,-0.066 1.373,-2.888 0.134,-0.199 0.028,-0.11 1.671,-3.035 0.077,-0.08 0.092,-0.204 2.262,-3.624 0.132,-0.126 0.147,-0.281 2.431,-3.303 2.446,-3.748 0.055,-0.051 0.053,-0.107 3.098,-4.437 3.031,-4.555 2.978,-5.525 0.057,-0.079 0.035,-0.082 3.292,-5.687 0.087,-0.112 0.051,-0.112 3.38,-5.336 0.054,-0.051 0.053,-0.111 3.32,-4.908 3.15,-5.014 2.884,-4.76 2.66,-4.543 0.054,-0.069 0.031,-0.068 2.709,-4.361 v -0.001 l 2.477,-4.083 2.485,-4.24 2.52,-4.44 0.068,-0.09 0.041,-0.092 2.765,-4.531 0.076,-0.093 0.041,-0.088 2.769,-4.225 0.011,-0.01 0.007,-0.017 2.902,-4.346 2.628,-4.046 0.002,-0.002 2.926,-4.536 0.039,-0.037 0.037,-0.077 3.105,-4.584 0.002,-0.002 2.69,-3.965 2.489,-4.043 0.165,-0.204 0.091,-0.18 2.564,-3.622 0.002,-0.001 2.496,-3.536 2.208,-3.249 0.002,-0.001 2.032,-3.021 1.67,-2.785 0.01,-0.013 0.003,-0.007 1.638,-2.682 0.196,-0.243 0.107,-0.21 1.282,-1.796 0.211,-0.353 -0.222,-1.144 -0.263,-1.156 -0.012,-0.442 -0.003,-0.215 0.571,-2.829 1.558,-2.31 2.31,-1.557 2.829,-0.571 z"
         fill-mode="evenodd" />
    </g>
    <g
       id="g1030"
       transform="translate(177.625,-19)">
      <path
         style="fill:#000000"
         inkscape:connector-curvature="0"
         id="path1028"
         d="M 2.186,-5.175 3.972,-3.972 5.175,-2.186 5.617,0 5.175,2.186 5.091,2.311 5.065,2.429 4.481,3.648 4.314,3.834 4,4.454 3.81,4.72 3.626,5.336 3.625,5.337 3.252,6.646 3.195,7.97 3.147,10.827 3.104,14.2 l -0.002,0.009 -0.005,0.23 -0.174,3.397 0.138,3.657 0.006,0.268 -0.017,0.47 -0.286,4.096 0.118,4.657 0.002,0.187 v 0.025 l -0.02,5.475 0.169,6.052 0.003,0.21 v 5.459 l 0.419,5.436 0.014,0.369 0.006,0.026 0.145,5.793 0.286,5.721 0.434,6.069 v 0.009 l 0.439,5.846 0.008,0.195 0.006,0.024 0.293,6.159 v 0.022 l 10e-4,0.002 0.293,6.306 0.001,0.035 10e-4,0.003 0.291,6.68 0.433,6.355 v 0.011 h 0.001 l 0.439,6.299 0.014,0.385 0.004,0.018 0.105,6.381 0.26,6.373 0.552,6.718 0.021,0.489 0.005,0.024 0.127,7.343 10e-4,0.112 v 0.001 l 0.024,7.203 v 0.026 13.38 l -0.008,0.348 -0.286,6.299 v 11.986 l 0.284,5.824 v 0.007 l 0.293,5.707 10e-4,0.043 0.001,0.004 0.293,6.158 10e-4,0.016 v 0.002 l 0.293,6.157 10e-4,0.032 10e-4,0.002 0.293,6.453 10e-4,0.029 10e-4,0.003 0.293,6.747 10e-4,0.028 v 0.002 l 0.294,7.042 v 0.015 0.001 l 0.294,7.041 0.003,0.167 0.002,0.008 0.147,7.05 v 0.004 0.001 l 0.143,6.68 0.567,6.946 0.019,0.464 0.007,0.028 0.147,7.049 v 0.008 0 l 0.145,6.976 0.29,6.81 0.007,0.342 v 27.642 l -0.008,0.355 -0.286,6.148 v 12.17 l -0.002,0.174 -0.145,6.407 -0.04,6.601 0.121,6.363 10e-4,0.157 -0.002,0.204 -0.163,6.286 0.122,5.828 0.002,0.147 v 0.002 l 0.023,6.133 0.284,5.673 0.011,0.428 v 25.493 l 0.145,6.516 v 0.005 0 l 0.145,6.391 0.29,6.81 v 0.007 l 0.293,6.593 10e-4,0.024 v 0.002 l 0.287,6.597 0.572,6.708 0.013,0.314 0.01,0.039 0.291,6.414 0.436,7.108 v 0.009 l 0.44,6.879 10e-4,0.032 10e-4,0.004 0.439,7.033 0.001,0.008 0.436,6.389 0.578,6.793 0.015,0.329 0.009,0.04 0.293,6.746 10e-4,0.023 v 0.002 l 0.288,6.747 0.572,6.859 0.021,0.508 0.007,0.031 0.145,6.966 0.29,6.652 0.004,0.185 0.002,0.01 0.145,6.677 0.29,6.655 0.008,0.372 v 6.185 l 0.42,6.013 0.001,0.023 v 0.003 l 0.436,6.231 0.574,6.027 0.019,0.379 0.012,0.049 0.286,6.154 0.57,6.41 0.013,0.285 0.01,0.04 0.294,5.567 0.005,0.208 0.004,0.015 0.141,5.094 0.424,5.505 0.008,0.199 0.007,0.027 0.293,5.566 v 0.009 0 l 0.293,5.419 0.001,0.03 10e-4,0.003 0.289,5.487 0.43,5.445 v 0.01 l 0.438,5.246 0.001,0.027 0.001,0.004 0.586,7.027 0.006,0.131 0.005,0.022 0.44,6.443 10e-4,0.024 0.001,0.002 0.439,6.444 0.021,0.581 v 4.913 l 0.279,4.891 0.001,0.032 10e-4,0.003 0.293,5.272 0.014,0.474 v 9.276 l 0.273,3.957 0.021,0.588 v 12.498 l -0.016,0.509 -0.295,4.729 -0.031,0.118 -0.04,0.545 -0.544,3.676 -0.271,3.796 -0.143,2.289 -0.144,2.603 -0.021,0.083 -0.029,0.455 -0.293,2.352 -0.285,2.574 -0.001,0.003 -0.293,2.643 -0.007,0.021 -0.003,0.053 -0.298,2.393 -0.003,0.01 -0.001,0.016 -0.299,2.248 -0.012,0.037 -0.007,0.082 -0.3,1.958 -0.002,0.006 -0.28,1.826 -0.281,2.119 -0.005,0.013 -10e-4,0.02 -0.3,2.103 -0.094,0.28 -0.062,0.501 -0.322,1.294 -0.09,0.72 -0.101,0.315 -0.075,0.611 -0.306,1.233 -0.393,0.888 -0.027,0.186 -0.169,0.5 -0.109,0.725 -0.464,0.971 -0.188,0.555 -0.189,0.233 -0.165,0.346 -0.312,0.47 -0.471,0.429 -0.531,0.786 -1.292,0.871 -0.585,0.533 -0.492,0.194 -0.226,0.152 -0.329,0.066 -0.806,0.318 -2.043,0.257 H 9.998 l -3.178,-0.641 -0.206,-0.14 -0.201,-0.046 -0.697,-0.559 -1.491,-1.005 -0.279,-0.414 -0.323,-0.259 -0.576,-0.719 -0.096,-0.171 -0.152,-0.153 -0.585,-1.16 -0.49,-0.873 -0.026,-0.15 -0.068,-0.134 -0.237,-0.739 -0.132,-0.834 -0.188,-0.574 -0.168,-1.247 -0.279,-1.352 -0.161,-1.552 0.279,-2.032 0.245,-0.566 0.063,-0.312 0.202,-0.298 0.278,-0.644 1.006,-1.261 0.116,-0.173 0.046,-0.03 0.052,-0.065 1.613,-1.184 0.57,-0.311 0.16,-0.041 0.05,-0.38 0.012,-0.037 0.007,-0.083 0.3,-1.957 10e-4,-0.006 0.28,-1.826 0.282,-2.119 10e-4,-0.001 0.279,-2.242 0.285,-2.574 0.001,-0.003 0.293,-2.643 0.007,-0.021 0.003,-0.053 0.26,-2.083 0.132,-2.378 10e-4,-0.005 0.001,-0.029 0.148,-2.377 0.002,-0.008 0.002,-0.04 0.295,-4.144 0.031,-0.115 0.035,-0.473 0.538,-3.638 0.256,-4.099 v -11.957 l -0.273,-3.958 -0.021,-0.588 v -9.33 l -0.28,-5.045 -10e-4,-0.009 v 0 L 7.729,624.34 7.715,623.852 v -4.868 l -0.421,-6.166 v -0.024 L 7.293,612.792 6.854,606.364 6.275,599.418 6.274,599.391 6.273,599.388 5.834,594.125 5.832,594.068 5.829,594.059 5.39,588.501 5.381,588.288 5.374,588.259 5.081,582.692 v -0.009 H 5.08 l -0.293,-5.419 v -0.03 l -0.001,-0.003 -0.29,-5.496 -0.431,-5.6 -0.015,-0.397 -0.008,-0.031 -0.144,-5.194 -0.281,-5.341 -0.572,-6.433 -0.016,-0.333 -0.01,-0.043 -0.285,-6.127 -0.567,-5.942 -0.01,-0.203 -0.009,-0.036 -0.44,-6.296 -10e-4,-0.024 v -0.003 l -0.44,-6.296 -0.021,-0.594 v -6.292 l -0.286,-6.569 -0.004,-0.184 -0.002,-0.011 -0.146,-6.676 -0.289,-6.656 -0.004,-0.192 -0.003,-0.01 -0.141,-6.803 -0.565,-6.773 -0.014,-0.324 -0.009,-0.038 -0.294,-6.893 v -0.009 -10e-4 l -0.287,-6.597 -0.571,-6.708 -0.006,-0.144 -0.007,-0.024 -0.44,-6.443 -0.002,-0.064 -0.002,-0.008 -0.44,-7.034 v -0.012 -0.001 l -0.44,-6.886 -0.002,-0.041 -10e-4,-0.005 -0.44,-7.18 -0.004,-0.137 -0.004,-0.015 -0.287,-6.312 -0.572,-6.716 -0.014,-0.329 -0.01,-0.039 -0.293,-6.746 v -0.009 -0.001 l -0.294,-6.598 v -0.031 l -0.001,-0.002 -0.294,-6.894 -0.003,-0.169 -0.002,-0.01 -0.147,-6.459 v -0.013 l -0.001,-10e-4 -0.146,-6.607 -0.003,-0.191 v -25.379 l -0.283,-5.658 -0.011,-0.427 v -0.031 l 0.024,-6.324 v -10e-4 l 0.002,-0.137 0.126,-6.035 0.005,-0.02 0.01,-0.323 0.409,-6.286 0.119,-6.287 0.001,-0.007 0.003,-0.13 0.251,-6.709 0.144,-6.321 v -12.262 l 0.008,-0.356 0.286,-6.147 v -27.298 l -0.286,-6.732 -0.004,-0.173 -0.002,-0.009 -0.147,-7.049 v -0.008 -10e-4 l -0.143,-6.825 -0.567,-6.945 -0.019,-0.46 -0.006,-0.028 -0.147,-6.902 v -0.012 h -0.001 l -0.145,-6.979 -0.29,-6.961 v -0.015 l -0.001,-10e-4 -0.293,-7.041 V 214.7 l -0.294,-6.743 v -0.007 l -0.293,-6.447 v -0.006 l -0.293,-6.152 -0.001,-0.017 v -0.001 l -0.293,-6.157 v -0.006 l -0.293,-5.699 -0.001,-0.035 -0.001,-0.003 -0.293,-6.01 -0.01,-0.392 v -12.35 l 0.008,-0.348 0.286,-6.299 V 144.825 144.8 l 0.024,-7.206 v -0.001 l 10e-4,-0.103 0.122,-7.115 -0.303,-6.664 -0.008,-0.321 v -0.004 l -0.025,-6.615 v -0.028 l 10e-4,-0.12 0.102,-6.16 -0.419,-5.991 -10e-4,-0.031 -0.001,-0.004 -0.44,-6.446 -0.006,-0.179 -0.005,-0.02 -0.293,-6.748 v -0.005 l -0.293,-6.295 v -0.008 0 l -0.29,-6.083 -0.432,-5.754 -0.002,-0.044 -0.002,-0.006 -0.439,-6.152 -0.006,-0.156 -0.005,-0.02 -0.293,-5.864 -0.005,-0.184 -0.003,-0.012 -0.142,-5.696 -0.425,-5.524 -0.023,-0.574 v -5.664 l -0.12,-6.098 -10e-4,-0.147 0.008,-0.349 0.27,-5.504 0.124,-4.916 0.013,-0.059 0.042,-0.646 0.533,-4.094 0.138,-3.661 0.032,-0.136 0.079,-0.833 0.679,-3.581 0.527,-3.256 0.012,-0.034 0.006,-0.062 0.541,-2.932 0.044,-0.116 0.021,-0.18 0.502,-2.049 0.034,-0.076 0.012,-0.089 0.598,-2.098 0.009,-0.019 0.002,-0.012 0.452,-1.511 0.023,-0.048 0.009,-0.052 0.58,-1.144 0.172,-0.349 0.011,-0.012 0.007,-0.012 0.504,-0.707 0.44,-0.846 0.311,-0.331 0.684,-1.016 0.729,-0.491 0.305,-0.325 0.305,-0.086 0.447,-0.301 L 0,-5.617 Z"
         fill-mode="evenodd" />
    </g>
    <g
       id="g1034"
       transform="translate(125.375,569.25)">
      <path
         style="fill:#000000"
         inkscape:connector-curvature="0"
         id="path1032"
         d="m 213.821,-49.372 1.854,0.916 0.254,0.23 0.816,0.455 2.312,1.836 0.272,0.338 0.973,0.904 0.638,1.101 0.303,0.377 0.056,0.243 0.205,0.353 1.39,3.528 0.008,0.042 0.019,0.033 1.381,3.531 0.101,0.529 0.253,0.585 1.032,4.184 1.235,4.109 0.012,0.081 0.026,0.055 1.307,4.496 0.053,0.365 0.107,0.261 1.018,4.647 0.015,0.14 0.028,0.071 1.313,6.56 0.027,0.267 0.043,0.12 1.169,7.301 0.031,0.378 0.035,0.118 0.879,8.195 0.001,0.012 0.873,7.561 0.017,0.283 0.016,0.061 0.586,7.32 0.014,0.339 0.009,0.037 0.294,7.335 0.007,0.363 v 7.352 l -0.015,0.509 -0.442,7.523 -0.006,0.022 -0.004,0.122 -0.591,7.53 -0.025,0.09 -0.023,0.358 -1.035,7.691 -0.007,0.023 -0.004,0.045 -1.182,7.988 -0.066,0.193 -0.041,0.369 -1.775,7.998 -0.005,0.01 -2.061,9.135 -0.07,0.168 -0.029,0.211 -2.662,9.471 -0.079,0.167 -0.027,0.166 -2.664,8.001 -0.024,0.044 -0.005,0.031 -2.812,8 -0.014,0.025 -0.002,0.01 -3.129,8.579 -0.003,0.006 -3.029,8.55 -0.112,0.206 -0.031,0.158 -3.667,8.828 -0.002,0.004 -3.308,8.24 -0.006,0.011 -3.184,7.899 -0.008,0.012 -3.102,7.54 -0.008,0.013 v 0 l -2.814,6.67 -0.008,0.012 -2.812,6.517 -0.005,0.009 -3.237,7.594 -0.171,0.276 -0.149,0.373 -3.513,6.451 -0.118,0.159 -0.074,0.166 -3.508,5.701 -0.29,0.356 -0.147,0.273 -3.786,4.942 -0.204,0.169 -0.182,0.293 -4.055,4.493 -0.046,0.034 -0.035,0.054 -4.121,4.416 -0.399,0.284 -0.274,0.354 -4.546,3.813 -0.282,0.164 -0.147,0.171 -4.83,3.514 -0.25,0.129 -0.283,0.227 -5.26,3.216 -0.234,0.104 -0.199,0.143 -4.665,2.48 -0.149,0.037 -0.234,0.154 -4.659,2.185 -0.328,0.075 -0.479,0.253 -4.651,1.601 -0.306,0.052 -0.278,0.126 -4.945,1.311 -0.399,0.053 -0.245,0.09 -4.804,0.875 -0.556,0.052 -0.168,0.048 -4.822,0.439 -0.724,0.033 v 0 l -0.239,-0.003 -4.717,-0.148 -0.113,-0.026 -0.895,-0.074 -4.456,-0.742 -0.342,-0.123 -0.489,-0.07 -4.612,-1.337 -0.082,-0.04 -0.08,-0.012 -4.612,-1.486 -0.285,-0.147 -0.225,-0.044 -5.05,-2.078 -0.111,-0.067 -0.075,-0.016 -4.605,-2.078 -0.088,-0.056 -0.054,-0.013 -4.897,-2.372 -0.434,-0.295 -0.428,-0.204 -4.271,-2.847 -4.277,-2.565 -0.002,-0.002 -5.683,-3.35 -0.145,-0.114 -0.139,-0.065 -5.615,-3.694 -0.123,-0.134 -0.261,-0.139 -5.459,-4.131 -0.127,-0.152 -0.23,-0.138 -5.303,-4.566 -0.162,-0.213 -0.246,-0.166 -5.146,-5.147 -0.098,-0.144 -0.133,-0.096 -4.847,-5.288 -0.216,-0.343 -0.235,-0.196 -4.692,-6.157 -0.075,-0.14 -0.078,-0.068 -4.395,-6.153 -0.13,-0.253 -0.115,-0.109 -4.099,-6.439 -0.054,-0.118 -0.082,-0.104 -4.098,-6.877 -0.01,-0.022 -0.009,-0.012 -4.098,-6.876 -0.087,-0.2 -0.118,-0.164 -3.803,-7.164 -0.026,-0.105 -0.106,-0.157 -3.509,-7.16 -0.011,-0.045 -0.036,-0.054 -3.508,-7.306 -0.069,-0.298 -0.244,-0.444 -2.924,-8.034 -0.033,-0.186 -0.09,-0.178 -2.631,-8.327 -0.033,-0.21 -0.077,-0.168 -2.193,-8.18 -0.026,-0.195 -0.053,-0.128 -2.048,-8.917 -0.034,-0.293 -0.056,-0.154 -1.611,-9.217 -0.004,-0.05 -0.006,-0.016 -1.611,-9.364 -0.019,-0.215 -0.026,-0.081 -1.295,-9.373 -0.026,-0.366 -0.025,-0.088 -0.754,-9.099 -0.001,-0.024 -10e-4,-0.003 -0.754,-9.099 -0.011,-0.242 -0.007,-0.032 -0.464,-9.399 -0.005,-0.217 -0.003,-0.011 -0.182,-9.077 -0.293,-9.059 -0.004,-0.242 V 10.145 l 0.005,-0.258 0.197,-5.451 0.007,-0.029 0.01,-0.269 0.401,-5.004 0.021,-0.075 0.02,-0.291 0.549,-3.971 0.003,-0.01 0.001,-0.015 0.543,-3.675 0.012,-0.035 0.006,-0.068 0.525,-3.086 0.065,-0.178 0.035,-0.281 0.626,-2.436 0.376,-2.749 0.177,-0.532 0.105,-0.606 0.729,-2.053 0.068,-0.123 0.019,-0.096 0.47,-1.146 0.003,-0.004 0.002,-0.007 1.189,-1.764 0.589,-0.397 0.227,-0.278 0.644,-0.31 0.304,-0.205 0.209,-0.042 0.298,-0.143 1.653,-0.251 2.16,0.436 1.764,1.19 1.19,1.764 0.436,2.16 -0.028,0.551 -0.121,1.218 -0.053,0.178 -0.048,0.448 -0.354,1.631 -0.141,2.632 -0.027,0.107 -0.044,0.53 -0.392,2.39 -0.056,2.629 -0.047,3.646 -0.04,3.852 0.104,4.878 0.001,0.158 -0.001,0.127 -0.096,5.379 v 12.611 l 0.289,8.963 0.398,8.952 0.694,9.165 0.99,8.932 0.001,0.029 0.002,0.005 0.997,9 1.317,9.192 1.587,9.227 0.002,0.022 0.001,0.004 1.588,9.085 1.988,8.657 2.127,7.932 2.549,8.066 2.748,7.553 3.337,6.95 0.002,0.007 3.488,7.117 3.667,6.91 3.988,6.69 0.009,0.022 0.01,0.013 4.078,6.842 3.936,6.185 4.225,5.913 4.414,5.794 4.503,4.912 4.826,4.826 4.895,4.215 5.049,3.82 5.227,3.438 5.595,3.299 0.011,0.008 0.004,0.002 4.445,2.666 0.141,0.112 0.133,0.063 3.978,2.652 4.333,2.099 4.34,1.958 4.577,1.883 4.203,1.354 3.972,1.152 3.455,0.575 3.718,0.116 4.049,-0.369 4.228,-0.769 4.446,-1.179 4.048,-1.393 4.172,-1.957 4.324,-2.299 4.825,-2.949 4.385,-3.19 3.993,-3.349 3.661,-3.923 3.549,-4.223 3.159,-4.48 2.987,-5.295 3.056,-6.104 3.119,-7.436 0.012,-0.019 0.001,-0.005 2.814,-6.522 0.004,-0.006 2.763,-6.55 0.004,-0.005 3.006,-7.305 2.94,-7.857 0.006,-0.01 3.104,-8.386 0.015,-0.028 0.003,-0.013 3.338,-8.686 2.756,-8.521 0.055,-0.106 0.016,-0.092 3.085,-8.596 0.004,-0.008 2.767,-7.87 2.531,-7.598 2.526,-8.989 2.012,-8.918 0.003,-0.008 1.679,-7.563 1.13,-7.633 0.98,-7.287 0.563,-7.179 0.42,-7.143 v -6.919 l -0.281,-7.009 -0.563,-7.036 -0.86,-7.443 -0.005,-0.089 -0.006,-0.022 -0.86,-8.021 -1.118,-6.981 -1.275,-6.367 -0.001,-0.01 -0.95,-4.335 -1.22,-4.195 -0.003,-0.016 -1.298,-4.321 -0.11,-0.736 -0.17,-0.491 -0.629,-4.057 -0.83,-3.284 -0.007,-0.052 -0.011,-0.026 -0.921,-3.681 -0.25,-1.988 0.163,-1.601 0.595,-2.914 0.54,-1.355 0.083,-0.326 0.983,-1.802 1.465,-1.518 2.094,-0.579 z"
         fill-mode="evenodd" />
    </g>
    <g
       id="g1038"
       transform="translate(386.625,156.75)">
      <path
         style="fill:#000000"
         inkscape:connector-curvature="0"
         id="path1036"
         d="m -27.127,-29.803 3.238,0.253 10e-4,0.001 3.213,0.251 0.335,0.093 0.784,0.106 3.061,0.842 0.292,0.136 0.249,0.047 2.886,1.131 0.69,0.404 0.22,0.064 2.68,1.696 0.133,0.142 0.29,0.16 2.502,1.97 0.082,0.1 0.141,0.087 2.195,1.951 0.257,0.349 0.303,0.243 1.741,2.18 0.203,0.363 0.155,0.152 1.189,1.981 1.297,1.685 0.615,1.132 0.057,0.074 0.872,2.321 0.041,0.222 0.104,0.229 0.55,2.034 0.089,0.657 0.066,0.247 0.12,1.695 0.71,4.033 L 4.303,0 3.965,1.675 3.043,3.043 1.675,3.965 0,4.303 -1.442,4.056 -2.676,3.371 -3.617,2.333 -4.186,0.998 l -1.003,-4.204 -0.002,-0.02 -0.004,-0.008 -0.42,-1.757 -0.537,-1.776 -0.582,-1.55 -1.04,-1.351 -0.173,-0.319 -0.134,-0.132 -0.987,-1.643 -1.236,-1.147 -1.997,-1.251 -2.408,-1.344 -2.132,-0.911 -2.174,-0.46 -2.249,-0.243 -2.625,0.206 -0.02,10e-4 h -0.003 l -2.32,0.182 -2.596,0.945 -3.067,1.349 -3.391,1.956 v 0 l -3.262,1.982 -3.047,2.959 -3.449,3.847 -3.522,4.696 -3.067,5.336 -3.058,6.119 -2.77,6.376 -2.47,6.865 -2.061,7.564 -1.504,7.659 -0.837,7.958 -0.559,7.552 v 7.059 l 0.622,6.968 1.356,5.867 2.114,5.366 2.96,5.539 3.623,5.395 4.604,5.146 5.112,5.537 5.266,5.128 6.001,5.144 0.005,0.006 0.007,0.004 6.423,5.547 7.013,5.844 0.004,0.005 0.007,0.004 7.293,6.126 8.178,6.571 0.073,0.092 0.127,0.076 7.655,6.624 0.066,0.088 0.107,0.068 7.651,7.062 0.086,0.12 0.13,0.088 7.057,7.057 0.093,0.138 0.128,0.092 6.759,7.346 0.066,0.106 0.086,0.065 6.756,7.783 0.064,0.107 0.078,0.061 6.753,8.221 0.125,0.218 0.133,0.113 6.16,8.361 0.168,0.319 0.147,0.139 5.863,9.233 0.013,0.028 0.01,0.009 5.569,8.792 0.16,0.349 0.216,0.311 4.685,9.22 0.034,0.138 0.13,0.204 4.391,9.656 0.06,0.273 0.2,0.368 3.659,10.239 0.035,0.201 0.094,0.19 3.22,10.532 0.041,0.272 0.091,0.21 2.635,10.828 0.036,0.293 0.063,0.166 1.609,8.627 0.016,0.163 0.024,0.069 1.464,9.071 0.037,0.455 0.036,0.126 0.88,9.821 0.022,0.469 0.008,0.038 0.294,10.869 0.003,0.218 v 10.842 l 0.106,10.838 0.001,0.08 -0.001,0.126 -0.172,10.595 -0.007,0.032 -0.028,0.591 -1.053,10.925 -0.013,0.042 -0.008,0.138 -1.349,10.936 -0.009,0.028 -0.005,0.069 -1.599,11.368 -0.023,0.067 -0.012,0.146 -1.919,11.077 -0.036,0.098 -0.018,0.168 -2.215,10.347 -0.052,0.128 -0.023,0.173 -2.512,9.614 -0.027,0.059 -0.009,0.061 -2.661,9.32 -0.025,0.053 -0.007,0.048 -2.925,9.511 -2.611,9.438 -0.063,0.134 -0.022,0.136 -2.957,9.174 -0.002,0.004 -2.616,8.437 -0.04,0.08 -0.012,0.071 -2.517,7.409 -0.058,0.109 -0.017,0.09 -2.472,6.55 -2.014,5.905 -0.078,0.145 -0.022,0.119 -2.078,5.348 -0.003,0.006 -2.028,5.365 -0.08,0.14 -0.021,0.104 -2.057,4.853 -1.109,2.777 -0.841,2.249 -0.071,0.125 -0.019,0.092 -0.755,1.818 -0.006,0.01 -0.598,1.438 -0.213,0.644 -0.157,0.299 -0.049,0.24 -0.351,0.521 -0.609,1.159 -0.519,0.515 -0.27,0.4 -0.42,0.283 -0.556,0.551 -1.096,0.563 -0.523,0.353 -0.27,0.054 -0.342,0.176 -2.566,0.411 h -0.077 l -0.442,-0.004 -1.742,-0.367 -1.242,-0.251 -0.024,-0.016 -0.027,-0.006 -1.479,-1.009 -0.97,-0.655 -0.011,-0.015 -0.015,-0.01 -1.098,-1.641 -0.562,-0.834 -0.002,-0.009 -0.005,-0.008 -0.611,-3.045 0.577,-2.957 0.04,-0.1 0.001,-0.005 0.002,-0.003 0.024,-0.06 0.229,-0.69 0.148,-0.282 0.044,-0.219 0.755,-1.818 0.006,-0.01 0.668,-1.607 0.834,-2.229 0.036,-0.064 0.009,-0.045 1.196,-2.996 0.037,-0.061 0.008,-0.04 2.011,-4.746 2.004,-5.303 0.008,-0.014 v 0 l 2.011,-5.176 2.006,-5.882 0.056,-0.105 0.016,-0.085 2.469,-6.542 2.424,-7.134 2.608,-8.412 0.011,-0.02 10e-4,-0.009 2.9,-8.997 2.603,-9.406 0.038,-0.082 0.013,-0.082 2.942,-9.57 2.594,-9.084 2.417,-9.25 2.132,-9.955 1.864,-10.763 1.624,-11.208 0.002,-0.005 1.579,-10.757 1.248,-10.42 0.399,-10.146 0.105,-10.724 v -10.739 l -0.285,-10.539 -0.838,-9.349 -1.419,-8.793 -1.559,-8.358 -2.548,-10.467 -3.123,-10.214 -3.504,-9.806 -4.218,-9.275 -4.456,-8.771 -5.367,-8.473 -0.009,-0.018 -0.005,-0.005 -5.746,-9.048 -5.896,-8.001 -6.569,-7.997 -6.62,-7.628 -6.579,-7.15 -6.836,-6.836 -7.444,-6.871 -7.448,-6.446 -8.137,-6.539 -0.042,-0.051 -0.073,-0.043 -7.363,-6.185 v 0 l -7.035,-5.862 -0.033,-0.043 -0.058,-0.035 -6.478,-5.595 v 0 l -6.155,-5.275 -0.135,-0.178 -0.213,-0.141 -5.589,-5.442 -0.119,-0.173 -0.164,-0.117 -5.289,-5.73 -0.036,-0.057 -0.048,-0.036 -4.993,-5.58 -0.365,-0.593 -0.32,-0.293 -4.079,-6.16 -0.217,-0.455 -0.292,-0.432 -3.102,-6.334 -0.078,-0.332 -0.282,-0.526 -2.217,-6.313 -0.099,-0.57 -0.198,-0.515 -1.342,-6.887 -0.079,-0.796 -0.049,-0.19 -0.481,-7.779 -0.014,-0.462 v -7.645 l 0.019,-0.529 0.59,-7.964 0.01,-0.036 0.008,-0.16 0.885,-8.412 0.05,-0.166 0.042,-0.432 1.625,-8.28 0.075,-0.191 0.035,-0.266 2.218,-8.138 0.117,-0.251 0.042,-0.239 2.662,-7.401 0.121,-0.219 0.034,-0.161 2.958,-6.809 0.117,-0.186 0.027,-0.115 3.254,-6.51 0.105,-0.152 0.073,-0.174 3.4,-5.915 0.199,-0.2 0.261,-0.492 3.983,-5.312 0.2,-0.167 0.183,-0.298 3.829,-4.27 0.222,-0.163 0.165,-0.236 3.838,-3.654 0.017,-0.011 1.531,-1.111 4.14,-2.223 0.083,-0.021 0.126,-0.086 3.84,-1.928 0.296,-0.07 0.486,-0.267 3.674,-1.331 0.272,-0.048 0.265,-0.123 3.669,-1.021 1.81,-0.251 z"
         fill-mode="evenodd" />
    </g>
  </g>
  <g
     id="g1044"
     transform="matrix(0.15,0,0,0.15,81.98205,47.1984)">
    <path
       style="fill:#000000"
       inkscape:connector-curvature="0"
       id="path1042"
       d="m 1.176,-5.371 1.335,0.255 0.034,0.022 0.035,0.007 0.347,0.234 0.694,0.437 0.046,0.061 0.059,0.041 0.258,0.382 0.422,0.562 0.031,0.109 0.062,0.093 0.097,0.478 0.174,0.626 0.146,1.751 0.002,0.031 10e-4,0.005 0.113,1.469 0.44,1.318 0.091,0.551 0.069,0.128 0.229,1.682 0.501,1.934 0.044,0.342 0.054,0.171 0.249,1.994 0.471,2.059 0.769,2.21 0.052,0.305 0.071,0.109 0.7,2.864 0.822,2.926 0.001,0.006 0.979,3.262 0.038,0.253 0.073,0.185 0.706,3.473 0.003,0.023 0.003,0.007 0.706,3.472 0.003,0.024 0.003,0.008 0.706,3.471 0.001,0.006 0.691,3.113 0.03,0.263 0.042,0.125 0.563,3.775 0.003,0.044 0.005,0.014 0.562,3.922 0.013,0.174 0.015,0.05 0.418,3.932 0.002,0.038 0.002,0.007 0.418,4.08 0.004,0.078 0.005,0.017 0.418,4.671 10e-4,0.033 0.002,0.005 0.418,4.819 0.008,0.182 0.007,0.027 0.273,4.976 10e-4,0.038 0.001,0.004 0.27,5.369 0.458,6.224 0.011,0.301 0.005,0.02 0.146,6.021 0.002,0.157 v 14.997 l -0.002,0.181 -0.147,5.008 -10e-4,0.001 v 10e-4 l -0.147,4.715 -0.003,0.014 -0.005,0.156 -0.295,4.87 -0.014,0.053 -0.016,0.275 -0.568,4.836 -0.278,4.579 -0.144,4.907 -0.007,0.03 -0.014,0.32 -0.431,4.897 -0.329,6.37 -0.011,0.043 -0.014,0.266 -0.598,5.753 -0.307,5.451 -0.007,0.026 -0.006,0.155 -0.464,5.33 -10e-4,0.002 -0.418,4.716 -0.017,0.058 -0.013,0.207 -0.592,4.446 -0.01,0.03 -0.005,0.067 -0.594,3.861 -10e-4,0.004 -0.587,3.818 -10e-4,0.006 -0.57,3.565 -0.426,3.557 v 0 l -0.434,3.91 -0.042,0.135 -0.032,0.344 -0.506,2.66 -0.163,2.957 -0.007,0.027 -0.007,0.164 -0.316,3.648 -0.31,4.508 -10e-4,0.001 -0.315,4.566 -0.013,0.05 -0.013,0.236 -0.568,5.035 -0.019,0.063 -0.013,0.173 -0.721,4.76 -0.574,4.89 -0.013,0.039 -0.007,0.102 -0.722,5.061 -0.576,5.19 -0.035,0.114 -0.027,0.306 -0.866,4.915 -0.704,4.928 -0.576,5.051 -0.028,0.09 -0.02,0.24 -0.845,5.076 -0.553,5.537 -0.434,6.364 -0.018,0.068 -0.019,0.31 -0.739,5.917 -0.003,0.009 -0.001,0.013 -0.592,4.448 -0.002,0.004 -0.587,4.407 -0.037,0.115 -0.024,0.253 -0.68,3.544 -0.411,3.84 -0.017,0.055 -0.012,0.162 -0.593,4.156 -0.022,0.066 -0.012,0.141 -0.727,4.076 -0.55,3.583 -0.376,3.262 v 3.112 l -0.021,0.549 -0.273,3.553 v 15.935 l 0.499,3.242 0.026,0.323 0.027,0.094 0.268,2.673 0.421,2.358 0.703,2.27 0.034,0.221 0.076,0.172 0.699,2.71 v 0 l 0.552,1.912 0.92,2.223 0.067,0.335 0.196,0.399 0.669,2.192 0.895,2.145 10e-4,0.005 0.914,2.067 1.024,1.906 1.071,1.762 1.042,1.121 0.181,0.285 0.208,0.168 1.461,1.843 1.071,1.227 1.351,0.965 0.147,0.169 0.282,0.164 1.502,1.251 1.02,0.706 1.433,0.626 2.272,0.8 0.012,0.006 1.274,0.454 1.93,0.263 h 2.033 l 2.528,-0.254 0.084,-0.004 0.018,-0.005 2.897,-0.264 2.261,-0.412 2.569,-0.935 0.082,-0.015 0.072,-0.039 3.065,-1.067 2.851,-1.298 0.091,-0.02 0.109,-0.067 3.038,-1.304 0.007,-10e-4 1.855,-0.837 1.209,-1.036 0.259,-0.154 0.14,-0.167 1.919,-1.439 1.578,-1.579 1.885,-2.019 1.612,-1.842 1.172,-1.812 1.257,-2.289 1.019,-2.55 10e-4,-0.001 1.2,-3.125 0.764,-3.573 0.16,-0.391 0.071,-0.434 0.453,-0.853 0.289,-0.709 0.22,-0.249 0.165,-0.311 2.236,-2.975 0.153,-0.128 0.14,-0.229 1.811,-2.044 1.31,-0.97 1.648,-0.359 1.949,0.513 1.42,1.37 1.414,2.297 0.002,0.007 0.008,0.009 0.763,1.911 0.753,3.573 0.173,1.627 v 0 l -0.17,1.605 -0.891,4.168 -0.235,0.576 -0.096,0.517 -1.489,3.875 -0.016,0.029 -0.003,0.014 -1.195,2.992 -0.194,0.327 -0.188,0.468 -1.637,2.98 -0.161,0.216 -0.1,0.215 -1.635,2.528 -0.302,0.281 -0.346,0.573 -2.066,2.361 -0.089,0.067 -0.068,0.107 -2.063,2.21 -0.104,0.074 -0.075,0.111 -2.059,2.059 -0.513,0.345 -0.307,0.366 -2.157,1.618 -1.855,1.59 -0.037,0.022 -1.814,1.156 -2.893,1.304 -0.08,0.017 -0.094,0.057 -3.038,1.305 -0.005,10e-4 -3.079,1.401 -0.296,0.065 -0.405,0.216 -3.328,1.16 -0.011,0.002 -3.123,1.137 -0.668,0.12 -0.632,0.235 -3.188,0.581 -0.555,0.051 -0.169,0.048 -3.204,0.292 -0.008,0.001 -2.862,0.286 -0.794,0.041 h -2.941 l -1.035,-0.07 -3.275,-0.446 -0.702,-0.233 -0.799,-0.138 -2.111,-0.752 -0.009,-0.005 -2.464,-0.868 -0.27,-0.147 -0.197,-0.041 -2.401,-1.049 -0.641,-0.404 -0.601,-0.296 -1.936,-1.34 -0.175,-0.198 -0.343,-0.199 -1.547,-1.288 -1.847,-1.32 -0.566,-0.651 -0.819,-0.632 -1.737,-2.062 -0.323,-0.552 -0.272,-0.256 -1.228,-1.912 -1.193,-1.6 -0.256,-0.485 -0.425,-0.612 -1.348,-2.659 -0.026,-0.109 -0.101,-0.155 -0.998,-2.147 -1.123,-1.998 -0.049,-0.12 -0.064,-0.088 -1.266,-2.402 -0.067,-0.266 -0.271,-0.46 -0.914,-2.262 -1.115,-2.336 -0.145,-0.634 -0.492,-1.316 -0.456,-2.475 -0.013,-0.131 -0.019,-0.054 -0.436,-2.643 -0.562,-2.567 -0.064,-0.587 -0.07,-0.23 -0.332,-3.067 -0.004,-0.073 -0.005,-0.016 -0.276,-2.76 -0.553,-3.587 -0.089,-1.128 v -16.762 l 0.021,-0.548 0.273,-3.553 v -3.25 l 0.048,-0.82 0.444,-3.857 0.02,-0.063 0.013,-0.171 0.593,-3.863 0.016,-0.044 0.007,-0.085 0.718,-4.025 0.55,-3.861 0.429,-4.002 0.046,-0.154 0.039,-0.402 0.699,-3.641 0.562,-4.225 0.002,-0.004 0.586,-4.407 10e-4,-10e-4 0.699,-5.597 0.428,-6.279 0.009,-0.035 0.008,-0.168 0.591,-5.911 0.032,-0.11 0.027,-0.324 0.854,-5.131 0.569,-4.978 0.013,-0.044 0.009,-0.122 0.74,-5.185 0.021,-0.061 0.011,-0.131 0.844,-4.79 0.564,-5.082 0.016,-0.05 0.01,-0.139 0.726,-5.091 0.577,-4.913 0.018,-0.055 0.011,-0.146 0.723,-4.782 0.599,-4.899 0.002,-0.004 0.567,-4.554 0.001,-0.004 0.565,-4.538 0.015,-0.046 0.009,-0.113 0.547,-3.567 0.387,-3.262 0.039,-0.124 0.028,-0.304 0.542,-2.847 0.414,-3.731 0.003,-0.009 10e-4,-0.019 0.444,-3.708 0.02,-0.063 0.013,-0.163 0.593,-3.714 0.001,-0.003 0.581,-3.779 0.001,-0.005 0.577,-3.756 0.561,-4.211 0.454,-4.598 0.015,-0.05 0.01,-0.158 0.701,-5.191 0.557,-5.474 0.018,-0.061 0.014,-0.188 0.83,-5.688 0.532,-6.283 v -0.002 l 0.425,-4.822 0.142,-4.822 0.003,-0.015 0.005,-0.167 0.295,-4.87 0.014,-0.053 0.016,-0.275 0.569,-4.836 0.277,-4.586 0.145,-4.618 v 0 l 0.143,-4.89 V 86.529 L 5.184,80.702 4.776,74.525 4.763,74.131 4.762,74.127 4.741,68.687 v 0 L 4.721,63.778 4.557,59.02 v -0.003 l -0.168,-4.7 V 54.315 L 4.223,50.225 4.222,50.22 4.059,46.343 3.753,42.483 V 42.476 L 3.45,38.794 3.012,35.722 3.007,35.658 3.001,35.638 2.541,32.118 2.539,32.097 2.538,32.093 2.078,28.572 2.076,28.552 2.075,28.548 1.638,25.202 0.931,22.028 0.92,21.936 0.902,21.888 0.295,18.804 0.282,18.669 0.261,18.61 -0.176,15.816 -0.74,13.49 -0.78,13.162 -0.83,13.008 -1.143,10.512 -1.173,10.05 -1.176,10.035 -1.194,8.084 -1.474,6.134 -1.506,5.684 -1.513,5.654 -1.537,4.293 -1.943,3.077 -1.965,2.944 -2.55,2.55 -3.323,1.404 -3.606,0 -3.323,-1.404 -3.066,-1.785 -3.001,-2 l 1.185,-1.778 0.208,-0.189 0.234,-0.347 0.571,-0.385 0.259,-0.236 0.144,-0.036 0.172,-0.116 z"
       fill-mode="evenodd" />
  </g>
  <g
     id="g1048"
     transform="matrix(0.15,0,0,0.15,78.0633,30.52965)">
    <path
       style="fill:#000000"
       inkscape:connector-curvature="0"
       id="path1046"
       d="m 3.159,-9.948 1.338,0.052 0.32,0.077 1.067,0.156 1.51,0.452 0.737,0.363 0.302,0.077 1.646,0.897 0.18,0.173 0.474,0.251 1.191,0.893 0.125,0.149 0.223,0.137 1.329,1.181 0.186,0.251 0.254,0.186 1.318,1.466 0.1,0.161 0.117,0.093 1.167,1.459 0.005,0.008 0.004,0.003 1.168,1.46 0.437,0.779 0.211,0.232 0.868,1.732 0.005,0.022 0.009,0.01 0.868,1.733 0.099,0.415 0.386,0.956 0.434,2.022 0.021,0.196 0.034,0.095 0.289,1.731 0.041,0.477 0.028,0.108 0.146,2.188 0.014,0.393 -0.013,0.375 -0.148,2.223 -0.109,0.413 -0.134,0.875 -0.667,2.139 -0.541,2.44 -0.114,0.275 -0.049,0.292 -0.917,2.678 -0.173,0.324 -0.047,0.209 -1.257,2.671 -1.254,2.951 -0.157,0.188 -0.654,1.122 -2,2.386 -1.873,2.7 -0.112,0.099 -0.11,0.195 -1.919,2.361 -0.126,0.1 -0.106,0.165 -2.208,2.355 -0.49,0.348 -0.291,0.332 -2.449,1.729 -2.271,1.703 -0.349,0.186 -0.141,0.141 -2.476,1.458 -0.536,0.147 -0.363,0.275 -2.023,0.724 -0.883,0.156 -0.558,0.144 -2.338,0.147 -0.335,0.01 v 0 l -0.393,-0.015 -1.93,-0.148 -0.884,-0.243 -0.678,-0.135 -1.787,-0.744 h -10e-4 v 0 l -0.01,-0.004 -0.016,-0.014 -1.605,-1.082 -1.47,-1.47 -0.141,-0.209 -0.173,-0.134 -1.463,-1.757 -0.449,-0.772 -0.205,-0.226 -1.163,-2.323 -0.067,-0.282 -0.25,-0.497 -0.872,-2.757 -0.07,-0.447 -0.114,-0.324 -0.584,-3.646 -0.03,-0.372 -0.025,-0.089 -0.293,-3.953 -0.015,-0.396 v -4.264 l 0.014,-0.379 0.295,-3.987 0.02,-0.071 0.021,-0.285 0.591,-3.998 0.008,-0.022 0.003,-0.041 0.593,-3.559 0.068,-0.189 0.038,-0.287 0.891,-3.271 0.133,-0.285 0.045,-0.235 1.174,-2.938 0.856,-2.286 0.226,-0.289 0.111,-0.42 1.19,-2.083 0.33,-0.332 0.54,-0.781 1.086,-1.053 1.171,-1.278 1.167,-0.842 0.257,-0.235 0.774,-0.392 0.554,-0.446 1.368,-0.775 0.115,-0.02 0.046,-0.033 0.896,-0.289 0.925,-0.148 0.323,-0.077 1.031,-0.041 0.181,-0.004 0.39,0.018 1.17,0.106 0.301,0.086 0.54,-0.566 1.087,-0.682 0.044,-0.013 1.577,-0.668 1.11,-0.262 0.195,-0.023 0.107,-0.04 1.414,-0.26 1.034,-0.097 z M -4.232,0.71 -4.605,0.923 -4.678,0.974 -5.053,1.44 l -0.476,0.378 -0.357,0.428 -0.473,0.36 -0.635,0.913 -0.252,0.223 -0.263,0.4 -0.707,0.729 -0.652,1.142 -0.749,1.999 -0.02,0.026 -0.008,0.043 -1.07,2.676 -0.736,2.703 -0.542,3.257 -0.548,3.707 -0.266,3.588 v 3.881 l 0.264,3.566 0.495,3.088 0.648,2.048 0.728,1.455 0.939,1.126 0.586,0.586 0.071,0.03 0.733,0.056 1.27,-0.079 0.924,-0.331 1.834,-1.079 2.106,-1.58 0.09,-0.048 0.042,-0.048 2.074,-1.464 1.723,-1.838 1.576,-1.94 1.651,-2.719 0.1,-0.096 0.114,-0.224 1.487,-2.063 0.81,-2.403 0.036,-0.067 0.01,-0.055 1.024,-2.75 0.733,-2.268 0.535,-2.413 0.081,-0.193 0.034,-0.228 0.536,-1.717 0.077,-1.16 -0.103,-1.553 -0.23,-1.377 L 9.929,8.937 9.382,7.846 9.377,7.824 9.368,7.814 8.75,6.581 7.958,5.59 7.954,5.583 7.949,5.579 6.873,4.235 5.871,3.122 4.958,2.31 4.295,1.813 3.551,1.407 3.229,1.311 3.219,1.36 2.47,2.47 1.36,3.219 0,3.494 -1.36,3.219 -1.566,3.08 -1.727,3.038 -1.95,2.821 -2.47,2.47 -2.771,2.025 -2.817,1.98 -2.844,1.962 -2.86,1.939 -2.982,1.82 -3.315,1.276 -3.321,1.255 -3.351,1.21 -3.52,1.025 -3.643,0.779 -3.713,0.732 -3.995,0.626 Z"
       fill-mode="evenodd" />
  </g>
  <g
     id="g1052"
     transform="matrix(0.15,0,0,0.15,116.44455,4.20465)">
    <path
       style="fill:#000000"
       inkscape:connector-curvature="0"
       id="path1050"
       d="m -30.923,-27.982 2.088,0.245 h 2.075 l 0.888,0.055 2.388,0.298 0.014,0.004 0.027,0.002 2.387,0.324 0.229,0.076 0.438,0.052 1.783,0.427 0.717,0.311 0.468,0.1 1.324,0.593 1.35,0.479 0.185,0.101 0.14,0.029 1.574,0.666 1.164,0.304 0.993,0.453 0.382,0.096 1.885,1.01 0.169,0.161 0.457,0.229 1.352,0.953 0.723,0.485 0.811,0.354 0.346,0.218 0.396,0.179 0.874,0.547 0.896,0.448 0.23,0.21 0.717,0.396 1.076,0.848 0.997,0.768 0.093,0.114 0.165,0.1 0.71,0.626 0.666,0.58 0.703,0.588 0.013,0.016 0.021,0.012 0.806,0.69 1.138,1.496 0.042,0.189 0.082,0.103 0.46,1.193 0.031,0.163 0.062,0.217 0.233,0.346 0.323,1.6 v 2.206 L 6.07,-5.431 5.771,-4.08 5.743,-4.035 5.724,-3.898 5.355,-2.566 5.304,-2.491 5.274,-2.318 4.906,-1.284 4.788,-1.13 4.728,-0.873 4.071,0.444 4.07,0.445 3.445,1.719 2.051,3.258 0,3.849 -1.498,3.547 -2.722,2.722 -3.547,1.498 -3.849,0 l 0.274,-1.428 0.547,-1.37 10e-4,-10e-4 0.392,-1.003 0.14,-0.65 0.21,-1.251 0.024,-0.069 0.013,-0.119 0.197,-0.885 V -6.78 l -0.808,-0.172 -0.003,-0.002 -0.901,-0.185 -0.131,-0.053 -0.175,-0.024 -1.283,-0.354 -0.574,-0.269 -0.325,-0.075 -0.733,-0.353 -0.701,-0.181 -0.318,-0.143 -0.278,-0.052 -0.845,-0.324 -0.991,-0.232 -0.652,-0.279 -0.419,-0.09 -1.414,-0.636 -0.127,-0.082 -0.078,-0.018 -1.266,-0.637 -0.852,-0.332 -0.781,-0.08 -0.412,-0.124 -0.742,-0.106 -1.8,-0.527 -1.36,-0.261 -0.22,-0.085 -0.301,-0.042 -1.046,-0.294 -1.169,-0.111 -0.025,-0.007 -0.081,-0.005 -2.389,-0.271 -0.013,-0.005 -0.03,-10e-4 -1.915,-0.239 h -2.05 l -0.836,-0.049 -2.088,-0.245 h -1.655 l -2.05,0.241 -0.01,10e-4 -2.289,0.287 -0.03,0.002 -0.006,0.002 -2.206,0.276 -2.119,0.363 -0.403,0.035 -0.127,0.038 -2.23,0.228 -2.105,0.455 -2.534,0.653 -0.087,0.012 -0.051,0.022 -2.147,0.527 -2.527,0.886 -0.009,0.002 -2.667,0.985 -0.142,0.025 -0.137,0.071 -2.151,0.719 -0.034,0.006 -0.02,0.01 -2.152,0.72 -0.034,0.005 -0.02,0.011 -2.227,0.744 -1.864,0.879 -2.144,1.191 -2.35,1.568 -0.154,0.074 -0.063,0.066 -2.321,1.451 -0.278,0.127 -0.245,0.175 -2.227,1.173 -1.963,1.502 -0.299,0.161 -0.378,0.303 -1.871,1.144 -1.706,1.706 -0.225,0.152 -0.147,0.197 -2.344,2.051 -0.142,0.085 -0.08,0.102 -2.048,1.664 -1.837,1.837 -1.561,1.665 -1.364,2.275 -0.575,0.722 -0.209,0.347 -2.066,2.361 -0.193,0.144 -0.148,0.219 -1.521,1.522 -1.362,2.043 -0.152,0.139 -0.158,0.288 -1.888,2.428 -1.676,2.515 -1.592,3.055 -0.094,0.131 -0.061,0.144 -2.042,3.503 -2.15,3.873 -2.026,3.784 -1.965,4.354 -0.003,0.005 -2.175,4.934 -0.043,0.069 -0.01,0.042 -2.155,4.602 -2.26,5.371 -2.016,5.189 -0.028,0.048 -0.006,0.031 -2.316,5.65 -1.956,5.314 -1.72,5.308 v 0 l -1.728,5.624 -0.005,0.01 -1.76,5.724 -0.005,0.012 -1.698,5.38 -1.418,5.68 -0.045,0.103 -0.017,0.116 -1.504,5.202 -0.962,5.504 -0.038,0.102 -0.019,0.173 -1.333,6.08 -0.003,0.008 -1.261,5.753 -0.848,5.516 -0.017,0.049 -0.009,0.096 -1.015,5.666 -0.866,5.775 -0.024,0.069 -0.012,0.14 -1.012,5.497 -0.848,5.665 -0.709,5.674 -0.57,5.844 -0.435,5.659 v 0 l -0.437,6.132 -10e-4,0.001 v 10e-4 l -0.443,5.907 -0.006,0.024 -0.005,0.103 -0.591,6.207 v 0.001 l -0.567,6.246 -0.287,6.16 -0.009,0.038 -0.012,0.267 -0.59,6.646 -0.001,0.003 -0.57,6.421 -0.287,6.597 -0.009,0.037 -0.012,0.278 -0.574,6.604 -0.287,6.748 v 0 l -0.294,7.05 v 0.001 l -0.294,7.057 v 0 l -0.294,7.057 v 0.001 l -0.294,6.777 -0.001,10e-4 -0.289,6.812 -0.144,6.622 -0.04,6.264 -0.001,0.003 -0.002,0.142 -0.171,6.777 v 0 l -0.163,6.722 0.122,6.431 0.002,0.163 -10e-4,0.156 -0.122,6.393 v 11.441 l 0.144,6.218 0.003,0.2 v 6.14 l 0.285,6.418 0.009,0.38 v 6.617 l -0.008,0.347 -0.279,6.575 0.28,6.997 0.007,0.343 v 6.894 l 0.287,7.172 0.003,0.167 0.002,0.009 0.147,7.196 v 0.008 10e-4 l 0.146,7.122 0.29,7.104 v 0.015 10e-4 l 0.294,7.188 v 0.016 10e-4 l 0.294,7.188 v 0.015 10e-4 l 0.288,7.035 0.571,6.852 0.03,0.708 v 7.012 l 0.558,6.689 0.001,0.009 0.582,6.397 0.017,0.372 0.011,0.045 0.293,6.746 0.001,0.016 v 10e-4 l 0.287,6.59 0.57,6.553 0.009,0.198 0.008,0.032 0.43,6.875 0.711,6.535 0.01,0.174 0.01,0.038 0.575,6.599 0.839,6.426 1.136,6.525 0.001,0.013 1.157,6.213 0.004,0.039 0.004,0.012 1.168,6.271 0.002,0.017 v 0 l 1.168,6.124 0.004,0.039 0.004,0.012 1.16,6.082 1.274,5.655 0.027,0.242 0.048,0.126 1.021,5.537 0.001,0.006 1.113,5.421 1.394,5.289 0.009,0.069 0.017,0.038 1.416,5.515 1.514,4.676 0.029,0.179 0.07,0.148 1.368,4.781 1.74,4.413 0.031,0.161 0.092,0.169 1.746,4.942 0.012,0.067 0.028,0.053 1.6,4.648 0.006,0.036 0.011,0.021 1.6,4.648 v 0.003 l 1.687,4.491 0.002,0.011 1.731,4.467 0.006,0.032 0.013,0.023 1.719,4.434 1.949,4.452 0.009,0.04 0.023,0.038 1.891,4.359 10e-4,0.002 1.824,3.925 0.013,0.06 0.044,0.068 1.981,4.383 1.921,3.702 0.036,0.093 0.04,0.059 1.873,3.741 2.093,3.27 0.077,0.167 0.118,0.152 1.968,3.371 2.059,3.155 2.041,2.993 1.803,2.404 2.461,2.59 0.012,0.019 0.018,0.012 2.041,2.169 2.552,2.17 2.458,2.023 0.222,0.285 0.347,0.233 1.858,1.858 1.573,1.11 2.226,1.236 2.708,1.424 0.009,0.006 2.518,1.323 1.918,0.852 2.494,0.746 0.092,0.045 0.086,0.014 2.704,0.9 0.299,0.157 0.23,0.046 2.004,0.843 2.198,0.417 2.548,0.424 0.042,0.015 0.072,0.007 2.126,0.397 2.128,0.266 0.004,10e-4 1.808,0.225 h 1.42 l 1.909,-0.127 0.569,-0.02 h 1.476 l 1.442,-0.206 0.506,-0.037 0.111,-0.03 1.258,-0.09 0.794,-0.218 0.221,-0.03 0.149,-0.062 1.855,-0.43 0.362,-0.042 0.188,-0.067 1.132,-0.19 1.099,-0.367 0.036,-0.006 0.022,-0.011 0.916,-0.307 0.549,-0.33 1.462,-0.975 0.793,-0.578 0.543,-0.596 1.033,-1.494 0.084,-0.075 0.08,-0.15 1.235,-1.648 1.248,-1.803 0.027,-0.024 0.025,-0.048 1.16,-1.626 0.947,-1.777 0.158,-0.217 0.101,-0.225 1.349,-2.16 1.074,-1.97 1.221,-2.468 0.04,-0.058 0.024,-0.063 1.455,-2.776 0.006,-0.009 1.348,-2.571 1.229,-2.599 1.324,-2.992 0.009,-0.015 0.001,-0.002 1.683,-3.708 0.189,-0.292 0.04,-0.154 1.965,-3.522 2.246,-2.295 3.189,-0.875 2.43,0.491 1.984,1.338 1.338,1.984 0.491,2.43 -0.317,1.964 -1.178,3.56 -0.863,3.532 -0.64,3.182 -0.03,0.075 -0.013,0.109 -0.721,3.069 -0.293,0.684 -0.103,0.507 -1.226,2.893 -0.006,0.01 -1.168,2.754 -1.022,2.591 -0.113,0.192 -0.029,0.132 -1.111,2.442 -0.273,0.421 -0.212,0.47 -1.326,2.124 -1.061,1.992 -0.338,0.465 -0.201,0.396 -1.456,2.038 -1.286,1.86 -0.084,0.074 -0.08,0.151 -1.235,1.647 -1.248,1.803 -0.321,0.285 -0.333,0.534 -1.476,1.623 -0.756,0.549 -0.477,0.556 -1.595,1.16 -0.204,0.106 -0.092,0.1 -1.735,1.158 -0.181,0.087 -0.176,0.139 -1.435,0.862 -1.148,0.502 -0.506,0.263 -1.707,0.571 -0.036,0.006 -0.022,0.011 -1.707,0.571 -0.721,0.119 -0.576,0.206 -1.529,0.256 -1.529,0.355 -1.371,0.375 -1.175,0.161 -0.449,0.12 -1.773,0.127 -1.727,0.247 -1.199,0.088 h -1.786 l -1.909,0.127 -0.569,0.02 h -2.205 l -1.013,-0.063 -2.393,-0.299 -0.004,-10e-4 -2.349,-0.293 -0.134,-0.043 -0.317,-0.029 -2.332,-0.436 -2.553,-0.425 -0.05,-0.018 -0.087,-0.008 -3.139,-0.596 -0.912,-0.351 -0.677,-0.137 -2.523,-1.06 -2.27,-0.755 -2.823,-0.845 -0.538,-0.265 -0.374,-0.079 -2.698,-1.197 -0.188,-0.12 -0.248,-0.095 -2.837,-1.492 -0.008,-0.006 -2.786,-1.464 -0.058,-0.042 -0.06,-0.025 -2.688,-1.491 -0.374,-0.281 -0.328,-0.165 -2.525,-1.781 -0.381,-0.436 -0.658,-0.444 -2.074,-2.074 -2.209,-1.819 -0.031,-0.039 -0.053,-0.031 -2.952,-2.509 -0.264,-0.345 -0.382,-0.271 -2.343,-2.489 -2.774,-2.92 -0.299,-0.462 -0.317,-0.266 -2.19,-2.92 -0.116,-0.218 -0.113,-0.102 -2.188,-3.207 -0.041,-0.085 -0.07,-0.082 -2.186,-3.351 -0.091,-0.194 -0.142,-0.183 -1.988,-3.406 -2.228,-3.479 -0.19,-0.411 -0.255,-0.371 -2.037,-4.071 -0.001,-0.005 -2.003,-3.859 -0.102,-0.267 -0.112,-0.176 -2.037,-4.507 -0.002,-0.008 -1.874,-4.032 -0.024,-0.107 -0.083,-0.135 -1.891,-4.358 -0.004,-0.017 -0.005,-0.009 -2.038,-4.653 -0.036,-0.171 -0.119,-0.206 -1.745,-4.503 -0.006,-0.033 -0.013,-0.022 -1.745,-4.503 -0.014,-0.071 -0.036,-0.065 -1.746,-4.649 -0.025,-0.136 -0.07,-0.133 -1.6,-4.647 -0.006,-0.036 -0.011,-0.022 -1.6,-4.647 -0.002,-0.013 -1.729,-4.891 -1.818,-4.611 -0.074,-0.382 -0.2,-0.423 -1.448,-5.06 -1.54,-4.757 -0.048,-0.296 -0.11,-0.247 -1.457,-5.677 -0.002,-0.016 -1.455,-5.521 -0.04,-0.303 -0.076,-0.192 -1.166,-5.681 -0.016,-0.146 -0.025,-0.068 -1.008,-5.462 -1.27,-5.639 -0.024,-0.209 -0.042,-0.11 -1.167,-6.124 -0.004,-0.039 -0.005,-0.012 -1.168,-6.124 -0.006,-0.062 -0.009,-0.024 -1.168,-6.271 -0.003,-0.04 -0.005,-0.011 -1.168,-6.272 -0.01,-0.103 -0.015,-0.042 -1.169,-6.714 -0.025,-0.287 -0.034,-0.105 -0.878,-6.722 -0.021,-0.314 -0.022,-0.077 -0.582,-6.696 -0.72,-6.618 -0.02,-0.349 -0.016,-0.061 -0.435,-6.969 -0.577,-6.623 -0.015,-0.343 -0.01,-0.041 -0.293,-6.746 -0.001,-0.016 v -0.001 l -0.286,-6.574 -0.568,-6.242 -0.004,-0.079 -0.004,-0.015 -0.586,-7.027 -0.03,-0.708 v -7.012 l -0.558,-6.689 -0.014,-0.337 -0.009,-0.038 -0.294,-7.188 v -0.016 l -0.001,-0.001 -0.293,-7.188 v -0.015 l -10e-4,-0.001 -0.293,-7.188 v -0.016 l -0.001,-10e-4 -0.293,-7.188 -0.004,-0.174 -0.002,-0.009 -0.147,-7.196 v -0.008 0 l -0.145,-7.126 -0.291,-7.254 -0.007,-0.343 v -6.894 l -0.287,-7.172 -0.007,-0.343 0.008,-0.347 0.286,-6.74 v -6.258 l -0.285,-6.418 -0.009,-0.38 v -6.228 l -0.144,-6.217 -0.003,-0.2 v -11.615 l 0.003,-0.216 0.17,-6.446 0.126,-6.585 0.004,-0.018 0.009,-0.308 0.422,-6.925 v -0.002 l 0.41,-6.665 0.248,-6.16 0.145,-6.696 0.002,-0.009 0.003,-0.141 0.295,-6.927 v 0 l 0.294,-6.771 v 0 l 0.293,-7.043 h 0.001 l 0.293,-7.057 0.001,-0.001 0.294,-7.057 v 0 l 0.294,-6.917 0.009,-0.037 0.012,-0.285 0.574,-6.608 0.287,-6.604 0.01,-0.039 0.013,-0.29 0.59,-6.647 0.001,-0.002 0.571,-6.433 0.287,-6.169 0.01,-0.04 0.012,-0.28 0.591,-6.5 0.001,-0.002 0.582,-6.123 0.435,-5.806 0.001,-10e-4 0.438,-6.146 10e-4,-0.005 0.001,-0.012 0.443,-5.761 0.007,-0.025 0.005,-0.104 0.59,-6.061 0.012,-0.041 0.009,-0.133 0.739,-5.919 0.014,-0.043 0.007,-0.105 0.888,-5.924 0.024,-0.069 0.013,-0.14 1.011,-5.497 0.864,-5.763 0.019,-0.058 0.011,-0.116 1.019,-5.686 0.866,-5.637 0.053,-0.151 0.031,-0.283 1.333,-6.08 0.003,-0.008 1.281,-5.841 1.002,-5.734 0.117,-0.317 0.064,-0.446 1.589,-5.496 1.436,-5.753 0.084,-0.188 0.032,-0.208 1.779,-5.641 0.003,-0.006 1.744,-5.674 0.005,-0.01 1.76,-5.725 0.016,-0.032 0.004,-0.024 1.78,-5.494 0.064,-0.124 0.019,-0.107 2.076,-5.64 0.066,-0.117 0.017,-0.089 2.36,-5.757 2.017,-5.191 0.049,-0.085 0.012,-0.06 2.372,-5.637 0.084,-0.137 0.021,-0.091 2.195,-4.688 2.162,-4.906 0.008,-0.012 v 0 l 2.078,-4.606 0.118,-0.182 0.092,-0.234 2.225,-4.157 0.024,-0.033 0.012,-0.03 2.225,-4.008 0.039,-0.051 0.021,-0.05 1.977,-3.391 1.691,-3.245 0.242,-0.338 0.156,-0.326 2.076,-3.115 0.152,-0.139 0.157,-0.288 1.889,-2.428 1.624,-2.438 0.443,-0.402 0.497,-0.738 1.878,-1.878 1.439,-1.645 1.432,-2.388 0.776,-0.975 0.184,-0.288 2.21,-2.357 0.098,-0.069 0.07,-0.104 2.205,-2.206 0.359,-0.242 0.227,-0.286 2.248,-1.827 2.052,-1.796 2.172,-2.171 0.165,-0.112 1.256,-1.008 2.312,-1.413 2.158,-1.651 0.469,-0.253 0.634,-0.454 2.556,-1.346 2.027,-1.268 2.501,-1.668 0.281,-0.135 0.275,-0.205 2.609,-1.451 0.287,-0.117 0.209,-0.137 2.454,-1.157 0.355,-0.08 0.53,-0.275 2.593,-0.867 0.034,-0.005 0.02,-0.011 2.151,-0.719 0.034,-0.005 0.02,-0.011 2.145,-0.717 2.576,-0.951 0.089,-0.016 0.081,-0.043 2.887,-1.013 0.468,-0.081 0.43,-0.178 2.454,-0.555 0.326,-0.037 0.165,-0.058 2.769,-0.458 0.284,-0.023 0.097,-0.03 2.625,-0.312 0.811,-0.05 0.026,-0.005 2.392,-0.022 1.954,-0.156 2.151,-0.269 0.03,-0.002 0.006,-0.002 2.316,-0.29 0.07,-0.005 0.018,-0.005 2.465,-0.291 0.87,-0.052 h 2.499 z"
       fill-mode="evenodd" />
  </g>
</svg>
