<?xml version="1.0" encoding="UTF-8" standalone="no"?>
<svg
   xmlns:dc="http://purl.org/dc/elements/1.1/"
   xmlns:cc="http://creativecommons.org/ns#"
   xmlns:rdf="http://www.w3.org/1999/02/22-rdf-syntax-ns#"
   xmlns:svg="http://www.w3.org/2000/svg"
   xmlns="http://www.w3.org/2000/svg"
   xmlns:sodipodi="http://sodipodi.sourceforge.net/DTD/sodipodi-0.dtd"
   xmlns:inkscape="http://www.inkscape.org/namespaces/inkscape"
   viewBox="0 0 24.3078 52.483799"
   width="24.3078"
   height="52.483799"
   version="1.1"
   id="svg1300"
   sodipodi:docname="r_arrow.svg"
   inkscape:version="0.92.4 (5da689c313, 2019-01-14)">
  <metadata
     id="metadata1306">
    <rdf:RDF>
      <cc:Work
         rdf:about="">
        <dc:format>image/svg+xml</dc:format>
        <dc:type
           rdf:resource="http://purl.org/dc/dcmitype/StillImage" />
        <dc:title></dc:title>
      </cc:Work>
    </rdf:RDF>
  </metadata>
  <defs
     id="defs1304" />
  <sodipodi:namedview
     pagecolor="#ffffff"
     bordercolor="#666666"
     borderopacity="1"
     objecttolerance="10"
     gridtolerance="10"
     guidetolerance="10"
     inkscape:pageopacity="0"
     inkscape:pageshadow="2"
     inkscape:window-width="3840"
     inkscape:window-height="2126"
     id="namedview1302"
     showgrid="false"
     inkscape:zoom="7.552"
     inkscape:cx="55.046948"
     inkscape:cy="-21.820941"
     inkscape:window-x="-11"
     inkscape:window-y="-11"
     inkscape:window-maximized="1"
     inkscape:current-layer="svg1300"
     fit-margin-top="0"
     fit-margin-left="0"
     fit-margin-right="0"
     fit-margin-bottom="0" />
  <g
     id="g6474"
     transform="translate(-822.46965,-597.96867)">
    <g
       transform="matrix(0.15,0,0,0.15,845.9391,623.20212)"
       id="g1292">
      <path
         fill-mode="evenodd"
         d="m -100.816,-167.628 0.288,0.194 0.252,0.061 0.371,0.193 0.598,0.148 0.245,0.109 0.258,0.042 1.455,0.483 0.004,0.002 1.432,0.458 0.303,0.156 0.235,0.047 1.452,0.603 0.31,0.189 0.42,0.171 0.81,0.453 1.067,0.409 0.382,0.22 0.23,0.054 0.948,0.473 1.201,0.499 h 0.001 l 1.07,0.427 0.322,0.191 0.197,0.046 1.444,0.721 0.008,0.005 1.394,0.696 0.737,0.51 0.472,0.259 1.068,0.83 0.001,0.001 1.051,0.817 0.145,0.178 0.251,0.155 1.175,1.058 0.112,0.152 0.168,0.113 0.818,0.818 0.256,0.38 0.297,0.239 0.924,1.154 0.194,0.345 0.392,0.496 0.683,1.135 0.317,0.726 0.271,0.475 0.369,0.958 0.492,0.841 0.699,1.641 0.053,0.113 0.011,0.038 0.005,0.013 0.002,0.011 0.436,1.521 0.025,0.173 0.053,0.122 0.339,1.35 0.024,0.187 0.045,0.112 0.342,1.586 0.028,0.262 0.045,0.127 0.228,1.358 0.013,0.158 0.02,0.058 0.228,1.596 0.037,0.498 0.027,0.104 0.116,1.73 v 0.021 l 0.001,0.002 0.116,1.729 0.017,0.523 -0.016,0.499 -0.118,1.776 -10e-4,0.002 -0.116,1.751 -0.01,0.038 -0.01,0.186 -0.119,1.201 -0.088,0.297 -0.082,0.685 -0.376,1.567 -0.069,0.158 -0.027,0.185 -0.365,1.221 -0.004,0.009 -0.346,1.16 -0.005,0.009 -0.346,1.159 -0.128,0.26 -0.044,0.236 -0.377,0.62 -0.493,1.001 -0.311,0.32 -0.192,0.315 -0.643,0.729 -0.525,0.629 -0.535,0.415 -0.412,0.53 -0.689,0.575 -0.25,0.145 -0.234,0.227 -0.972,0.473 -0.745,0.433 -0.227,0.041 -0.221,0.107 -1.115,0.337 -0.222,0.033 -0.166,0.073 -0.883,0.222 -0.865,0.109 -0.341,0.097 -1.024,0.091 -0.686,0.031 -0.101,-10e-4 -1.173,-0.016 -0.047,-0.01 -0.893,-0.063 -0.973,-0.137 -0.22,-0.074 -0.411,-0.049 -1.099,-0.259 h -10e-4 l -0.711,-0.159 -0.322,-0.134 -0.35,-0.057 -0.962,-0.32 -0.536,-0.283 -0.979,-0.444 -0.689,-0.433 -0.207,-0.219 -0.45,-0.254 -0.666,-0.538 -0.339,-0.427 -0.039,-0.022 -0.042,-0.046 -0.424,-0.315 -0.424,-0.479 -0.245,-0.401 -0.374,-0.41 -0.304,-0.7 -0.352,-0.577 -0.077,-0.414 -0.187,-0.433 -0.095,-0.382 -0.064,-0.214 -0.275,-1.867 0.505,-2.505 1.38,-2.046 1.046,-0.705 0.201,-0.151 0.103,-0.054 0.696,-0.469 0.306,-0.062 0.373,-0.198 1.709,-0.281 0.891,0.147 1.048,0.151 0.465,0.136 0.548,0.267 0.148,0.035 1.271,0.548 0.417,0.106 0.033,0.018 0.224,0.014 0.214,0.056 0.798,0.082 0.391,0.08 0.206,-0.689 0.178,-0.812 0.061,-0.614 0.109,-1.639 10e-4,-10e-4 0.081,-1.23 -0.082,-1.229 v -0.021 l -0.001,-0.002 -0.098,-1.472 -0.187,-1.302 -0.189,-1.13 -0.293,-1.36 -0.292,-1.164 -0.164,-0.569 -0.323,-0.553 -0.292,-0.687 -0.249,-0.435 -0.353,-0.914 -0.106,-0.177 -0.358,-0.448 -0.384,-0.383 -0.821,-0.739 -0.856,-0.665 v -0.001 l -0.446,-0.347 -0.782,-0.39 -0.008,-0.006 -1.081,-0.539 -0.92,-0.366 -0.032,-0.019 -0.017,-0.004 -1.452,-0.603 -0.26,-0.158 -0.16,-0.038 -0.851,-0.424 -1.226,-0.47 -0.507,-0.293 -0.27,-0.067 -0.987,-0.524 -0.7,-0.29 -1.178,-0.346 -0.104,-0.05 -0.1,-0.016 -1.141,-0.379 -1.159,-0.289 -0.741,-0.328 h -0.745 l -0.307,0.112 -0.588,0.106 -0.565,0.22 -0.749,0.15 -0.201,0.065 -0.791,0.397 -1.096,0.599 -0.026,0.01 -0.013,0.01 -0.92,0.502 -0.792,0.556 -0.229,0.114 -0.242,0.192 -1.135,0.682 -0.299,0.131 -0.245,0.168 -0.068,0.034 -0.064,0.064 -0.179,0.121 -0.118,0.16 -0.384,0.346 -0.382,0.503 -0.685,0.568 -0.586,0.737 -0.721,0.581 -0.4,0.4 -0.017,0.019 -0.112,0.247 -0.083,0.129 -0.019,0.078 -0.588,1.18 -0.457,1.101 -0.475,1.237 -0.419,1.263 -0.005,0.01 -0.335,1.007 -0.142,1.071 -0.036,0.111 -0.023,0.247 -0.359,1.917 -0.002,0.007 -0.313,1.676 -0.163,1.142 -0.099,1.683 -0.046,0.179 -0.07,0.756 -0.243,1.302 -0.072,1.159 v 11.217 l 0.073,1.231 0.237,1.185 0.157,1.548 v 1.39 l 0.186,1.473 0.005,0.078 0.006,0.02 0.205,1.733 0.293,1.558 0.05,0.524 0.051,0.174 0.23,2.299 0.154,1.305 0.413,1.48 0.013,0.094 0.027,0.061 0.572,2.166 0.028,0.209 0.054,0.133 0.458,2.052 v 0 l 0.536,2.139 0.002,0.012 0.532,2.018 0.615,1.939 0.624,1.765 0.006,0.033 0.011,0.021 0.547,1.544 0.697,1.392 0.039,0.162 0.147,0.237 0.626,1.427 0.775,1.29 0.132,0.302 0.171,0.247 0.895,1.788 0.95,1.52 0.204,0.449 0.25,0.38 0.725,1.537 0.756,1.175 0.037,0.081 0.033,0.031 1.15,1.838 0.002,0.005 0.998,1.55 10e-4,0.002 0.697,1.045 0.747,0.747 0.192,0.285 0.239,0.183 1.189,1.406 1.176,1.282 0.077,0.122 0.097,0.074 1.394,1.626 0.345,0.581 0.291,0.272 0.692,1.076 0.843,0.913 1.293,1.294 0.09,0.132 0.123,0.089 1.202,1.302 1.424,1.322 0.08,0.112 0.119,0.081 1.518,1.518 0.612,0.561 1.353,0.75 0.426,0.32 0.346,0.18 1.773,1.3 0.097,0.113 0.183,0.104 1.59,1.291 1.478,0.985 0.045,0.049 0.093,0.047 1.533,1.08 v 0 l 1.279,0.885 1.37,0.842 0.164,0.133 0.148,0.073 1.454,1.006 1.555,1.017 0.044,0.048 0.093,0.046 1.544,1.068 0.059,0.067 0.122,0.064 1.295,0.961 0.004,0.005 0.006,0.003 1.421,1.065 0.214,0.255 0.371,0.236 1.104,1.022 1.119,0.915 0.467,0.593 0.587,0.463 0.813,0.993 1.008,0.924 0.193,0.268 0.267,0.193 0.84,0.916 1.015,0.781 0.178,0.215 0.305,0.192 1.19,1.091 1.351,1.061 1.345,1.008 0.04,0.048 0.076,0.042 1.458,1.145 1.196,0.828 1.388,0.87 10e-4,10e-4 1.463,0.899 0.103,0.108 0.238,0.119 1.192,0.834 0.03,0.033 0.058,0.03 0.813,0.591 0.756,0.388 1.396,0.643 0.27,0.177 0.324,0.137 1.036,0.603 1.282,0.563 0.317,0.201 0.394,0.167 1.022,0.595 0.863,0.374 1.39,0.533 0.068,0.04 0.047,0.009 1.795,0.738 0.276,0.167 0.169,0.04 1.445,0.72 0.286,0.198 0.303,0.138 0.896,0.562 0.895,0.343 0.167,0.096 0.119,0.025 1.675,0.738 0.058,0.037 0.035,0.008 1.495,0.696 1.387,0.515 0.666,0.377 0.81,0.386 1.158,0.771 1.279,0.711 0.394,0.296 0.325,0.167 1.147,0.835 0.759,0.497 1.055,0.526 0.253,0.176 0.275,0.122 0.573,0.353 0.688,0.262 0.452,0.261 0.252,0.061 1.431,0.742 0.093,0.066 0.104,0.043 0.533,0.301 0.518,0.151 0.086,0.042 0.083,0.013 1.01,0.328 0.759,0.206 0.626,0.087 0.524,0.175 0.687,0.11 0.564,0.185 0.463,0.065 0.258,0.088 0.453,0.057 0.743,0.188 0.593,0.095 0.976,0.139 0.033,0.011 0.066,0.006 0.97,0.157 0.041,0.015 0.075,0.007 0.855,0.159 1.656,0.631 0.339,0.086 0.953,0.517 0.261,0.192 0.231,0.042 0.332,0.125 0.615,0.113 0.117,0.044 0.185,0.022 0.154,0.037 0.168,0.012 0.273,0.073 0.203,0.024 0.004,-0.001 0.687,-0.033 0.364,-0.021 0.059,-0.019 0.093,-0.014 0.061,-0.041 0.306,-0.062 0.096,-0.065 0.543,-0.399 0.071,-0.015 L -2.176,-5.15 0,-5.589 2.176,-5.15 3.952,-3.952 5.15,-2.176 5.589,0 5.482,1.088 5.378,1.619 5.085,2.366 4.985,2.831 4.808,3.073 4.665,3.436 3.877,4.347 3.813,4.577 3.563,4.82 3.485,4.946 3.303,5.146 2.869,5.79 1.867,6.465 1.495,6.826 0.752,7.24 0.443,7.321 -0.235,7.687 -0.746,7.87 -0.784,7.877 -0.811,7.891 -1.323,8.072 -1.522,8.107 -1.706,8.195 -2.338,8.379 -2.349,8.381 -2.854,8.534 -4.791,8.822 -5.403,8.794 -5.566,8.779 -5.699,8.788 -6.193,8.806 -6.833,8.775 -7.567,8.706 -7.571,8.704 H -7.576 L -8.427,8.618 -8.491,8.599 -8.688,8.585 -9.314,8.495 -9.66,8.377 -10.191,8.301 -10.378,8.248 -10.579,8.223 -10.959,8.101 -11.608,8.01 -12.565,7.587 -12.943,7.467 -13.074,7.363 -13.282,7.271 -13.303,7.258 -13.714,7.223 -14.719,7.144 -14.729,7.141 -14.763,7.14 -15.728,7.054 -15.893,7.007 -16.394,6.96 -17.077,6.831 -17.766,6.777 -18.148,6.671 -19.053,6.55 l -0.544,-0.147 -0.422,-0.035 -0.26,-0.073 -0.723,-0.082 -1.458,-0.331 -0.11,-0.047 -0.14,-0.018 -1.186,-0.323 -1.201,-0.303 -1.096,-0.49 -0.449,-0.11 -1.211,-0.635 -0.887,-0.426 -0.934,-0.319 -0.46,-0.247 -0.807,-0.343 -0.978,-0.57 -1.22,-0.609 -0.254,-0.176 -0.277,-0.123 -1.328,-0.818 -0.133,-0.139 -0.305,-0.157 -0.839,-0.61 -1.082,-0.563 -0.329,-0.235 -0.319,-0.153 -0.597,-0.397 -0.784,-0.267 -0.415,-0.222 -0.273,-0.061 -1.635,-0.761 -1.43,-0.592 -1.424,-0.547 -0.474,-0.273 -0.653,-0.285 -1.279,-0.771 -0.825,-0.411 -1.476,-0.571 -0.009,-0.005 -1.49,-0.572 -0.023,-0.013 -0.01,-0.002 -1.462,-0.58 -0.404,-0.239 -0.552,-0.234 -0.97,-0.565 -1.227,-0.51 -0.369,-0.225 -0.481,-0.204 -1.095,-0.637 -1.232,-0.568 -0.057,-0.037 -0.033,-0.007 -1.454,-0.705 -0.609,-0.414 -0.49,-0.253 -1.249,-0.907 -0.915,-0.641 -1.356,-0.833 -10e-4,-0.001 -1.47,-0.886 -0.192,-0.153 -0.174,-0.086 -1.544,-1.068 -0.114,-0.129 -0.23,-0.127 -1.577,-1.239 -1.345,-1.008 -0.04,-0.048 -0.076,-0.042 -1.651,-1.297 -0.157,-0.193 -0.267,-0.168 -1.16,-1.064 -1.278,-0.982 -0.381,-0.463 -0.567,-0.41 -1.063,-1.159 -1.165,-1.068 -0.288,-0.4 -0.365,-0.28 -0.733,-0.864 -0.763,-0.624 -0.087,-0.111 -0.148,-0.091 -1.054,-0.94 -1.078,-0.808 -1.196,-0.851 -1.324,-0.916 -1.529,-0.965 -0.074,-0.079 -0.165,-0.081 -1.356,-0.938 -1.369,-0.842 -0.164,-0.133 -0.149,-0.073 -1.544,-1.068 v 0 l -1.475,-1.002 v 0 l -1.697,-1.131 -0.182,-0.2 -0.372,-0.211 -1.725,-1.401 -1.209,-0.886 -1.719,-0.955 -1.139,-0.854 -0.279,-0.175 -1.408,-1.291 -0.094,-0.13 -0.141,-0.095 -1.535,-1.535 -1.537,-1.427 -0.172,-0.242 -0.239,-0.171 -1.299,-1.407 -1.293,-1.294 -0.09,-0.132 -0.123,-0.088 -1.397,-1.514 -0.451,-0.714 -0.369,-0.345 -0.769,-1.196 -0.976,-1.138 -1.192,-1.3 -0.092,-0.146 -0.114,-0.088 -1.08,-1.277 -1.059,-1.059 -0.515,-0.763 -0.442,-0.404 -1.152,-1.726 -0.045,-0.095 -0.042,-0.039 -1.033,-1.606 -0.038,-0.081 -0.033,-0.031 -1.15,-1.838 -0.002,-0.005 -0.997,-1.55 -0.225,-0.483 -0.281,-0.428 -0.746,-1.582 -0.903,-1.444 -0.162,-0.356 -0.213,-0.31 -0.928,-1.853 -0.873,-1.453 -0.224,-0.514 -0.244,-0.391 -0.752,-1.715 -0.814,-1.625 -0.083,-0.346 -0.31,-0.574 -0.684,-1.933 -0.006,-0.033 -0.011,-0.02 -0.684,-1.933 -0.027,-0.155 -0.071,-0.141 -0.686,-2.166 -0.036,-0.228 -0.082,-0.184 -0.572,-2.166 -0.012,-0.091 -0.024,-0.054 -0.573,-2.284 -0.019,-0.156 -0.039,-0.093 -0.444,-1.992 -0.525,-1.99 -0.002,-0.012 -0.554,-1.99 -0.11,-0.79 -0.13,-0.42 -0.23,-1.949 -0.009,-0.136 -0.009,-0.034 -0.202,-2.013 -0.282,-1.496 -0.039,-0.413 -0.047,-0.151 -0.23,-1.95 -0.005,-0.078 -0.006,-0.019 -0.215,-1.953 -0.048,-0.868 v -1.11 l -0.194,-0.964 -0.09,-0.89 -0.054,-0.21 -0.115,-1.965 -0.015,-0.47 v -11.684 l 0.015,-0.477 0.118,-1.892 0.061,-0.234 0.09,-0.857 0.253,-1.191 0.083,-1.427 0.027,-0.103 0.036,-0.506 0.239,-1.677 0.03,-0.092 0.019,-0.194 0.358,-1.917 0.002,-0.007 0.306,-1.636 0.209,-1.574 0.195,-0.592 0.125,-0.771 0.6,-1.807 0.005,-0.009 0.462,-1.393 0.078,-0.148 0.023,-0.124 0.603,-1.571 0.048,-0.084 0.012,-0.059 0.603,-1.452 0.161,-0.265 0.039,-0.163 0.65,-1.304 0.533,-1.176 1.16,-1.792 0.004,-0.003 0.002,-0.003 0.931,-1.071 0.201,-0.152 0.155,-0.23 0.818,-0.818 0.513,-0.346 0.307,-0.365 0.286,-0.214 0.234,-0.294 0.549,-0.44 0.451,-0.591 0.717,-0.612 0.722,-0.721 0.111,-0.075 0.129,-0.156 1.73,-1.19 0.919,-0.46 0.688,-0.414 0.918,-0.643 0.357,-0.179 0.384,-0.282 1.246,-0.681 0.027,-0.01 0.012,-0.01 1.247,-0.681 0.162,-0.065 0.116,-0.08 1.359,-0.681 0.482,-0.115 0.915,-0.427 1.122,-0.315 0.361,-0.05 0.241,-0.094 0.605,-0.122 0.695,-0.254 0.978,-0.175 0.823,-0.25 1.017,-0.114 0.87,-0.05 h 2.804 z"
         id="path1290"
         inkscape:connector-curvature="0"
         style="fill:#000000" />
    </g>
    <g
       transform="matrix(0.15,0,0,0.15,843.82035,623.67087)"
       id="g1296">
      <path
         fill-mode="evenodd"
         d="m -4.464,-6.902 0.709,0.137 0.358,0.139 0.369,0.064 1.042,0.372 0.254,0.194 0.399,0.1 0.77,0.412 0.414,0.083 0.207,0.14 0.265,0.092 0.338,0.277 0.068,0.031 0.182,0.159 1.078,0.727 0.353,0.523 0.24,0.209 0.077,0.261 0.287,0.426 0.044,0.217 0.026,0.045 0.221,0.329 0.02,0.096 0.059,0.105 0.017,0.098 0.136,0.201 0.012,0.063 L 3.52,-1.338 3.764,0 3.469,1.465 2.662,2.662 1.465,3.469 0,3.764 -0.272,3.734 -0.584,3.797 -1.394,3.633 H -1.397 L -1.475,3.645 -2.804,3.913 -3.916,3.787 -4.042,3.759 -4.064,3.763 -4.114,3.792 -4.433,3.921 -4.766,4.145 -5.018,4.196 -5.32,4.345 -6.305,4.649 -6.588,4.692 -6.804,4.78 l -0.407,0.09 -0.711,0.357 -0.583,0.311 -0.822,0.288 -0.607,0.24 -0.068,0.013 -0.067,0.037 -1.096,0.412 -0.213,0.039 -0.216,0.106 -0.555,0.168 -0.877,0.423 -0.213,0.049 -0.31,0.177 -1.334,0.515 -0.379,0.072 -0.408,0.18 -1.574,0.401 -0.29,0.037 -0.173,0.065 -1.776,0.333 -1.494,0.491 -0.326,0.053 -0.274,0.116 -1.553,0.368 -0.723,0.331 -0.141,0.031 -0.181,0.107 -1.804,0.732 -0.026,0.005 -0.02,0.012 -1.804,0.732 -0.008,10e-4 -1.832,0.768 -1.915,0.966 -0.142,0.034 -0.208,0.131 -1.918,0.854 -0.001,0.001 -1.597,0.76 -1.575,0.98 -1.014,0.456 -0.501,0.265 -1.417,0.486 -1.216,0.756 -0.331,0.149 -0.285,0.197 -1.734,0.87 -1.618,1.12 -0.213,0.106 -0.22,0.174 -2.167,1.3 -0.021,0.01 -0.012,0.009 -2.166,1.3 -0.005,0.002 -2.218,1.377 -0.065,0.029 -0.053,0.042 -2.525,1.52 -0.007,0.003 -2.286,1.393 -0.005,0.003 -2.353,1.478 -0.339,0.153 -0.297,0.207 -2.52,1.281 -0.082,0.02 -0.114,0.076 -2.688,1.292 -2.386,1.366 -0.11,0.046 -0.083,0.061 -2.684,1.455 -2.363,1.414 -0.176,0.077 -0.144,0.105 -2.764,1.499 -0.155,0.062 -0.11,0.075 -2.344,1.174 -2.287,1.352 -0.008,0.004 -2.28,1.369 -2.078,1.314 -0.097,0.044 -0.085,0.067 -2.248,1.35 -1.737,1.125 -1.768,1.248 -1.654,1.241 -1.628,1.323 -1.856,1.638 -0.241,0.147 -0.136,0.165 -1.859,1.447 -1.155,1.059 -1.307,1.214 -1.253,1.445 -0.021,0.016 -0.016,0.027 -1.476,1.672 -1.177,1.669 -0.206,0.18 -0.203,0.344 -1.854,2.181 -1.757,2.307 -10e-4,0.001 -1.709,2.244 -1.75,2.626 -0.015,0.013 -0.012,0.026 -1.632,2.393 -1.648,2.749 -1.525,2.617 -1.402,2.591 -1.467,2.936 -0.006,0.008 -1.269,2.541 -1.472,3.511 -1.173,3.133 -0.833,3.442 -0.003,0.009 -0.722,2.997 -0.397,2.681 -0.314,2.834 -0.214,3.207 -0.103,2.986 0.102,2.842 0.186,2.413 0.484,2.413 0.004,0.038 0.004,0.012 0.513,2.559 0.663,2.172 1.077,3.012 0.002,0.011 0.919,2.475 0.797,1.353 0.239,0.557 0.242,0.399 0.848,2.008 0.787,1.574 1.045,1.479 0.068,0.134 0.065,0.059 1.384,2.076 0.07,0.145 0.112,0.14 1.266,2.07 0.002,0.004 1.327,2.099 1.313,1.969 0.107,0.223 0.169,0.219 1.142,1.971 0.954,1.387 1.145,1.431 1.304,1.521 0.229,0.385 0.226,0.198 1.022,1.448 1.07,1.07 0.99,0.923 1.56,1.169 0.014,0.016 0.024,0.014 2.004,1.532 0.071,0.085 0.129,0.075 1.517,1.248 0.929,0.546 1.547,0.601 1.937,0.711 1.574,0.5 1.758,0.16 v 0 l 2.101,0.174 2.131,-0.164 2.537,-0.391 2.906,-0.624 2.445,-0.635 2.012,-0.84 2.359,-1.224 2.342,-1.687 2.54,-1.988 0.095,-0.053 0.047,-0.056 2.756,-2.068 2.493,-1.951 2.202,-1.872 0.344,-0.203 0.179,-0.205 1.936,-1.383 1.766,-1.767 0.101,-0.068 0.067,-0.095 1.983,-1.866 0.115,-0.074 0.072,-0.096 1.806,-1.595 1.465,-1.464 0.134,-0.09 0.088,-0.124 1.17,-1.079 0.729,-0.862 1.083,-1.577 0.062,-0.054 0.057,-0.112 0.634,-0.864 -0.59,-0.117 -1.623,-0.155 -1.317,0.018 -0.112,0.001 h -1.333 l -0.729,0.122 -0.879,0.325 -0.07,0.013 -0.06,0.033 -1.581,0.566 -0.277,0.049 -0.264,0.125 -0.832,0.239 -0.97,0.518 -0.265,0.104 -0.183,0.118 -1.333,0.618 -1.366,0.729 -1.296,0.783 -0.038,0.017 -0.026,0.021 -1.497,0.894 -0.077,0.034 -0.061,0.047 -0.349,0.201 -0.256,0.247 -0.317,0.208 -0.194,0.245 -0.679,0.549 -0.436,0.485 -0.103,0.075 -0.803,1.316 -0.298,0.271 -0.15,0.221 -0.372,0.251 -0.685,0.62 -0.812,0.39 -0.384,0.258 -0.269,0.054 -0.387,0.186 -2.102,0.317 -2.759,-0.557 -2.253,-1.519 -1.519,-2.253 -0.557,-2.759 0.006,-0.296 0.045,-1.074 0.656,-2.721 0.005,-0.007 0.427,-0.933 0.019,-0.03 0.004,-0.014 0.556,-1.175 0.675,-1.01 0.268,-0.472 0.941,-1.164 0.239,-0.19 0.2,-0.306 0.92,-0.953 0.077,-0.053 1.411,-1.151 1.124,-0.702 0.006,-0.003 1.453,-0.923 0.035,-0.015 0.026,-0.022 1.479,-0.929 0.272,-0.124 0.242,-0.174 1.711,-0.914 0.266,-0.105 0.182,-0.118 1.333,-0.617 1.49,-0.796 1.311,-0.515 0.277,-0.131 1.409,-0.404 1.321,-0.474 0.072,-0.012 0.059,-0.032 1.587,-0.55 0.721,-0.124 0.612,-0.218 2.056,-0.344 1.341,-0.114 h 1.987 l 0.106,0.001 1.758,0.024 0.027,0.005 0.606,0.029 2.486,0.236 0.257,0.076 0.664,0.072 2.267,0.501 0.426,0.176 0.434,0.075 1.683,0.592 1.579,0.407 0.164,0.074 0.191,0.029 1.502,0.736 0.458,0.206 0.039,0.037 0.049,0.023 1.068,0.731 0.25,0.28 0.479,0.291 0.816,0.72 0.126,0.17 0.302,0.24 1.233,1.669 0.433,0.786 0.724,1.794 0.033,0.254 0.061,0.157 0.21,1.004 0.169,1.62 v 1.286 l -0.21,1.791 -0.26,1.101 -0.037,0.088 -0.015,0.105 -0.363,1.34 -0.455,0.977 -0.111,0.462 -0.736,1.437 -0.212,0.302 -0.143,0.308 -1.07,1.666 -0.122,0.113 -0.128,0.247 -1.223,1.669 -1.228,1.787 -0.223,0.199 -0.228,0.389 -1.295,1.53 -0.363,0.278 -0.284,0.396 -1.407,1.298 -1.526,1.527 -0.212,0.142 -0.139,0.187 -1.895,1.673 -1.81,1.703 -2.137,2.137 -0.617,0.416 -0.354,0.407 -2.193,1.567 -2.074,1.763 -0.163,0.096 -0.09,0.11 -2.671,2.091 -0.094,0.052 -0.048,0.057 -2.756,2.067 -2.594,2.03 -0.176,0.097 -0.087,0.101 -2.899,2.088 -0.456,0.234 -0.523,0.37 -3.113,1.615 -0.238,0.059 -0.388,0.234 -2.754,1.149 -0.482,0.098 -0.599,0.268 -3.101,0.806 -0.23,0.03 -0.144,0.058 -3.22,0.691 -0.337,0.037 -0.158,0.054 -2.994,0.462 -0.504,0.039 -0.121,0.034 -3.011,0.232 -0.619,0.024 v 0 l -0.641,-0.027 -2.833,-0.235 -0.007,-0.002 -0.022,-0.001 -2.601,-0.236 -0.597,-0.172 -1.014,-0.157 -2.625,-0.834 -0.145,-0.074 -0.128,-0.023 -2.273,-0.835 -0.046,-0.026 -0.03,-0.006 -2.156,-0.836 -0.444,-0.258 -0.619,-0.264 -2.022,-1.188 -0.597,-0.468 -0.36,-0.207 -1.883,-1.55 -1.872,-1.432 -1.832,-1.373 -0.186,-0.223 -0.331,-0.204 -1.419,-1.28 -0.114,-0.155 -0.17,-0.115 -1.636,-1.635 -0.434,-0.644 -0.415,-0.365 -1.196,-1.693 -1.154,-1.346 -0.081,-0.136 -0.094,-0.076 -1.391,-1.738 -0.176,-0.312 -0.169,-0.152 -1.269,-1.844 -0.129,-0.262 -0.208,-0.27 -1.171,-2.021 -1.241,-1.86 -0.063,-0.133 -0.058,-0.055 -1.384,-2.189 -0.031,-0.069 -0.047,-0.059 -1.219,-1.991 -1.262,-1.893 -1.312,-1.858 -0.247,-0.49 -0.368,-0.534 -1.148,-2.293 -0.048,-0.201 -0.183,-0.301 -0.739,-1.752 -0.883,-1.499 -0.341,-0.795 -0.265,-0.475 -1.15,-3.102 -0.014,-0.073 -0.035,-0.065 -1.151,-3.218 -0.037,-0.207 -0.096,-0.196 -0.803,-2.632 -0.069,-0.454 -0.131,-0.336 -0.575,-2.871 -0.004,-0.038 -0.005,-0.012 -0.576,-2.871 -0.076,-0.756 -0.059,-0.218 -0.232,-3.011 -0.013,-0.313 -0.007,-0.031 -0.116,-3.257 -0.006,-0.29 v 0 l 0.005,-0.267 0.117,-3.402 0.005,-0.021 0.007,-0.213 0.235,-3.53 0.015,-0.054 0.014,-0.261 0.354,-3.191 0.02,-0.063 0.013,-0.18 0.473,-3.198 0.078,-0.228 0.049,-0.41 0.829,-3.442 0.003,-0.009 0.933,-3.854 0.191,-0.438 0.073,-0.402 1.42,-3.792 0.091,-0.161 0.024,-0.118 1.67,-3.899 0.138,-0.223 0.033,-0.138 1.422,-2.848 0.006,-0.009 1.513,-3.029 0.059,-0.084 0.038,-0.097 1.539,-2.844 0.062,-0.084 0.037,-0.089 1.656,-2.84 0.02,-0.025 0.009,-0.021 1.772,-2.955 0.141,-0.178 0.081,-0.165 1.763,-2.588 1.831,-2.748 0.132,-0.119 0.133,-0.249 1.883,-2.472 0.002,-0.001 1.868,-2.453 0.13,-0.108 0.115,-0.195 1.762,-2.073 1.218,-1.726 0.251,-0.22 0.251,-0.412 1.736,-1.967 1.498,-1.73 0.325,-0.244 0.248,-0.347 1.631,-1.515 0.025,-0.016 0.016,-0.022 1.397,-1.28 0.306,-0.192 0.176,-0.216 1.918,-1.492 1.796,-1.584 0.157,-0.096 0.09,-0.114 1.856,-1.508 0.164,-0.094 0.086,-0.102 1.85,-1.388 0.135,-0.071 0.064,-0.074 1.963,-1.386 0.196,-0.099 0.085,-0.091 1.957,-1.267 0.131,-0.062 0.121,-0.095 2.297,-1.379 2.078,-1.314 0.097,-0.044 0.085,-0.067 2.302,-1.383 0.046,-0.02 0.033,-0.026 2.536,-1.499 0.282,-0.122 0.227,-0.156 2.496,-1.25 2.58,-1.398 2.403,-1.404 0.14,-0.06 0.11,-0.081 2.765,-1.499 0.008,-0.003 2.601,-1.454 0.265,-0.109 0.195,-0.13 2.876,-1.382 0.007,-0.001 2.247,-1.108 2.122,-1.297 0.07,-0.031 0.056,-0.044 2.312,-1.367 0.051,-0.022 0.037,-0.029 2.547,-1.479 0.022,-0.01 0.012,-0.009 2.322,-1.349 0.082,-0.034 0.062,-0.047 2.202,-1.231 0.025,-0.01 0.012,-0.01 2.053,-1.147 1.89,-1.215 0.547,-0.254 0.47,-0.297 1.958,-0.876 1.68,-0.936 1.308,-0.534 0.253,-0.12 0.148,-0.044 h 10e-4 v 0 l 1.297,-0.377 1.254,-0.698 0.472,-0.193 0.313,-0.188 2.079,-0.862 0.116,-0.024 0.127,-0.072 1.849,-0.704 1.996,-0.889 0.226,-0.048 0.294,-0.161 2.074,-0.748 0.07,-0.012 0.06,-0.033 1.838,-0.637 0.03,-0.005 0.019,-0.01 1.838,-0.638 h 10e-4 l 1.24,-0.47 0.601,-0.111 0.615,-0.231 1.999,-0.371 1.707,-0.447 0.582,-0.077 0.302,-0.097 2.093,-0.271 1.157,-0.203 0.901,-0.257 1.168,-0.416 0.688,-0.121 0.593,-0.199 0.81,-0.118 0.887,-0.204 0.197,-0.022 0.105,-0.04 0.793,-0.148 0.15,-0.014 0.062,-0.021 0.117,-0.019 0.059,-0.027 0.006,-10e-4 0.006,-0.004 2.263,-0.545 0.693,-0.03 0.07,-10e-4 0.005,-0.001 0.621,-0.02 0.721,-0.102 0.834,-0.06 0.041,0.008 0.777,-0.07 0.167,0.033 0.534,-0.038 z"
         id="path1294"
         inkscape:connector-curvature="0"
         style="fill:#000000" />
    </g>
  </g>
</svg>
