<?xml version="1.0" encoding="UTF-8" standalone="no"?>
<svg
   xmlns:dc="http://purl.org/dc/elements/1.1/"
   xmlns:cc="http://creativecommons.org/ns#"
   xmlns:rdf="http://www.w3.org/1999/02/22-rdf-syntax-ns#"
   xmlns:svg="http://www.w3.org/2000/svg"
   xmlns="http://www.w3.org/2000/svg"
   xmlns:sodipodi="http://sodipodi.sourceforge.net/DTD/sodipodi-0.dtd"
   xmlns:inkscape="http://www.inkscape.org/namespaces/inkscape"
   viewBox="0 0 51.761101 40.423499"
   width="51.761101"
   height="40.4235"
   version="1.1"
   id="svg616"
   sodipodi:docname="tunes.svg"
   inkscape:version="0.92.4 (5da689c313, 2019-01-14)">
  <metadata
     id="metadata622">
    <rdf:RDF>
      <cc:Work
         rdf:about="">
        <dc:format>image/svg+xml</dc:format>
        <dc:type
           rdf:resource="http://purl.org/dc/dcmitype/StillImage" />
        <dc:title></dc:title>
      </cc:Work>
    </rdf:RDF>
  </metadata>
  <defs
     id="defs620" />
  <sodipodi:namedview
     pagecolor="#ffffff"
     bordercolor="#666666"
     borderopacity="1"
     objecttolerance="10"
     gridtolerance="10"
     guidetolerance="10"
     inkscape:pageopacity="0"
     inkscape:pageshadow="2"
     inkscape:window-width="3840"
     inkscape:window-height="2126"
     id="namedview618"
     showgrid="false"
     inkscape:zoom="3.776"
     inkscape:cx="-12.445732"
     inkscape:cy="-24.290185"
     inkscape:window-x="-11"
     inkscape:window-y="-11"
     inkscape:window-maximized="1"
     inkscape:current-layer="svg616"
     fit-margin-top="0"
     fit-margin-left="0"
     fit-margin-right="0"
     fit-margin-bottom="0" />
  <g
     id="g438"
     transform="matrix(0.15,0,0,0.15,1.0902,-6.6561)">
    <g
       id="g416"
       transform="translate(80.25,209.9375)">
      <path
         style="fill:#000000"
         inkscape:connector-curvature="0"
         id="path414"
         d="M 1.998,-4.73 3.629,-3.629 4.73,-1.998 5.133,0 4.73,1.998 4.364,2.541 4.271,2.847 3.979,3.286 3.958,3.305 3.887,3.748 3.75,4.137 3.674,4.597 3.518,5.057 3.508,5.176 3.496,6.299 3.492,6.319 3.463,6.861 3.326,8.117 3.25,9.576 3.227,9.67 3.188,10.166 2.99,11.453 3.082,13.178 v 0.015 0.001 l 0.126,2.36 0.01,0.354 -0.004,0.217 -0.075,2.201 0.114,2.524 0.006,0.251 10e-4,0.005 0.024,2.73 v 0.061 2.869 l 0.133,3.065 0.004,0.156 0.001,0.008 0.066,3.157 0.262,3.133 v 0.005 l 0.34,3.667 0.405,3.368 0.021,0.347 0.016,0.063 0.177,2.822 0.64,2.79 0.068,0.588 0.072,0.239 0.323,3.036 0.556,2.958 0.719,2.999 v 0.002 l 0.742,2.779 0.939,2.625 0.041,0.233 0.106,0.223 0.725,2.536 0.895,2.064 1.028,2.09 1.212,2.056 0.003,0.007 1.029,1.703 1.123,1.496 1.198,1.542 1.138,1.327 0.033,0.055 0.039,0.031 0.775,0.929 0.63,0.593 0.901,0.7 0.408,0.295 0.198,0.077 0.407,0.126 0.52,-0.196 0.434,-0.082 0.135,-0.084 0.66,-0.519 0.317,-0.176 0.149,-0.163 0.771,-0.514 0.684,-0.641 0.318,-0.204 0.186,-0.227 0.744,-0.579 0.622,-0.7 0.97,-1.152 0.713,-0.916 0.736,-1.131 0.723,-1.327 0.079,-0.106 0.048,-0.112 0.731,-1.219 0.349,-0.911 0.409,-1.711 0.01,-0.023 0.003,-0.019 0.617,-2.438 0.477,-2.274 0.003,-0.006 0.529,-2.566 0.026,-0.063 0.01,-0.089 0.528,-2.249 0.461,-2.444 0.002,-0.005 0.401,-2.186 0.181,-2.348 0.027,-0.101 0.029,-0.393 0.412,-2.819 0.331,-2.725 0.228,-2.164 v -4.919 l 0.003,-0.225 0.07,-2.394 0.004,-0.017 0.006,-0.196 0.141,-2.404 0.002,-0.007 10e-4,-0.032 0.123,-1.851 V 31.76 L 35.477,30.681 35.471,30.558 35.464,30.534 35.326,28.81 35.314,28.523 35.306,28.49 35.237,26.824 35.23,26.49 v -1.046 l -0.037,-0.327 -0.144,-0.571 -0.24,-1.911 v -0.29 l -0.002,-0.017 -0.059,-0.153 -0.272,-1.352 -0.027,-0.268 -0.041,-0.119 -0.135,-0.867 -0.007,-0.094 -0.011,-0.031 -0.041,-0.283 -0.089,-0.44 -0.038,-0.382 -0.052,-0.158 -0.002,-0.019 -0.066,-0.13 -0.44,-0.82 -0.048,-0.136 -10e-4,-0.002 -0.001,-0.002 -0.189,-0.535 -0.056,-0.325 -0.145,-0.262 -0.23,-0.573 -0.212,-0.361 -0.121,-0.296 V 14.718 L 32.391,14.411 32.381,14.364 32.352,14.32 32.006,12.607 31.919,12.477 31.855,12.16 31.598,11.557 31.324,9.531 31.919,6.584 33.541,4.178 35.947,2.556 38.894,1.961 39.186,2 l 0.338,-0.068 2.896,0.544 0.098,0.061 0.101,0.02 0.724,0.489 0.394,0.242 0.453,0.215 0.239,0.212 0.403,0.249 0.298,0.267 0.228,0.311 0.539,0.479 1.028,1.656 0.158,0.215 0.013,0.06 0.04,0.065 0.207,0.471 0.013,0.065 0.041,0.061 0.135,0.665 0.037,0.085 0.023,0.112 0.073,0.125 0.078,0.191 0.155,0.339 0.01,0.045 0.031,0.044 0.704,3.097 0.013,0.482 0.004,0.236 -0.01,0.305 0.158,0.523 0.114,0.764 0.156,0.479 0.108,0.807 0.082,0.406 0.034,0.327 0.047,0.141 0.065,0.449 v 0.011 l 0.11,0.706 0.212,1.057 0.15,0.594 0.24,1.91 v 0.173 l 0.04,0.159 0.093,0.732 0.101,0.333 0.137,1.226 0.05,0.881 v 1.312 l 0.057,1.379 0.126,1.569 0.13,1.36 0.037,0.757 v 1.892 l -0.017,0.51 -0.14,2.106 -0.13,2.214 -0.063,2.153 v 5.211 l -0.042,0.802 -0.284,2.697 -0.007,0.023 -0.004,0.068 -0.354,2.911 -0.013,0.041 -0.008,0.103 -0.383,2.626 -0.191,2.486 -0.048,0.173 -0.054,0.6 -0.498,2.711 -0.003,0.007 -0.495,2.623 -0.042,0.11 -0.02,0.172 -0.572,2.435 -0.001,0.003 -0.566,2.515 -0.117,0.279 -0.05,0.319 -0.766,2.397 -0.052,0.102 -0.016,0.089 -0.906,2.532 -0.006,0.011 -0.747,2.068 -0.27,0.488 -0.066,0.277 -0.955,1.884 -0.134,0.191 -0.092,0.211 -0.985,1.643 -0.78,1.433 -0.166,0.224 -0.103,0.221 -1.068,1.639 -0.159,0.146 -0.17,0.311 -0.993,1.277 -0.087,0.072 -0.076,0.129 -1.13,1.342 -0.065,0.05 -0.051,0.084 -1.128,1.268 -0.563,0.416 -0.385,0.471 -1.003,0.781 -0.875,0.82 -0.615,0.394 -0.314,0.343 -1.034,0.69 -0.742,0.583 -0.447,0.247 -0.196,0.206 -1.092,0.683 -0.79,0.358 -0.519,0.292 -1.072,0.403 -0.618,0.114 -0.624,0.236 -0.508,0.096 -0.492,0.185 -2.561,0.472 v 0 H 20.113 L 18.378,96.851 17.207,96.559 17.042,96.486 16.858,96.458 15.686,96.094 15.465,95.982 15.277,95.947 13.968,95.44 13.124,94.949 12.421,94.589 11.139,93.663 11.077,93.591 10.956,93.525 9.679,92.532 9.494,92.306 9.183,92.107 7.988,90.982 7.724,90.608 7.399,90.356 6.373,89.124 5.159,87.708 5.005,87.449 4.841,87.31 3.541,85.562 3.296,85.097 3.108,84.91 1.973,82.986 1.822,82.635 1.644,82.362 0.655,80.248 0.653,80.238 0.65,80.235 -0.483,77.84 -0.523,77.663 -0.667,77.417 -1.673,74.899 V 74.898 L -2.721,72.479 -2.798,72.11 -3.028,71.625 -3.817,68.869 -4.774,66.194 -4.825,65.903 -4.951,65.625 -5.782,62.518 -5.799,62.388 -5.835,62.304 -6.596,59.126 -6.624,58.891 -6.674,58.76 -7.298,55.438 -7.338,55.019 -7.381,54.874 -7.69,51.973 -8.363,49.043 -8.464,48.172 -8.527,47.928 -8.726,44.751 -9.12,41.47 -9.13,41.3 -9.142,41.259 -9.49,37.501 -9.494,37.428 -9.498,37.413 -9.776,34.074 -9.794,33.661 -9.8,33.636 l -0.068,-3.29 -0.137,-3.133 -0.006,-0.303 v -3.013 -0.058 l 0.024,-2.736 10e-4,-0.006 0.005,-0.232 0.127,-2.812 0.019,-0.079 0.035,-0.5 0.299,-2.178 0.112,-2.118 v -0.001 l 0.126,-2.375 0.091,-0.36 0.145,-1.013 0.481,-1.651 0.291,-1.387 0.072,-0.179 0.033,-0.228 0.333,-1.138 0.219,-1.089 0.137,-0.346 0.062,-0.363 0.342,-0.978 0.408,-0.751 0.068,-0.243 0.393,-0.647 0.253,-0.604 0.002,-0.003 0.302,-0.722 0.182,-0.219 0.081,-0.306 0.284,-0.498 v 0 -10e-4 l 0.01,-0.017 0.561,-0.564 0.044,-0.045 0.21,-0.315 0.296,-0.27 0.334,-0.494 0.812,-0.548 0.368,-0.335 0.206,-0.052 L -1.998,-4.73 0,-5.133 Z"
         fill-mode="evenodd" />
    </g>
    <g
       id="g420"
       transform="translate(141.125,51.875)">
      <path
         style="fill:#000000"
         inkscape:connector-curvature="0"
         id="path418"
         d="m 1.64,-7.144 0.077,0.046 0.077,0.016 0.483,0.325 0.973,0.593 0.108,0.136 0.129,0.088 0.345,0.511 0.584,0.737 0.078,0.244 0.135,0.202 0.124,0.614 0.253,0.794 0.108,0.852 0.047,0.725 -0.018,0.449 -0.048,0.587 0.078,0.699 0.037,0.647 v 0.936 l 0.082,0.896 0.29,1.235 0.088,0.748 0.059,0.223 0.118,1.788 0.16,1.591 0.35,1.855 0.057,0.599 0.04,0.151 0.141,2.048 0.426,2.365 0.022,0.249 0.03,0.093 0.345,2.686 0.472,3.093 0.032,0.413 0.026,0.095 0.233,3.178 0.444,3.34 0.009,0.137 0.012,0.038 0.403,3.671 v 0.008 l 0.468,3.906 0.047,0.769 0.003,0.014 0.023,4.329 0.135,4.31 0.274,4.653 0.004,0.12 0.003,0.013 0.209,5.031 v 0.004 l 0.246,5.285 v 0.008 0 l 0.262,5.514 0.004,0.179 0.002,0.01 0.125,5.594 0.262,5.784 0.007,0.308 0.001,0.003 0.023,6.21 0.069,5.953 0.275,6.246 0.007,0.329 v 6.051 l 0.437,6.09 0.002,0.066 0.003,0.009 0.385,5.954 0.852,6.041 0.019,0.272 0.022,0.076 0.61,6.155 0.707,5.735 10e-4,0.006 0.755,5.49 0.013,0.176 0.015,0.051 0.628,5.571 0.001,0.022 10e-4,0.003 0.615,5.394 0.809,5.182 0.006,0.084 0.01,0.028 0.755,5.146 0.875,4.77 0.001,0.011 0.96,4.86 0.021,0.213 0.033,0.095 0.764,4.711 0.808,4.303 10e-4,0.014 0.896,4.541 0.007,0.069 0.01,0.028 0.833,4.366 0.013,0.129 0.02,0.055 0.764,4.439 0.013,0.15 0.02,0.058 0.625,4.162 v 0.004 l 0.677,3.983 0.006,0.082 0.011,0.029 0.624,3.88 0.027,0.326 0.031,0.103 0.415,3.794 0.471,3.563 0.001,0.018 10e-4,0.002 0.486,3.604 0.02,0.283 0.02,0.073 0.316,3.407 0.514,2.636 0.038,0.39 0.05,0.155 0.397,3.098 0.001,0.013 0.383,2.892 0.432,2.392 0.044,0.485 0.048,0.161 0.229,2.185 0.262,2.091 v 0.009 l 0.266,1.918 0.052,0.735 0.023,0.098 0.038,0.948 0.222,0.921 0.237,1.961 v 0.968 l 0.042,0.261 0.287,1.051 0.182,1.328 0.107,0.424 0.055,0.98 0.101,0.802 0.067,1.054 v 1.204 l 0.14,1.249 v 0.56 l -0.641,3.178 -1.75,2.595 -2.595,1.75 -3.178,0.641 -3.178,-0.641 -2.595,-1.75 -1.75,-2.595 -0.349,-1.728 -0.098,-0.239 -0.129,-0.576 -0.205,-1.826 v -1.311 l -0.073,-0.579 -0.033,-0.514 -0.022,-0.087 -0.022,-0.394 -0.18,-0.656 -0.079,-0.583 -0.122,-0.349 -0.204,-1.285 -0.106,-1.32 v -0.642 l -0.184,-0.761 -0.164,-1.354 -0.066,-0.281 -0.055,-1.354 -0.221,-1.597 -0.008,-0.113 -0.01,-0.033 -0.276,-2.202 -0.02,-0.306 -0.019,-0.071 -0.185,-2.214 -0.001,-0.022 -10e-4,-0.002 -0.222,-2.644 -0.011,-0.266 -0.009,-0.035 -0.153,-3.071 -0.001,-0.016 v -0.002 l -0.144,-2.875 -0.345,-2.773 -0.014,-0.222 -0.016,-0.055 -0.337,-3.636 -0.464,-3.436 -0.003,-0.047 -0.004,-0.012 -0.486,-3.675 -0.011,-0.165 -0.014,-0.047 -0.401,-3.671 -0.592,-3.678 -10e-4,-0.013 -0.689,-4.056 -0.012,-0.138 -0.018,-0.051 -0.625,-4.162 v -0.002 L 8.297,191.537 8.296,191.53 7.481,187.26 7.48,187.246 6.58,182.683 6.572,182.6 l -0.014,-0.035 -0.833,-4.437 -0.016,-0.166 -0.024,-0.07 -0.756,-4.665 -0.942,-4.769 -0.01,-0.105 -0.018,-0.046 -0.903,-4.928 -0.021,-0.225 -0.031,-0.091 -0.765,-5.213 -10e-4,-0.013 -0.829,-5.314 -0.022,-0.27 -0.026,-0.086 -0.628,-5.5 -0.002,-0.039 -0.002,-0.008 -0.624,-5.538 -0.75,-5.447 -0.011,-0.161 -0.015,-0.048 -0.673,-5.853 -0.024,-0.396 -0.017,-0.068 -0.356,-6.09 -0.626,-6.195 -0.028,-0.545 -0.009,-0.042 -0.157,-6.197 -0.242,-6.317 -0.005,-0.287 v -6.15 l -0.273,-6.204 -0.006,-0.241 -10e-4,-0.007 -0.07,-6.092 -10e-4,-0.087 v -0.027 l 0.024,-6.215 -0.014,-5.864 v -0.018 l 0.002,-0.155 0.124,-5.588 -0.017,-5.437 -0.033,-5.199 -0.203,-4.877 -0.276,-4.684 -0.005,-0.186 -0.004,-0.015 -0.14,-4.475 -0.003,-0.218 V 41.661 L -3.682,37.45 -3.894,33.668 -3.897,33.567 -3.899,33.556 -4.05,29.904 -4.273,26.415 -4.284,26.071 -4.286,26.061 -4.315,23.131 -4.736,20.37 -4.746,20.237 -4.761,20.193 -5.093,17.602 -5.549,15.069 -5.612,14.374 -5.644,14.245 -5.758,11.923 -5.906,9.833 -5.922,9.391 -5.919,9.219 -5.863,7.251 -5.859,7.235 -5.853,7.043 -5.76,5.635 -5.881,4.442 -5.884,4.378 -5.888,4.364 -6.026,2.845 -6.051,2.313 V 1.434 l -0.103,-0.926 -0.037,-0.648 0.079,-0.942 0.194,-1.146 0.32,-0.88 0.105,-0.482 0.384,-0.839 0.184,-0.211 0.877,-1.3 0.622,-0.419 0.249,-0.286 0.311,-0.092 0.512,-0.345 2.074,-0.419 z"
         fill-mode="evenodd" />
    </g>
    <g
       id="g424"
       transform="translate(146.125,116.1875)">
      <path
         style="fill:#000000"
         inkscape:connector-curvature="0"
         id="path422"
         d="m 31.648,-53.822 1.094,0.218 0.355,0.14 0.4,0.065 0.888,0.294 0.269,0.141 0.201,0.041 1.024,0.437 0.147,0.092 0.094,0.021 0.997,0.483 0.363,0.246 0.365,0.173 0.933,0.614 0.002,0.002 1.108,0.726 0.335,0.365 0.643,0.419 0.931,0.892 0.527,0.756 0.458,0.416 0.774,1.153 0.292,0.604 0.344,0.555 0.683,1.566 10e-4,0.005 0.712,1.55 0.002,0.01 0.002,0.002 0.892,1.919 0.124,0.552 0.384,0.928 0.391,1.726 0.593,1.613 0.075,0.414 0.177,0.412 0.55,2.263 0.002,0.012 0.604,2.344 0.021,0.161 0.041,0.099 0.563,2.491 0.681,2.452 0.025,0.178 0.052,0.122 0.672,2.792 0.021,0.17 0.039,0.097 0.675,3.218 0.02,0.189 0.034,0.091 0.577,3.243 0.026,0.292 0.035,0.109 0.486,3.745 0.019,0.285 0.02,0.069 0.329,3.746 0.585,3.765 0.047,0.59 0.033,0.127 0.266,4.06 0.53,4.297 0.015,0.234 0.016,0.057 0.417,4.659 0.478,4.502 0.003,0.039 0.002,0.007 0.487,4.662 0.012,0.217 0.011,0.042 0.333,4.451 0.59,4.192 0.013,0.174 0.016,0.052 0.557,4.799 0.008,0.142 0.01,0.035 0.488,5.014 0.002,0.036 0.002,0.006 0.488,5.084 0.001,0.011 0.486,4.862 0.011,0.203 0.01,0.039 0.342,4.716 0.473,4.456 0.001,0.007 0.55,4.668 0.007,0.118 0.008,0.03 0.488,4.732 0.012,0.221 0.011,0.043 0.337,4.642 0.601,4.804 0.011,0.171 0.013,0.045 0.488,4.802 0.011,0.219 0.011,0.041 0.349,4.879 0.401,4.742 0.569,4.396 0.014,0.212 0.017,0.056 0.469,4.719 0.001,0.004 0.532,4.696 0.596,4.454 0.051,0.744 0.02,0.088 0.163,4.589 0.202,4.367 0.337,4.172 0.005,0.13 0.006,0.021 0.278,4.25 0.001,0.009 0.274,3.904 0.339,3.723 0.02,0.425 0.01,0.045 0.137,3.684 0.202,3.233 0.006,0.175 0.004,0.018 0.14,3.347 0.008,0.357 v 3.024 l 0.129,2.656 10e-4,0.018 v 0.001 l 0.139,2.854 0.011,0.417 v 2.693 l 0.067,2.471 0.003,0.232 v 2.408 l 0.123,1.964 0.003,0.106 0.004,0.013 0.09,1.774 0.215,1.653 v 0.004 l 0.244,1.654 0.042,0.548 0.033,0.124 0.124,1.714 0.024,0.652 -0.024,0.651 -0.119,1.573 -0.011,0.043 -0.01,0.183 -0.092,0.883 v 1.923 l -0.047,0.902 -0.098,0.939 -0.237,0.786 0.008,0.036 -0.68,3.366 -1.853,2.748 -2.748,1.853 -3.365,0.679 -3.366,-0.679 -2.748,-1.853 -1.853,-2.748 -0.68,-3.366 0.371,-1.837 -0.044,-0.826 v -2.383 l 0.048,-0.907 0.143,-1.37 10e-4,-0.004 0.146,-1.378 0.09,-1.245 -0.011,-1.476 v -0.001 l -0.018,-2.022 v -0.076 l 0.011,-0.42 0.083,-1.635 -0.11,-1.757 -0.017,-0.533 v -2.553 l -0.067,-2.471 -0.003,-0.232 v -2.604 l -0.13,-2.655 -10e-4,-0.018 v -0.001 l -0.139,-2.854 -0.011,-0.418 v -3.053 l -0.13,-3.115 -0.203,-3.249 -0.007,-0.211 -0.005,-0.021 -0.132,-3.566 -0.328,-3.603 -0.008,-0.17 -0.008,-0.03 -0.279,-3.968 -0.002,-0.056 -0.002,-0.008 -0.277,-4.232 -0.342,-4.236 -0.012,-0.275 -0.008,-0.034 -0.21,-4.537 -0.004,-0.178 -0.002,-0.011 -0.111,-4.409 -0.346,-4.39 -0.006,-0.148 -0.006,-0.023 -0.293,-4.82 -0.004,-0.112 -0.003,-0.013 -0.222,-4.639 -0.37,-4.467 -10e-4,-0.015 v -0.001 l -0.419,-4.947 -0.005,-0.109 -0.005,-0.019 -0.343,-4.801 -0.472,-4.646 -0.613,-4.897 -0.023,-0.36 -0.02,-0.075 -0.343,-4.729 -0.475,-4.607 V 65.847 L 45.237,61.199 45.231,61.1 45.223,61.075 44.736,56.484 44.723,56.243 44.71,56.196 44.366,51.454 43.89,46.696 43.887,46.643 43.884,46.633 43.396,41.549 43.395,41.529 V 41.527 L 42.908,36.525 42.365,31.853 41.756,27.527 41.725,27.089 41.698,26.99 41.355,22.397 40.88,17.859 40.879,17.839 v -0.002 l -0.488,-4.591 -0.007,-0.13 -0.008,-0.029 -0.411,-4.581 -0.54,-4.379 -0.024,-0.396 -0.02,-0.076 -0.259,-3.939 -0.573,-3.684 -0.034,-0.433 -0.033,-0.116 -0.337,-3.845 -0.457,-3.516 -0.507,-3.108 -0.017,-0.205 -0.024,-0.072 -0.431,-3.271 v -0.002 l -0.406,-2.692 -0.476,-2.563 -0.022,-0.238 -0.033,-0.096 -0.33,-2.297 -0.522,-2.021 -0.011,-0.091 -0.024,-0.055 -0.468,-1.925 -0.611,-1.663 -0.085,-0.471 -0.193,-0.465 -0.324,-1.43 -0.569,-1.225 -0.009,-0.036 -0.025,-0.039 -0.752,-1.638 -0.017,-0.078 -0.059,-0.094 -0.493,-1.132 -0.375,-0.601 -0.237,-0.338 -0.482,-0.466 -0.075,-0.108 -0.107,-0.075 -0.101,-0.106 -0.084,0.018 -0.033,0.004 -0.011,0.004 -0.624,0.135 -0.446,0.149 -0.206,0.089 -0.295,0.318 -0.22,0.157 -0.156,0.216 -0.836,0.766 -0.124,0.078 -0.075,0.098 -1.128,0.955 v 10e-4 l -0.964,0.82 -0.65,0.671 -0.955,1.113 -0.039,0.03 -0.031,0.05 -0.924,1.038 -0.781,1.004 -0.796,1.114 -0.702,1.23 -0.126,0.128 -0.159,0.318 -0.994,1.42 -0.004,0.004 -0.003,0.005 -1.036,1.463 -0.721,1.238 -0.747,1.559 -0.219,0.245 -0.465,0.845 -0.9,1.151 -0.63,1.059 -0.833,1.534 -0.09,0.093 -0.113,0.246 -0.961,1.496 -0.082,0.076 -0.086,0.167 -0.744,1.026 -0.623,1.246 -0.065,0.071 -0.025,0.096 -0.755,1.368 -0.013,0.013 -0.004,0.015 -0.894,1.574 -0.122,0.123 -0.042,0.142 -0.796,1.21 -0.744,1.294 -0.64,1.148 -0.002,0.002 -0.643,1.149 -0.645,1.223 -0.149,0.158 -0.056,0.186 -0.497,0.76 -0.271,0.502 -0.266,0.632 -0.155,0.438 -0.014,0.078 v 0.027 l 0.011,0.043 10e-4,0.004 0.094,0.348 0.149,1.096 -0.049,0.3 0.041,0.173 L 3.849,0 3.547,1.498 2.722,2.722 1.498,3.547 0,3.849 -2.063,3.251 -3.467,1.672 -3.907,0.762 -3.978,0.453 -4.103,0.284 -4.198,0.003 -4.307,-0.268 -4.384,-0.664 -4.487,-0.823 -4.621,-1.355 -4.75,-2.383 v -0.911 l 0.066,-0.737 0.116,-0.641 0.09,-0.798 0.014,-0.046 0.01,-0.125 0.163,-1.025 0.04,-0.115 0.024,-0.198 0.234,-0.972 0.098,-0.226 0.039,-0.218 0.35,-0.967 0.416,-1.298 0.01,-0.014 0.003,-0.023 0.452,-1.336 0.002,-0.003 0.439,-1.3 0.039,-0.052 0.018,-0.101 0.595,-1.552 0.068,-0.086 0.032,-0.148 0.611,-1.356 0.576,-1.465 0.482,-1.364 v 0 l 0.553,-1.645 0.268,-0.505 0.064,-0.26 0.733,-1.406 0.581,-1.278 0.593,-1.572 0.039,-0.07 0.01,-0.05 0.669,-1.631 0.452,-0.747 0.278,-0.53 0.751,-1.013 0.604,-1.259 0.154,-0.173 0.061,-0.228 0.997,-1.71 0.125,-0.125 0.153,-0.302 1.204,-1.701 v 0 l 0.788,-1.127 0.716,-1.254 0.141,-0.141 0.178,-0.352 1.064,-1.49 0.071,-0.062 0.066,-0.121 0.857,-1.101 0.725,-1.075 0.83,-1.322 0.051,-0.048 0.052,-0.107 0.82,-1.214 0.206,-0.185 0.216,-0.366 1.032,-1.212 0.335,-0.256 0.259,-0.355 1.093,-0.987 0.621,-0.569 0.733,-0.789 0.896,-0.641 0.448,-0.469 1.094,-0.685 0.52,-0.235 0.412,-0.254 0.938,-0.404 0.249,-0.051 0.31,-0.162 1.005,-0.336 0.409,-0.068 0.347,-0.14 0.937,-0.202 0.033,-0.003 0.011,-0.005 0.937,-0.202 0.342,-0.037 0.155,-0.052 0.945,-0.136 0.976,-0.071 z"
         fill-mode="evenodd" />
    </g>
    <g
       id="g428"
       transform="translate(255.75,78.0625)">
      <path
         style="fill:#000000"
         inkscape:connector-curvature="0"
         id="path426"
         d="m 2.278,-5.921 1.632,1.1 1.1,1.632 0.403,1.998 -0.164,0.93 0.022,0.203 L 5.32,0.115 5.415,1.251 5.576,2.546 5.624,3.294 5.601,3.806 5.475,5.237 5.589,6.822 5.606,7.288 5.603,7.481 5.528,9.927 5.514,12.646 5.501,15.868 5.5,15.869 5.499,15.993 5.416,19.505 5.403,23.18 l 0.123,4.29 0.001,0.027 v 0.001 l 0.126,4.823 0.003,0.196 v 0.018 l -0.014,5 0.257,5.256 0.005,0.202 0.003,0.011 0.126,5.665 v 0.018 0 l 0.127,6.016 10e-4,0.137 v 10e-4 l 0.026,6.375 v 0.033 33.497 l -0.002,0.155 -0.14,6.946 v 0 l -0.139,6.528 -0.033,6.403 0.052,6.532 0.001,0.066 -0.003,0.191 -0.152,6.294 -0.013,5.939 v 10e-4 l -0.004,0.231 -0.187,6.041 -0.003,0.012 -0.003,0.14 -0.282,5.487 -0.01,0.04 -0.012,0.26 -0.478,5.27 -0.273,4.844 -0.004,0.015 -0.003,0.086 -0.352,4.932 v 0.003 l -0.001,0.005 -0.35,4.628 -0.276,4.154 -0.005,0.017 -0.003,0.081 -0.353,4.305 -0.004,0.015 -0.002,0.055 -0.345,3.657 -0.274,3.705 -10e-4,0.002 -0.262,3.416 -0.065,3.138 -0.008,0.033 -0.021,0.496 -0.266,3.061 -0.133,2.989 -0.006,0.025 -0.007,0.19 -0.188,2.58 v 2.431 l -0.011,0.429 -0.142,2.684 v 10e-4 l -0.128,2.366 v 4.121 l -0.022,0.603 -0.142,1.92 -0.022,0.081 -0.022,0.344 -0.175,1.347 0.51,-0.142 0.819,-0.32 0.076,-0.015 0.071,-0.04 1.066,-0.402 0.587,-0.108 0.601,-0.244 0.774,-0.169 0.572,-0.258 0.654,-0.142 1.013,-0.412 1.125,-0.246 0.869,-0.305 1.259,-0.218 0.844,-0.232 1.376,-0.111 0.637,-0.111 0.834,-0.279 1.101,-0.182 0.726,-0.214 1.239,-0.124 1.158,-0.166 1.319,-0.241 0.121,-0.012 0.048,-0.017 1.213,-0.203 1.023,-0.087 1.529,-2.268 2.376,-1.602 2.91,-0.588 2.308,0.363 0.344,0.173 0.258,0.052 0.443,0.299 0.946,0.474 0.313,0.219 0.301,0.126 0.674,0.517 0.515,0.33 0.176,0.201 0.243,0.186 0.593,0.765 0.463,0.527 0.083,0.177 0.128,0.165 0.29,0.493 0.055,0.13 0.065,0.081 0.112,0.333 0.608,1.423 0.089,0.662 0.126,0.377 0.065,0.446 0.087,1.199 -0.082,1.154 -0.075,0.535 -0.059,0.175 -0.293,1.767 -0.154,0.287 -0.048,0.241 -0.386,0.571 -0.634,1.187 -0.469,0.449 -0.261,0.388 -0.485,0.327 -0.641,0.614 -0.901,0.425 -0.568,0.384 -0.275,0.055 -0.399,0.181 -0.377,0.254 -0.332,0.067 -0.538,0.244 -1.283,0.184 -0.521,0.218 -0.533,0.124 -0.415,0.14 -0.503,0.082 -0.426,0.172 -0.54,0.117 -0.774,0.259 -2.639,0.436 v 0 h -0.442 l -0.55,0.093 h -0.01 l -1.411,0.258 -0.255,0.024 -0.102,0.034 -1.427,0.205 -0.302,0.022 -0.085,0.024 -0.491,0.05 -0.555,0.186 -0.686,0.113 -0.554,0.202 -1.563,0.273 -0.628,0.056 -0.169,0.046 -0.696,0.056 -0.355,0.125 -0.532,0.092 -0.487,0.197 -0.775,0.17 -0.572,0.258 -0.653,0.142 -1.014,0.412 -1.033,0.225 -0.512,0.193 -0.01,0.002 -1.159,0.453 -0.397,0.075 -0.432,0.201 -0.925,0.259 -0.721,0.271 -0.091,0.017 -0.085,0.047 -0.925,0.332 -0.012,0.002 v 0 l -0.329,0.12 -0.235,0.119 -0.25,0.06 -0.27,0.182 -2.444,0.493 -0.044,0.017 -0.414,0.075 -0.276,0.056 h -0.027 l -0.004,0.001 -1.511,0.139 h -0.49 l -1.461,-0.131 -0.745,-0.135 -1.208,-0.161 -0.692,-0.287 -0.334,-0.067 -0.13,-0.088 -0.572,-0.099 -0.534,-0.299 -0.491,-0.151 -0.568,-0.442 -0.076,-0.043 -0.321,-0.144 -0.444,-0.16 -0.101,-0.084 -0.154,-0.069 -1.694,-1.411 -0.096,-0.14 -0.103,-0.085 -0.262,-0.446 -0.82,-1.192 -0.031,-0.061 -0.439,-0.523 -0.059,-0.25 -0.182,-0.27 -0.642,-3.178 v -0.56 l -0.14,-0.982 v -1.933 l -0.094,-0.375 -0.256,-2.036 v -1.122 l 0.033,-0.739 0.143,-1.574 0.018,-0.063 0.014,-0.221 0.182,-1.398 0.1,-1.356 v -4.039 l 0.012,-0.441 0.141,-2.614 v -0.001 l 0.127,-2.418 v -2.515 l 0.022,-0.596 0.202,-2.768 0.135,-3.043 0.01,-0.039 0.012,-0.288 0.258,-2.962 0.064,-3.097 0.006,-0.027 0.016,-0.421 0.282,-3.672 10e-4,-0.001 0.278,-3.759 0.007,-0.026 0.005,-0.111 0.349,-3.705 0.34,-4.148 0.275,-4.142 0.003,-0.009 10e-4,-0.039 0.352,-4.654 h 0.001 l 0.342,-4.802 0.277,-4.915 0.01,-0.038 0.01,-0.22 0.476,-5.248 0.27,-5.257 0.231,-5.976 10e-4,-0.003 10e-4,-0.026 0.267,-6.038 0.004,-0.016 0.004,-0.123 0.398,-6.241 0.188,-6.452 10e-4,-0.004 0.001,-0.051 0.245,-6.456 0.138,-6.526 v 0 L -9.13,94.668 V 61.249 61.218 l 0.025,-6.379 0.001,-10e-4 10e-4,-0.126 0.127,-6.033 v 0 -0.001 l 0.124,-5.584 -0.014,-5.372 v -0.02 l 0.01,-0.372 0.262,-5.096 0.124,-4.745 v -0.001 -0.007 l 0.127,-4.422 0.005,-0.021 0.008,-0.247 0.268,-3.867 0.006,-0.025 0.006,-0.121 0.336,-3.56 0.261,-3.164 0.004,-0.012 0.002,-0.044 0.268,-2.817 0.015,-0.054 0.012,-0.176 0.315,-2.317 0.136,-1.903 0.184,-0.683 0.167,-0.946 0.529,-1.453 0.238,-1.075 0.082,-0.198 0.035,-0.23 0.3,-0.956 0.153,-0.719 0.133,-0.325 0.056,-0.321 0.292,-0.806 0.055,-0.072 0.028,-0.136 0.301,-0.447 0.24,-0.493 0.304,-0.314 0.255,-0.378 0.318,-0.214 0.235,-0.244 0.057,-0.03 0.059,-0.076 0.652,-0.327 0.31,-0.209 0.18,-0.036 0.238,-0.119 1.58,-0.248 z"
         fill-mode="evenodd" />
    </g>
    <g
       id="g432"
       transform="translate(257.375,200.8125)">
      <path
         style="fill:#000000"
         inkscape:connector-curvature="0"
         id="path430"
         d="m 28.687,-13.9 2.595,1.75 1.749,2.595 0.642,3.178 v 0.631 l -0.642,3.177 -0.139,0.207 -0.046,0.2 -0.559,0.698 -1.005,1.491 -0.404,0.272 -0.051,0.084 -0.061,0.05 L 30.609,0.629 30.274,0.897 30.008,1.046 29.914,1.123 29.407,1.677 29.225,1.799 28.862,1.973 28.617,2.171 28.062,2.357 27.091,2.823 26.582,2.9 26.396,2.963 26.111,3.01 25.822,3.107 25.376,3.171 25.155,3.187 25.076,3.21 24.494,3.294 24.304,3.398 23.59,3.66 23.013,3.763 22.454,3.988 21.527,4.189 21.107,4.234 20.917,4.298 19.98,4.433 19.944,4.435 19.936,4.438 18.999,4.573 18.907,4.58 18.879,4.589 17.87,4.724 17.859,4.725 17.745,4.741 17.589,4.797 16.614,4.969 15.799,5.228 15.409,5.277 15.037,5.394 14.139,5.534 13.557,5.718 12.588,5.84 11.552,6.014 10.161,6.132 H 10.019 L 8.308,6.354 8.159,6.386 7.043,6.4 6.152,6.413 6.027,6.414 5.573,6.401 5.454,6.394 4.562,6.483 4.441,6.51 3.816,6.524 3.644,6.525 2.485,6.43 2.447,6.433 2.101,6.45 2.059,6.46 1.432,6.488 1.121,6.495 0.619,6.476 0.055,6.435 -0.116,6.389 -0.702,6.332 -1.256,6.225 -1.948,5.956 -2.471,5.85 -2.814,5.619 -3.277,5.439 -3.982,4.832 -4.49,4.49 -4.643,4.263 -4.892,4.048 -5.501,2.989 -5.85,2.471 -5.878,2.335 -5.962,2.189 -6.349,0 l 0.499,-2.471 0.1,-0.149 0.033,-0.146 0.437,-0.551 0.79,-1.173 0.297,-0.2 0.042,-0.052 0.023,-0.035 0.021,-0.022 0.102,-0.128 0.129,-0.105 0.125,-0.126 0.446,-0.453 0.92,-0.628 0.43,-0.445 0.522,-0.32 0.063,-0.028 0.022,-0.023 0.39,-0.235 0.093,-0.041 0.06,-0.05 0.294,-0.105 1.361,-0.595 0.316,-0.043 0.097,-0.054 1.796,-0.726 0.275,-0.036 0.169,-0.066 0.609,-0.125 0.476,-0.143 0.271,-0.04 0.202,-0.087 0.838,-0.203 0.644,-0.203 2.497,-0.389 h 0.442 l 0.55,-0.093 0.28,-0.024 0.098,-0.031 0.391,-0.049 0.371,-0.117 0.899,-0.139 0.582,-0.185 0.224,-0.028 0.088,-0.032 0.882,-0.155 0.766,-0.257 0.937,-0.135 0.092,-0.006 0.028,-0.009 1.008,-0.136 0.012,-10e-4 0.892,-0.128 0.036,-0.003 0.009,-0.002 0.704,-0.102 0.045,-0.009 0.33,-0.135 0.261,-0.176 0.339,-0.068 0.734,-0.299 0.294,-0.039 1.997,-1.346 3.178,-0.641 z"
         fill-mode="evenodd" />
    </g>
    <g
       id="g436"
       transform="translate(258.125,80.5625)">
      <path
         style="fill:#000000"
         inkscape:connector-curvature="0"
         id="path434"
         d="m 26.399,-13.383 2.271,1.532 1.532,2.271 0.562,2.782 v 0 l -0.562,2.782 -0.23,0.342 -0.073,0.286 -0.46,0.504 -0.769,1.14 -0.711,0.48 -0.378,0.413 -0.185,0.124 -0.251,0.121 -0.174,0.145 -0.432,0.154 -0.14,0.095 -0.13,0.026 -0.741,0.355 -0.559,0.085 -0.051,0.018 -0.098,0.06 -0.444,0.193 -0.042,0.008 -0.038,0.026 -0.323,0.065 -0.084,0.035 -0.265,0.035 -2.11,0.426 H 11.765 L 11.744,1.125 11.054,1.323 10.952,1.338 10.882,1.37 10.33,1.518 9.869,1.716 9.527,1.787 9.09,2.002 8.145,2.291 7.809,2.342 7.555,2.446 6.495,2.681 6.485,2.682 5.692,2.87 5.102,3.049 5.071,3.054 5.054,3.062 4.927,3.101 4.781,3.169 4.686,3.262 4.488,3.374 4.455,3.399 4.213,3.652 3.987,3.987 3.719,4.167 3.409,4.491 2.589,4.929 2.195,5.195 2.028,5.229 1.83,5.335 0,5.638 -2.195,5.195 -3.987,3.987 -5.195,2.195 -5.638,0 l 0.217,-1.549 0.15,-0.53 0.162,-0.34 0.054,-0.266 0.253,-0.375 0.305,-0.64 0.424,-0.442 0.226,-0.336 0.259,-0.258 0.235,-0.426 0.4,-0.512 0.054,-0.043 0.044,-0.077 0.542,-0.651 0.257,-0.2 0.208,-0.298 0.508,-0.486 0.43,-0.48 0.396,-0.29 0.281,-0.363 0.808,-0.676 0.146,-0.085 0.078,-0.095 0.881,-0.678 0.586,-0.319 1.059,-0.634 0.916,-0.378 0.007,-0.002 0.88,-0.378 0.441,-0.092 0.578,-0.263 1.001,-0.268 0.009,-0.002 0.85,-0.244 0.304,-0.043 0.213,-0.086 0.933,-0.202 1.545,-0.167 v 0 h 9.036 l 0.573,-0.239 0.561,-0.075 0.126,-0.042 0.197,-0.095 2.122,-0.32 z"
         fill-mode="evenodd" />
    </g>
  </g>
  <g
     id="g442"
     transform="matrix(0.15,0,0,0.15,51.20895,25.584525)">
    <path
       style="fill:#000000"
       inkscape:connector-curvature="0"
       id="path440"
       d="m -8.646,-8.039 0.661,0.041 0.592,-0.01 h 0.105 l 1.75,0.255 0.477,0.142 0.439,0.066 0.232,0.081 0.375,0.049 0.777,0.208 1.12,0.516 0.264,0.072 0.72,0.424 0.045,0.046 0.054,0.016 0.589,0.367 0.077,0.082 0.174,0.088 0.276,0.197 0.308,0.176 0.307,0.306 0.72,0.494 0.309,0.316 0.288,0.435 0.248,0.227 0.271,0.405 0.028,0.094 0.082,0.079 0.147,0.242 0.209,0.304 0.074,0.235 0.309,0.458 0.3,1.488 -0.3,1.487 L 2.562,2.562 1.347,3.381 -0.14,3.681 -0.411,3.672 -0.572,3.66 -0.606,3.664 -1.022,3.685 -1.132,3.719 -1.481,3.773 -1.738,3.869 -2.289,3.972 -2.384,3.981 -2.423,3.995 -3.05,4.1 -3.994,4.18 -4.91,4.104 -4.973,4.094 -5.443,4.166 -6.377,4.238 -6.468,4.237 -6.524,4.236 l -0.27,0.11 -0.729,0.161 -0.352,0.098 -0.491,0.21 -0.668,0.138 -0.935,0.326 -0.725,0.116 -0.562,0.259 -0.447,0.232 -0.049,0.016 -0.255,0.165 -0.038,0.017 -0.014,0.015 -0.155,0.099 -0.255,0.254 -0.271,0.183 -0.174,0.224 -0.226,0.188 -0.4,1.024 -0.297,0.507 -0.289,0.635 -0.379,0.6 -0.275,0.622 -0.282,0.445 -0.225,0.487 -0.422,0.657 -0.059,0.119 -0.157,0.505 -0.321,1.16 -0.231,0.491 -0.074,0.362 -0.126,0.295 -0.073,0.369 -0.031,0.076 -0.013,0.113 -0.09,0.385 v 3.126 l 0.02,0.12 0.491,1.153 0.004,0.026 0.004,0.009 0.023,0.083 0.075,0.149 0.351,0.65 0.059,0.048 1.131,1.555 0.037,0.068 0.356,0.49 0.523,0.477 0.596,0.894 0.42,0.559 0.196,0.241 0.386,0.35 0.799,1.1 0.518,0.508 0.26,0.432 0.276,0.301 0.45,0.716 0.347,0.332 0.684,1.092 0.09,0.198 0.129,0.175 0.358,0.651 0.184,0.2 0.003,0.004 0.004,0.004 1.123,1.632 0.484,0.965 0.498,0.796 0.03,0.066 0.025,0.025 0.753,1.23 0.136,0.305 0.176,0.257 0.36,0.718 0.59,0.963 0.404,0.911 0.261,0.487 0.408,1.159 0.357,0.814 0.01,0.047 0.03,0.048 0.402,0.935 0.026,0.125 0.084,0.146 0.474,1.213 0.145,0.764 0.279,0.816 0.127,0.844 0.236,0.745 0.071,0.452 0.137,0.35 0.181,0.902 0.224,0.889 0.224,1.784 v 3.574 l -0.063,0.946 -0.144,1.088 -0.381,1.159 -0.152,0.726 -0.42,0.963 -0.363,0.973 -0.227,0.4 -0.056,0.238 -0.509,1.022 -0.215,0.309 -0.148,0.319 -0.647,1.009 -0.265,0.247 -0.304,0.513 -0.664,0.775 -0.625,0.851 -0.068,0.058 -0.062,0.112 -0.782,0.996 -0.191,0.155 -0.166,0.263 -0.845,0.915 -0.398,0.286 -0.275,0.353 -0.829,0.692 -0.381,0.221 -1.185,0.775 -0.268,0.125 -0.009,0.006 -1.109,0.806 -0.488,0.264 -0.358,0.26 -1.964,1.017 -0.012,0.002 -0.569,0.191 -2.312,0.382 h -0.701 v 0 l -1.552,-0.17 -0.679,-0.149 -0.446,-0.186 -0.439,-0.078 -0.631,-0.367 -0.693,-0.287 -0.367,-0.327 -0.403,-0.234 -0.432,-0.359 -0.233,-0.3 -0.655,-0.587 -0.752,-1.222 -0.027,-0.04 -0.202,-0.26 -0.013,-0.059 -0.819,-1.215 -0.562,-2.784 v -0.771 l 0.095,-1.166 0.16,-0.973 0.592,-1.647 0.093,-0.375 0.217,-0.415 0.203,-0.617 0.379,-0.722 0.077,-0.298 0.696,-1.244 2.064,-2.104 2.927,-0.802 2.206,0.44 1.81,1.2 0.083,0.12 0.38,-0.443 0.158,-0.245 0.151,-0.303 0.304,-0.816 0.101,-0.178 0.027,-0.128 0.031,-0.071 v -1.923 l -0.056,-0.222 -0.03,-0.24 -0.055,-0.142 -0.136,-0.673 -0.288,-0.908 -0.105,-0.669 -0.162,-0.474 -0.092,-0.611 -0.174,-0.446 -0.338,-0.785 -0.002,-0.008 -0.467,-1.064 -0.051,-0.242 -0.165,-0.308 -0.241,-0.685 -0.355,-0.58 -0.136,-0.305 -0.176,-0.257 -0.36,-0.718 -0.59,-0.963 -0.002,-0.005 -0.661,-1.056 -0.15,-0.333 -0.199,-0.289 -0.184,-0.366 -0.088,-0.096 -0.166,-0.264 -0.834,-1.128 -0.683,-1.241 -0.239,-0.382 -0.321,-0.349 -0.507,-0.807 -0.358,-0.352 -0.095,-0.157 -0.316,-0.435 -0.393,-0.31 -0.621,-0.759 -0.094,-0.164 -0.102,-0.086 -0.618,-0.823 -0.125,-0.234 -0.117,-0.108 -0.213,-0.319 -0.124,-0.113 -0.106,-0.145 -0.244,-0.196 -1.115,-1.533 -0.037,-0.037 -0.071,-0.105 -0.147,-0.123 -1.122,-1.631 -0.321,-0.638 -0.402,-0.745 -0.023,-0.091 -0.095,-0.138 -0.402,-0.801 -0.111,-0.463 -0.248,-0.54 -0.123,-0.211 -0.034,-0.078 -0.04,-0.049 -0.082,-0.239 -0.577,-1.354 -0.071,-0.523 -0.106,-0.306 -0.134,-0.871 -0.001,-0.009 -0.125,-0.742 -0.103,-1.218 v -4.555 l 0.19,-1.638 0.259,-1.108 0.188,-0.946 0.315,-0.799 0.117,-0.569 0.231,-0.543 0.235,-0.847 0.039,-0.084 0.013,-0.085 0.364,-1.172 0.331,-0.655 0.085,-0.359 0.509,-1.022 0.215,-0.309 0.147,-0.32 0.409,-0.637 0.351,-0.714 1.097,-1.602 0.101,-0.084 0.05,-0.077 0.338,-0.35 0.361,-0.585 0.214,-0.206 0.257,-0.457 0.736,-0.917 0.54,-0.43 0.431,-0.549 0.827,-0.679 h 10e-4 l 0.583,-0.487 0.557,-0.556 0.756,-0.51 0.376,-0.398 0.744,-0.475 0.005,-0.002 0.951,-0.612 1.067,-0.496 0.451,-0.235 0.063,-0.021 0.056,-0.035 0.051,-0.024 0.036,-0.031 0.261,-0.106 1.342,-0.617 0.299,-0.044 0.213,-0.086 0.938,-0.202 0.517,-0.056 0.201,-0.061 0.91,-0.099 0.807,-0.126 0.894,-0.071 0.049,-0.011 0.978,-0.013 0.094,-10e-4 z"
       fill-mode="evenodd" />
  </g>
  <g
     id="g450"
     transform="matrix(0.15,0,0,0.15,7.6152,3.722025)">
    <path
       style="fill:#000000"
       inkscape:connector-curvature="0"
       id="path444"
       d="m 1.928,-4.73 1.631,1.101 1.1,1.631 L 5.063,0 4.659,1.998 3.559,3.629 3.047,3.975 2.914,4.729 2.699,5.324 2.526,5.934 2.39,6.569 2.355,6.801 2.398,7.22 l 0.02,0.374 0.01,0.04 0.056,1.527 0.004,0.23 v 0.058 l -0.014,1.406 -0.003,0.012 -0.014,0.386 -0.099,1.315 v 1.446 l 0.124,1.802 0.002,0.062 0.003,0.009 0.138,2.275 0.17,2.223 0.008,0.188 0.005,0.023 0.122,2.643 v 0.019 l 10e-4,0.001 0.125,2.783 0.002,0.049 0.001,0.004 0.125,3.206 0.005,0.22 10e-4,0.005 0.024,3.291 v 0.05 3.644 l -0.002,0.133 -0.07,3.511 -10e-4,0.006 -0.002,0.1 -0.137,3.694 -0.031,3.487 0.118,3.918 0.003,0.218 -0.005,0.265 -0.151,3.942 -0.083,4.007 -0.001,0.002 v 0.044 l -0.117,4.145 -0.005,0.021 -0.008,0.243 -0.281,4.227 -0.016,0.061 -0.017,0.284 -0.463,3.905 -0.19,3.737 -0.032,3.843 -0.002,0.009 -0.009,0.34 -0.229,4.022 -0.004,0.015 -0.003,0.086 -0.271,3.681 0.052,3.797 0.001,0.11 -0.033,0.705 -0.399,4.308 v 0.001 l -0.339,3.864 -0.269,4.043 -0.207,4.414 -0.012,0.048 -0.016,0.326 -0.401,4.089 -0.199,4.241 -0.139,4.087 v 0 l -0.139,4.398 v 10e-4 l -0.001,0.012 -0.135,3.862 v 4.209 l -0.009,0.364 -0.208,4.376 -0.138,4.016 -0.001,0.001 -0.135,3.921 v 11.359 0.066 l -0.031,3.547 0.239,3.372 0.012,0.312 0.006,0.026 0.126,4.048 v 0.003 l 0.125,3.53 0.004,0.241 10e-4,0.004 0.023,3.219 0.133,3.132 0.008,0.364 v 3.034 l 0.131,2.805 v 0.006 l 0.138,2.687 0.005,0.215 0.004,0.014 0.07,2.722 0.002,0.22 -0.002,0.215 -0.065,2.443 0.064,2.29 0.003,0.238 v 12.965 l -0.005,0.302 -0.065,1.744 v 10.077 l -0.04,0.813 -0.143,1.436 -0.104,0.351 -0.097,0.782 -0.161,0.648 -0.052,0.423 -0.033,0.467 v 3.069 l -0.314,2.243 -0.155,0.549 -0.027,0.056 -0.01,0.067 -0.469,0.98 -0.067,0.423 -0.176,0.342 -0.055,0.27 -0.353,0.524 -0.562,1.095 -0.551,0.556 -0.283,0.42 -0.401,0.27 -0.514,0.519 -1.116,0.58 -0.564,0.381 -0.275,0.055 -0.089,0.047 -0.057,0.038 -0.028,0.006 -0.148,0.077 -0.363,0.123 -2.639,0.436 -3.178,-0.642 -2.595,-1.75 -1.749,-2.595 -0.642,-3.178 0.411,-2.565 0.176,-0.343 0.055,-0.269 0.353,-0.524 0.056,-0.11 v -1.444 l 0.021,-0.582 0.072,-1.008 0.02,-0.075 0.02,-0.329 0.145,-1.162 0.101,-0.316 0.075,-0.611 0.137,-0.549 0.04,-0.405 v -9.82 l 0.006,-0.302 0.064,-1.744 v -12.697 l -0.067,-2.398 -0.003,-0.239 0.003,-0.214 0.064,-2.452 -0.062,-2.418 -0.134,-2.606 -10e-4,-0.054 -0.001,-0.005 -0.14,-2.995 -0.009,-0.398 v -3.05 l -0.133,-3.103 -0.008,-0.364 10e-4,-0.058 0.023,-3.367 0.001,-0.004 0.004,-0.223 0.127,-3.574 0.12,-3.883 -0.017,-3.569 v -0.039 l 0.016,-0.497 0.231,-3.606 v -11.244 l 0.005,-0.264 0.14,-4.078 v 0 l 0.14,-4.065 0.002,-0.008 0.002,-0.079 0.202,-4.236 v -4.159 l 0.004,-0.269 0.141,-4.007 0.139,-4.389 v -0.001 -0.003 l 0.141,-4.148 0.002,-0.008 10e-4,-0.078 0.211,-4.503 0.012,-0.047 0.016,-0.326 0.402,-4.089 0.201,-4.297 0.004,-0.017 0.004,-0.117 0.282,-4.228 0.006,-0.023 0.005,-0.113 0.352,-4.024 0.006,-0.021 0.004,-0.072 0.422,-4.069 0.186,-3.923 0.023,-0.092 0.038,-0.554 0.542,-3.954 0.435,-3.678 0.232,-3.754 0.208,-4.093 0.016,-0.066 0.024,-0.396 0.469,-3.963 0.262,-3.922 0.16,-4.042 0.007,-0.032 0.011,-0.261 0.338,-4.08 0.006,-0.022 0.005,-0.084 0.381,-3.743 0.115,-3.819 0.004,-0.02 0.007,-0.215 0.241,-3.617 0.134,-3.627 0.068,-3.378 v -3.576 -0.048 l 0.023,-3.296 10e-4,-0.004 0.004,-0.205 0.127,-3.232 10e-4,-0.003 v -0.022 l 0.127,-2.812 v -0.001 l 0.118,-2.557 0.031,-1.979 -0.125,-2.061 v -0.003 l -0.137,-1.976 -0.015,-0.442 v -1.892 l 0.034,-0.65 0.166,-1.566 0.04,-0.132 0.033,-0.346 0.231,-1.208 0.163,-1.279 0.115,-1.111 0.167,-0.557 0.124,-0.729 0.263,-0.754 0.142,-0.665 0.059,-0.145 0.026,-0.185 0.29,-1.021 0.084,-0.176 0.029,-0.162 0.071,-0.198 0.017,-0.123 0.165,-0.503 0.103,-0.597 0.235,-0.426 0.126,-0.383 0.275,-0.343 0.244,-0.443 0.389,-0.494 0.466,-0.378 0.381,-0.479 0.523,-0.425 0.036,-0.03 0.158,-0.155 1.615,-1.064 0.11,-0.022 0.052,-0.041 0.385,-0.145 0.191,-0.129 1.998,-0.403 h 0.35 z"
       fill-mode="evenodd" />
    <g
       id="g448"
       transform="translate(-44.75,7.4375)">
      <path
         style="fill:#000000"
         inkscape:connector-curvature="0"
         id="path446"
         d="m 91.779,-24.127 0.683,0.085 h 1.514 l 0.945,0.063 1.088,0.144 0.133,0.043 0.288,0.029 0.329,0.065 0.067,0.006 h 0.513 v 0 l 0.648,0.03 0.45,0.04 h 0.584 l 1.176,0.098 0.259,0.043 h 0.317 l 1.229,0.121 0.232,-0.033 0.579,-0.106 1.324,-0.123 h 0.514 l 0.422,-0.038 0.676,-0.032 h 0.02 l 0.075,-0.017 0.695,-0.081 0.268,-0.078 0.831,-0.082 0.236,-0.011 0.039,-0.011 0.339,-0.021 0.335,-0.051 1.016,-0.08 2.516,0.508 2.055,1.385 1.385,2.055 0.508,2.516 -0.416,2.287 -0.069,0.116 -0.023,0.113 -0.371,0.551 -0.677,1.14 -0.448,0.522 -0.221,0.168 -0.172,0.252 -0.461,0.451 -0.861,0.571 -0.392,0.403 -0.707,0.431 -1.768,0.782 -0.22,0.03 -0.152,0.064 -0.862,0.201 -1.657,0.193 h -0.515 l -0.421,0.038 -0.676,0.032 h -0.19 l -0.098,0.017 -0.223,0.021 -0.089,0.03 -0.942,0.135 -1.051,0.077 h -0.911 l -1.403,-0.139 -0.006,-0.001 H 99.862 L 98.686,-9.273 98.427,-9.315 H 98.11 l -0.647,-0.03 -0.451,-0.04 h -0.514 l -0.647,-0.03 -0.8,-0.072 -0.187,-0.054 -0.539,-0.053 -0.484,-0.096 -0.343,-0.046 h -1.485 v 0 l -0.887,-0.055 -0.683,-0.085 h -4.849 l -1.495,0.1 -0.495,0.016 -0.514,-0.018 -1.208,-0.087 -1.341,0.109 -0.5,0.021 -0.014,0.003 -1.568,0.015 -1.764,0.151 v 0 l -2.002,0.2 -0.454,0.024 -0.04,0.009 -2.298,0.067 -2.372,0.132 -2.513,0.194 -2.687,0.328 -0.082,0.005 -0.022,0.007 -3.122,0.347 -0.133,0.008 -0.03,0.009 -2.829,0.257 -2.995,0.511 -0.015,0.001 H 55.1 l -3.184,0.555 -0.031,0.003 -0.009,0.003 -3.183,0.555 -0.248,0.022 -0.09,0.029 -3.157,0.403 -2.982,0.52 -3.184,0.664 -0.193,0.021 -0.091,0.033 -3.254,0.555 -0.047,0.004 -0.016,0.005 -3.28,0.548 -2.84,0.573 -0.041,0.004 -0.015,0.006 -2.828,0.564 -2.304,0.537 -0.058,0.007 -0.029,0.012 -2.228,0.503 -0.356,0.041 -0.169,0.057 -1.988,0.286 -1.645,0.354 -1.7,0.442 -0.006,0.001 -1.63,0.458 L 13.806,0.369 13.503,0.471 12.166,0.667 11.11,0.976 10.504,1.064 10.147,1.179 8.611,1.375 7.459,1.618 7.263,1.639 7.17,1.672 5.978,1.869 5.052,2.127 V 2.128 L 4.504,2.297 3.957,2.526 3.568,2.605 3.473,2.775 3.266,2.961 3.144,3.144 2.825,3.358 2.392,3.748 2.008,3.909 1.73,4.096 1.406,4.162 1.002,4.331 0.7,4.402 0.091,4.473 -0.077,4.516 -0.339,4.532 -0.631,4.541 -2.113,4.298 -2.285,4.207 -2.426,4.179 -2.733,3.972 -2.831,3.92 -2.871,3.912 -2.957,3.854 -3.383,3.63 -3.581,3.483 -3.742,3.433 -3.923,3.203 -4.414,2.872 -5.454,1.329 -5.473,1.236 -5.509,1.19 -5.615,0.919 -5.722,0.353 l -0.194,-0.589 -0.052,-0.377 -0.05,-0.718 0.401,-1.988 0.293,-0.435 0.081,-0.283 0.186,-0.299 0.249,-0.236 0.31,-0.496 0.401,-0.44 0.448,-0.324 0.291,-0.347 0.333,-0.25 0.453,-0.369 0.157,-0.089 0.142,-0.14 0.745,-0.366 0.59,-0.336 0.146,-0.025 0.136,-0.068 0.502,-0.154 0.542,-0.226 0.248,-0.051 0.299,-0.148 0.871,-0.269 0.107,-0.016 0.082,-0.039 1.204,-0.335 1.136,-0.358 1.115,-0.44 0.3,-0.058 0.334,-0.155 1.211,-0.334 0.901,-0.429 0.515,-0.118 1.104,-0.402 1.447,-0.252 1.405,-0.395 0.094,-0.013 0.064,-0.028 1.849,-0.481 0.183,-0.024 0.114,-0.046 1.915,-0.412 1.771,-0.433 1.889,-0.642 0.024,-0.004 0.014,-0.007 2.366,-0.806 0.175,-0.03 0.155,-0.074 2.791,-0.81 0.283,-0.041 0.201,-0.081 2.964,-0.646 0.243,-0.027 0.12,-0.042 3.324,-0.555 0.016,-0.002 h 10e-4 l 3.198,-0.545 3.176,-0.663 0.176,-0.019 0.084,-0.031 3.183,-0.554 0.248,-0.022 0.09,-0.029 3.158,-0.404 3.022,-0.526 0.031,-0.003 0.009,-0.003 3.183,-0.555 0.048,-0.004 0.016,-0.006 3.254,-0.555 0.429,-0.037 0.124,-0.036 3.037,-0.276 3.038,-0.338 0.007,-0.001 2.793,-0.341 0.27,-0.017 0.058,-0.015 2.71,-0.209 0.144,-0.006 0.02,-0.005 2.505,-0.139 0.177,-0.005 0.014,-0.004 2.149,-0.063 1.577,-0.158 1.675,-0.321 0.242,-0.024 0.102,-0.034 1.576,-0.229 1.578,-0.343 0.79,-0.086 0.233,-0.063 1.68,-0.122 1.633,-0.153 0.696,-0.033 h 5.536 z"
         fill-mode="evenodd" />
    </g>
  </g>
</svg>
